<?xml version="1.0" encoding="UTF-8"?>
<svg id="Layer_1" data-name="Layer 1" xmlns="http://www.w3.org/2000/svg" viewBox="0 0 924.69 324.88">
  <defs>
    <style>
      .cls-1 {
        fill: #303338;
      }

      .cls-1, .cls-2, .cls-3, .cls-4, .cls-5, .cls-6, .cls-7, .cls-8, .cls-9, .cls-10, .cls-11, .cls-12, .cls-13, .cls-14, .cls-15, .cls-16, .cls-17, .cls-18 {
        stroke-width: 0px;
      }

      .cls-2 {
        fill: #c94aff;
      }

      .cls-3, .cls-4 {
        fill: #2667f0;
      }

      .cls-3, .cls-9, .cls-11, .cls-13, .cls-15 {
        opacity: .5;
      }

      .cls-6 {
        fill: #A30000;
      }

      .cls-7, .cls-15 {
        fill: #00c79a;
      }

      .cls-8, .cls-9 {
        fill: #ff0;
      }

      .cls-10 {
        fill: #fff;
      }

      .cls-11, .cls-17 {
        fill: #a9a9a9;
      }

      .cls-12 {
        fill: #35fcff;
      }

      .cls-13, .cls-16 {
        fill: #ef4337;
      }

      .cls-14 {
        fill: #ffea00;
      }

      .cls-18 {
        fill: #7367f0;
      }

      .cls-19 {
        fill: none;
        stroke: #a9a9a9;
        stroke-miterlimit: 10;
        stroke-width: 5px;
      }
    </style>
  </defs>
  <rect class="cls-11" x="198.25" y="61.47" width="244.42" height="178.01" rx="26.08" ry="26.08" transform="translate(31 -53.36) rotate(10)"/>
  <rect class="cls-11" x="482.43" y="70.49" width="281.21" height="208.28" rx="26.08" ry="26.08" transform="translate(39.79 -105.54) rotate(10)"/>
  <rect class="cls-1" x="515.6" y="82.75" width="250" height="166.87" rx="20" ry="20"/>
  <line class="cls-19" x1="653.67" y1="176.14" x2="562.98" y2="207.84"/>
  <line class="cls-19" x1="595.93" y1="121.38" x2="644.9" y2="156.23"/>
  <line class="cls-19" x1="602.98" y1="111.42" x2="544.09" y2="144.98"/>
  <line class="cls-19" x1="653.67" y1="106.38" x2="657.56" y2="151.25"/>
  <line class="cls-19" x1="735.32" y1="116.31" x2="667.35" y2="161.21"/>
  <line class="cls-19" x1="714.58" y1="207.84" x2="643.67" y2="166.25"/>
  <line class="cls-19" x1="637.4" y1="223.06" x2="722.65" y2="226.09"/>
  <rect class="cls-1" x="214.67" y="81.55" width="250" height="166.87" rx="20" ry="20"/>
  <rect class="cls-7" x="229.6" y="96.49" width="66.86" height="9.96" rx="4.98" ry="4.98"/>
  <rect class="cls-10" x="300.53" y="96.49" width="124.83" height="9.96" rx="4.98" ry="4.98"/>
  <rect class="cls-14" x="296.65" y="126.36" width="134.94" height="9.96" rx="4.98" ry="4.98"/>
  <rect class="cls-10" x="256.55" y="126.36" width="34.73" height="9.96" rx="4.98" ry="4.98"/>
  <rect class="cls-18" x="239.95" y="111.42" width="97.9" height="9.96" rx="4.98" ry="4.98"/>
  <rect class="cls-17" x="344.07" y="111.42" width="40.07" height="9.96" rx="4.98" ry="4.98"/>
  <rect class="cls-4" x="325.21" y="141.29" width="71.91" height="9.96" rx="4.98" ry="4.98"/>
  <rect class="cls-17" x="239.95" y="141.29" width="80.14" height="9.96" rx="4.98" ry="4.98"/>
  <rect class="cls-6" x="229.6" y="156.23" width="59.52" height="9.96" rx="4.98" ry="4.98"/>
  <rect class="cls-10" x="294.49" y="156.23" width="50.72" height="9.96" rx="4.98" ry="4.98"/>
  <rect class="cls-10" x="239.95" y="171.16" width="93.87" height="9.96" rx="4.98" ry="4.98"/>
  <rect class="cls-17" x="337.85" y="171.16" width="86.34" height="9.96" rx="4.98" ry="4.98"/>
  <rect class="cls-7" x="278.55" y="186.1" width="95.24" height="9.96" rx="4.98" ry="4.98"/>
  <rect class="cls-10" x="229.6" y="186.1" width="43.17" height="9.96" rx="4.98" ry="4.98"/>
  <g>
    <rect class="cls-14" x="396.59" y="195.48" width="100" height="97.7" rx="48.85" ry="48.85"/>
    <rect class="cls-10" x="404.09" y="202.81" width="85" height="83.04" rx="41.52" ry="41.52"/>
    <rect class="cls-1" x="442.18" y="207.27" width="8.81" height="41.37" rx="4.4" ry="4.4"/>
    <rect class="cls-1" x="442.18" y="240.03" width="33.83" height="8.61" rx="4.3" ry="4.3"/>
  </g>
  <circle class="cls-7" cx="547.98" cy="151.25" r="15"/>
  <circle class="cls-8" cx="602.98" cy="116.31" r="20"/>
  <circle class="cls-16" cx="632.4" cy="226.09" r="12.5"/>
  <circle class="cls-10" cx="655.61" cy="167.86" r="20"/>
  <circle class="cls-4" cx="653.67" cy="106.38" r="10"/>
  <circle class="cls-18" cx="557.98" cy="207.84" r="25"/>
  <circle class="cls-12" cx="737.65" cy="111.42" r="15"/>
  <circle class="cls-2" cx="722.65" cy="216.4" r="20"/>
  <rect class="cls-15" x="0" y="32.76" width="49.99" height="49.99" rx="25" ry="25"/>
  <rect class="cls-15" x="804.68" y="131.23" width="49.99" height="49.99" rx="25" ry="25"/>
  <rect class="cls-3" x="329.07" y="266.38" width="30" height="30" rx="15" ry="15"/>
  <rect class="cls-3" x="894.69" y="239.37" width="30" height="30" rx="15" ry="15"/>
  <rect class="cls-13" x="533.13" y="284.88" width="40" height="40" rx="20" ry="20"/>
  <rect class="cls-9" x="899.69" y="52.75" width="20" height="20" rx="10" ry="10"/>
  <rect class="cls-13" x="118.74" y="176.99" width="30" height="30" rx="15" ry="15"/>
  <rect class="cls-9" x="14.99" y="251.38" width="30" height="30" rx="15" ry="15"/>
  <g>
    <path class="cls-10" d="m559.73,61.79c.9,3.02,1.55,6.53,1.55,10.44,0,2.98-.38,5.72-.95,8.16-1.1-.07-2.2-.15-3.3-.22.49-2.37.77-5.05.61-8-.21-3.94-1.17-7.42-2.33-10.33,1.47-.02,2.94-.03,4.42-.05Z"/>
    <rect class="cls-10" x="551.47" y="78.03" width="8.87" height="4.72" rx="2.36" ry="2.36" transform="translate(1111.8 160.78) rotate(-180)"/>
    <path class="cls-10" d="m540.65,60.81c.18,2.63.24,5.38.15,8.23-.13,3.99-.54,7.77-1.15,11.33-1.44,0-2.88.01-4.33.02.7-1.86,1.27-3.9,1.62-6.08.83-5.26.11-9.91-1.09-13.69,1.6.06,3.2.13,4.8.19Z"/>
    <rect class="cls-10" x="530.93" y="78.03" width="8.83" height="4.72" rx="2.36" ry="2.36" transform="translate(1070.7 160.78) rotate(180)"/>
    <path class="cls-10" d="m565.69,17.13h31.4v20c0,14.23-11.55,25.79-25.79,25.79h-11.4c-11.04,0-20-8.96-20-20h0c0-14.23,11.55-25.79,25.79-25.79Z" transform="translate(1137 80.05) rotate(180)"/>
    <rect class="cls-10" x="534" y="0" width="42.64" height="34.84" rx="17.42" ry="17.42" transform="translate(1110.63 34.84) rotate(180)"/>
    <path class="cls-10" d="m511.08,9.15h4.21c17.38,0,31.49,14.11,31.49,31.49v6.58c0,8.67-7.04,15.7-15.7,15.7h0c-14.19,0-25.7-11.52-25.7-25.7V14.85c0-3.15,2.56-5.7,5.7-5.7Z" transform="translate(1052.15 72.07) rotate(180)"/>
    <rect class="cls-5" x="554.13" y="45.86" width="6" height="3.3" rx="1.65" ry="1.65" transform="translate(1114.26 95.03) rotate(-180)"/>
    <rect class="cls-5" x="539.09" y="49.83" width="13.83" height="5.91" rx="2.95" ry="2.95" transform="translate(1092.02 105.57) rotate(-180)"/>
    <rect class="cls-5" x="532.32" y="45.86" width="6" height="3.3" rx="1.65" ry="1.65" transform="translate(1070.63 95.03) rotate(180)"/>
  </g>
</svg>