<?xml version="1.0" encoding="UTF-8"?>
<svg id="Layer_1" data-name="Layer 1" xmlns="http://www.w3.org/2000/svg" viewBox="0 0 238.29 165.89">
  <defs>
    <style>
      .cls-1 {
        fill: #303338;
      }

      .cls-1, .cls-2, .cls-3, .cls-4, .cls-5, .cls-6, .cls-7, .cls-8, .cls-9, .cls-10, .cls-11, .cls-12 {
        stroke-width: 0px;
      }

      .cls-2 {
        fill: #14191f;
      }

      .cls-13, .cls-7 {
        fill: #00c79a;
      }

      .cls-13, .cls-14 {
        stroke: #a9a9a9;
        stroke-miterlimit: 10;
        stroke-width: 4px;
      }

      .cls-3 {
        opacity: .2;
      }

      .cls-3, .cls-6 {
        fill: #A30000;
      }

      .cls-4 {
        fill: #2667f0;
      }

      .cls-8 {
        fill: #fff;
      }

      .cls-9 {
        fill: #ffea00;
      }

      .cls-14, .cls-15 {
        fill: none;
      }

      .cls-10 {
        fill: #a9a9a9;
      }

      .cls-11 {
        fill: #7367f0;
      }

      .cls-12 {
        fill: #1f2428;
      }

      .cls-15 {
        stroke: #000;
        stroke-linecap: round;
        stroke-miterlimit: 11.34;
        stroke-width: .7px;
      }
    </style>
  </defs>
  <rect class="cls-7" x="0" y="42.49" width="66.86" height="25.5" rx="4.98" ry="4.98"/>
  <line class="cls-13" x1="230.79" y1="12.5" x2="230.79" y2="152.5"/>
  <rect class="cls-10" x="70.93" y="58.03" width="48.34" height="9.96" rx="4.98" ry="4.98"/>
  <rect class="cls-10" x="43.46" y="87.9" width="70" height="9.96" rx="4.98" ry="4.98"/>
  <rect class="cls-11" x="56.38" y="72.97" width="73.44" height="9.96" rx="4.98" ry="4.98"/>
  <rect class="cls-10" x="11.43" y="72.97" width="40.07" height="9.96" rx="4.98" ry="4.98"/>
  <rect class="cls-6" x="97.78" y="102.84" width="66.37" height="28.4" rx="4.98" ry="4.98"/>
  <rect class="cls-10" x="32.12" y="102.84" width="60.54" height="40" rx="4.98" ry="4.98"/>
  <g>
    <rect class="cls-2" x="138.27" y="115.26" width="40" height="40" rx="10" ry="10"/>
    <rect class="cls-3" x="138.26" y="115.26" width="40" height="40" rx="10" ry="10"/>
    <path class="cls-6" d="m158.26,147.26c6.63,0,12-5.37,12-12s-5.37-12-12-12-12,5.37-12,12,5.37,12,12,12Zm-3.8-15.8c.44-.44,1.15-.44,1.59,0l2.2,2.2,2.2-2.2c.44-.44,1.15-.44,1.59,0s.44,1.15,0,1.59l-2.2,2.2,2.2,2.2c.44.44.44,1.15,0,1.59s-1.15.44-1.59,0l-2.2-2.2-2.2,2.2c-.44.44-1.15.44-1.59,0s-.44-1.15,0-1.59l2.2-2.2-2.2-2.2c-.44-.44-.44-1.15,0-1.59Z"/>
  </g>
  <rect class="cls-4" x="134.66" y="51.22" width="60" height="31.71" rx="4.98" ry="4.98"/>
  <rect class="cls-9" x="117.6" y="87.9" width="85" height="9.96" rx="4.98" ry="4.98"/>
  <rect class="cls-7" x="223.29" y="5" width="15" height="15" rx="7.5" ry="7.5"/>
  <rect class="cls-4" x="223.29" y="150.89" width="15" height="15" rx="7.5" ry="7.5"/>
  <path class="cls-14" d="m202.6,62.93c2.83-.2,10.5-1.11,17.48-7,9.72-8.19,10.59-19.68,10.71-21.79"/>
  <path class="cls-14" d="m213.19,90.58c2.31-.71,7.42-2.61,11.66-7.56,6.22-7.24,6.04-15.69,5.95-17.7"/>
  <rect class="cls-1" x="28.5" y="0" width="87" height="50" rx="7.7" ry="7.7"/>
  <rect class="cls-7" x="34.95" y="6.95" width="10" height="10" rx="5" ry="5"/>
  <rect class="cls-11" x="197.6" y="57.93" width="10" height="10" rx="5" ry="5"/>
  <rect class="cls-6" x="208.19" y="85.33" width="10" height="10" rx="5" ry="5"/>
  <rect class="cls-12" x="48.09" y="6.95" width="62" height="5.78" rx="2.89" ry="2.89"/>
  <rect class="cls-12" x="48.09" y="15.16" width="36" height="5.78" rx="2.89" ry="2.89"/>
  <rect class="cls-8" x="48.09" y="28.19" width="47" height="5.78" rx="2.89" ry="2.89"/>
  <rect class="cls-10" x="48.09" y="36.41" width="27" height="5.78" rx="2.89" ry="2.89"/>
  <g>
    <ellipse id="path1-5-0" class="cls-8" cx="105.01" cy="67.49" rx="8.44" ry="6.26"/>
    <path id="path8" class="cls-5" d="m109.19,76.79s.38,1.96.45,2.96c.08,1.14-.32,2.75-.32,2.75h-1.03s.3-1.96.26-2.94c-.04-.94-.49-2.77-.49-2.77h1.13Z"/>
    <path id="rect9" class="cls-5" d="m108.54,81.68h-1.17c-.47,0-.85.31-.85.69h0c0,.38.38.69.85.69h1.17c.47,0,.85-.31.85-.69h0c0-.38-.38-.69-.85-.69Z"/>
    <path id="path8-7" class="cls-5" d="m102.75,76.54s.44,1.87.53,2.87c.1,1.14-.38,2.84-.38,2.84h-1.31s.67-1.91.62-2.9c-.05-.99-.91-2.82-.91-2.82h1.44Z"/>
    <path id="rect9-6" class="cls-5" d="m102.13,81.61h-1.13c-.45,0-.82.31-.82.69h0c0,.38.37.69.82.69h1.13c.45,0,.82-.31.82-.69h0c0-.38-.37-.69-.82-.69Z"/>
    <circle id="path1" class="cls-8" cx="111.57" cy="71.41" r="6.26"/>
    <ellipse id="path1-5" class="cls-8" cx="101.27" cy="71.73" rx="8.44" ry="6.26"/>
    <ellipse id="path2" class="cls-5" cx="107.1" cy="71.85" rx=".78" ry=".44"/>
    <ellipse id="path2-6" class="cls-5" cx="101.92" cy="71.8" rx=".78" ry=".44"/>
    <path id="path3" class="cls-15" d="m105.19,73.22c-.36.77-1.26.86-1.61-.01"/>
  </g>
</svg>