<?xml version="1.0" encoding="UTF-8"?>
<svg id="Layer_1" data-name="Layer 1" xmlns="http://www.w3.org/2000/svg" viewBox="0 0 909.2 928.29">
  <defs>
    <style>
      .cls-1 {
        fill: rgba(237, 68, 55, .99);
      }

      .cls-2 {
        fill: #14191f;
      }

      .cls-3, .cls-4 {
        fill: #fff;
      }

      .cls-5 {
        opacity: .5;
      }

      .cls-5, .cls-6 {
        fill: #aaa;
      }

      .cls-7 {
        fill: #303438;
      }

      .cls-8 {
        fill: #202529;
      }

      .cls-9 {
        isolation: isolate;
      }

      .cls-10 {
        fill: #1f2428;
      }

      .cls-11 {
        fill: #38ba96;
      }

      .cls-12 {
        fill: #231f20;
      }

      .cls-12, .cls-13, .cls-14 {
        stroke: #231f20;
        stroke-miterlimit: 10;
      }

      .cls-15 {
        fill: #ed4438;
      }

      .cls-4 {
        font-family: Poppins-Medium, Poppins;
        font-size: 20px;
        font-weight: 500;
      }

      .cls-16 {
        fill: #39ba96;
      }

      .cls-13 {
        fill: #faaf43;
        stroke-width: 2px;
      }

      .cls-17 {
        fill: rgba(237, 68, 55, .6);
      }

      .cls-18 {
        fill: #6967af;
      }

      .cls-19 {
        fill: #303338;
      }

      .cls-20 {
        fill: rgba(56, 186, 150, .6);
      }

      .cls-14 {
        fill: none;
        stroke-linecap: round;
        stroke-width: 2.5px;
      }
    </style>
  </defs>
  <rect class="cls-5" x="564.44" y="828.28" width="100" height="100" rx="50" ry="50" transform="translate(-113.5 1665.05) rotate(-102.25)"/>
  <rect class="cls-5" x="827.97" y="705.07" width="50" height="50" rx="25" ry="25" transform="translate(320.47 1718.51) rotate(-102.25)"/>
  <rect class="cls-5" x="656.33" y="72.24" width="50" height="50" rx="25" ry="25" transform="translate(730.85 783.69) rotate(-102.25)"/>
  <rect class="cls-5" x="20.49" y="730.24" width="100" height="100" rx="50" ry="50" transform="translate(-677.03 1014.65) rotate(-102.25)"/>
  <rect class="cls-5" x="420.44" y=".01" width="100" height="100" rx="50" ry="50" transform="translate(521.37 520.36) rotate(-102.25)"/>
  <rect class="cls-5" x="809.19" y="241.74" width="100" height="100" rx="50" ry="50" transform="translate(756.36 1193.26) rotate(-102.25)"/>
  <rect class="cls-5" x="258.87" y="873.59" width="50" height="50" rx="25" ry="25" transform="translate(-534.06 1366.63) rotate(-102.25)"/>
  <rect class="cls-5" x="0" y="561.55" width="50" height="50" rx="25" ry="25" transform="translate(-542.89 735.42) rotate(-102.25)"/>
  <rect class="cls-5" x="62.55" y="170.7" width="50" height="50" rx="25" ry="25" transform="translate(-85.12 322.78) rotate(-102.25)"/>
  <rect class="cls-5" x="405.9" y="454.56" width="385.05" height="346.42" rx="60" ry="60" transform="translate(394.06 -215.11) rotate(30)"/>
  <rect class="cls-5" x="147.46" y="145.87" width="545.95" height="345.16" rx="60" ry="60" transform="translate(215.55 -167.55) rotate(30)"/>
  <rect class="cls-2" x="133.13" y="132.93" width="645.62" height="684.65" rx="40" ry="40"/>
  <rect class="cls-10" x="159.32" y="215.05" width="593.24" height="207.55" rx="20" ry="20"/>
  <rect class="cls-11" x="388.32" y="440.34" width="368.43" height="128.48" rx="20" ry="20"/>
  <rect class="cls-6" x="165" y="160.56" width="35.14" height="35.14" rx="10" ry="10"/>
  <g>
    <path class="cls-3" d="m226.69,167.88c1.67.85,2.96,2.07,3.87,3.66.91,1.59,1.36,3.45,1.36,5.56s-.46,3.96-1.36,5.52c-.91,1.56-2.2,2.75-3.87,3.58-1.67.83-3.62,1.25-5.83,1.25h-6.81v-20.85h6.81c2.22,0,4.16.43,5.83,1.28Zm-.23,14.8c1.3-1.32,1.95-3.18,1.95-5.58s-.65-4.31-1.95-5.67c-1.3-1.36-3.17-2.04-5.61-2.04h-3.39v15.27h3.39c2.44,0,4.31-.66,5.61-1.98Z"/>
    <path class="cls-3" d="m235.21,174.7c.69-1.28,1.63-2.28,2.82-2.99s2.51-1.06,3.95-1.06c1.3,0,2.43.25,3.4.76.97.51,1.74,1.15,2.33,1.91v-2.4h3.45v16.53h-3.45v-2.46c-.58.78-1.37,1.43-2.37,1.95-1,.52-2.14.78-3.42.78-1.42,0-2.72-.36-3.9-1.09-1.18-.73-2.12-1.75-2.81-3.06-.69-1.31-1.04-2.79-1.04-4.46s.35-3.13,1.04-4.41Zm11.79,1.5c-.47-.84-1.09-1.48-1.85-1.92-.76-.44-1.58-.66-2.46-.66s-1.7.21-2.46.64c-.76.43-1.38,1.06-1.84,1.89-.47.83-.71,1.81-.71,2.96s.23,2.14.71,3c.47.86,1.09,1.51,1.86,1.96.77.45,1.58.67,2.44.67s1.7-.22,2.46-.66c.76-.44,1.38-1.08,1.85-1.93.47-.85.71-1.85.71-2.99s-.24-2.13-.71-2.97Z"/>
    <path class="cls-3" d="m258.16,187.02c-1.03-.47-1.84-1.11-2.44-1.92-.6-.81-.92-1.71-.96-2.71h3.54c.06.7.39,1.29,1,1.75.61.47,1.38.71,2.29.71s1.71-.18,2.23-.55.8-.84.8-1.42c0-.62-.3-1.08-.89-1.38-.59-.3-1.53-.63-2.81-.99-1.24-.34-2.25-.67-3.03-.99-.78-.32-1.46-.81-2.02-1.47-.57-.66-.85-1.53-.85-2.61,0-.88.26-1.68.78-2.42.52-.73,1.26-1.3,2.23-1.72s2.09-.63,3.35-.63c1.88,0,3.39.47,4.54,1.42,1.15.95,1.77,2.25,1.85,3.88h-3.42c-.06-.74-.36-1.33-.9-1.77-.54-.44-1.27-.66-2.19-.66s-1.59.17-2.07.51-.72.79-.72,1.35c0,.44.16.81.48,1.11s.71.54,1.17.71c.46.17,1.14.38,2.04.64,1.2.32,2.19.65,2.96.98s1.44.81,2,1.46c.56.64.85,1.49.87,2.55,0,.94-.26,1.78-.78,2.52-.52.74-1.25,1.32-2.2,1.74-.95.42-2.07.63-3.35.63s-2.47-.24-3.5-.71Z"/>
    <path class="cls-3" d="m283.6,171.46c.99.54,1.77,1.34,2.34,2.4.57,1.06.85,2.34.85,3.84v9.75h-3.39v-9.24c0-1.48-.37-2.61-1.11-3.41-.74-.79-1.75-1.18-3.03-1.18s-2.29.39-3.04,1.18c-.75.79-1.12,1.93-1.12,3.41v9.24h-3.42v-22.2h3.42v7.59c.58-.7,1.31-1.24,2.21-1.62.89-.38,1.86-.57,2.92-.57,1.26,0,2.39.27,3.38.81Z"/>
    <path class="cls-3" d="m296.95,171.42c1.01-.51,2.13-.76,3.38-.76,1.46,0,2.78.35,3.96,1.05,1.18.7,2.11,1.69,2.79,2.98.68,1.29,1.02,2.77,1.02,4.43s-.34,3.14-1.02,4.46c-.68,1.31-1.62,2.33-2.81,3.06-1.19.73-2.5,1.09-3.94,1.09-1.28,0-2.42-.25-3.41-.75-.99-.5-1.77-1.14-2.35-1.92v2.4h-3.42v-22.2h3.42v8.13c.58-.8,1.38-1.46,2.39-1.96Zm6.96,4.74c-.47-.83-1.09-1.46-1.86-1.89-.77-.43-1.59-.64-2.47-.64s-1.68.22-2.45.66c-.77.44-1.39,1.08-1.86,1.92-.47.84-.71,1.83-.71,2.97s.23,2.13.71,2.99c.47.85,1.09,1.5,1.86,1.93.77.44,1.58.66,2.45.66s1.7-.22,2.47-.67,1.39-1.11,1.86-1.96c.47-.86.71-1.86.71-3s-.24-2.12-.71-2.96Z"/>
    <path class="cls-3" d="m314.43,186.66c-1.26-.71-2.25-1.71-2.97-3-.72-1.29-1.08-2.79-1.08-4.49s.37-3.17,1.11-4.47c.74-1.3,1.75-2.3,3.03-3s2.71-1.05,4.29-1.05,3.01.35,4.29,1.05,2.29,1.7,3.03,3c.74,1.3,1.11,2.79,1.11,4.47s-.38,3.17-1.14,4.47c-.76,1.3-1.8,2.31-3.1,3.02-1.31.71-2.76,1.06-4.33,1.06s-2.97-.35-4.23-1.06Zm6.71-2.54c.77-.42,1.4-1.05,1.88-1.89.48-.84.72-1.86.72-3.06s-.23-2.21-.69-3.04-1.07-1.46-1.83-1.88c-.76-.42-1.58-.63-2.46-.63s-1.69.21-2.44.63-1.35,1.04-1.79,1.88-.66,1.84-.66,3.04c0,1.78.45,3.16,1.36,4.12.91.97,2.06,1.46,3.44,1.46.88,0,1.71-.21,2.48-.63Z"/>
    <path class="cls-3" d="m330.52,174.7c.69-1.28,1.63-2.28,2.82-2.99s2.51-1.06,3.95-1.06c1.3,0,2.43.25,3.4.76.97.51,1.74,1.15,2.33,1.91v-2.4h3.45v16.53h-3.45v-2.46c-.58.78-1.37,1.43-2.37,1.95-1,.52-2.14.78-3.42.78-1.42,0-2.72-.36-3.9-1.09-1.18-.73-2.12-1.75-2.81-3.06-.69-1.31-1.04-2.79-1.04-4.46s.35-3.13,1.04-4.41Zm11.79,1.5c-.47-.84-1.09-1.48-1.85-1.92-.76-.44-1.58-.66-2.46-.66s-1.7.21-2.46.64c-.76.43-1.38,1.06-1.84,1.89-.47.83-.71,1.81-.71,2.96s.23,2.14.71,3c.47.86,1.09,1.51,1.86,1.96.77.45,1.58.67,2.44.67s1.7-.22,2.46-.66c.76-.44,1.38-1.08,1.85-1.93.47-.85.71-1.85.71-2.99s-.24-2.13-.71-2.97Z"/>
    <path class="cls-3" d="m356.38,171.36c.83-.47,1.81-.7,2.96-.7v3.54h-.87c-1.34,0-2.35.34-3.04,1.02s-1.04,1.86-1.04,3.54v8.7h-3.42v-16.53h3.42v2.4c.5-.84,1.17-1.5,2-1.97Z"/>
    <path class="cls-3" d="m362.38,174.7c.69-1.28,1.63-2.28,2.82-2.99s2.52-1.06,3.98-1.06c1.08,0,2.15.24,3.19.7,1.05.47,1.89,1.1,2.51,1.88v-7.98h3.45v22.2h-3.45v-2.49c-.56.8-1.33,1.46-2.33,1.98-.99.52-2.13.78-3.4.78-1.44,0-2.76-.36-3.95-1.09-1.19-.73-2.13-1.75-2.82-3.06-.69-1.31-1.04-2.79-1.04-4.46s.35-3.13,1.04-4.41Zm11.79,1.5c-.47-.84-1.09-1.48-1.85-1.92-.76-.44-1.58-.66-2.46-.66s-1.7.21-2.46.64c-.76.43-1.38,1.06-1.84,1.89-.47.83-.71,1.81-.71,2.96s.23,2.14.71,3c.47.86,1.09,1.51,1.86,1.96.77.45,1.58.67,2.44.67s1.7-.22,2.46-.66c.76-.44,1.38-1.08,1.85-1.93.47-.85.71-1.85.71-2.99s-.24-2.13-.71-2.97Z"/>
  </g>
  <path class="cls-19" d="m138.15,586.55h281.1c22.08,0,40,17.92,40,40v212.04c0,19.32-15.68,35-35,35H138.15c-22.08,0-40-17.92-40-40v-207.04c0-22.08,17.92-40,40-40Z"/>
  <path id="rect953-6" class="cls-20" d="m141.65,710.59c3.91.24,6.88,3.59,6.65,7.5h0v75.35c0,4.14-3.36,7.5-7.5,7.5-3.91-.24-6.88-3.59-6.65-7.5v-75.35c0-4.14,3.36-7.5,7.5-7.5h0Z"/>
  <path id="rect953-6-1" class="cls-17" d="m158.66,659.2c3.91.24,6.88,3.59,6.65,7.5h0v126.73c0,4.14-3.36,7.5-7.5,7.5-3.91-.24-6.88-3.59-6.65-7.5v-126.73c0-4.14,3.36-7.5,7.5-7.5h0Z"/>
  <path id="rect953-6-8" class="cls-16" d="m184.17,690.17c3.91.24,6.88,3.59,6.65,7.5h0v95.77c0,4.14-3.36,7.5-7.5,7.5-3.91-.24-6.88-3.59-6.65-7.5v-95.77c0-4.14,3.36-7.5,7.5-7.5h0Z"/>
  <path id="rect953-6-1-0" class="cls-15" d="m201.18,731.98c3.91.24,6.88,3.59,6.65,7.5v53.96c0,4.14-3.36,7.5-7.5,7.5h0c-3.91-.24-6.88-3.59-6.65-7.5v-53.96c0-4.14,3.36-7.5,7.5-7.5h0Z"/>
  <path id="rect953-6-8-4" class="cls-16" d="m226.69,743.57c3.91.24,6.88,3.59,6.65,7.5v42.36c0,4.14-3.36,7.5-7.5,7.5h0c-3.91-.24-6.88-3.59-6.65-7.5,0,0,0,0,0,0v-42.36c0-4.14,3.36-7.5,7.5-7.5h0Z"/>
  <path id="rect953-6-1-0-4" class="cls-15" d="m243.7,684.86c3.91.24,6.88,3.59,6.65,7.5h0v101.08c0,4.14-3.36,7.5-7.5,7.5h0c-3.91-.24-6.88-3.59-6.65-7.5v-101.08c0-4.14,3.36-7.5,7.5-7.5h0Z"/>
  <path id="rect953-6-8-4-8" class="cls-20" d="m269.21,642.52c3.91.24,6.88,3.59,6.65,7.5h0v143.41c0,4.14-3.36,7.5-7.5,7.5-3.91-.24-6.88-3.59-6.65-7.5v-143.41c0-4.14,3.36-7.5,7.5-7.5h0Z"/>
  <path id="rect953-6-1-0-4-6" class="cls-17" d="m286.21,718.89c3.91.24,6.88,3.59,6.65,7.5h0v67.05c0,4.14-3.36,7.5-7.5,7.5h0c-3.91-.24-6.88-3.59-6.65-7.5v-67.05c0-4.14,3.36-7.5,7.5-7.5,0,0,0,0,0,0h0Z"/>
  <path id="rect953-6-8-4-8-8" class="cls-20" d="m311.73,726.29c3.91.24,6.88,3.59,6.65,7.5v59.64c0,4.14-3.36,7.5-7.5,7.5-3.91-.24-6.88-3.59-6.65-7.5v-59.64c0-4.14,3.36-7.5,7.5-7.5h0Z"/>
  <path id="rect953-6-1-0-4-6-1" class="cls-17" d="m328.73,706.85c3.91.24,6.88,3.59,6.65,7.5h0v79.09c0,4.14-3.36,7.5-7.5,7.5h0c-3.91-.24-6.88-3.59-6.65-7.5v-79.09c0-4.14,3.36-7.5,7.5-7.5,0,0,0,0,0,0Z"/>
  <path id="rect953-6-8-4-8-8-3" class="cls-11" d="m354.25,687.55c3.91.24,6.88,3.59,6.65,7.5h0v98.39c0,4.14-3.36,7.5-7.5,7.5h0c-3.91-.24-6.88-3.59-6.65-7.5v-98.39c0-4.14,3.36-7.5,7.5-7.5h0Z"/>
  <path id="rect953-6-1-0-4-6-1-8" class="cls-1" d="m371.25,722.55c3.91.24,6.88,3.59,6.65,7.5v63.38c0,4.14-3.36,7.5-7.5,7.5-3.91-.24-6.88-3.59-6.65-7.5v-63.38c0-4.14,3.36-7.5,7.5-7.5h0Z"/>
  <path id="rect953-6-8-4-8-8-3-2" class="cls-11" d="m396.77,740.95c3.91.24,6.88,3.59,6.65,7.5v44.98c0,4.14-3.36,7.5-7.5,7.5-3.91-.24-6.88-3.59-6.65-7.5v-44.98c0-4.14,3.36-7.5,7.5-7.5h0Z"/>
  <path id="rect953-6-1-0-4-6-1-8-6" class="cls-1" d="m413.77,666.53c3.91.24,6.88,3.59,6.65,7.5h0v119.4c0,4.14-3.36,7.5-7.5,7.5h0c-3.91-.24-6.88-3.59-6.65-7.5h0v-119.4c0-4.14,3.36-7.5,7.5-7.5Z"/>
  <path id="rect953-5" class="cls-16" d="m141.64,821.11h41.69c4.14,0,7.5,3.36,7.5,7.5v7.68c0,4.14-3.36,7.5-7.5,7.5h-41.69c-4.14,0-7.5-3.36-7.5-7.5v-7.68c0-4.14,3.36-7.5,7.5-7.5Z"/>
  <path id="rect953-5-6" class="cls-8" d="m204,821.11h41.69c4.14,0,7.5,3.36,7.5,7.5v7.68c0,4.14-3.36,7.5-7.5,7.5h-41.69c-4.14,0-7.5-3.36-7.5-7.5v-7.68c0-4.14,3.36-7.5,7.5-7.5Z"/>
  <path id="rect953-5-6-4" class="cls-8" d="m266.36,821.11h41.69c4.14,0,7.5,3.36,7.5,7.5v7.68c0,4.14-3.36,7.5-7.5,7.5h-41.69c-4.14,0-7.5-3.36-7.5-7.5v-7.68c0-4.14,3.36-7.5,7.5-7.5Z"/>
  <path id="rect953-5-6-3" class="cls-8" d="m328.72,821.11h41.69c4.14,0,7.5,3.36,7.5,7.5v7.68c0,4.14-3.36,7.5-7.5,7.5h-41.69c-4.14,0-7.5-3.36-7.5-7.5,0,0,0,0,0,0v-7.68c0-4.14,3.36-7.5,7.5-7.5h0Z"/>
  <g id="text991" class="cls-9">
    <g class="cls-9">
      <path class="cls-3" d="m135.77,625.31c-.55-.25-.97-.58-1.28-1.02-.31-.43-.47-.94-.48-1.51h1.46c.05.49.25.9.61,1.24s.87.5,1.55.5,1.16-.16,1.54-.49c.38-.32.56-.74.56-1.25,0-.4-.11-.73-.33-.98-.22-.25-.5-.44-.83-.57s-.77-.27-1.33-.42c-.69-.18-1.24-.36-1.66-.54-.42-.18-.77-.46-1.06-.85s-.44-.9-.44-1.55c0-.57.15-1.08.44-1.51.29-.44.7-.78,1.22-1.02.53-.24,1.13-.36,1.81-.36.98,0,1.78.25,2.41.73.62.49.98,1.14,1.06,1.95h-1.5c-.05-.4-.26-.75-.63-1.06-.37-.3-.86-.46-1.47-.46-.57,0-1.04.15-1.4.44s-.54.71-.54,1.24c0,.38.11.69.32.93.22.24.48.42.8.55.31.12.76.27,1.33.43.69.19,1.25.38,1.67.56.42.18.78.47,1.08.85.3.39.45.91.45,1.57,0,.51-.14.99-.41,1.44s-.67.82-1.2,1.09c-.53.28-1.16.42-1.88.42s-1.31-.12-1.85-.37Z"/>
      <path class="cls-3" d="m150.56,621.97h-6.57c.05.81.33,1.44.83,1.9.5.46,1.12.68,1.84.68.59,0,1.08-.14,1.48-.41s.67-.64.83-1.1h1.47c-.22.79-.66,1.43-1.32,1.93s-1.48.74-2.46.74c-.78,0-1.48-.17-2.09-.53-.62-.35-1.1-.85-1.45-1.49-.35-.64-.52-1.39-.52-2.24s.17-1.59.51-2.24c.34-.64.82-1.13,1.43-1.48.62-.34,1.32-.52,2.12-.52s1.47.17,2.07.51c.6.34,1.06.81,1.39,1.4.32.59.49,1.27.49,2.02,0,.26-.01.53-.04.82Zm-1.71-2.45c-.23-.38-.54-.66-.94-.86-.4-.19-.83-.29-1.31-.29-.69,0-1.28.22-1.76.66-.49.44-.76,1.05-.83,1.83h5.19c0-.52-.12-.97-.35-1.34Z"/>
      <path class="cls-3" d="m154.8,617.59c.44-.26.99-.39,1.63-.39v1.41h-.36c-1.53,0-2.29.83-2.29,2.49v4.47h-1.37v-8.22h1.37v1.34c.24-.47.58-.83,1.03-1.1Z"/>
      <path class="cls-3" d="m161.06,624.31l2.55-6.96h1.46l-3.23,8.22h-1.59l-3.22-8.22h1.47l2.56,6.96Z"/>
      <path class="cls-3" d="m173.87,621.97h-6.57c.05.81.33,1.44.83,1.9.5.46,1.12.68,1.84.68.59,0,1.08-.14,1.48-.41s.67-.64.83-1.1h1.47c-.22.79-.66,1.43-1.32,1.93s-1.48.74-2.46.74c-.78,0-1.48-.17-2.09-.53-.62-.35-1.1-.85-1.45-1.49-.35-.64-.52-1.39-.52-2.24s.17-1.59.51-2.24c.34-.64.82-1.13,1.43-1.48.62-.34,1.32-.52,2.12-.52s1.47.17,2.07.51c.6.34,1.06.81,1.39,1.4.32.59.49,1.27.49,2.02,0,.26-.01.53-.04.82Zm-1.71-2.45c-.23-.38-.54-.66-.94-.86-.4-.19-.83-.29-1.31-.29-.69,0-1.28.22-1.76.66-.49.44-.76,1.05-.83,1.83h5.19c0-.52-.12-.97-.35-1.34Z"/>
      <path class="cls-3" d="m178.11,617.59c.44-.26.99-.39,1.63-.39v1.41h-.36c-1.53,0-2.29.83-2.29,2.49v4.47h-1.37v-8.22h1.37v1.34c.24-.47.58-.83,1.03-1.1Z"/>
      <path class="cls-3" d="m186.65,615.12v6.62c0,.93.23,1.62.68,2.07s1.09.67,1.9.67,1.43-.22,1.88-.67c.45-.45.68-1.14.68-2.07v-6.62h1.37v6.6c0,.87-.18,1.6-.52,2.2-.35.6-.82,1.04-1.42,1.33-.6.29-1.26.43-2,.43s-1.41-.14-2-.43c-.6-.29-1.07-.73-1.41-1.33-.35-.59-.52-1.33-.52-2.2v-6.6h1.37Z"/>
      <path class="cls-3" d="m198.01,617.69c.53-.31,1.16-.47,1.87-.47s1.39.18,1.99.53c.59.35,1.06.84,1.4,1.48s.51,1.37.51,2.21-.17,1.57-.51,2.22c-.34.65-.81,1.15-1.4,1.51-.6.36-1.26.54-1.99.54s-1.32-.16-1.85-.47c-.54-.31-.94-.71-1.22-1.18v5.42h-1.37v-12.12h1.37v1.52c.27-.47.67-.86,1.21-1.18Zm4,2.12c-.25-.46-.59-.81-1.01-1.05-.43-.24-.89-.36-1.4-.36s-.96.12-1.39.37c-.42.25-.76.6-1.02,1.07-.25.46-.38,1-.38,1.61s.13,1.16.38,1.63c.26.46.6.82,1.02,1.07.43.25.89.37,1.39.37s.98-.12,1.4-.37c.42-.25.76-.6,1.01-1.07.25-.46.38-1.01.38-1.64s-.13-1.16-.38-1.62Z"/>
      <path class="cls-3" d="m207.25,618.48v4.85c0,.4.08.68.26.85.17.17.46.25.88.25h1v1.16h-1.23c-.76,0-1.33-.17-1.71-.53-.38-.35-.57-.92-.57-1.72v-4.85h-1.06v-1.12h1.06v-2.07h1.36v2.07h2.15v1.12h-2.15Z"/>
      <path class="cls-3" d="m211.09,615.75c-.18-.18-.27-.4-.27-.66s.09-.48.27-.66c.18-.18.4-.27.66-.27s.46.09.64.27c.17.18.26.4.26.66s-.09.48-.26.66c-.18.18-.39.27-.64.27s-.48-.09-.66-.27Zm1.32,1.6v8.22h-1.37v-8.22h1.37Z"/>
      <path class="cls-3" d="m226.33,617.6c.5.26.9.66,1.19,1.19s.44,1.17.44,1.93v4.85h-1.35v-4.65c0-.82-.2-1.45-.61-1.88-.41-.43-.95-.65-1.64-.65s-1.27.23-1.69.68c-.42.46-.63,1.11-.63,1.97v4.53h-1.35v-4.65c0-.82-.2-1.45-.61-1.88-.4-.43-.95-.65-1.64-.65s-1.28.23-1.7.68-.63,1.11-.63,1.97v4.53h-1.37v-8.22h1.37v1.19c.27-.43.63-.76,1.09-.99.46-.23.96-.34,1.51-.34.69,0,1.3.16,1.83.46.53.31.92.76,1.19,1.37.23-.58.61-1.03,1.14-1.35.53-.32,1.12-.48,1.77-.48s1.21.13,1.71.4Z"/>
      <path class="cls-3" d="m237.64,621.97h-6.57c.05.81.33,1.44.83,1.9.5.46,1.12.68,1.84.68.59,0,1.08-.14,1.48-.41s.67-.64.83-1.1h1.47c-.22.79-.66,1.43-1.32,1.93s-1.48.74-2.46.74c-.78,0-1.48-.17-2.09-.53-.62-.35-1.1-.85-1.45-1.49-.35-.64-.52-1.39-.52-2.24s.17-1.59.51-2.24c.34-.64.82-1.13,1.43-1.48.62-.34,1.32-.52,2.12-.52s1.47.17,2.07.51c.6.34,1.06.81,1.39,1.4.32.59.49,1.27.49,2.02,0,.26-.01.53-.04.82Zm-1.71-2.45c-.23-.38-.54-.66-.94-.86-.4-.19-.83-.29-1.31-.29-.69,0-1.28.22-1.76.66-.49.44-.76,1.05-.83,1.83h5.19c0-.52-.12-.97-.35-1.34Z"/>
    </g>
  </g>
  <rect class="cls-10" x="477.75" y="586.19" width="281.11" height="209.47" rx="20" ry="20"/>
  <rect class="cls-19" x="488.66" y="661.96" width="259.28" height="59.09" rx="7.78" ry="7.78"/>
  <rect class="cls-2" x="502.1" y="736.08" width="86.49" height="14.71" rx="7.36" ry="7.36"/>
  <rect class="cls-2" x="502.1" y="756.87" width="54.64" height="14.71" rx="7.36" ry="7.36"/>
  <rect class="cls-2" x="629.85" y="736.08" width="103.24" height="14.71" rx="7.36" ry="7.36"/>
  <rect class="cls-2" x="678.46" y="756.87" width="54.64" height="14.71" rx="7.36" ry="7.36"/>
  <g>
    <path class="cls-3" d="m502.58,603.57v10.42h-1.71v-4.56h-4.91v4.56h-1.71v-10.42h1.71v4.47h4.91v-4.47h1.71Z"/>
    <path class="cls-3" d="m504.92,604.32c-.21-.21-.32-.47-.32-.78s.11-.57.32-.78.47-.32.78-.32.55.11.76.32.32.47.32.78-.11.57-.32.78-.46.32-.76.32-.57-.11-.78-.32Zm1.62,1.41v8.26h-1.71v-8.26h1.71Z"/>
    <path class="cls-3" d="m510.04,613.78c-.51-.24-.92-.56-1.22-.96-.3-.4-.46-.86-.48-1.36h1.77c.03.35.2.64.5.88s.69.35,1.15.35.85-.09,1.12-.28c.27-.19.4-.42.4-.71,0-.31-.15-.54-.44-.69-.29-.15-.76-.32-1.4-.5-.62-.17-1.12-.33-1.51-.5-.39-.16-.73-.41-1.01-.74s-.43-.76-.43-1.3c0-.44.13-.84.39-1.21.26-.36.63-.65,1.12-.86.48-.21,1.04-.31,1.67-.31.94,0,1.7.24,2.27.71.57.48.88,1.12.92,1.94h-1.71c-.03-.37-.18-.67-.45-.88-.27-.22-.63-.33-1.09-.33s-.79.08-1.04.25c-.24.17-.36.4-.36.68,0,.22.08.4.24.55.16.15.36.27.58.35.23.08.57.19,1.02.32.6.16,1.09.32,1.48.49s.72.41,1,.73c.28.32.42.75.44,1.28,0,.47-.13.89-.39,1.26-.26.37-.63.66-1.1.87-.47.21-1.03.31-1.67.31s-1.23-.12-1.75-.35Z"/>
    <path class="cls-3" d="m518.8,607.13v4.58c0,.31.07.53.22.67.15.13.39.2.74.2h1.05v1.42h-1.35c-.77,0-1.36-.18-1.77-.54-.41-.36-.62-.94-.62-1.75v-4.58h-.97v-1.39h.97v-2.05h1.73v2.05h2.01v1.39h-2.01Z"/>
    <path class="cls-3" d="m523.85,613.6c-.63-.35-1.12-.85-1.49-1.5-.36-.64-.54-1.39-.54-2.24s.19-1.58.56-2.24c.37-.65.88-1.15,1.51-1.5.64-.35,1.36-.52,2.15-.52s1.5.17,2.14.52c.64.35,1.14.85,1.51,1.5.37.65.56,1.4.56,2.24s-.19,1.58-.57,2.24c-.38.65-.9,1.15-1.55,1.51-.65.36-1.38.53-2.17.53s-1.49-.18-2.12-.53Zm3.35-1.27c.38-.21.7-.52.94-.94s.36-.93.36-1.53-.12-1.11-.35-1.52c-.23-.42-.54-.73-.92-.94s-.79-.32-1.23-.32-.85.11-1.22.32-.67.52-.89.94-.33.92-.33,1.52c0,.89.23,1.58.68,2.06s1.03.73,1.72.73c.44,0,.85-.11,1.24-.32Z"/>
    <path class="cls-3" d="m534.66,605.95c.42-.24.91-.35,1.48-.35v1.77h-.44c-.67,0-1.18.17-1.52.51-.34.34-.52.93-.52,1.77v4.35h-1.71v-8.26h1.71v1.2c.25-.42.58-.75,1-.98Z"/>
    <path class="cls-3" d="m545.15,605.73l-5.07,12.15h-1.77l1.68-4.02-3.25-8.13h1.91l2.32,6.3,2.42-6.3h1.77Z"/>
  </g>
  <rect class="cls-10" x="620.47" y="364.23" width="86.49" height="14.71" rx="7.36" ry="7.36"/>
  <rect class="cls-10" x="639.72" y="384.21" width="48" height="14.71" rx="7.36" ry="7.36"/>
  <rect class="cls-2" x="483.72" y="364.23" width="86.49" height="14.71" rx="7.36" ry="7.36"/>
  <rect class="cls-2" x="502.97" y="384.21" width="48" height="14.71" rx="7.36" ry="7.36"/>
  <rect class="cls-2" x="346.98" y="364.23" width="86.49" height="14.71" rx="7.36" ry="7.36"/>
  <rect class="cls-2" x="366.22" y="384.21" width="48" height="14.71" rx="7.36" ry="7.36"/>
  <rect class="cls-10" x="204.37" y="361.6" width="86.49" height="14.71" rx="7.36" ry="7.36"/>
  <rect class="cls-10" x="223.61" y="381.58" width="48" height="14.71" rx="7.36" ry="7.36"/>
  <rect class="cls-2" x="476.68" y="241.45" width="100.58" height="100.58" rx="50.29" ry="50.29"/>
  <rect class="cls-10" x="197.32" y="241.45" width="100.58" height="100.58" rx="50.29" ry="50.29"/>
  <rect class="cls-2" x="339.93" y="241.45" width="100.58" height="100.58" rx="50.29" ry="50.29"/>
  <rect class="cls-2" x="613.43" y="241.45" width="100.58" height="100.58" rx="50.29" ry="50.29"/>
  <rect class="cls-19" x="610.85" y="276.07" width="231.32" height="245.72" rx="40" ry="40"/>
  <circle id="path4106" class="cls-8" cx="726.51" cy="380.81" r="70.87"/>
  <circle id="path4106-0" class="cls-15" cx="726.51" cy="380.81" r="68.03"/>
  <circle id="path4106-0-1" class="cls-8" cx="726.51" cy="380.81" r="62.36"/>
  <circle id="path4106-0-1-9" class="cls-7" cx="726.51" cy="380.81" r="59.53"/>
  <g>
    <path class="cls-3" d="m683.63,466.97c-.25.47-.65.85-1.2,1.15s-1.25.44-2.12.44h-1.89v4.23h-1.71v-10.42h3.6c.8,0,1.48.14,2.03.41.56.28.97.65,1.25,1.12.28.47.41,1,.41,1.58,0,.53-.12,1.03-.38,1.5Zm-1.86-.25c.32-.29.48-.71.48-1.25,0-1.14-.65-1.71-1.94-1.71h-1.89v3.4h1.89c.65,0,1.13-.15,1.46-.44Z"/>
    <path class="cls-3" d="m687.35,461.69v11.1h-1.71v-11.1h1.71Z"/>
    <path class="cls-3" d="m689.55,466.41c.34-.64.81-1.14,1.41-1.49.59-.35,1.25-.53,1.97-.53.65,0,1.22.13,1.7.38s.87.57,1.16.95v-1.2h1.73v8.27h-1.73v-1.23c-.29.39-.68.71-1.18.98-.5.26-1.07.39-1.71.39-.71,0-1.36-.18-1.95-.55-.59-.36-1.06-.88-1.4-1.53s-.52-1.4-.52-2.23.17-1.56.52-2.21Zm5.89.75c-.23-.42-.54-.74-.92-.96-.38-.22-.79-.33-1.23-.33s-.85.11-1.23.32c-.38.21-.69.53-.92.94s-.35.91-.35,1.48.12,1.07.35,1.5c.24.43.54.76.93.98.39.23.79.34,1.22.34s.85-.11,1.23-.33c.38-.22.69-.54.92-.97.24-.42.35-.92.35-1.49s-.12-1.06-.35-1.48Z"/>
    <path class="cls-3" d="m705.69,464.79c.52.27.92.67,1.21,1.2.29.53.43,1.17.43,1.92v4.88h-1.69v-4.62c0-.74-.19-1.31-.56-1.7s-.88-.59-1.51-.59-1.15.2-1.52.59-.56.96-.56,1.7v4.62h-1.71v-8.27h1.71v.95c.28-.34.64-.6,1.07-.8.43-.19.9-.28,1.39-.28.65,0,1.23.13,1.75.4Z"/>
    <path class="cls-3" d="m719.73,463c.83.43,1.48,1.04,1.93,1.83s.68,1.72.68,2.78-.23,1.98-.68,2.76c-.46.78-1.1,1.38-1.93,1.79-.83.42-1.81.62-2.92.62h-3.4v-10.42h3.4c1.11,0,2.08.21,2.92.64Zm-.11,7.4c.65-.66.97-1.59.97-2.79s-.33-2.16-.97-2.83c-.65-.68-1.58-1.02-2.81-1.02h-1.69v7.63h1.69c1.22,0,2.16-.33,2.81-.99Z"/>
    <path class="cls-3" d="m731.53,464.52v8.27h-1.71v-.98c-.27.34-.62.61-1.06.8-.43.19-.9.29-1.39.29-.65,0-1.23-.14-1.75-.41-.51-.27-.92-.67-1.21-1.2-.29-.53-.44-1.17-.44-1.92v-4.86h1.7v4.6c0,.74.18,1.31.55,1.7s.88.59,1.51.59,1.15-.2,1.52-.59.56-.96.56-1.7v-4.6h1.71Z"/>
    <path class="cls-3" d="m736.48,464.74c.42-.23.91-.35,1.48-.35v1.77h-.44c-.67,0-1.18.17-1.52.51-.34.34-.52.93-.52,1.77v4.35h-1.71v-8.27h1.71v1.2c.25-.42.58-.75,1-.98Z"/>
    <path class="cls-3" d="m739.48,466.41c.35-.64.82-1.14,1.41-1.49.59-.35,1.25-.53,1.97-.53.65,0,1.22.13,1.7.38.48.25.87.57,1.16.95v-1.2h1.72v8.27h-1.72v-1.23c-.29.39-.69.71-1.19.98-.5.26-1.07.39-1.71.39-.71,0-1.36-.18-1.95-.55-.59-.36-1.06-.88-1.4-1.53-.34-.65-.52-1.4-.52-2.23s.17-1.56.52-2.21Zm5.9.75c-.24-.42-.54-.74-.92-.96-.38-.22-.79-.33-1.23-.33s-.85.11-1.23.32c-.38.21-.69.53-.92.94-.24.42-.35.91-.35,1.48s.12,1.07.35,1.5c.23.43.54.76.93.98s.79.34,1.22.34.85-.11,1.23-.33c.38-.22.69-.54.92-.97.23-.42.35-.92.35-1.49s-.12-1.06-.35-1.48Z"/>
    <path class="cls-3" d="m751.7,465.92v4.58c0,.31.07.53.22.67.14.13.39.2.74.2h1.05v1.42h-1.35c-.77,0-1.36-.18-1.77-.54s-.61-.94-.61-1.75v-4.58h-.98v-1.4h.98v-2.05h1.72v2.05h2.01v1.4h-2.01Z"/>
    <path class="cls-3" d="m755.38,463.11c-.21-.21-.31-.47-.31-.78s.1-.57.31-.78.47-.31.78-.31.55.1.76.31c.21.21.32.47.32.78s-.1.57-.32.78c-.21.21-.46.31-.76.31s-.57-.1-.78-.31Zm1.62,1.41v8.27h-1.71v-8.27h1.71Z"/>
    <path class="cls-3" d="m760.72,472.39c-.63-.35-1.12-.85-1.49-1.5s-.54-1.39-.54-2.24.18-1.58.55-2.23c.37-.65.88-1.15,1.52-1.5.64-.35,1.35-.52,2.14-.52s1.5.17,2.15.52c.64.35,1.14.85,1.51,1.5.37.65.55,1.4.55,2.23s-.19,1.59-.57,2.24c-.38.65-.9,1.15-1.55,1.51-.66.35-1.38.53-2.17.53s-1.48-.18-2.11-.53Zm3.35-1.27c.39-.21.7-.52.94-.94.24-.42.36-.93.36-1.53s-.12-1.11-.34-1.52c-.23-.41-.54-.73-.92-.94s-.79-.31-1.23-.31-.85.1-1.22.31-.67.52-.89.94c-.22.42-.33.92-.33,1.52,0,.89.23,1.58.68,2.06.45.49,1.03.73,1.72.73.44,0,.85-.1,1.24-.31Z"/>
    <path class="cls-3" d="m774.73,464.79c.52.27.92.67,1.21,1.2.29.53.43,1.17.43,1.92v4.88h-1.69v-4.62c0-.74-.19-1.31-.56-1.7s-.88-.59-1.51-.59-1.15.2-1.52.59-.56.96-.56,1.7v4.62h-1.71v-8.27h1.71v.95c.28-.34.64-.6,1.07-.8.43-.19.9-.28,1.39-.28.65,0,1.23.13,1.75.4Z"/>
  </g>
  <g>
    <path class="cls-6" d="m684.29,481.43v-1h2.26v8.68h-1.1v-7.68h-1.15Z"/>
    <path class="cls-6" d="m689.09,481.46c.45-.77,1.23-1.16,2.35-1.16s1.89.39,2.34,1.16.67,1.85.67,3.22-.22,2.49-.67,3.26c-.45.78-1.23,1.16-2.34,1.16s-1.9-.39-2.35-1.16c-.45-.78-.67-1.86-.67-3.26s.22-2.45.67-3.22Zm4.15,1.45c-.09-.48-.28-.87-.56-1.17-.28-.3-.69-.44-1.23-.44s-.96.15-1.24.44c-.28.3-.47.69-.56,1.17-.09.48-.14,1.07-.14,1.77s.05,1.32.14,1.81c.09.49.28.88.56,1.18s.7.44,1.24.44.95-.15,1.23-.44c.28-.3.47-.69.56-1.18.09-.49.14-1.09.14-1.81s-.05-1.29-.14-1.77Z"/>
    <path class="cls-6" d="m696.63,481.46c.45-.77,1.23-1.16,2.35-1.16s1.89.39,2.34,1.16.67,1.85.67,3.22-.22,2.49-.67,3.26c-.45.78-1.23,1.16-2.34,1.16s-1.9-.39-2.35-1.16c-.45-.78-.67-1.86-.67-3.26s.22-2.45.67-3.22Zm4.15,1.45c-.09-.48-.28-.87-.56-1.17-.28-.3-.69-.44-1.23-.44s-.96.15-1.24.44c-.28.3-.47.69-.56,1.17-.09.48-.14,1.07-.14,1.77s.05,1.32.14,1.81c.09.49.28.88.56,1.18s.7.44,1.24.44.95-.15,1.23-.44c.28-.3.47-.69.56-1.18.09-.49.14-1.09.14-1.81s-.05-1.29-.14-1.77Z"/>
    <path class="cls-6" d="m704.17,481.46c.45-.77,1.23-1.16,2.35-1.16s1.89.39,2.34,1.16.67,1.85.67,3.22-.22,2.49-.67,3.26c-.45.78-1.23,1.16-2.34,1.16s-1.9-.39-2.35-1.16c-.45-.78-.67-1.86-.67-3.26s.22-2.45.67-3.22Zm4.15,1.45c-.09-.48-.28-.87-.56-1.17-.28-.3-.69-.44-1.23-.44s-.96.15-1.24.44c-.28.3-.47.69-.56,1.17-.09.48-.14,1.07-.14,1.77s.05,1.32.14,1.81c.09.49.28.88.56,1.18s.7.44,1.24.44.95-.15,1.23-.44c.28-.3.47-.69.56-1.18.09-.49.14-1.09.14-1.81s-.05-1.29-.14-1.77Z"/>
    <path class="cls-6" d="m719.02,482.73c.4.21.71.53.94.95.23.42.34.94.34,1.55v3.88h-1.08v-3.72c0-.66-.16-1.16-.49-1.51-.33-.35-.78-.52-1.34-.52s-1.03.18-1.37.54-.51.88-.51,1.57v3.64h-1.09v-8.88h1.09v3.24c.22-.34.51-.6.89-.78.38-.18.81-.28,1.28-.28.5,0,.94.11,1.34.32Z"/>
    <path class="cls-6" d="m723.29,488.79c-.5-.28-.89-.68-1.18-1.19-.28-.52-.43-1.11-.43-1.79s.15-1.27.44-1.78.69-.91,1.19-1.19,1.07-.41,1.69-.41,1.19.14,1.69.41.9.67,1.19,1.18c.29.51.44,1.11.44,1.79s-.15,1.28-.45,1.79c-.3.52-.71.91-1.22,1.19-.51.28-1.08.42-1.7.42s-1.17-.14-1.67-.42Zm2.78-.82c.34-.18.62-.46.83-.83.21-.37.32-.82.32-1.34s-.1-.98-.31-1.34c-.21-.37-.48-.64-.82-.82-.34-.18-.7-.27-1.09-.27s-.77.09-1.1.27c-.33.18-.6.45-.8.82-.2.37-.3.82-.3,1.34s.1.99.29,1.36c.2.37.46.64.79.82.33.18.69.27,1.08.27s.76-.09,1.1-.28Z"/>
    <path class="cls-6" d="m735.61,482.53v6.58h-1.09v-.97c-.21.34-.5.6-.87.79s-.78.28-1.23.28c-.51,0-.97-.11-1.38-.32-.41-.21-.73-.53-.97-.95-.24-.42-.35-.94-.35-1.55v-3.85h1.08v3.71c0,.65.16,1.15.49,1.49s.78.52,1.34.52,1.04-.18,1.38-.54.5-.88.5-1.57v-3.61h1.09Z"/>
    <path class="cls-6" d="m739.37,482.72c.36-.21.79-.31,1.3-.31v1.13h-.29c-1.22,0-1.84.66-1.84,1.99v3.58h-1.09v-6.58h1.09v1.07c.19-.38.47-.67.82-.88Z"/>
    <path class="cls-6" d="m742.9,488.96c-.4-.17-.72-.41-.95-.72-.23-.31-.36-.66-.38-1.06h1.13c.03.33.19.6.46.8.28.21.64.31,1.09.31.42,0,.74-.09.98-.28s.36-.42.36-.7-.13-.5-.38-.64c-.26-.14-.65-.28-1.19-.41-.49-.13-.89-.26-1.19-.39-.31-.13-.57-.33-.79-.59-.22-.26-.33-.6-.33-1.03,0-.34.1-.64.3-.92.2-.28.48-.5.85-.67s.79-.25,1.26-.25c.73,0,1.32.18,1.76.55.45.37.69.87.72,1.51h-1.09c-.02-.34-.16-.62-.41-.83-.25-.21-.59-.31-1.01-.31-.39,0-.7.08-.94.25s-.35.39-.35.66c0,.22.07.39.21.53.14.14.32.25.53.34s.51.18.88.28c.47.13.86.25,1.15.38s.55.31.76.56.32.57.33.97c0,.36-.1.68-.3.97s-.48.51-.85.68c-.36.16-.78.25-1.25.25-.5,0-.96-.09-1.36-.26Z"/>
    <path class="cls-6" d="m752.49,480.23v8.88h-1.09v-8.88h1.09Z"/>
    <path class="cls-6" d="m760.31,486.23h-5.26c.04.65.26,1.15.67,1.52.4.36.89.55,1.47.55.47,0,.87-.11,1.18-.33.32-.22.54-.51.67-.88h1.18c-.18.63-.53,1.15-1.06,1.54s-1.18.59-1.97.59c-.62,0-1.18-.14-1.67-.42-.49-.28-.88-.68-1.16-1.19-.28-.52-.42-1.11-.42-1.79s.14-1.28.41-1.79c.27-.51.65-.91,1.15-1.18s1.06-.41,1.7-.41,1.18.14,1.66.41c.48.27.85.65,1.11,1.12s.39,1.01.39,1.61c0,.21-.01.43-.04.66Zm-1.37-1.96c-.18-.3-.43-.53-.75-.68-.32-.16-.67-.23-1.05-.23-.55,0-1.02.18-1.41.53-.39.35-.61.84-.67,1.46h4.15c0-.42-.09-.77-.28-1.07Z"/>
    <path class="cls-6" d="m764.47,483.43h-1.38v5.68h-1.09v-5.68h-.85v-.9h.85v-.47c0-.74.19-1.27.57-1.61.38-.34.99-.51,1.83-.51v.91c-.48,0-.82.09-1.01.28s-.29.5-.29.93v.47h1.38v.9Z"/>
    <path class="cls-6" d="m767.07,483.43v3.88c0,.32.07.55.2.68s.37.2.71.2h.8v.92h-.98c-.61,0-1.06-.14-1.37-.42-.3-.28-.46-.74-.46-1.38v-3.88h-.85v-.9h.85v-1.66h1.09v1.66h1.72v.9h-1.72Z"/>
  </g>
  <g>
    <path class="cls-3" d="m708.99,376.98v-1.56h3.12v10.94h-1.72v-9.38h-1.4Z"/>
    <path class="cls-3" d="m715.34,376.69c.58-.98,1.59-1.46,3.02-1.46s2.44.49,3.02,1.46c.59.98.88,2.33.88,4.06s-.29,3.12-.88,4.1c-.58.98-1.59,1.48-3.02,1.48s-2.44-.49-3.02-1.48-.88-2.35-.88-4.1.29-3.08.88-4.06Zm5.08,2c-.1-.56-.32-1.02-.64-1.37-.32-.35-.79-.53-1.43-.53s-1.1.18-1.42.53-.53.81-.64,1.37c-.1.56-.16,1.25-.16,2.06s.05,1.54.15,2.11c.1.57.31,1.03.64,1.38.32.35.8.53,1.43.53s1.11-.17,1.43-.53c.33-.35.54-.81.64-1.38.1-.57.15-1.27.15-2.11s-.05-1.5-.16-2.06Z"/>
    <path class="cls-3" d="m724.96,376.69c.58-.98,1.59-1.46,3.02-1.46s2.44.49,3.02,1.46.88,2.33.88,4.06-.29,3.12-.88,4.1-1.59,1.48-3.02,1.48-2.44-.49-3.02-1.48-.88-2.35-.88-4.1.29-3.08.88-4.06Zm5.08,2c-.11-.56-.32-1.02-.64-1.37s-.79-.53-1.42-.53-1.11.18-1.42.53c-.32.35-.53.81-.64,1.37-.11.56-.16,1.25-.16,2.06s.05,1.54.15,2.11c.1.57.31,1.03.64,1.38.33.35.8.53,1.43.53s1.11-.17,1.43-.53c.32-.35.54-.81.64-1.38.1-.57.15-1.27.15-2.11s-.05-1.5-.16-2.06Z"/>
    <path class="cls-3" d="m734.06,376.34c.42-.41.97-.62,1.64-.62s1.22.21,1.64.62c.42.42.64.99.64,1.72s-.21,1.3-.64,1.73c-.42.42-.97.63-1.64.63s-1.22-.21-1.64-.63c-.42-.42-.64-1-.64-1.73s.21-1.3.64-1.72Zm.7,1.72c0,.88.32,1.32.95,1.32.3,0,.53-.11.7-.32s.25-.55.25-1c0-.87-.32-1.31-.95-1.31s-.95.44-.95,1.31Zm7.82-2.15l-5.99,10.44h-1.68l5.99-10.44h1.68Zm-2.41,6.56c.42-.42.97-.62,1.64-.62s1.2.21,1.63.62.64.99.64,1.72-.21,1.31-.64,1.73-.97.63-1.63.63-1.22-.21-1.64-.63c-.43-.42-.64-.99-.64-1.73s.21-1.3.64-1.72Zm.68,1.72c0,.87.31,1.31.94,1.31s.95-.44.95-1.31-.32-1.3-.95-1.3-.94.44-.94,1.3Z"/>
  </g>
  <rect class="cls-18" x="69.17" y="248.82" width="300" height="320" rx="40" ry="40"/>
  <rect class="cls-2" x="159.17" y="476.06" width="120" height="45" rx="10" ry="10"/>
  <g>
    <path class="cls-3" d="m190.1,493.07v3.5h3.81v1.12h-3.81v3.6h4.26v1.12h-5.62v-10.47h5.62v1.12h-4.26Z"/>
    <path class="cls-3" d="m196.43,496.06c.34-.63.81-1.13,1.4-1.48.59-.35,1.26-.52,2-.52.64,0,1.23.15,1.79.44.55.29.97.68,1.26,1.16v-4.35h1.38v11.1h-1.38v-1.54c-.27.49-.67.89-1.2,1.21-.53.31-1.15.47-1.86.47s-1.39-.18-1.99-.54c-.6-.36-1.06-.87-1.4-1.52-.34-.65-.51-1.39-.51-2.22s.17-1.58.51-2.21Zm6.08.61c-.25-.46-.59-.81-1.01-1.06-.42-.24-.89-.37-1.4-.37s-.98.12-1.4.36-.75.59-1,1.05-.38,1-.38,1.62.12,1.18.38,1.64.58.82,1,1.06c.42.25.89.37,1.4.37s.98-.12,1.4-.37c.43-.24.76-.6,1.01-1.06s.38-1.01.38-1.63-.12-1.16-.38-1.62Z"/>
    <path class="cls-3" d="m206.61,492.59c-.18-.18-.27-.4-.27-.66s.09-.48.27-.66c.18-.18.4-.27.66-.27s.46.09.64.27c.17.18.26.4.26.66s-.09.48-.26.66c-.18.18-.39.27-.64.27s-.48-.09-.66-.27Zm1.32,1.61v8.22h-1.37v-8.22h1.37Z"/>
    <path class="cls-3" d="m211.92,495.32v4.84c0,.4.08.68.26.85.17.17.46.25.88.25h1v1.15h-1.23c-.76,0-1.33-.17-1.71-.52-.38-.35-.57-.92-.57-1.73v-4.84h-1.06v-1.12h1.06v-2.07h1.36v2.07h2.15v1.12h-2.15Z"/>
    <path class="cls-3" d="m225.82,497.19c-.6.58-1.5.86-2.72.86h-2.01v4.37h-1.37v-10.45h3.38c1.18,0,2.08.29,2.69.85.61.57.92,1.3.92,2.21s-.3,1.59-.89,2.17Zm-1.04-.76c.36-.33.54-.8.54-1.41,0-1.29-.74-1.94-2.22-1.94h-2.01v3.84h2.01c.76,0,1.32-.16,1.68-.49Z"/>
    <path class="cls-3" d="m229.77,491.31v11.1h-1.37v-11.1h1.37Z"/>
    <path class="cls-3" d="m232.1,496.06c.34-.63.81-1.13,1.4-1.48.59-.35,1.26-.52,1.99-.52s1.34.16,1.88.46c.53.31.92.7,1.19,1.17v-1.5h1.38v8.22h-1.38v-1.53c-.27.48-.67.88-1.21,1.19-.54.31-1.16.47-1.87.47s-1.39-.18-1.98-.54c-.59-.36-1.06-.87-1.4-1.52-.34-.65-.51-1.39-.51-2.22s.17-1.58.51-2.21Zm6.08.61c-.25-.46-.59-.81-1.01-1.06-.42-.24-.89-.37-1.4-.37s-.98.12-1.4.36-.75.59-1,1.05-.38,1-.38,1.62.12,1.18.38,1.64.58.82,1,1.06c.42.25.89.37,1.4.37s.98-.12,1.4-.37c.43-.24.76-.6,1.01-1.06s.38-1.01.38-1.63-.12-1.16-.38-1.62Z"/>
    <path class="cls-3" d="m248.67,494.95c.62.6.93,1.48.93,2.62v4.84h-1.35v-4.65c0-.82-.21-1.45-.61-1.88-.41-.43-.97-.65-1.68-.65s-1.29.22-1.72.67c-.43.45-.64,1.11-.64,1.96v4.54h-1.37v-8.22h1.37v1.17c.27-.42.64-.75,1.1-.97.46-.23.98-.35,1.54-.35,1,0,1.81.3,2.43.91Z"/>
  </g>
  <rect class="cls-2" x="504.97" y="672.41" width="86.49" height="14.71" rx="7.36" ry="7.36"/>
  <rect class="cls-2" x="504.97" y="693.21" width="54.64" height="14.71" rx="7.36" ry="7.36"/>
  <rect class="cls-2" x="632.73" y="672.41" width="103.24" height="14.71" rx="7.36" ry="7.36"/>
  <rect class="cls-2" x="681.33" y="693.21" width="54.64" height="14.71" rx="7.36" ry="7.36"/>
  <rect class="cls-2" x="489.05" y="635.17" width="86.49" height="14.71" rx="7.36" ry="7.36"/>
  <rect class="cls-3" x="169.17" y="306.32" width="100" height="100" rx="50" ry="50"/>
  <g>
    <polyline class="cls-14" points="212.17 378.83 211.54 384.28 207.45 386.35"/>
    <polyline class="cls-14" points="215.17 387.53 211.54 384.28 210.98 388.09"/>
    <polyline class="cls-14" points="225.13 380.57 225.57 385.62 222.77 388.42"/>
    <polyline class="cls-14" points="227.88 388.92 226.51 385.33 229.24 386.61"/>
    <path class="cls-13" d="m233.53,366.17c-.02,3.1-.03,6.33-2.24,9.54-2.39,3.48-6.6,5.83-11.17,5.82-5.23-.02-8.71-3.12-10-4.47-4.08-4.26-4.11-9.59-4.12-11.63-.05-8.6,5.63-17.03,9.64-16.85,1.08.05,2,.72,4.49.75,1.94.02,2.53-.37,3.86-.15,1.96.32,3.28,1.59,4.19,2.49,3.13,3.09,5.38,8.5,5.35,14.51Z"/>
    <path class="cls-13" d="m233.9,344.67c3.65-1.15,7.84-2.62,7.69-3.35-.03-.16-.26-.23-.7-.36-1.22-.36-2.79-.79-4.66-1.23"/>
    <path class="cls-13" d="m236.65,337.16c-.09,3.15-1.49,6.1-3.67,8.49-3.1,3.4-7.8,5.66-12.58,5.71-8.39.1-15.74-6.61-16.69-14.2-.55-4.44.96-10.22,5.21-13.08,3.28-2.21,7-1.88,11.48-1.49,3.55.31,6.61.58,9.69,2.68,3.39,2.32,6.71,6.8,6.56,11.89Z"/>
    <circle class="cls-12" cx="217.71" cy="337.12" r="1.15"/>
  </g>
  <text class="cls-4" transform="translate(133.13 448.84)"><tspan x="0" y="0">Duck Adventures</tspan></text>
</svg>