<?xml version="1.0" encoding="UTF-8"?>
<svg id="Layer_1" data-name="Layer 1" xmlns="http://www.w3.org/2000/svg" viewBox="0 0 1033.212979968638138 999.374150734379327">
  <defs>
    <style>
      .cls-1 {
        fill: rgba(237, 68, 55, .988636016845703);
      }

      .cls-2 {
        fill: #14191f;
      }

      .cls-3, .cls-4 {
        fill: #fff;
      }

      .cls-5 {
        fill: #303438;
      }

      .cls-6 {
        fill: #202529;
      }

      .cls-7 {
        isolation: isolate;
      }

      .cls-8 {
        fill: #1f2428;
      }

      .cls-9 {
        fill: #38ba96;
      }

      .cls-10 {
        fill: #231f20;
      }

      .cls-10, .cls-11, .cls-12 {
        stroke: #231f20;
        stroke-miterlimit: 10;
      }

      .cls-13 {
        fill: #ed4438;
      }

      .cls-4 {
        font-family: Poppins-Medium, Poppins;
        font-size: 20px;
        font-weight: 500;
      }

      .cls-14 {
        fill: #39ba96;
      }

      .cls-11 {
        fill: #faaf43;
        stroke-width: 2px;
      }

      .cls-15 {
        fill: rgba(237, 68, 55, .600000023841858);
      }

      .cls-16 {
        fill: #aaa;
      }

      .cls-17 {
        fill: #6967af;
      }

      .cls-18 {
        fill: #303338;
      }

      .cls-19 {
        fill: rgba(56, 186, 150, .600000023841858);
      }

      .cls-12 {
        fill: none;
        stroke-linecap: round;
        stroke-width: 2.5px;
      }
    </style>
  </defs>
  <rect class="cls-16" x="536.848942349944082" y="885.992938860906975" width="99.999999977855396" height="100.000000017136927" rx="49.999949338449845" ry="49.999949338449845" transform="translate(-203.346277872032829 1708.04603075733894) rotate(-102.247770159103453)"/>
  <rect class="cls-16" x="885.405547411869634" y="743.95208336602559" width="49.999999972637283" height="50.000000025551458" rx="24.999975516896736" ry="24.999975516896736" transform="translate(352.088413582398175 1821.761441882853887) rotate(-102.247770453101012)"/>
  <rect class="cls-16" x="784.997952767449419" y="75.020971014188333" width="49.999999997994792" height="49.999999976156857" rx="24.999975239769423" ry="24.999975239769423" transform="translate(884.086201617090865 912.801266966875005) rotate(-102.247770492103569)"/>
  <rect class="cls-16" x="69.979437669672194" y="756.162071782872204" width="100.000000046849209" height="100.000000016497552" rx="49.999950065928388" ry="49.999950065928388" transform="translate(-642.381482185909135 1094.429619921222184) rotate(-102.247769189648309)"/>
  <rect class="cls-16" x="463.375649254724578" y=".010485499458369" width="99.99999998750701" height="100.000000004455813" rx="49.999948886234499" ry="49.999948886234499" transform="translate(573.410739245732543 562.310586878244976) rotate(-102.247767873397535)"/>
  <rect class="cls-16" x="933.202494466894336" y="382.24679190363554" width="99.999999982554868" height="100.000000043391765" rx="49.999950306483491" ry="49.999950306483491" transform="translate(769.370133232552348 1484.767649453194736) rotate(-102.247769898762286)"/>
  <rect class="cls-16" x="318.220925021658331" y="949.368907969186694" width="50.000000038603957" height="50.000000025490408" rx="24.999974692442493" ry="24.999974692442493" transform="translate(-536.159965566834103 1516.480170972950418) rotate(-102.247769854652162)"/>
  <rect class="cls-16" x=".005242764659556" y="503.480606270959868" width="49.999999972555585" height="50.000000007219512" rx="24.999974981277283" ry="24.999974981277283" transform="translate(-486.142205624578935 665.028397880911371) rotate(-102.247769992391241)"/>
  <rect class="cls-16" x="94.979437686439354" y="179.050813213017136" width="49.99999999017038" height="50.000000003291518" rx="24.999975246731882" ry="24.999975246731882" transform="translate(-53.97465548581367 364.58670736381913) rotate(-102.247769762707819)"/>
  <rect class="cls-16" x="453.491908592959078" y="504.928931773510612" width="385.054492911136151" height="346.419044836796274" rx="60.000000000003375" ry="60.000000000003375" transform="translate(425.619990301218422 -232.156399095801135) rotate(30.000038253641101)"/>
  <rect class="cls-16" x="287.427184916014426" y="137.321517922593557" width="545.947286137563879" height="345.157486577600821" rx="60.000000000003972" ry="60.000000000003972" transform="translate(230.030136456009018 -238.681971533822093) rotate(30.000055480564605)"/>
  <rect class="cls-2" x="190.5671386095446" y="158.850414483374152" width="645.617021276586456" height="684.645933943065756" rx="39.999999999999993" ry="39.999999999999993"/>
  <rect class="cls-8" x="216.753345726155203" y="240.974024400939015" width="593.244607043365249" height="207.553191489362689" rx="20" ry="20"/>
  <rect class="cls-9" x="445.753197806402568" y="466.259309148790635" width="368.42553191488696" height="128.478877141672456" rx="20" ry="20"/>
  <rect class="cls-16" x="222.434014094739211" y="186.481664197635382" width="35.138298023322079" height="35.138298029089555" rx="10.000000011359614" ry="10.000000011359614"/>
  <g>
    <path class="cls-3" d="m284.12420117104466,193.799587004411478c1.66943359375.8505859375,2.95947265625,2.0703125,3.8701171875,3.66015625.90966796875,1.58984375,1.36474609375,3.4453125,1.36474609375,5.564453125,0,2.1201171875-.455078125,3.9599609375-1.36474609375,5.5205078125-.91064453125,1.5595703125-2.20068359375,2.7548828125-3.8701171875,3.5849609375-1.67041015625.830078125-3.615234375,1.2451171875-5.8349609375,1.2451171875h-6.81005859375v-20.8505859375h6.81005859375c2.2197265625,0,4.16455078125.42578125,5.8349609375,1.275390625Zm-.22509765625,14.8046875c1.2998046875-1.3193359375,1.9501953125-3.1796875,1.9501953125-5.580078125,0-2.4189453125-.650390625-4.3095703125-1.9501953125-5.669921875-1.30029296875-1.359375-3.169921875-2.0400390625-5.60986328125-2.0400390625h-3.39013671875v15.2705078125h3.39013671875c2.43994140625,0,4.3095703125-.66015625,5.60986328125-1.98046875Z"/>
    <path class="cls-3" d="m292.64422070229466,200.624782316911478c.68994140625-1.2802734375,1.6298828125-2.275390625,2.81982421875-2.9853515625s2.50537109375-1.064453125,3.9453125-1.064453125c1.2998046875,0,2.4345703125.2548828125,3.40478515625.7646484375.9697265625.509765625,1.74462890625,1.1455078125,2.3251953125,1.9052734375v-2.400390625h3.44970703125v16.5302734375h-3.44970703125v-2.4599609375c-.58056640625.779296875-1.3701171875,1.4296875-2.3701171875,1.9501953125-1.00048828125.51953125-2.14013671875.779296875-3.419921875.779296875-1.42041015625,0-2.72021484375-.3642578125-3.89990234375-1.0947265625-1.1806640625-.7294921875-2.115234375-1.75-2.80517578125-3.0595703125-.68994140625-1.310546875-1.03515625-2.794921875-1.03515625-4.455078125s.34521484375-3.1298828125,1.03515625-4.41015625Zm11.7900390625,1.5c-.47021484375-.83984375-1.08544921875-1.48046875-1.84521484375-1.919921875-.76025390625-.4404296875-1.580078125-.66015625-2.4599609375-.66015625-.88037109375,0-1.7001953125.21484375-2.4599609375.64453125-.76025390625.4306640625-1.375,1.060546875-1.8447265625,1.890625-.47021484375.830078125-.705078125,1.814453125-.705078125,2.955078125,0,1.1396484375.23486328125,2.1396484375.705078125,3,.4697265625.859375,1.08984375,1.5146484375,1.85986328125,1.96484375.76953125.4501953125,1.5849609375.6748046875,2.44482421875.6748046875.8798828125,0,1.69970703125-.2197265625,2.4599609375-.66015625.759765625-.439453125,1.375-1.0849609375,1.84521484375-1.9345703125.4697265625-.8505859375.705078125-1.845703125.705078125-2.9853515625s-.2353515625-2.1298828125-.705078125-2.9697265625Z"/>
    <path class="cls-3" d="m315.59392773354466,212.939235441911478c-1.0302734375-.4697265625-1.8447265625-1.109375-2.44482421875-1.919921875-.60009765625-.8095703125-.92041015625-1.71484375-.9599609375-2.71484375h3.5400390625c.06005859375.7001953125.39453125,1.28515625,1.0048828125,1.7548828125.60986328125.470703125,1.375.705078125,2.294921875.705078125.9599609375,0,1.705078125-.1845703125,2.23486328125-.5546875s.79541015625-.8447265625.79541015625-1.4248046875c0-.6201171875-.29541015625-1.080078125-.88525390625-1.380859375-.59033203125-.2998046875-1.525390625-.6298828125-2.80517578125-.9892578125-1.240234375-.33984375-2.25-.669921875-3.02978515625-.990234375-.77978515625-.3193359375-1.455078125-.8095703125-2.02490234375-1.4697265625-.5703125-.66015625-.85498046875-1.5302734375-.85498046875-2.6103515625,0-.8798828125.259765625-1.6845703125.77978515625-2.4150390625.52001953125-.7294921875,1.2646484375-1.3046875,2.23486328125-1.724609375s2.08544921875-.6298828125,3.34521484375-.6298828125c1.8798828125,0,3.39453125.474609375,4.544921875,1.4248046875,1.14990234375.9501953125,1.76513671875,2.2451171875,1.84521484375,3.884765625h-3.419921875c-.06005859375-.7392578125-.3603515625-1.330078125-.900390625-1.76953125-.5400390625-.4404296875-1.27001953125-.66015625-2.18994140625-.66015625-.89990234375,0-1.58984375.169921875-2.06982421875.509765625s-.72021484375.7900390625-.72021484375,1.349609375c0,.4404296875.16015625.810546875.47998046875,1.1103515625s.7099609375.53515625,1.17041015625.705078125c.45947265625.169921875,1.1396484375.384765625,2.03955078125.64453125,1.2001953125.3203125,2.18505859375.6455078125,2.955078125.9755859375s1.43505859375.814453125,1.9951171875,1.455078125c.5595703125.6396484375.85009765625,1.490234375.8701171875,2.5498046875,0,.9404296875-.26025390625,1.7802734375-.7802734375,2.51953125-.52001953125.740234375-1.2548828125,1.3203125-2.20458984375,1.740234375-.9501953125.419921875-2.0654296875.6298828125-3.34521484375.6298828125-1.30029296875,0-2.46533203125-.2353515625-3.4951171875-.705078125Z"/>
    <path class="cls-3" d="m341.03386913979466,197.384547941911478c.990234375.5400390625,1.77001953125,1.33984375,2.34033203125,2.400390625.56982421875,1.0595703125.85498046875,2.33984375.85498046875,3.83984375v9.75h-3.39013671875v-9.240234375c0-1.4794921875-.3701171875-2.6142578125-1.10986328125-3.4052734375-.740234375-.7900390625-1.75048828125-1.1845703125-3.0302734375-1.1845703125s-2.294921875.39453125-3.044921875,1.1845703125c-.75.791015625-1.125,1.92578125-1.125,3.4052734375v9.240234375h-3.419921875v-22.2001953125h3.419921875v7.58984375c.580078125-.7001953125,1.31494140625-1.2392578125,2.205078125-1.6201171875.8896484375-.3798828125,1.86474609375-.5693359375,2.9248046875-.5693359375,1.26025390625,0,2.38525390625.26953125,3.375.8095703125Z"/>
    <path class="cls-3" d="m354.38347851479466,197.339626066911478c1.00927734375-.509765625,2.13427734375-.7646484375,3.375-.7646484375,1.45947265625,0,2.779296875.349609375,3.9599609375,1.0498046875,1.1796875.7001953125,2.10986328125,1.6943359375,2.7900390625,2.984375.6796875,1.2900390625,1.02001953125,2.765625,1.02001953125,4.42578125s-.34033203125,3.14453125-1.02001953125,4.455078125c-.68017578125,1.3095703125-1.61572265625,2.330078125-2.80517578125,3.0595703125-1.18994140625.73046875-2.5048828125,1.0947265625-3.94482421875,1.0947265625-1.2802734375,0-2.4150390625-.25-3.4052734375-.75-.98974609375-.4990234375-1.77490234375-1.1396484375-2.35498046875-1.919921875v2.400390625h-3.419921875v-22.2001953125h3.419921875v8.1298828125c.580078125-.7998046875,1.375-1.455078125,2.38525390625-1.96484375Zm6.9599609375,4.740234375c-.47021484375-.830078125-1.09033203125-1.4599609375-1.8603515625-1.890625-.77001953125-.4296875-1.5947265625-.64453125-2.474609375-.64453125-.8603515625,0-1.67529296875.2197265625-2.4453125.66015625-.77001953125.439453125-1.39013671875,1.080078125-1.85986328125,1.919921875-.47021484375.83984375-.705078125,1.830078125-.705078125,2.9697265625s.23486328125,2.134765625.705078125,2.9853515625c.4697265625.849609375,1.08984375,1.4951171875,1.85986328125,1.9345703125.77001953125.4404296875,1.5849609375.66015625,2.4453125.66015625.8798828125,0,1.70458984375-.224609375,2.474609375-.6748046875s1.39013671875-1.10546875,1.8603515625-1.96484375c.4697265625-.8603515625.705078125-1.8603515625.705078125-3,0-1.140625-.2353515625-2.125-.705078125-2.955078125Z"/>
    <path class="cls-3" d="m371.85808788979466,212.579860441911478c-1.259765625-.7099609375-2.25-1.7099609375-2.9697265625-3-.72021484375-1.2900390625-1.080078125-2.78515625-1.080078125-4.4853515625,0-1.6796875.36962890625-3.169921875,1.10986328125-4.4697265625.73974609375-1.2998046875,1.75-2.2998046875,3.02978515625-3s2.7099609375-1.0498046875,4.2900390625-1.0498046875,3.01025390625.349609375,4.2900390625,1.0498046875,2.2900390625,1.7001953125,3.0302734375,3c.73974609375,1.2998046875,1.10986328125,2.7900390625,1.10986328125,4.4697265625s-.38037109375,3.169921875-1.14013671875,4.4697265625c-.76025390625,1.30078125-1.79541015625,2.3056640625-3.10498046875,3.015625-1.31005859375.7099609375-2.75537109375,1.064453125-4.3349609375,1.064453125-1.56005859375,0-2.9697265625-.3544921875-4.22998046875-1.064453125Zm6.705078125-2.53515625c.76953125-.419921875,1.39501953125-1.0498046875,1.875-1.890625.47998046875-.83984375.72021484375-1.859375.72021484375-3.0595703125s-.23046875-2.21484375-.6904296875-3.044921875-1.06982421875-1.455078125-1.82958984375-1.875c-.7607421875-.419921875-1.58056640625-.6298828125-2.46044921875-.6298828125s-1.69482421875.2099609375-2.44482421875.6298828125-1.34521484375,1.044921875-1.78515625,1.875-.65966796875,1.8447265625-.65966796875,3.044921875c0,1.7802734375.45458984375,3.1552734375,1.36474609375,4.125.91015625.970703125,2.05517578125,1.455078125,3.43505859375,1.455078125.8798828125,0,1.705078125-.2099609375,2.47509765625-.6298828125Z"/>
    <path class="cls-3" d="m387.95281445229466,200.624782316911478c.68994140625-1.2802734375,1.6298828125-2.275390625,2.81982421875-2.9853515625s2.50537109375-1.064453125,3.9453125-1.064453125c1.2998046875,0,2.4345703125.2548828125,3.40478515625.7646484375.9697265625.509765625,1.74462890625,1.1455078125,2.3251953125,1.9052734375v-2.400390625h3.44970703125v16.5302734375h-3.44970703125v-2.4599609375c-.58056640625.779296875-1.3701171875,1.4296875-2.3701171875,1.9501953125-1.00048828125.51953125-2.14013671875.779296875-3.419921875.779296875-1.42041015625,0-2.72021484375-.3642578125-3.89990234375-1.0947265625-1.1806640625-.7294921875-2.115234375-1.75-2.80517578125-3.0595703125-.68994140625-1.310546875-1.03515625-2.794921875-1.03515625-4.455078125s.34521484375-3.1298828125,1.03515625-4.41015625Zm11.7900390625,1.5c-.47021484375-.83984375-1.08544921875-1.48046875-1.84521484375-1.919921875-.76025390625-.4404296875-1.580078125-.66015625-2.4599609375-.66015625-.88037109375,0-1.7001953125.21484375-2.4599609375.64453125-.76025390625.4306640625-1.375,1.060546875-1.8447265625,1.890625-.47021484375.830078125-.705078125,1.814453125-.705078125,2.955078125,0,1.1396484375.23486328125,2.1396484375.705078125,3,.4697265625.859375,1.08984375,1.5146484375,1.85986328125,1.96484375.76953125.4501953125,1.5849609375.6748046875,2.44482421875.6748046875.8798828125,0,1.69970703125-.2197265625,2.4599609375-.66015625.759765625-.439453125,1.375-1.0849609375,1.84521484375-1.9345703125.4697265625-.8505859375.705078125-1.845703125.705078125-2.9853515625s-.2353515625-2.1298828125-.705078125-2.9697265625Z"/>
    <path class="cls-3" d="m413.81267773354466,197.279079191911478c.82958984375-.46875,1.81494140625-.7041015625,2.955078125-.7041015625v3.5400390625h-.8701171875c-1.34033203125,0-2.35498046875.33984375-3.044921875,1.01953125s-1.03515625,1.8603515625-1.03515625,3.5400390625v8.7001953125h-3.419921875v-16.5302734375h3.419921875v2.400390625c.5-.8408203125,1.1650390625-1.4951171875,1.9951171875-1.9658203125Z"/>
    <path class="cls-3" d="m419.81218945229466,200.624782316911478c.68994140625-1.2802734375,1.6298828125-2.275390625,2.81982421875-2.9853515625s2.51513671875-1.064453125,3.97509765625-1.064453125c1.080078125,0,2.14501953125.2353515625,3.19482421875.7041015625,1.05029296875.470703125,1.88525390625,1.095703125,2.50537109375,1.875v-7.9794921875h3.44970703125v22.2001953125h-3.44970703125v-2.490234375c-.56005859375.7998046875-1.3349609375,1.4599609375-2.3251953125,1.98046875-.98974609375.51953125-2.12548828125.779296875-3.40478515625.779296875-1.43994140625,0-2.75537109375-.3642578125-3.9453125-1.0947265625-1.18994140625-.7294921875-2.1298828125-1.75-2.81982421875-3.0595703125-.68994140625-1.310546875-1.03515625-2.794921875-1.03515625-4.455078125s.34521484375-3.1298828125,1.03515625-4.41015625Zm11.7900390625,1.5c-.47021484375-.83984375-1.08544921875-1.48046875-1.84521484375-1.919921875-.76025390625-.4404296875-1.580078125-.66015625-2.4599609375-.66015625-.88037109375,0-1.7001953125.21484375-2.4599609375.64453125-.76025390625.4306640625-1.375,1.060546875-1.8447265625,1.890625-.47021484375.830078125-.705078125,1.814453125-.705078125,2.955078125,0,1.1396484375.23486328125,2.1396484375.705078125,3,.4697265625.859375,1.08984375,1.5146484375,1.85986328125,1.96484375.76953125.4501953125,1.5849609375.6748046875,2.44482421875.6748046875.8798828125,0,1.69970703125-.2197265625,2.4599609375-.66015625.759765625-.439453125,1.375-1.0849609375,1.84521484375-1.9345703125.4697265625-.8505859375.705078125-1.845703125.705078125-2.9853515625s-.2353515625-2.1298828125-.705078125-2.9697265625Z"/>
  </g>
  <path class="cls-18" d="m195.58414248070676,612.470279548951112h281.099757731068166c22.076600979759974,0,40,17.923399020240026,40,40v212.038925770433707c0,19.317025857289991-15.682974142710009,35-35,35H195.58414248070676c-22.076600979760002,0-40-17.923399020240026-40-40v-207.038925770433707c0-22.076600979759974,17.923399020239998-40,40-40Z"/>
  <path id="rect953-6" class="cls-19" d="m199.081550571282605,736.506831452307779c3.90677482659521.235362602861642,6.883031502678932,3.593221146766155,6.647668899819109,7.500006786676749h0v75.349056778131853c-.000021626630769,4.142126616143287-3.357869357219897,7.4999851600478-7.499995973365003,7.4999851600478-3.906764013281645-.235384229490592-6.883020689365367-3.593221146766155-6.647668899815471-7.4999851600478v-75.349056778131853c-.000010813317203-4.142148242772237,3.357858543902694-7.500006786676749,7.499995973361365-7.500006786676749h0Z"/>
  <path id="rect953-6-1" class="cls-15" d="m216.088709950844532,685.123604691171749c3.906774826598848.235362602861642,6.88303150268257,3.593221146766155,6.647668899819109,7.500006786676749h0v126.732283539267883c-.000021626627131,4.142126616143287-3.357869357219897,7.4999851600478-7.499995973361365,7.4999851600478-3.906764013281645-.235384229490592-6.883020689365367-3.593221146766155-6.647668899819109-7.4999851600478v-126.732283539267883c-.000010813313565-4.142148242772237,3.357858543906332-7.500006786676749,7.499995973361365-7.500006786676749h0Z"/>
  <path id="rect953-6-8" class="cls-14" d="m241.600530351640373,716.087876716238497c3.906785639908776.235362602861642,6.883042315992498,3.593221146766155,6.647679713132675,7.4999851600478v95.768033140830084c-.000021626630769,4.142126616143287-3.357880170533463,7.4999851600478-7.500006786678568,7.4999851600478-3.906785639908776-.235384229490592-6.883020689365367-3.593221146766155-6.647679713132675-7.4999851600478v-95.768011514201135c0-4.142126616143287,3.357858543906332-7.500006786676749,7.4999851600478-7.500006786676749h.000021626630769Z"/>
  <path id="rect953-6-1-0" class="cls-13" d="m258.607711357833068,757.898897984606265c3.906785639908776.235362602861642,6.883042315992498,3.593221146766155,6.647679713132675,7.4999851600478v53.956990245833367c.000021626627131,4.142148242772237-3.357836917275563,7.500006786676749-7.4999851600478,7.500006786676749h-.000021626630769c-3.906764013281645-.235340976232692-6.883042315992498-3.593221146766155-6.647679713132675-7.4999851600478v-53.956990245833367c0-4.142126616143287,3.357880170533463-7.4999851600478,7.500006786678568-7.4999851600478v-.00002162662895Z"/>
  <path id="rect953-6-8-4" class="cls-14" d="m284.120212997438102,769.491311767470506c3.906764013281645.235362602861642,6.883020689365367,3.593221146766155,6.647679713132675,7.4999851600478v42.364533209711226c.000021626627131,4.142148242772237-3.357858543906332,7.500006786676749-7.500006786678568,7.500006786676749h0c-3.906785639908776-.235384229490592-6.883042315992498-3.593221146766155-6.647679713132675-7.4999851600478.000021626630769,0,0-.0000432532579,0-.0000432532579v-42.364533209711226c.000021626630769-4.142126616143287,3.357880170533463-7.4999851600478,7.500006786678568-7.4999851600478v.00002162662895Z"/>
  <path id="rect953-6-1-0-4" class="cls-13" d="m301.127394003630798,710.778214909606504c3.906764013281645.235362602861642,6.883042315992498,3.593221146766155,6.647679713132675,7.500006786676749h0v101.077694947462078c.000021626627131,4.142148242772237-3.357836917275563,7.500006786676749-7.4999851600478,7.500006786676749h-.000021626630769c-3.906764013281645-.235340976232692-6.883020689365367-3.593199520137205-6.647679713132675-7.4999851600478v-101.077716574091028c0-4.142126616143287,3.357858543906332-7.500006786676749,7.4999851600478-7.500006786676749h.000021626630769Z"/>
  <path id="rect953-6-8-4-8" class="cls-19" d="m326.639917269862963,668.443612954361924c3.906785639912414.235362602861642,6.883042315996136,3.593221146766155,6.647679713132675,7.4999851600478v143.412296902706657c-.000021626627131,4.142126616143287-3.357880170533463,7.4999851600478-7.50000678667493,7.4999851600478-3.906764013281645-.235384229490592-6.883020689365367-3.593199520137205-6.647679713132675-7.4999851600478v-143.412275276077708c0-4.142148242772237,3.357858543902694-7.500006786676749,7.50000678667493-7.500006786676749h0Z"/>
  <path id="rect953-6-1-0-4-6" class="cls-15" d="m343.647098276055658,744.809813345264956c3.906764013281645.235340976232692,6.883042315996136,3.593221146766155,6.647679713132675,7.4999851600478v67.046074885174676c0,4.142126616143287-3.357836917275563,7.500006786676749-7.4999851600478,7.500006786676749h-.0000432532579c-3.906764013281645-.235384229490592-6.883020689365367-3.593221146766155-6.647679713132675-7.4999851600478v-67.046053258545726c0-4.142126616143287,3.357836917275563-7.500028413305699,7.4999851600478-7.500006786676749,0-.00002162662895.0000432532579,0,.0000432532579,0v-.00002162662895Z"/>
  <path id="rect953-6-8-4-8-8" class="cls-19" d="m369.159599915660692,752.213733019517349c3.906764013281645.235340976232692,6.883042315996136,3.593221146766155,6.647679713132675,7.4999851600478v59.642155210922283c0,4.142126616143287-3.357858543902694,7.49996353341885-7.4999851600478,7.500006786676749-3.906785639908776-.235384229490592-6.883042315992498-3.593221146766155-6.647679713132675-7.4999851600478v-59.642155210922283c0-4.142126616143287,3.357858543906332-7.4999851600478,7.4999851600478-7.4999851600478v-.00002162662895Z"/>
  <path id="rect953-6-1-0-4-6-1" class="cls-15" d="m386.166780921853388,732.767846826419373c3.906764013281645.235362602861642,6.883042315996136,3.593221146766155,6.647679713132675,7.500006786676749h0v79.08804140402026c0,4.142148242772237-3.357858543902694,7.4999851600478-7.50000678667493,7.4999851600478h-.000021626630769c-3.906764013281645-.235340976232692-6.883020689365367-3.593199520137205-6.647679713132675-7.4999851600478v-79.08804140402026c0-4.142126616143287,3.357858543906332-7.4999851600478,7.4999851600478-7.500028413305699.000021626630769.0000432532579.0000432532579.00002162662895.0000432532579.00002162662895Z"/>
  <path id="rect953-6-8-4-8-8-3" class="cls-9" d="m411.679325814716321,713.470059788370236c3.906764013281645.235340976232692,6.883063942623266,3.593221146766155,6.647679713132675,7.500006786676749h0v98.385828442069396c0,4.142126616143287-3.357880170533463,7.4999851600478-7.500028413305699,7.4999851600478h0c-3.906764013281645-.235384229490592-6.883020689365367-3.593199520137205-6.647679713132675-7.4999851600478v-98.385828442069396c0-4.142126616143287,3.357858543906332-7.500006786676749,7.500006786678568-7.500006786676749h.000021626627131Z"/>
  <path id="rect953-6-1-0-4-6-1-8" class="cls-1" d="m428.686420314393217,748.474748393628943c3.906764013281645.235384229490592,6.883020689365367,3.593221146766155,6.647679713132675,7.4999851600478v63.381139836810689c0,4.142126616143287-3.357880170533463,7.500006786676749-7.4999851600478,7.500006786676749-3.906764013281645-.235340976232692-6.883063942623266-3.593221146766155-6.647679713132675-7.4999851600478v-63.381139836810689c0-4.142126616143287,3.357880170533463-7.49996353341885,7.4999851600478-7.4999851600478v-.00002162662895Z"/>
  <path id="rect953-6-8-4-8-8-3-2" class="cls-9" d="m454.198921953998251,766.873516466231194c3.906764013281645.235362602861642,6.883020689365367,3.593199520137205,6.647679713132675,7.4999851600478v44.982371764208438c0,4.142126616143287-3.357880170533463,7.500006786676749-7.4999851600478,7.500006786676749-3.906764013281645-.235384229490592-6.883020689365367-3.593221146766155-6.647679713132675-7.4999851600478v-44.982371764208438c0-4.142104989514337,3.357880170533463-7.49996353341885,7.4999851600478-7.4999851600478v-.00002162662895Z"/>
  <path id="rect953-6-1-0-4-6-1-8-6" class="cls-1" d="m471.206102960190947,692.453496414528672c3.906764013281645.235340976232692,6.883063942623266,3.593221146766155,6.647679713132675,7.500006786676749h0v119.40239181591096c0,4.142126616143287-3.357836917275563,7.4999851600478-7.4999851600478,7.500028413305699h0c-3.906764013281645-.235384229490592-6.883020689365367-3.593221146766155-6.647679713132675-7.4999851600478v-119.40243506916886c0-4.142126616143287,3.357836917275563-7.4999851600478,7.4999851600478-7.500006786676749Z"/>
  <path id="rect953-5" class="cls-14" d="m199.068012301559975,847.026301693341338h41.692907434357039c4.142126616145106,0,7.4999851600478,3.357836917275563,7.500006786678568,7.4999851600478v7.67719375766319c0,4.142148242772237-3.357880170533463,7.4999851600478-7.500006786678568,7.4999851600478h-41.692907434357039c-4.142126616145106,0-7.4999851600478-3.357880170533463-7.499995973361365-7.4999851600478v-7.67719375766319c.000021626627131-4.142104989514337,3.357880170533463-7.4999851600478,7.499995973361365-7.4999851600478Z"/>
  <path id="rect953-5-6" class="cls-6" d="m261.43022432871021,847.026301693341338h41.692918247674243c4.142126616141468,0,7.4999851600478,3.357836917275563,7.50000678667493,7.4999851600478v7.67719375766319c-.000021626627131,4.142104989514337-3.357880170533463,7.4999851600478-7.50000678667493,7.4999851600478h-41.692918247674243c-4.142148242772237,0-7.50000678667493-3.357880170533463-7.50000678667493-7.4999851600478v-7.67719375766319c0-4.142148242772237,3.357880170533463-7.4999851600478,7.50000678667493-7.4999851600478Z"/>
  <path id="rect953-5-6-4" class="cls-6" d="m323.792447169177649,847.026301693341338h41.692918247670605c4.142126616145106,0,7.499963533420669,3.357836917275563,7.4999851600478,7.4999851600478v7.67719375766319c-.000021626627131,4.142104989514337-3.357858543902694,7.4999851600478-7.4999851600478,7.4999851600478h-41.692918247670605c-4.142148242772237,0-7.500006786678568-3.357880170533463-7.500006786678568-7.4999851600478v-7.67719375766319c.000021626630769-4.142104989514337,3.357880170533463-7.4999851600478,7.500006786678568-7.4999851600478Z"/>
  <path id="rect953-5-6-3" class="cls-6" d="m386.154648383014319,847.026301693341338h41.692918247670605c4.142148242772237,0,7.4999851600478,3.357836917275563,7.4999851600478,7.4999851600478v7.67719375766319c0,4.142104989514337-3.357880170533463,7.4999851600478-7.4999851600478,7.4999851600478h-41.692896621043474c-4.142126616141468,0-7.50000678667493-3.357836917275563-7.500028413305699-7.4999419067899.000021626630769-.0000432532579-.000021626627131-.0000432532579,0-.0000432532579v-7.67719375766319c0-4.142148242772237,3.357880170533463-7.4999851600478,7.500028413305699-7.4999851600478h-.000021626627131Z"/>
  <g id="text991" class="cls-7">
    <g class="cls-7">
      <path class="cls-3" d="m193.19744335854466,651.231227629411478c-.54541015625-.2451171875-.97265625-.5849609375-1.28271484375-1.0205078125-.31005859375-.4345703125-.47021484375-.9375-.47998046875-1.5068359375h1.455078125c.0498046875.490234375.25244140625.90234375.607421875,1.2373046875s.87255859375.5029296875,1.552734375.5029296875c.64990234375,0,1.162109375-.1630859375,1.537109375-.48828125.375-.32421875.5625-.7421875.5625-1.251953125,0-.400390625-.10986328125-.7255859375-.32958984375-.9755859375-.22021484375-.2490234375-.4951171875-.439453125-.8251953125-.5693359375s-.77490234375-.2705078125-1.3349609375-.419921875c-.68994140625-.1806640625-1.24267578125-.3603515625-1.65771484375-.5400390625-.4150390625-.1806640625-.77001953125-.462890625-1.06494140625-.84765625s-.4423828125-.90234375-.4423828125-1.552734375c0-.5703125.14501953125-1.0751953125.43505859375-1.5146484375.2900390625-.4404296875.697265625-.7802734375,1.22216796875-1.0205078125.525390625-.240234375,1.12744140625-.359375,1.8076171875-.359375.97998046875,0,1.78271484375.2451171875,2.40771484375.734375.62451171875.490234375.97705078125,1.140625,1.0576171875,1.9501953125h-1.5c-.05029296875-.3994140625-.26025390625-.751953125-.63037109375-1.0576171875-.3701171875-.3046875-.85986328125-.45703125-1.4697265625-.45703125-.5703125,0-1.03515625.1474609375-1.39501953125.4423828125s-.5400390625.70703125-.5400390625,1.2373046875c0,.3798828125.107421875.6904296875.322265625.9296875.21533203125.240234375.47998046875.4228515625.79541015625.5478515625.31494140625.125.75732421875.267578125,1.3271484375.427734375.68994140625.189453125,1.2451171875.376953125,1.6650390625.5625.419921875.1845703125.7802734375.4697265625,1.080078125.8544921875.2998046875.3857421875.4501953125.908203125.4501953125,1.5673828125,0,.5107421875-.13525390625.990234375-.4052734375,1.4404296875s-.669921875.8154296875-1.19970703125,1.0947265625c-.5302734375.2802734375-1.1552734375.419921875-1.875.419921875-.6904296875,0-1.3076171875-.1220703125-1.8525390625-.3671875Z"/>
      <path class="cls-3" d="m207.99431835854466,647.893337004411478h-6.56982421875c.0498046875.810546875.3271484375,1.443359375.83251953125,1.8974609375.5048828125.455078125,1.11767578125.6826171875,1.83740234375.6826171875.58984375,0,1.08251953125-.13671875,1.4775390625-.412109375s.67236328125-.642578125.83251953125-1.1025390625h1.47021484375c-.22021484375.7900390625-.66015625,1.4326171875-1.3203125,1.927734375s-1.47998046875.7421875-2.4599609375.7421875c-.77978515625,0-1.4775390625-.1748046875-2.09228515625-.525390625-.615234375-.349609375-1.09765625-.8466796875-1.44775390625-1.4921875-.35009765625-.64453125-.52490234375-1.392578125-.52490234375-2.2421875s.169921875-1.5947265625.509765625-2.2353515625c.33984375-.6396484375.81787109375-1.1328125,1.4326171875-1.4775390625.615234375-.3447265625,1.322265625-.517578125,2.12255859375-.517578125.7802734375,0,1.47021484375.169921875,2.06982421875.509765625.60009765625.3408203125,1.0625.80859375,1.3876953125,1.4033203125.32470703125.5947265625.4873046875,1.267578125.4873046875,2.017578125,0,.259765625-.0146484375.5341796875-.044921875.82421875Zm-1.7099609375-2.4521484375c-.22998046875-.375-.54248046875-.66015625-.9375-.85546875-.39501953125-.1943359375-.83251953125-.2919921875-1.3125-.2919921875-.68994140625,0-1.27734375.2197265625-1.76220703125.66015625-.4853515625.4404296875-.7626953125,1.0498046875-.83251953125,1.830078125h5.18994140625c0-.5205078125-.115234375-.9677734375-.34521484375-1.3427734375Z"/>
      <path class="cls-3" d="m212.23162304604466,643.513454191911478c.44482421875-.259765625.98779296875-.3896484375,1.62744140625-.3896484375v1.41015625h-.35986328125c-1.52978515625,0-2.294921875.830078125-2.294921875,2.4892578125v4.470703125h-1.365234375v-8.220703125h1.365234375v1.3359375c.23974609375-.470703125.58251953125-.8349609375,1.02734375-1.095703125Z"/>
      <path class="cls-3" d="m218.49383007729466,650.234157316911478l2.55029296875-6.9609375h1.455078125l-3.22509765625,8.220703125h-1.59033203125l-3.224609375-8.220703125h1.4697265625l2.56494140625,6.9609375Z"/>
      <path class="cls-3" d="m231.30388867104466,647.893337004411478h-6.56982421875c.0498046875.810546875.3271484375,1.443359375.83251953125,1.8974609375.5048828125.455078125,1.11767578125.6826171875,1.83740234375.6826171875.58984375,0,1.08251953125-.13671875,1.4775390625-.412109375s.67236328125-.642578125.83251953125-1.1025390625h1.47021484375c-.22021484375.7900390625-.66015625,1.4326171875-1.3203125,1.927734375s-1.47998046875.7421875-2.4599609375.7421875c-.77978515625,0-1.4775390625-.1748046875-2.09228515625-.525390625-.615234375-.349609375-1.09765625-.8466796875-1.44775390625-1.4921875-.35009765625-.64453125-.52490234375-1.392578125-.52490234375-2.2421875s.169921875-1.5947265625.509765625-2.2353515625c.33984375-.6396484375.81787109375-1.1328125,1.4326171875-1.4775390625.615234375-.3447265625,1.322265625-.517578125,2.12255859375-.517578125.7802734375,0,1.47021484375.169921875,2.06982421875.509765625.60009765625.3408203125,1.0625.80859375,1.3876953125,1.4033203125.32470703125.5947265625.4873046875,1.267578125.4873046875,2.017578125,0,.259765625-.0146484375.5341796875-.044921875.82421875Zm-1.7099609375-2.4521484375c-.22998046875-.375-.54248046875-.66015625-.9375-.85546875-.39501953125-.1943359375-.83251953125-.2919921875-1.3125-.2919921875-.68994140625,0-1.27734375.2197265625-1.76220703125.66015625-.4853515625.4404296875-.7626953125,1.0498046875-.83251953125,1.830078125h5.18994140625c0-.5205078125-.115234375-.9677734375-.34521484375-1.3427734375Z"/>
      <path class="cls-3" d="m235.54119335854466,643.513454191911478c.44482421875-.259765625.98779296875-.3896484375,1.62744140625-.3896484375v1.41015625h-.35986328125c-1.52978515625,0-2.294921875.830078125-2.294921875,2.4892578125v4.470703125h-1.365234375v-8.220703125h1.365234375v1.3359375c.23974609375-.470703125.58251953125-.8349609375,1.02734375-1.095703125Z"/>
      <path class="cls-3" d="m244.08367382729466,641.038844816911478v6.615234375c0,.9296875.22705078125,1.619140625.68212890625,2.0693359375s1.08740234375.6748046875,1.8974609375.6748046875c.80029296875,0,1.427734375-.224609375,1.8828125-.6748046875.45458984375-.4501953125.68212890625-1.1396484375.68212890625-2.0693359375v-6.615234375h1.365234375v6.599609375c0,.8701171875-.17529296875,1.6025390625-.52490234375,2.197265625-.35009765625.595703125-.82275390625,1.0380859375-1.41748046875,1.328125-.59521484375.2900390625-1.2626953125.4345703125-2.00244140625.4345703125-.740234375,0-1.40771484375-.14453125-2.00244140625-.4345703125-.59521484375-.2900390625-1.0654296875-.732421875-1.41015625-1.328125-.34521484375-.5947265625-.517578125-1.3271484375-.517578125-2.197265625v-6.599609375h1.365234375Z"/>
      <path class="cls-3" d="m255.44597851479466,643.611110441911478c.53466796875-.314453125,1.1572265625-.47265625,1.86767578125-.47265625.7294921875,0,1.39208984375.17578125,1.9873046875.525390625.5947265625.349609375,1.0625.8427734375,1.40234375,1.4775390625s.51025390625,1.3720703125.51025390625,2.2119140625c0,.830078125-.17041015625,1.5703125-.51025390625,2.220703125-.33984375.6494140625-.8076171875,1.154296875-1.40234375,1.5146484375-.59521484375.3603515625-1.2578125.5400390625-1.9873046875.5400390625-.7001953125,0-1.31787109375-.1572265625-1.8525390625-.47265625-.53515625-.314453125-.94287109375-.70703125-1.22265625-1.177734375v5.4150390625h-1.365234375v-12.1201171875h1.365234375v1.515625c.27001953125-.4697265625.67236328125-.8623046875,1.20751953125-1.177734375Zm3.99755859375,2.123046875c-.25-.4599609375-.587890625-.810546875-1.0126953125-1.05078125-.42529296875-.2392578125-.892578125-.359375-1.40234375-.359375-.5,0-.96240234375.1220703125-1.3876953125.3671875-.4248046875.2451171875-.7646484375.599609375-1.02001953125,1.0654296875-.2548828125.46484375-.38232421875,1.001953125-.38232421875,1.6123046875,0,.6201171875.12744140625,1.162109375.38232421875,1.626953125.25537109375.46484375.59521484375.8203125,1.02001953125,1.0654296875.42529296875.2451171875.8876953125.3671875,1.3876953125.3671875.509765625,0,.97705078125-.1220703125,1.40234375-.3671875.4248046875-.2451171875.7626953125-.6005859375,1.0126953125-1.0654296875.24951171875-.46484375.375-1.01171875.375-1.642578125,0-.619140625-.12548828125-1.1591796875-.375-1.619140625Z"/>
      <path class="cls-3" d="m264.67840038979466,644.398219816911478v4.845703125c0,.3994140625.0849609375.6826171875.25537109375.84765625.169921875.1650390625.46484375.2470703125.884765625.2470703125h1.0048828125v1.1552734375h-1.22998046875c-.759765625,0-1.330078125-.1748046875-1.7099609375-.525390625-.3798828125-.349609375-.56982421875-.9248046875-.56982421875-1.724609375v-4.845703125h-1.06494140625v-1.125h1.06494140625v-2.0693359375h1.36474609375v2.0693359375h2.14501953125v1.125h-2.14501953125Z"/>
      <path class="cls-3" d="m268.51873242104466,641.668727629411478c-.18017578125-.1796875-.27001953125-.3994140625-.27001953125-.66015625,0-.259765625.08984375-.4794921875.27001953125-.66015625.1796875-.1796875.3994140625-.26953125.65966796875-.26953125.25,0,.46240234375.08984375.6376953125.26953125.1748046875.1806640625.26220703125.400390625.26220703125.66015625,0,.2607421875-.08740234375.48046875-.26220703125.66015625-.17529296875.1796875-.3876953125.26953125-.6376953125.26953125-.26025390625,0-.47998046875-.08984375-.65966796875-.26953125Zm1.31982421875,1.6044921875v8.220703125h-1.365234375v-8.220703125h1.365234375Z"/>
      <path class="cls-3" d="m283.75847851479466,643.521266691911478c.5.2646484375.89501953125.662109375,1.18505859375,1.1923828125s.43505859375,1.1748046875.43505859375,1.9345703125v4.845703125h-1.35009765625v-4.650390625c0-.8193359375-.20263671875-1.447265625-.607421875-1.8828125-.4052734375-.4345703125-.95263671875-.65234375-1.642578125-.65234375-.7099609375,0-1.27490234375.2275390625-1.69482421875.6826171875-.42041015625.455078125-.63037109375,1.1123046875-.63037109375,1.97265625v4.5302734375h-1.349609375v-4.650390625c0-.8193359375-.20263671875-1.447265625-.60791015625-1.8828125-.40478515625-.4345703125-.9521484375-.65234375-1.64208984375-.65234375-.71044921875,0-1.275390625.2275390625-1.6953125.6826171875s-.6298828125,1.1123046875-.6298828125,1.97265625v4.5302734375h-1.365234375v-8.220703125h1.365234375v1.185546875c.27001953125-.4296875.63232421875-.759765625,1.08740234375-.990234375.455078125-.2294921875.95751953125-.3447265625,1.5078125-.3447265625.68994140625,0,1.2998046875.1552734375,1.82958984375.46484375.5302734375.310546875.9248046875.7646484375,1.18505859375,1.365234375.22998046875-.580078125.60986328125-1.0302734375,1.14013671875-1.3505859375.52978515625-.3193359375,1.11962890625-.4794921875,1.77001953125-.4794921875.6396484375,0,1.2099609375.1328125,1.7099609375.3974609375Z"/>
      <path class="cls-3" d="m295.06853710854466,647.893337004411478h-6.56982421875c.0498046875.810546875.3271484375,1.443359375.83251953125,1.8974609375.5048828125.455078125,1.11767578125.6826171875,1.83740234375.6826171875.58984375,0,1.08251953125-.13671875,1.4775390625-.412109375s.67236328125-.642578125.83251953125-1.1025390625h1.47021484375c-.22021484375.7900390625-.66015625,1.4326171875-1.3203125,1.927734375s-1.47998046875.7421875-2.4599609375.7421875c-.77978515625,0-1.4775390625-.1748046875-2.09228515625-.525390625-.615234375-.349609375-1.09765625-.8466796875-1.44775390625-1.4921875-.35009765625-.64453125-.52490234375-1.392578125-.52490234375-2.2421875s.169921875-1.5947265625.509765625-2.2353515625c.33984375-.6396484375.81787109375-1.1328125,1.4326171875-1.4775390625.615234375-.3447265625,1.322265625-.517578125,2.12255859375-.517578125.7802734375,0,1.47021484375.169921875,2.06982421875.509765625.60009765625.3408203125,1.0625.80859375,1.3876953125,1.4033203125.32470703125.5947265625.4873046875,1.267578125.4873046875,2.017578125,0,.259765625-.0146484375.5341796875-.044921875.82421875Zm-1.7099609375-2.4521484375c-.22998046875-.375-.54248046875-.66015625-.9375-.85546875-.39501953125-.1943359375-.83251953125-.2919921875-1.3125-.2919921875-.68994140625,0-1.27734375.2197265625-1.76220703125.66015625-.4853515625.4404296875-.7626953125,1.0498046875-.83251953125,1.830078125h5.18994140625c0-.5205078125-.115234375-.9677734375-.34521484375-1.3427734375Z"/>
    </g>
  </g>
  <rect class="cls-8" x="535.178729455458779" y="612.108447779896778" width="281.106382978716283" height="209.473366403211912" rx="20" ry="20"/>
  <rect class="cls-18" x="546.093623161089454" y="687.882273185937265" width="259.276595567454933" height="59.087419489400418" rx="7.777752209278334" ry="7.777752209278334"/>
  <rect class="cls-2" x="559.529793433202371" y="761.995578300544594" width="86.489361629165046" height="14.71449253418632" rx="7.357238911873495" ry="7.357238911873495"/>
  <rect class="cls-2" x="559.529793389130191" y="782.787375796567744" width="54.638297895128858" height="14.714492496602588" rx="7.357238882162725" ry="7.357238882162725"/>
  <rect class="cls-2" x="687.285112543146283" y="761.995578278834842" width="103.24468081574048" height="14.714492501076847" rx="7.3572389144026" ry="7.3572389144026"/>
  <rect class="cls-2" x="735.891495463758474" y="782.787376137397359" width="54.63829789511874" height="14.714492496609182" rx="7.357238848319704" ry="7.357238848319704"/>
  <g>
    <path class="cls-3" d="m560.01433788979466,629.491969816911478v10.4248046875h-1.7099609375v-4.5595703125h-4.9052734375v4.5595703125h-1.7099609375v-10.4248046875h1.7099609375v4.4697265625h4.9052734375v-4.4697265625h1.7099609375Z"/>
    <path class="cls-3" d="m562.35418163979466,630.241969816911478c-.2099609375-.2099609375-.3154296875-.4697265625-.3154296875-.7802734375,0-.3095703125.10546875-.5693359375.3154296875-.779296875s.4697265625-.3154296875.7802734375-.3154296875c.2998046875,0,.5546875.10546875.7646484375.3154296875s.3154296875.4697265625.3154296875.779296875c0,.310546875-.10546875.5703125-.3154296875.7802734375s-.46484375.3154296875-.7646484375.3154296875c-.310546875,0-.5703125-.10546875-.7802734375-.3154296875Zm1.6201171875,1.41015625v8.2646484375h-1.7099609375v-8.2646484375h1.7099609375Z"/>
    <path class="cls-3" d="m567.47625195229466,639.699977629411478c-.5146484375-.2353515625-.921875-.5556640625-1.22265625-.9609375-.2998046875-.404296875-.4599609375-.8564453125-.4794921875-1.357421875h1.76953125c.0302734375.3505859375.1982421875.642578125.5029296875.8779296875s.6875.3525390625,1.1474609375.3525390625c.48046875,0,.8525390625-.0927734375,1.1171875-.27734375.265625-.185546875.3974609375-.4228515625.3974609375-.712890625,0-.3095703125-.1474609375-.5400390625-.4423828125-.689453125-.294921875-.150390625-.7626953125-.3154296875-1.40234375-.4951171875-.6201171875-.169921875-1.125-.3349609375-1.5146484375-.4951171875-.390625-.16015625-.7275390625-.4052734375-1.0126953125-.7353515625s-.427734375-.7646484375-.427734375-1.3046875c0-.4404296875.1298828125-.8427734375.390625-1.2080078125.259765625-.3642578125.6318359375-.65234375,1.1171875-.8623046875.484375-.2099609375,1.0419921875-.314453125,1.6728515625-.314453125.939453125,0,1.697265625.2373046875,2.2724609375.7119140625.57421875.4755859375.8818359375,1.123046875.921875,1.9423828125h-1.7099609375c-.0302734375-.369140625-.1796875-.6650390625-.4501953125-.884765625-.26953125-.2197265625-.634765625-.330078125-1.0947265625-.330078125-.4501953125,0-.794921875.0849609375-1.03515625.2548828125-.240234375.1708984375-.359375.3955078125-.359375.67578125,0,.2197265625.0791015625.404296875.2392578125.5546875.16015625.1494140625.35546875.267578125.5849609375.3525390625.23046875.0849609375.5703125.1923828125,1.0205078125.322265625.599609375.16015625,1.0927734375.322265625,1.4775390625.4873046875s.716796875.408203125.9970703125.7275390625c.2802734375.3203125.4248046875.7451171875.435546875,1.275390625,0,.4697265625-.1298828125.8896484375-.390625,1.259765625-.259765625.3701171875-.626953125.66015625-1.1025390625.8701171875-.474609375.2099609375-1.0322265625.314453125-1.671875.314453125-.650390625,0-1.232421875-.1171875-1.748046875-.3515625Z"/>
    <path class="cls-3" d="m576.22918163979466,633.046657316911478v4.5751953125c0,.310546875.072265625.5322265625.216796875.66796875.1455078125.134765625.392578125.2021484375.7431640625.2021484375h1.0498046875v1.4248046875h-1.3505859375c-.76953125,0-1.359375-.1796875-1.76953125-.5400390625-.41015625-.359375-.615234375-.9443359375-.615234375-1.7548828125v-4.5751953125h-.974609375v-1.39453125h.974609375v-2.0546875h1.7255859375v2.0546875h2.009765625v1.39453125h-2.009765625Z"/>
    <path class="cls-3" d="m581.28386913979466,639.519313566911478c-.6298828125-.3544921875-1.125-.8544921875-1.4853515625-1.5-.359375-.64453125-.5400390625-1.392578125-.5400390625-2.2421875,0-.83984375.185546875-1.5849609375.5556640625-2.2353515625.369140625-.6494140625.875-1.1494140625,1.5146484375-1.5.6396484375-.349609375,1.35546875-.5244140625,2.1455078125-.5244140625.7890625,0,1.5048828125.1748046875,2.14453125.5244140625.6396484375.3505859375,1.14453125.8505859375,1.5146484375,1.5.3701171875.650390625.5556640625,1.3955078125.5556640625,2.2353515625s-.1904296875,1.5849609375-.5703125,2.2353515625c-.3798828125.6494140625-.8974609375,1.15234375-1.552734375,1.5068359375-.654296875.35546875-1.376953125.5322265625-2.1669921875.5322265625-.7802734375,0-1.4853515625-.1767578125-2.115234375-.5322265625Zm3.3525390625-1.267578125c.384765625-.2099609375.697265625-.5244140625.9375-.9443359375s.3603515625-.9306640625.3603515625-1.5302734375c0-.6005859375-.115234375-1.107421875-.345703125-1.5224609375-.2294921875-.4150390625-.53515625-.7275390625-.9150390625-.9375s-.7900390625-.3154296875-1.2294921875-.3154296875c-.4404296875,0-.84765625.10546875-1.22265625.3154296875s-.6728515625.5224609375-.892578125.9375-.330078125.921875-.330078125,1.5224609375c0,.8896484375.2275390625,1.5771484375.6826171875,2.0625s1.02734375.7275390625,1.7177734375.7275390625c.439453125,0,.8525390625-.10546875,1.2373046875-.3154296875Z"/>
    <path class="cls-3" d="m592.09148632729466,631.869899504411478c.4150390625-.2353515625.9072265625-.3525390625,1.4775390625-.3525390625v1.76953125h-.435546875c-.669921875,0-1.177734375.169921875-1.5224609375.509765625-.3447265625.3408203125-.517578125.9306640625-.517578125,1.7705078125v4.349609375h-1.7099609375v-8.2646484375h1.7099609375v1.2001953125c.25-.419921875.5830078125-.748046875.998046875-.982421875Z"/>
    <path class="cls-3" d="m602.58367382729466,631.652126066911478l-5.0703125,12.1494140625h-1.76953125l1.6796875-4.01953125-3.2548828125-8.1298828125h1.9052734375l2.32421875,6.2998046875,2.4150390625-6.2998046875h1.7705078125Z"/>
  </g>
  <rect class="cls-8" x="677.903439386538025" y="390.153018272330371" width="86.489361600765506" height="14.714492504268947" rx="7.357238891358185" ry="7.357238891358185"/>
  <rect class="cls-8" x="697.148120204244378" y="410.133816480024848" width="47.999999965359393" height="14.71449251775698" rx="7.357238883535995" ry="7.357238883535995"/>
  <rect class="cls-2" x="541.156147172610872" y="390.153018272330428" width="86.489361600771645" height="14.714492504268947" rx="7.357238885289388" ry="7.357238885289388"/>
  <rect class="cls-2" x="560.400827990317339" y="410.133816480024961" width="47.999999993752795" height="14.714492517756923" rx="7.357238905854519" ry="7.357238905854519"/>
  <rect class="cls-2" x="404.408854958683492" y="390.153018272330428" width="86.489361614973859" height="14.714492504268947" rx="7.357238900340366" ry="7.357238900340366"/>
  <rect class="cls-2" x="423.65353577638956" y="410.133816480024848" width="47.999999993760355" height="14.71449251775698" rx="7.357238893666771" ry="7.357238893666771"/>
  <rect class="cls-8" x="261.802436849294679" y="387.519865409155841" width="86.489361614968004" height="14.714492519276462" rx="7.357238893847094" ry="7.357238893847094"/>
  <rect class="cls-8" x="281.047117667000521" y="407.500663624301126" width="47.999999979560187" height="14.714492517864244" rx="7.357238894077029" ry="7.357238894077029"/>
  <rect class="cls-2" x="534.110626624916677" y="267.368693079604213" width="100.580402690143274" height="100.580402608772204" rx="50.290150658506228" ry="50.290150658506228"/>
  <rect class="cls-8" x="254.756916320695098" y="267.368693079604213" width="100.580402659372226" height="100.580402608772204" rx="50.290150645612421" ry="50.290150645612421"/>
  <rect class="cls-2" x="397.363334438943866" y="267.368693079604213" width="100.580402667981389" height="100.580402608772204" rx="50.290150625168096" ry="50.290150625168096"/>
  <rect class="cls-2" x="670.857918877472912" y="267.368693079604213" width="100.580402615353592" height="100.580402608772204" rx="50.290150627437356" ry="50.290150627437356"/>
  <rect class="cls-18" x="668.281944661920534" y="301.988809394663804" width="231.319148936170677" height="245.718999194063144" rx="39.999999999999979" ry="39.999999999999979"/>
  <circle id="path4106" class="cls-6" cx="783.941519130004963" cy="406.731753444671995" r="70.866137742994852"/>
  <circle id="path4106-0" class="cls-13" cx="783.941519130004963" cy="406.731753444671995" r="68.031492233275003"/>
  <circle id="path4106-0-1" class="cls-6" cx="783.941519130004963" cy="406.731753444671995" r="62.362201213835299"/>
  <circle id="path4106-0-1-9" class="cls-5" cx="783.941519130005872" cy="406.731753444671995" r="59.527555704115002"/>
  <g>
    <path class="cls-3" d="m741.06511913979466,492.886989348161478c-.25.47021484375-.650390625.8525390625-1.2001953125,1.1474609375s-1.2548828125.4423828125-2.115234375.4423828125h-1.8896484375v4.22998046875h-1.7099609375v-10.4248046875h3.599609375c.7998046875,0,1.4775390625.13720703125,2.0322265625.412109375.5556640625.275390625.970703125.64794921875,1.2451171875,1.11767578125.275390625.47021484375.4130859375.9951171875.4130859375,1.5751953125,0,.52978515625-.125,1.02978515625-.375,1.5Zm-1.8603515625-.24755859375c.3203125-.294921875.48046875-.71240234375.48046875-1.25244140625,0-1.14013671875-.6455078125-1.7099609375-1.935546875-1.7099609375h-1.8896484375v3.40478515625h1.8896484375c.650390625,0,1.134765625-.1474609375,1.455078125-.4423828125Z"/>
    <path class="cls-3" d="m744.78484570229466,487.606715910661478v11.10009765625h-1.7099609375v-11.10009765625h1.7099609375Z"/>
    <path class="cls-3" d="m746.98211132729466,492.331813566911478c.3447265625-.6396484375.814453125-1.13720703125,1.41015625-1.49267578125.5947265625-.3544921875,1.251953125-.5322265625,1.97265625-.5322265625.6494140625,0,1.216796875.12744140625,1.7021484375.38232421875s.8720703125.57275390625,1.162109375.95263671875v-1.2001953125h1.7255859375v8.26513671875h-1.7255859375v-1.22998046875c-.2900390625.39013671875-.6845703125.71484375-1.1845703125.97509765625-.5.259765625-1.0703125.3896484375-1.7099609375.3896484375-.7099609375,0-1.3603515625-.18212890625-1.9501953125-.54736328125-.58984375-.36474609375-1.0576171875-.875-1.40234375-1.52978515625s-.517578125-1.3974609375-.517578125-2.2275390625.1728515625-1.56494140625.517578125-2.205078125Zm5.89453125.75c-.234375-.419921875-.5419921875-.73974609375-.921875-.9599609375-.3798828125-.2197265625-.7900390625-.330078125-1.23046875-.330078125-.439453125,0-.849609375.107421875-1.2294921875.32275390625-.3798828125.21484375-.6875.52978515625-.9228515625.94482421875s-.3525390625.9072265625-.3525390625,1.4775390625c0,.56982421875.1171875,1.0703125.3525390625,1.5.2353515625.43017578125.544921875.75732421875.9296875.982421875.3857421875.22509765625.79296875.33740234375,1.22265625.33740234375.4404296875,0,.8505859375-.10986328125,1.23046875-.330078125.3798828125-.2197265625.6875-.5419921875.921875-.96728515625.2353515625-.4248046875.3525390625-.92236328125.3525390625-1.49267578125,0-.56982421875-.1171875-1.06494140625-.3525390625-1.48486328125Z"/>
    <path class="cls-3" d="m763.12175976479466,490.711696379411478c.515625.27001953125.91796875.67041015625,1.2080078125,1.2001953125.2900390625.5302734375.4345703125,1.169921875.4345703125,1.919921875v4.875h-1.6943359375v-4.6201171875c0-.73974609375-.185546875-1.30712890625-.5556640625-1.7021484375s-.875-.5927734375-1.5146484375-.5927734375c-.640625,0-1.1474609375.19775390625-1.5224609375.5927734375s-.5625.96240234375-.5625,1.7021484375v4.6201171875h-1.7099609375v-8.26513671875h1.7099609375v.9453125c.279296875-.33984375.6376953125-.60498046875,1.072265625-.79541015625.4345703125-.189453125.8974609375-.28466796875,1.3876953125-.28466796875.6494140625,0,1.232421875.134765625,1.7470703125.40478515625Z"/>
    <path class="cls-3" d="m777.16179882729466,488.919215910661478c.8349609375.42529296875,1.4794921875,1.03515625,1.9345703125,1.830078125s.6826171875,1.72265625.6826171875,2.78271484375-.2275390625,1.97998046875-.6826171875,2.759765625c-.455078125.7802734375-1.099609375,1.3779296875-1.9345703125,1.79248046875-.8349609375.4150390625-1.8076171875.62255859375-2.91796875.62255859375h-3.404296875v-10.4248046875h3.404296875c1.1103515625,0,2.0830078125.21240234375,2.91796875.63720703125Zm-.1123046875,7.40283203125c.6494140625-.66015625.974609375-1.59033203125.974609375-2.7900390625,0-1.2099609375-.3251953125-2.1552734375-.974609375-2.8349609375-.650390625-.68017578125-1.5849609375-1.02001953125-2.8056640625-1.02001953125h-1.6943359375v7.634765625h1.6943359375c1.220703125,0,2.1552734375-.330078125,2.8056640625-.98974609375Z"/>
    <path class="cls-3" d="m788.95867382729466,490.441676848161478v8.26513671875h-1.7099609375v-.97509765625c-.26953125.34033203125-.6220703125.607421875-1.0576171875.802734375-.4345703125.19482421875-.8974609375.29248046875-1.38671875.29248046875-.650390625,0-1.232421875-.13525390625-1.748046875-.4052734375-.5146484375-.27001953125-.919921875-.669921875-1.21484375-1.19970703125-.294921875-.5302734375-.4423828125-1.169921875-.4423828125-1.919921875v-4.8603515625h1.6953125v4.60498046875c0,.740234375.1845703125,1.3076171875.5546875,1.70263671875s.875.59228515625,1.5146484375.59228515625c.640625,0,1.1474609375-.197265625,1.5224609375-.59228515625s.5625-.96240234375.5625-1.70263671875v-4.60498046875h1.7099609375Z"/>
    <path class="cls-3" d="m793.91668163979466,490.659450285661478c.4150390625-.23486328125.9072265625-.3525390625,1.4775390625-.3525390625v1.77001953125h-.435546875c-.669921875,0-1.177734375.169921875-1.5224609375.509765625-.3447265625.34033203125-.517578125.93017578125-.517578125,1.77001953125v4.35009765625h-1.7099609375v-8.26513671875h1.7099609375v1.2001953125c.25-.419921875.5830078125-.74755859375.998046875-.982421875Z"/>
    <path class="cls-3" d="m796.91570507729466,492.331813566911478c.345703125-.6396484375.8154296875-1.13720703125,1.41015625-1.49267578125.5947265625-.3544921875,1.2529296875-.5322265625,1.97265625-.5322265625.650390625,0,1.2177734375.12744140625,1.703125.38232421875.484375.2548828125.8720703125.57275390625,1.162109375.95263671875v-1.2001953125h1.724609375v8.26513671875h-1.724609375v-1.22998046875c-.2900390625.39013671875-.685546875.71484375-1.185546875.97509765625-.5.259765625-1.0693359375.3896484375-1.7099609375.3896484375-.7099609375,0-1.359375-.18212890625-1.94921875-.54736328125-.5908203125-.36474609375-1.0576171875-.875-1.4033203125-1.52978515625-.3447265625-.65478515625-.5166015625-1.3974609375-.5166015625-2.2275390625s.171875-1.56494140625.5166015625-2.205078125Zm5.8955078125.75c-.2353515625-.419921875-.54296875-.73974609375-.9228515625-.9599609375-.3798828125-.2197265625-.7900390625-.330078125-1.2294921875-.330078125-.4404296875,0-.8505859375.107421875-1.23046875.32275390625-.3798828125.21484375-.6875.52978515625-.921875.94482421875-.2353515625.4150390625-.3525390625.9072265625-.3525390625,1.4775390625,0,.56982421875.1171875,1.0703125.3525390625,1.5.234375.43017578125.544921875.75732421875.9296875.982421875s.7919921875.33740234375,1.22265625.33740234375c.439453125,0,.849609375-.10986328125,1.2294921875-.330078125.3798828125-.2197265625.6875-.5419921875.9228515625-.96728515625.234375-.4248046875.3525390625-.92236328125.3525390625-1.49267578125,0-.56982421875-.1181640625-1.06494140625-.3525390625-1.48486328125Z"/>
    <path class="cls-3" d="m809.13347851479466,491.836696379411478v4.5751953125c0,.31005859375.072265625.5322265625.2177734375.66748046875.14453125.134765625.392578125.20263671875.7421875.20263671875h1.0498046875v1.4248046875h-1.349609375c-.7705078125,0-1.3603515625-.18017578125-1.7705078125-.5400390625s-.6142578125-.94482421875-.6142578125-1.7548828125v-4.5751953125h-.9755859375v-1.39501953125h.9755859375v-2.0546875h1.724609375v2.0546875h2.009765625v1.39501953125h-2.009765625Z"/>
    <path class="cls-3" d="m812.80828320229466,489.032008879411478c-.2099609375-.2099609375-.314453125-.47021484375-.314453125-.7802734375,0-.3095703125.1044921875-.56982421875.314453125-.77978515625s.470703125-.31494140625.7802734375-.31494140625c.2998046875,0,.5546875.10498046875.7646484375.31494140625.2109375.2099609375.3154296875.47021484375.3154296875.77978515625,0,.31005859375-.1044921875.5703125-.3154296875.7802734375-.2099609375.2099609375-.46484375.31494140625-.7646484375.31494140625-.3095703125,0-.5703125-.10498046875-.7802734375-.31494140625Zm1.6201171875,1.40966796875v8.26513671875h-1.7099609375v-8.26513671875h1.7099609375Z"/>
    <path class="cls-3" d="m818.14910351479466,498.309352629411478c-.630859375-.35498046875-1.125-.85498046875-1.4853515625-1.5s-.5400390625-1.392578125-.5400390625-2.24267578125c0-.83984375.1845703125-1.58447265625.5546875-2.23486328125.3701171875-.64990234375.875-1.14990234375,1.515625-1.5.6396484375-.35009765625,1.3544921875-.52490234375,2.14453125-.52490234375s1.5048828125.1748046875,2.1455078125.52490234375c.6396484375.35009765625,1.14453125.85009765625,1.5146484375,1.5.3701171875.650390625.5546875,1.39501953125.5546875,2.23486328125,0,.84033203125-.189453125,1.58544921875-.5693359375,2.2353515625-.380859375.64990234375-.8984375,1.15234375-1.552734375,1.50732421875-.6552734375.35498046875-1.3779296875.5322265625-2.16796875.5322265625-.779296875,0-1.484375-.17724609375-2.1142578125-.5322265625Zm3.3515625-1.267578125c.3857421875-.2099609375.6982421875-.52490234375.9375-.94482421875.240234375-.419921875.3603515625-.93017578125.3603515625-1.5302734375s-.115234375-1.107421875-.3447265625-1.5224609375c-.23046875-.41455078125-.53515625-.7275390625-.9150390625-.9375s-.7900390625-.31494140625-1.23046875-.31494140625c-.439453125,0-.8466796875.10498046875-1.2216796875.31494140625s-.6728515625.52294921875-.892578125.9375c-.220703125.4150390625-.330078125.92236328125-.330078125,1.5224609375,0,.89013671875.2265625,1.57763671875.6826171875,2.0625.4541015625.4853515625,1.02734375.7275390625,1.716796875.7275390625.4404296875,0,.8525390625-.10498046875,1.2373046875-.31494140625Z"/>
    <path class="cls-3" d="m832.16570507729466,490.711696379411478c.515625.27001953125.91796875.67041015625,1.2080078125,1.2001953125.2900390625.5302734375.4345703125,1.169921875.4345703125,1.919921875v4.875h-1.6943359375v-4.6201171875c0-.73974609375-.185546875-1.30712890625-.5556640625-1.7021484375s-.875-.5927734375-1.5146484375-.5927734375c-.640625,0-1.1474609375.19775390625-1.5224609375.5927734375s-.5625.96240234375-.5625,1.7021484375v4.6201171875h-1.7099609375v-8.26513671875h1.7099609375v.9453125c.279296875-.33984375.6376953125-.60498046875,1.072265625-.79541015625.4345703125-.189453125.8974609375-.28466796875,1.3876953125-.28466796875.6494140625,0,1.232421875.134765625,1.7470703125.40478515625Z"/>
  </g>
  <g>
    <path class="cls-16" d="m741.72625195229466,507.345485441911478v-.99560546875h2.255859375v8.67578125h-1.1044921875v-7.68017578125h-1.1513671875Z"/>
    <path class="cls-16" d="m746.52605663979466,507.375758879411478c.447265625-.77197265625,1.2314453125-1.158203125,2.3515625-1.158203125,1.1123046875,0,1.8916015625.38623046875,2.33984375,1.158203125s.671875,1.84619140625.671875,3.2216796875c0,1.400390625-.2236328125,2.48828125-.671875,3.26416015625-.4482421875.7763671875-1.2275390625,1.1640625-2.33984375,1.1640625-1.1201171875,0-1.904296875-.3876953125-2.3515625-1.1640625-.4482421875-.77587890625-.671875-1.86376953125-.671875-3.26416015625,0-1.37548828125.2236328125-2.44970703125.671875-3.2216796875Zm4.1455078125,1.45166015625c-.091796875-.48388671875-.2802734375-.87353515625-.5634765625-1.169921875-.2841796875-.2958984375-.6943359375-.44384765625-1.23046875-.44384765625-.5439453125,0-.9580078125.14794921875-1.2421875.44384765625-.2841796875.29638671875-.4716796875.68603515625-.5634765625,1.169921875-.091796875.484375-.1376953125,1.07421875-.1376953125,1.77001953125,0,.72021484375.0458984375,1.32421875.1376953125,1.81201171875.091796875.48828125.279296875.88037109375.5634765625,1.17626953125s.6982421875.44384765625,1.2421875.44384765625c.5361328125,0,.9462890625-.14794921875,1.23046875-.44384765625.283203125-.2958984375.4716796875-.68798828125.5634765625-1.17626953125.091796875-.48779296875.138671875-1.091796875.138671875-1.81201171875,0-.69580078125-.046875-1.28564453125-.138671875-1.77001953125Z"/>
    <path class="cls-16" d="m754.06218945229466,507.375758879411478c.447265625-.77197265625,1.2314453125-1.158203125,2.3515625-1.158203125,1.1123046875,0,1.8916015625.38623046875,2.33984375,1.158203125s.671875,1.84619140625.671875,3.2216796875c0,1.400390625-.2236328125,2.48828125-.671875,3.26416015625-.4482421875.7763671875-1.2275390625,1.1640625-2.33984375,1.1640625-1.1201171875,0-1.904296875-.3876953125-2.3515625-1.1640625-.4482421875-.77587890625-.671875-1.86376953125-.671875-3.26416015625,0-1.37548828125.2236328125-2.44970703125.671875-3.2216796875Zm4.1455078125,1.45166015625c-.091796875-.48388671875-.2802734375-.87353515625-.5634765625-1.169921875-.2841796875-.2958984375-.6943359375-.44384765625-1.23046875-.44384765625-.5439453125,0-.9580078125.14794921875-1.2421875.44384765625-.2841796875.29638671875-.4716796875.68603515625-.5634765625,1.169921875-.091796875.484375-.1376953125,1.07421875-.1376953125,1.77001953125,0,.72021484375.0458984375,1.32421875.1376953125,1.81201171875.091796875.48828125.279296875.88037109375.5634765625,1.17626953125s.6982421875.44384765625,1.2421875.44384765625c.5361328125,0,.9462890625-.14794921875,1.23046875-.44384765625.283203125-.2958984375.4716796875-.68798828125.5634765625-1.17626953125.091796875-.48779296875.138671875-1.091796875.138671875-1.81201171875,0-.69580078125-.046875-1.28564453125-.138671875-1.77001953125Z"/>
    <path class="cls-16" d="m761.59832226479466,507.375758879411478c.447265625-.77197265625,1.2314453125-1.158203125,2.3515625-1.158203125,1.1123046875,0,1.8916015625.38623046875,2.33984375,1.158203125s.671875,1.84619140625.671875,3.2216796875c0,1.400390625-.2236328125,2.48828125-.671875,3.26416015625-.4482421875.7763671875-1.2275390625,1.1640625-2.33984375,1.1640625-1.1201171875,0-1.904296875-.3876953125-2.3515625-1.1640625-.4482421875-.77587890625-.671875-1.86376953125-.671875-3.26416015625,0-1.37548828125.2236328125-2.44970703125.671875-3.2216796875Zm4.1455078125,1.45166015625c-.091796875-.48388671875-.2802734375-.87353515625-.5634765625-1.169921875-.2841796875-.2958984375-.6943359375-.44384765625-1.23046875-.44384765625-.5439453125,0-.9580078125.14794921875-1.2421875.44384765625-.2841796875.29638671875-.4716796875.68603515625-.5634765625,1.169921875-.091796875.484375-.1376953125,1.07421875-.1376953125,1.77001953125,0,.72021484375.0458984375,1.32421875.1376953125,1.81201171875.091796875.48828125.279296875.88037109375.5634765625,1.17626953125s.6982421875.44384765625,1.2421875.44384765625c.5361328125,0,.9462890625-.14794921875,1.23046875-.44384765625.283203125-.2958984375.4716796875-.68798828125.5634765625-1.17626953125.091796875-.48779296875.138671875-1.091796875.138671875-1.81201171875,0-.69580078125-.046875-1.28564453125-.138671875-1.77001953125Z"/>
    <path class="cls-16" d="m776.45476757729466,508.647731535661478c.3994140625.2119140625.7138671875.52978515625.94140625.9541015625.228515625.423828125.341796875.93994140625.341796875,1.5478515625v3.8759765625h-1.080078125v-3.72021484375c0-.65576171875-.1640625-1.15771484375-.4912109375-1.505859375-.328125-.34814453125-.7763671875-.52197265625-1.3447265625-.52197265625-.5751953125,0-1.0341796875.18017578125-1.3740234375.5400390625s-.509765625.88427734375-.509765625,1.57177734375v3.63623046875h-1.091796875v-8.8798828125h1.091796875v3.23974609375c.2158203125-.3359375.513671875-.595703125.89453125-.77978515625.3798828125-.18408203125.8056640625-.27587890625,1.27734375-.27587890625.49609375,0,.9443359375.10595703125,1.3447265625.31787109375Z"/>
    <path class="cls-16" d="m780.72039257729466,514.713649504411478c-.5-.27978515625-.8916015625-.67822265625-1.17578125-1.19384765625-.2841796875-.51611328125-.42578125-1.1142578125-.42578125-1.7939453125,0-.67236328125.1455078125-1.26611328125.4375-1.7822265625s.6904296875-.912109375,1.1943359375-1.18798828125,1.0673828125-.4140625,1.69140625-.4140625,1.1884765625.13818359375,1.6923828125.4140625.90234375.669921875,1.1943359375,1.18212890625c.2919921875.51171875.4375,1.10791015625.4375,1.7880859375,0,.6796875-.1494140625,1.27783203125-.4501953125,1.7939453125-.2998046875.515625-.7060546875.9140625-1.2177734375,1.19384765625-.51171875.2802734375-1.080078125.419921875-1.7041015625.419921875-.6162109375,0-1.173828125-.1396484375-1.673828125-.419921875Zm2.7783203125-.81591796875c.34375-.18408203125.6220703125-.4599609375.833984375-.828125.2119140625-.36767578125.3173828125-.81591796875.3173828125-1.34375,0-.5283203125-.103515625-.97607421875-.3115234375-1.34423828125-.2080078125-.36767578125-.48046875-.64208984375-.81640625-.82177734375-.3359375-.18017578125-.7001953125-.27001953125-1.091796875-.27001953125-.400390625,0-.765625.08984375-1.09765625.27001953125-.33203125.1796875-.5986328125.4541015625-.7978515625.82177734375-.2001953125.3681640625-.30078125.81591796875-.30078125,1.34423828125,0,.53564453125.0986328125.98779296875.2939453125,1.35595703125.1962890625.36767578125.4580078125.64208984375.7861328125.82177734375.328125.18017578125.6884765625.27001953125,1.080078125.27001953125.392578125,0,.759765625-.091796875,1.1044921875-.27587890625Z"/>
    <path class="cls-16" d="m793.03875195229466,508.449489348161478v6.576171875h-1.091796875v-.97216796875c-.2080078125.3359375-.498046875.59814453125-.8701171875.7861328125s-.7822265625.2822265625-1.23046875.2822265625c-.51171875,0-.9716796875-.10595703125-1.3798828125-.318359375-.408203125-.2119140625-.7294921875-.52978515625-.9658203125-.95361328125-.236328125-.42431640625-.3544921875-.93994140625-.3544921875-1.54833984375v-3.85205078125h1.080078125v3.7080078125c0,.64794921875.1640625,1.14599609375.4921875,1.494140625s.7763671875.52197265625,1.34375.52197265625c.583984375,0,1.044921875-.18017578125,1.380859375-.5400390625s.50390625-.8837890625.50390625-1.57177734375v-3.6123046875h1.091796875Z"/>
    <path class="cls-16" d="m796.80047070229466,508.641872160661478c.3564453125-.2080078125.7900390625-.31201171875,1.302734375-.31201171875v1.1279296875h-.2880859375c-1.224609375,0-1.8359375.6640625-1.8359375,1.99169921875v3.576171875h-1.0927734375v-6.576171875h1.0927734375v1.068359375c.19140625-.3759765625.4658203125-.66796875.8212890625-.8759765625Z"/>
    <path class="cls-16" d="m800.33465038979466,514.875758879411478c-.3994140625-.171875-.7158203125-.412109375-.947265625-.72021484375-.232421875-.3076171875-.3603515625-.66162109375-.384765625-1.06201171875h1.1279296875c.0322265625.328125.1865234375.59619140625.4619140625.80419921875.2763671875.2080078125.638671875.31201171875,1.0869140625.31201171875.4150390625,0,.7431640625-.091796875.9833984375-.27587890625s.3603515625-.416015625.3603515625-.6962890625c0-.2880859375-.1279296875-.501953125-.3837890625-.64208984375-.2568359375-.1396484375-.65234375-.27783203125-1.1884765625-.4140625-.48828125-.12744140625-.8857421875-.2578125-1.1943359375-.3896484375-.3076171875-.13232421875-.5712890625-.328125-.7919921875-.587890625-.2197265625-.26025390625-.330078125-.60205078125-.330078125-1.0263671875,0-.3359375.1005859375-.6435546875.30078125-.923828125.19921875-.27978515625.4833984375-.501953125.8515625-.666015625s.7880859375-.24609375,1.259765625-.24609375c.728515625,0,1.31640625.18408203125,1.7646484375.55224609375.447265625.36767578125.6875.8720703125.7197265625,1.51171875h-1.091796875c-.0244140625-.34375-.162109375-.61962890625-.4140625-.828125-.251953125-.20751953125-.58984375-.3115234375-1.0146484375-.3115234375-.3916015625,0-.703125.083984375-.935546875.251953125s-.34765625.3876953125-.34765625.65966796875c0,.21630859375.0693359375.39404296875.2099609375.5341796875.1396484375.14013671875.3154296875.251953125.52734375.3359375s.505859375.17822265625.8828125.2822265625c.4716796875.1279296875.85546875.25390625,1.1513671875.3779296875s.5498046875.31005859375.76171875.55810546875.322265625.57177734375.330078125.9716796875c0,.35986328125-.099609375.68408203125-.2998046875.97216796875s-.4814453125.51416015625-.845703125.677734375c-.3642578125.1640625-.7822265625.24609375-1.25390625.24609375-.50390625,0-.9560546875-.0859375-1.3564453125-.2578125Z"/>
    <path class="cls-16" d="m809.92254101479466,506.145778410661478v8.8798828125h-1.091796875v-8.8798828125h1.091796875Z"/>
    <path class="cls-16" d="m817.74675976479466,512.145778410661478h-5.2568359375c.0400390625.64794921875.2626953125,1.15380859375.666015625,1.51806640625.404296875.36376953125.89453125.5458984375,1.470703125.5458984375.4716796875,0,.865234375-.10986328125,1.181640625-.330078125.31640625-.2197265625.5380859375-.51416015625.666015625-.8818359375h1.17578125c-.17578125.6318359375-.52734375,1.14599609375-1.0556640625,1.5419921875s-1.1845703125.59375-1.9677734375.59375c-.6240234375,0-1.1826171875-.1396484375-1.673828125-.419921875-.4921875-.27978515625-.87890625-.67822265625-1.158203125-1.19384765625-.2802734375-.51611328125-.419921875-1.1142578125-.419921875-1.7939453125,0-.68017578125.1357421875-1.2763671875.4072265625-1.7880859375.2724609375-.51220703125.654296875-.90625,1.146484375-1.18212890625s1.0576171875-.4140625,1.6982421875-.4140625c.6240234375,0,1.17578125.13623046875,1.6552734375.408203125.48046875.27197265625.8505859375.64599609375,1.1103515625,1.1220703125s.3896484375,1.013671875.3896484375,1.61376953125c0,.2080078125-.01171875.42822265625-.03515625.66015625Zm-1.3681640625-1.9619140625c-.1845703125-.30029296875-.4345703125-.5283203125-.75-.68408203125-.31640625-.15625-.666015625-.23388671875-1.0498046875-.23388671875-.552734375,0-1.0224609375.17578125-1.41015625.52783203125-.388671875.35205078125-.6103515625.83984375-.666015625,1.4638671875h4.1513671875c0-.416015625-.091796875-.77392578125-.275390625-1.07373046875Z"/>
    <path class="cls-16" d="m821.89812695229466,509.349879973161478h-1.3798828125v5.67578125h-1.091796875v-5.67578125h-.8525390625v-.900390625h.8525390625v-.4677734375c0-.73583984375.189453125-1.27392578125.5703125-1.6142578125.37890625-.33984375.9892578125-.509765625,1.8291015625-.509765625v.912109375c-.4794921875,0-.8173828125.09375-1.013671875.28173828125s-.2939453125.498046875-.2939453125.93017578125v.4677734375h1.3798828125v.900390625Z"/>
    <path class="cls-16" d="m824.50164257729466,509.349879973161478v3.8759765625c0,.31982421875.068359375.5458984375.2041015625.677734375s.3720703125.1982421875.7080078125.1982421875h.8046875v.923828125h-.984375c-.6083984375,0-1.064453125-.1396484375-1.3681640625-.419921875-.3037109375-.27978515625-.4560546875-.73974609375-.4560546875-1.3798828125v-3.8759765625h-.8515625v-.900390625h.8515625v-1.65576171875h1.091796875v1.65576171875h1.716796875v.900390625h-1.716796875Z"/>
  </g>
  <g>
    <path class="cls-3" d="m766.42156445229466,402.897731535661478v-1.56005859375h3.1201171875v10.93505859375h-1.724609375v-9.375h-1.3955078125Z"/>
    <path class="cls-3" d="m772.77410351479466,402.605251066911478c.5849609375-.97509765625,1.5927734375-1.46240234375,3.0224609375-1.46240234375,1.4306640625,0,2.4375.4873046875,3.0224609375,1.46240234375.5859375.97509765625.8779296875,2.32763671875.8779296875,4.0576171875,0,1.75-.2919921875,3.11767578125-.8779296875,4.1025390625-.5849609375.98486328125-1.591796875,1.4775390625-3.0224609375,1.4775390625-1.4296875,0-2.4375-.49267578125-3.0224609375-1.4775390625s-.876953125-2.3525390625-.876953125-4.1025390625c0-1.72998046875.2919921875-3.08251953125.876953125-4.0576171875Zm5.0849609375,2.00244140625c-.1044921875-.56005859375-.3173828125-1.017578125-.63671875-1.37255859375-.3203125-.35498046875-.794921875-.5322265625-1.42578125-.5322265625-.6298828125,0-1.1044921875.17724609375-1.4248046875.5322265625s-.5322265625.8125-.6376953125,1.37255859375c-.1044921875.56005859375-.1572265625,1.2451171875-.1572265625,2.05517578125,0,.83984375.0498046875,1.544921875.150390625,2.11474609375.099609375.5703125.3125,1.0302734375.6376953125,1.3798828125.32421875.3505859375.8017578125.525390625,1.431640625.525390625.630859375,0,1.107421875-.1748046875,1.4326171875-.525390625.3251953125-.349609375.5380859375-.8095703125.6376953125-1.3798828125.099609375-.56982421875.150390625-1.27490234375.150390625-2.11474609375,0-.81005859375-.052734375-1.4951171875-.158203125-2.05517578125Z"/>
    <path class="cls-3" d="m782.38933788979466,402.605251066911478c.5849609375-.97509765625,1.591796875-1.46240234375,3.0224609375-1.46240234375,1.4296875,0,2.4375.4873046875,3.0224609375,1.46240234375s.8779296875,2.32763671875.8779296875,4.0576171875c0,1.75-.29296875,3.11767578125-.8779296875,4.1025390625s-1.5927734375,1.4775390625-3.0224609375,1.4775390625c-1.4306640625,0-2.4375-.49267578125-3.0224609375-1.4775390625s-.8779296875-2.3525390625-.8779296875-4.1025390625c0-1.72998046875.29296875-3.08251953125.8779296875-4.0576171875Zm5.0849609375,2.00244140625c-.10546875-.56005859375-.3173828125-1.017578125-.6376953125-1.37255859375s-.794921875-.5322265625-1.4248046875-.5322265625-1.10546875.17724609375-1.4248046875.5322265625c-.3203125.35498046875-.533203125.8125-.6376953125,1.37255859375-.10546875.56005859375-.1572265625,1.2451171875-.1572265625,2.05517578125,0,.83984375.0498046875,1.544921875.1494140625,2.11474609375.1005859375.5703125.3125,1.0302734375.6376953125,1.3798828125.3251953125.3505859375.802734375.525390625,1.4326171875.525390625s1.107421875-.1748046875,1.4326171875-.525390625c.32421875-.349609375.537109375-.8095703125.6376953125-1.3798828125.099609375-.56982421875.1494140625-1.27490234375.1494140625-2.11474609375,0-.81005859375-.052734375-1.4951171875-.1572265625-2.05517578125Z"/>
    <path class="cls-3" d="m791.49383007729466,402.260036223161478c.4248046875-.41455078125.97265625-.6220703125,1.642578125-.6220703125s1.2177734375.20751953125,1.642578125.6220703125c.4248046875.4150390625.6376953125.98779296875.6376953125,1.7177734375s-.212890625,1.3046875-.6376953125,1.72509765625c-.4248046875.419921875-.97265625.6298828125-1.642578125.6298828125s-1.2177734375-.2099609375-1.642578125-.6298828125c-.4248046875-.42041015625-.6376953125-.9951171875-.6376953125-1.72509765625s.212890625-1.302734375.6376953125-1.7177734375Zm.697265625,1.7177734375c0,.8798828125.3154296875,1.31982421875.9453125,1.31982421875.2998046875,0,.5322265625-.107421875.697265625-.322265625s.248046875-.5478515625.248046875-.99755859375c0-.8701171875-.3154296875-1.30517578125-.9453125-1.30517578125s-.9453125.43505859375-.9453125,1.30517578125Zm7.8154296875-2.14501953125l-5.9853515625,10.43994140625h-1.6796875l5.9853515625-10.43994140625h1.6796875Zm-2.4072265625,6.5625c.4248046875-.4150390625.9716796875-.62255859375,1.642578125-.62255859375.6591796875,0,1.2021484375.20751953125,1.626953125.62255859375s.6376953125.98779296875.6376953125,1.71728515625c0,.73046875-.212890625,1.30517578125-.6376953125,1.72509765625s-.9677734375.6298828125-1.626953125.6298828125c-.6708984375,0-1.2177734375-.2099609375-1.642578125-.6298828125-.42578125-.419921875-.6376953125-.99462890625-.6376953125-1.72509765625,0-.7294921875.2119140625-1.30224609375.6376953125-1.71728515625Zm.6826171875,1.71728515625c0,.8701171875.314453125,1.30517578125.9443359375,1.30517578125s.9453125-.43505859375.9453125-1.30517578125c0-.86962890625-.3154296875-1.3046875-.9453125-1.3046875s-.9443359375.43505859375-.9443359375,1.3046875Z"/>
  </g>
  <rect class="cls-17" x="126.598033632445549" y="274.738186290462181" width="300" height="320.000000000000909" rx="40" ry="40"/>
  <rect class="cls-2" x="216.598033632445549" y="501.982798944209208" width="120" height="45.000000000000909" rx="10" ry="10"/>
  <g>
    <path class="cls-3" d="m247.528209413695549,518.989040129411478v3.4951171875h3.81005859375v1.125h-3.81005859375v3.599609375h4.259765625v1.125h-5.625v-10.4697265625h5.625v1.125h-4.259765625Z"/>
    <path class="cls-3" d="m253.857799257445549,521.981227629411478c.33984375-.634765625.8076171875-1.126953125,1.40283203125-1.4775390625.5947265625-.349609375,1.26220703125-.5244140625,2.00244140625-.5244140625.6396484375,0,1.23486328125.1474609375,1.78515625.4423828125.5498046875.294921875.9697265625.6826171875,1.259765625,1.162109375v-4.349609375h1.3798828125v11.099609375h-1.3798828125v-1.544921875c-.27001953125.490234375-.669921875.892578125-1.2001953125,1.2080078125-.52978515625.314453125-1.14990234375.4716796875-1.85986328125.4716796875-.72998046875,0-1.392578125-.1796875-1.9873046875-.5390625-.59521484375-.3603515625-1.06298828125-.865234375-1.40283203125-1.515625-.33984375-.6494140625-.509765625-1.3896484375-.509765625-2.2197265625,0-.83984375.169921875-1.5771484375.509765625-2.212890625Zm6.0751953125.607421875c-.25-.4599609375-.58740234375-.8115234375-1.0126953125-1.0576171875-.4248046875-.244140625-.89208984375-.3671875-1.40234375-.3671875-.509765625,0-.97509765625.1201171875-1.39501953125.3603515625s-.7548828125.58984375-1.0048828125,1.0498046875-.375,1-.375,1.6201171875c0,.6298828125.125,1.177734375.375,1.642578125s.5849609375.8203125,1.0048828125,1.064453125c.419921875.2451171875.88525390625.3681640625,1.39501953125.3681640625.51025390625,0,.9775390625-.123046875,1.40234375-.3681640625.42529296875-.244140625.7626953125-.599609375,1.0126953125-1.064453125s.375-1.0078125.375-1.6279296875-.125-1.16015625-.375-1.6201171875Z"/>
    <path class="cls-3" d="m264.043346132445549,518.508571379411478c-.18017578125-.1796875-.27001953125-.39892578125-.27001953125-.6591796875s.08984375-.47998046875.27001953125-.66015625c.1796875-.18017578125.3994140625-.27001953125.65966796875-.27001953125.25,0,.46240234375.08984375.6376953125.27001953125.1748046875.18017578125.26220703125.39990234375.26220703125.66015625s-.08740234375.4794921875-.26220703125.6591796875c-.17529296875.1806640625-.3876953125.2705078125-.6376953125.2705078125-.26025390625,0-.47998046875-.08984375-.65966796875-.2705078125Zm1.31982421875,1.60546875v8.2197265625h-1.365234375v-8.2197265625h1.365234375Z"/>
    <path class="cls-3" d="m269.352916444945549,521.239040129411478v4.8447265625c0,.400390625.0849609375.6826171875.25537109375.84765625.169921875.1650390625.46484375.248046875.884765625.248046875h1.0048828125v1.154296875h-1.22998046875c-.759765625,0-1.330078125-.1748046875-1.7099609375-.5244140625-.3798828125-.3505859375-.56982421875-.9248046875-.56982421875-1.7255859375v-4.8447265625h-1.06494140625v-1.125h1.06494140625v-2.06982421875h1.36474609375v2.06982421875h2.14501953125v1.125h-2.14501953125Z"/>
    <path class="cls-3" d="m283.250377382445549,523.106227629411478c-.59521484375.5751953125-1.50244140625.8623046875-2.72265625.8623046875h-2.009765625v4.365234375h-1.365234375v-10.45458984375h3.375c1.18017578125,0,2.07763671875.28515625,2.69287109375.85498046875.61474609375.5703125.92236328125,1.3046875.92236328125,2.205078125,0,.8701171875-.2978515625,1.5927734375-.892578125,2.1669921875Zm-1.04248046875-.7568359375c.35986328125-.330078125.5400390625-.80078125.5400390625-1.41015625,0-1.2900390625-.740234375-1.935546875-2.22021484375-1.935546875h-2.009765625v3.83984375h2.009765625c.76025390625,0,1.3203125-.1640625,1.68017578125-.494140625Z"/>
    <path class="cls-3" d="m287.203014101195549,517.234157316911478v11.099609375h-1.365234375v-11.099609375h1.365234375Z"/>
    <path class="cls-3" d="m289.527721132445549,521.981227629411478c.33984375-.634765625.8076171875-1.126953125,1.40283203125-1.4775390625.5947265625-.349609375,1.25732421875-.5244140625,1.9873046875-.5244140625.72021484375,0,1.3447265625.1552734375,1.875.46484375.52978515625.3095703125.9248046875.7001953125,1.18505859375,1.169921875v-1.5h1.3798828125v8.2197265625h-1.3798828125v-1.529296875c-.27001953125.4794921875-.6728515625.876953125-1.20751953125,1.1923828125-.53515625.314453125-1.15771484375.4716796875-1.86767578125.4716796875-.72998046875,0-1.3896484375-.1796875-1.97998046875-.5390625-.58984375-.3603515625-1.05517578125-.865234375-1.39501953125-1.515625-.33984375-.6494140625-.509765625-1.3896484375-.509765625-2.2197265625,0-.83984375.169921875-1.5771484375.509765625-2.212890625Zm6.0751953125.607421875c-.25-.4599609375-.58740234375-.8115234375-1.0126953125-1.0576171875-.4248046875-.244140625-.89208984375-.3671875-1.40234375-.3671875-.509765625,0-.97509765625.1201171875-1.39501953125.3603515625s-.7548828125.58984375-1.0048828125,1.0498046875-.375,1-.375,1.6201171875c0,.6298828125.125,1.177734375.375,1.642578125s.5849609375.8203125,1.0048828125,1.064453125c.419921875.2451171875.88525390625.3681640625,1.39501953125.3681640625.51025390625,0,.9775390625-.123046875,1.40234375-.3681640625.42529296875-.244140625.7626953125-.599609375,1.0126953125-1.064453125s.375-1.0078125.375-1.6279296875-.125-1.16015625-.375-1.6201171875Z"/>
    <path class="cls-3" d="m306.102916444945549,520.871852629411478c.6201171875.6044921875.93017578125,1.4775390625.93017578125,2.6171875v4.8447265625h-1.35009765625v-4.6494140625c0-.8203125-.205078125-1.4482421875-.61474609375-1.8828125-.41015625-.4345703125-.97021484375-.65234375-1.68017578125-.65234375-.72021484375,0-1.29248046875.224609375-1.71728515625.6748046875-.42529296875.4501953125-.6376953125,1.10546875-.6376953125,1.96484375v4.544921875h-1.365234375v-8.2197265625h1.365234375v1.169921875c.27001953125-.419921875.6376953125-.7451171875,1.1025390625-.974609375.46484375-.23046875.97705078125-.345703125,1.53759765625-.345703125.99951171875,0,1.8095703125.302734375,2.4296875.908203125Z"/>
  </g>
  <rect class="cls-2" x="562.403439445727827" y="698.334731579423988" width="86.489361600764369" height="14.714492504270993" rx="7.357238889846861" ry="7.357238889846861"/>
  <rect class="cls-2" x="562.403439401655532" y="719.126529060545863" width="54.638297895119649" height="14.714492496589401" rx="7.357238897999178" ry="7.357238897999178"/>
  <rect class="cls-2" x="690.158758527249802" y="698.334731542915165" width="103.244680815751735" height="14.714492500866754" rx="7.357238911573017" ry="7.357238911573017"/>
  <rect class="cls-2" x="738.765141476283929" y="719.126529401273274" width="54.638297866722382" height="14.714492496698085" rx="7.357238861774419" ry="7.357238861774419"/>
  <rect class="cls-2" x="546.477907534632664" y="661.086366700488156" width="86.489361629170048" height="14.71449250437729" rx="7.35723889740534" ry="7.35723889740534"/>
  <rect class="cls-3" x="226.59803362891148" y="332.241863339116094" width="100.000000007068138" height="99.999999999617614" rx="49.999949988442054" ry="49.999949988442054"/>
  <g>
    <polyline class="cls-12" points="269.601906170379152 404.75457635350358 268.968020181514476 410.202971492143661 264.886251276316216 412.271813266011122"/>
    <polyline class="cls-12" points="272.602459061986337 413.446020759286512 268.968007297085023 410.202971492143661 268.408860871713841 414.005167184657694"/>
    <polyline class="cls-12" points="282.558185804045934 406.492528772862897 283.002582573862128 411.544922913031769 280.206850447012584 414.340655039880403"/>
    <polyline class="cls-12" points="285.310295867107925 414.843886822712193 283.946280967109487 411.246711486158347 286.674310767110001 412.527062029676017"/>
    <path class="cls-11" d="m290.961096899925906,392.086628447754265c-.015077569013556,3.098560732166334-.030810103348813,6.332806218821133-2.236586270270891,9.542764522056132-2.389580822520657,3.47743812020417-6.596957742632185,5.831383482625824-11.169965711337682,5.815116282722556-5.226155426425976-.018592995123072-8.711359564003942-3.124919744663202-10.003044742803468-4.473159173904605-4.079765615697397-4.258397381926443-4.11231338214202-9.594346382717049-4.124730989956333-11.630245932085018-.052423958930376-8.59569803503382,5.625109506538138-17.033843493852146,9.641650918834785-16.848956140479459,1.076348621335455.049550131502656,1.999702690422964.71678602693737,4.486124813925016.745537667849931,1.936478487022214.022389120654225,2.525425976678889-.369052908228696,3.86378745955335-.149104860242005,1.961046369865471.322269671039066,3.275428102021579,1.586486406287804,4.190775554228821,2.489817249857879,3.131603064261981,3.09048728209109,5.381195074472089,8.50410982325684,5.351988967826401,14.508230384224589Z"/>
    <path class="cls-11" d="m291.334213266471124,370.587445263928203c3.652768326550358-1.151054767808091,7.837769492646657-2.619567216543146,7.687916100609073-3.354879405406791-.032935398980953-.161616034531107-.264432223233598-.234517684711136-.698928196969064-.36343891976594-1.217740930762375-.36131362413289-2.786997739124672-.793791235350909-4.664943713103639-1.230131805296878"/>
    <path class="cls-11" d="m294.078468721035279,363.07677926831002c-.089437002961859,3.1469734483926-1.487805178693634,6.101186071236953-3.67260093927689,8.49168055113023-3.104901859951497,3.397228652100239-7.798104702750607,5.655949324898756-12.579922393592824,5.711442926783093-8.3913221217108.097375966549407-15.74488510944775-6.605191592378105-16.690387699684834-14.203123477913323-.553004596857136-4.44391296734193.958708829763054-10.218060500925276,5.209246627841821-13.083226346073388,3.279879192873523-2.210868856456727,6.996299455280678-1.884682760133728,11.481141071843012-1.491061969061775,3.549912037929971.311562993042571,6.613732874823654.580473040407014,9.691869382297227,2.683914217637721,3.39357582588309,2.318991600921436,6.705321086602453,6.799983625393907,6.560653950572487,11.890374097497443Z"/>
    <circle class="cls-10" cx="275.146575297339268" cy="363.0389705122941" r="1.146250172005011"/>
  </g>
  <text class="cls-4" transform="translate(190.567095152978254 474.763006918657084)"><tspan x="0" y="0">Duck Adventures</tspan></text>
</svg>