<?xml version="1.0" encoding="UTF-8"?>
<svg id="Layer_1" data-name="Layer 1" xmlns="http://www.w3.org/2000/svg" viewBox="0 0 641.88 563.93">
  <defs>
    <style>
      .cls-1 {
        fill: #fff;
        stroke: #231f20;
        stroke-miterlimit: 10;
      }

      .cls-2 {
        fill: #2667f0;
      }

      .cls-2, .cls-3, .cls-4, .cls-5, .cls-6, .cls-7 {
        stroke-width: 0px;
      }

      .cls-3 {
        fill: #ed4337;
      }

      .cls-4 {
        fill: #00c79a;
      }

      .cls-5 {
        fill: #ffea00;
      }

      .cls-6 {
        fill: #a9a9a9;
      }

      .cls-7 {
        fill: #7367f0;
      }
    </style>
  </defs>
  <rect class="cls-2" x="113.66" y="99.19" width="70" height="70" rx="35" ry="35"/>
  <rect class="cls-7" x="0" y="346.8" width="70" height="70" rx="34.03" ry="34.03"/>
  <rect class="cls-3" x="414.73" y="137.4" width="70" height="70" rx="35" ry="35"/>
  <rect class="cls-5" x="197.7" y="186.11" width="70" height="70" rx="35" ry="35"/>
  <rect class="cls-1" x="414.73" y="28.64" width="70" height="70" rx="35" ry="35"/>
  <rect class="cls-6" x="569.88" y="491.93" width="72" height="72" rx="36" ry="36" transform="translate(1211.77 1055.86) rotate(180)"/>
  <rect class="cls-4" x="287.37" y="161.81" width="103.48" height="164.55" rx="15.36" ry="15.36"/>
  <rect class="cls-7" x="94.66" y="279.4" width="173.04" height="137.4" rx="13.55" ry="13.55"/>
  <rect class="cls-2" x="217.8" width="173.04" height="137.4" rx="13.55" ry="13.55"/>
  <rect class="cls-6" x="410.51" y="228.09" width="110.6" height="177.76" rx="15.36" ry="15.36"/>
  <rect class="cls-5" x="302.36" y="426.52" width="250.2" height="137.4" rx="13.55" ry="13.55"/>
  <rect class="cls-3" x="7.66" y="441.26" width="190.04" height="97.81" rx="13.55" ry="13.55"/>
  <rect class="cls-2" x="507.71" y="137.4" width="70" height="70" rx="35" ry="35"/>
  <rect class="cls-4" x="113.66" y="186.11" width="70" height="70" rx="35" ry="35"/>
  <rect class="cls-3" x="215.03" y="432.83" width="70" height="70" rx="35" ry="35"/>
  <rect class="cls-4" x="542.71" y="335.84" width="70" height="70" rx="35" ry="35"/>
  <rect class="cls-1" x="307.32" y="338.91" width="70" height="70" rx="35" ry="35"/>
</svg>