<?xml version="1.0" encoding="UTF-8"?>
<svg id="Layer_1" data-name="Layer 1" xmlns="http://www.w3.org/2000/svg" viewBox="0 0 594.021276595747622 474.256370011832587">
  <defs>
    <style>
      .cls-1 {
        fill: #14191f;
      }

      .cls-2, .cls-3 {
        fill: #fff;
      }

      .cls-4 {
        fill: #f36e2c;
      }

      .cls-4, .cls-3, .cls-5, .cls-6 {
        fill-rule: evenodd;
      }

      .cls-5 {
        fill: #e2452a;
      }

      .cls-7 {
        fill: #4378bc;
      }

      .cls-8 {
        fill: #38ba96;
      }

      .cls-9 {
        fill: #ea4535;
      }

      .cls-10 {
        fill: #548;
      }

      .cls-11 {
        fill: #36a852;
      }

      .cls-12 {
        fill: #aaa;
      }

      .cls-13 {
        fill: #f9bc15;
      }

      .cls-6 {
        fill: #faa327;
      }

      .cls-14 {
        fill: #20b6ea;
      }

      .cls-15 {
        fill: #557ebf;
      }
    </style>
  </defs>
  <rect class="cls-1" x="384.021276595749441" y="110.000007629390893" width="99.999999999998181" height="99.999999999996362" rx="15.000000000000002" ry="15.000000000000002" transform="translate(868.042553191497063 320.000015258778092) rotate(180)"/>
  <rect class="cls-8" x="494.021276595747622" y="220.000015258782696" width="100" height="100" rx="14.999999999998181" ry="14.999999999998181" transform="translate(1088.042553191495244 540.000030517565392) rotate(180)"/>
  <rect class="cls-8" x="274.021276595749441" width="100" height="99.999999999996362" rx="14.999999999999636" ry="14.999999999999636" transform="translate(648.042553191498882 99.999999999996319) rotate(180)"/>
  <rect class="cls-12" x="54.021276595748532" y=".000015258781787" width="100" height="99.999999999996362" rx="14.999999999999636" ry="14.999999999999636" transform="translate(208.042553191497063 100.000030517559921) rotate(180)"/>
  <rect class="cls-12" x="164.021276595748532" y="220.000015258782696" width="100.000000000000909" height="100" rx="14.999999999998181" ry="14.999999999998181" transform="translate(428.042553191497973 540.000030517565392) rotate(180)"/>
  <rect class="cls-1" x="384.021276595749441" y="220.000015258782696" width="99.999999999998181" height="99.999999999996362" rx="14.999999999998181" ry="14.999999999998181" transform="translate(868.042553191497063 540.000030517561754) rotate(180)"/>
  <rect class="cls-1" x="274.021276595749441" y="330.000045776353545" width="100" height="99.999999999996362" rx="14.999999999999952" ry="14.999999999999952" transform="translate(648.042553191498882 760.000091552703452) rotate(180)"/>
  <rect class="cls-8" x="54.021276595748532" y="330.000030517568121" width="100" height="99.999999999996362" rx="15" ry="15" transform="translate(208.04255319149712 760.000061035132603) rotate(180)"/>
  <g>
    <rect class="cls-2" y="264.2563547530508" width="100" height="100" rx="15" ry="15"/>
    <g>
      <path class="cls-15" d="m50.605919178291515,308.746575777170619v11.735713099005807h16.308709645765703c-.716135729244343,3.774140150306266-2.86520312887842,6.969915260062407-6.088318778407483,9.11865255374687l9.83478828299485,7.631020385821103c5.730095569808327-5.289151694003522,9.035931886541221-13.057923350519559,9.035931886541221-22.286656529242464,0-2.148756711683745-.192801292181684-4.215103444112174-.551024500779022-6.198399403383519l-28.540086536115268-.000330105947796Z"/>
      <path class="cls-11" d="m33.623055512787687,320.024160073028725l-2.218117796954175,1.697929075404318-7.851472905726041,6.115698154173515h0c4.986269776845802,9.889838304479781,15.206039268299719,16.72198287584979,27.051832992279742,16.72198287584979,8.181734198647973,0,15.041219309790904-2.699781212464586,20.055179150353069-7.327827780711232l-9.83478828299485-7.631020385817465c-2.699761794465303,1.818204148803488-6.143388217889878,2.920253150366989-10.220390867358219,2.920253150366989-7.878852281490254,0-14.572934894211357-5.316822339726059-16.96981477152076-12.479538891970151l-.012427518078766-.017476197295764Z"/>
      <path class="cls-13" d="m23.553464810107471,300.674941621494327c-2.066036044476277,4.077022067465805-3.250495025293276,8.677708677943883-3.250495025293276,13.581277205577862s1.184458980816999,9.504255138113876,3.250495025293276,13.581277205577862c0,.027359957770386,10.082950284615436-7.823802260003504,10.082950284615436-7.823802260003504-.606074522267591-1.818204148805307-.964297730868566-3.746469504587367-.964297730868566-5.757785633524691,0-2.011316128940962.358223208600975-3.939581484723021.964297730868566-5.75778563352651l-10.082950284615436-7.823180884101021Z"/>
      <path class="cls-9" d="m50.605919178291515,296.019204989529499c4.462915921783861,0,8.42985736427363,1.542682189416155,11.597942410313408,4.517965943272429l8.677708677942064-8.677708677943883c-5.261772318235671-4.903568527635798-12.093606201655348-7.906522927210972-20.275651088255472-7.906522927210972-11.845793723980023,0-22.066184591338242,6.80447392564929-27.052454368184044,16.72198287584979l10.082639596663284,7.823802260003504c2.396569189357251-7.162697134246628,9.090962490030506-12.479538891966513,16.96981477152076-12.479538891966513v.000019417995645Z"/>
    </g>
  </g>
  <g>
    <rect class="cls-7" x="440" y="154.2563547530508" width="100" height="100" rx="15" ry="15"/>
    <path class="cls-3" d="m490.024821577226248,174.756262120767133c-16.602950322654578,0-30.024821577224429,13.520818632272494-30.024821577224429,30.247914446966206,0,13.370860780833027,8.599855251546614,24.689015366442618,20.53013317755358,28.694863789673946,1.491593328562885.30114419300935,2.037957280328555-.650841879499239,2.037957280328555-1.451643954885185,0-.70123810817131-.049167738543474-3.104872824459562-.049167738543474-5.609295309197478-8.352178512532191,1.803184376567515-10.091447407883607-3.605754508071186-10.091447407883607-3.605754508071186-1.342248549965007-3.505580984683547-3.331038091751907-4.406556583455313-3.331038091751907-4.406556583455313-2.733663666243956-1.852966360174833.199125003873633-1.852966360174833.199125003873633-1.852966360174833,3.032350292885894.200351735665208,4.623505244217085,3.104872824458653,4.623505244217085,3.104872824458653,2.683882854860713,4.606913008014999,7.008700300215423,3.305224560124771,8.748584612856575,2.503808239673162.248290984078267-1.953144572454221,1.044176754499858-3.305224560123861,1.889227919018595-4.056244651903398-6.661461938434513-.701238108170401-13.670162238649937-3.305224560123861-13.670162238649937-14.923911438126197,0-3.305224560123861,1.19229069852372-6.009389224357619,3.081517445316422-8.112491648252217-.298072967685584-.751020091778628-1.342248549961369-3.856505989078869.298687212751247-8.012928853261656,0,0,2.535153493552571-.801416320450699,8.25138605518805,3.104871652234579,2.447323482629145-.662112807547601,4.971207220356519-.9989347921437,7.506513102949611-1.001769228339072,2.535153493552571,0,5.119472381198648.350926176617577,7.505898857885768,1.001769228339072,5.716849151145652-3.906286800462112,8.252002644698223-3.104871652234579,8.252002644698223-3.104871652234579,1.640934590492179,4.156422864182787.596145935372988,7.261908761483028.298072967687403,8.012928853261656,1.939007558177764,2.103102423894597,3.082131690380265,4.807264743681117,3.082131690380265,8.112491648252217,0,11.618686878002336-7.008700300213604,14.172277101283726-13.719941877809106,14.923911438126197,1.093956393660847.951371827444746,2.037957280328555,2.753946647841076,2.037957280328555,5.608681064133634,0,4.056244651902489-.049167738543474,7.31169191731351-.049167738543474,8.312845728365573,0,.801416320449789.546978196831333,1.753402392959288,2.037957280330374,1.452872445013782,11.930280270453295-4.007076913359924,20.530133177551761-15.324617253904762,20.530133177551761-28.695480379184119.049163049648996-16.727098159140951-13.42187359901618-30.247916791413445-29.975044282509771-30.247916791413445Z"/>
  </g>
  <g>
    <rect class="cls-10" x="110" y="44.2563547530508" width="100" height="100" rx="15" ry="15"/>
    <g>
      <path class="cls-5" d="m160.037102179396243,121.612149983712698h0l10.936118897910092-33.657687612745576h-21.872246858637482l10.93612796072739,33.657687612745576h0Z"/>
      <path class="cls-4" d="m160.037102179396243,121.612149983712698l-10.936118897911001-33.657687612745576h-15.326636643441816l26.262764604169206,33.657687612745576h-.000009062816389Z"/>
      <path class="cls-6" d="m133.774337575227037,87.954462370967121h0l-3.32328046456405,10.228394488026424c-.30309683784526.932862899471729.02876537983866,1.954813285968157.822414353759086,2.531299048893743l28.763621652156871,20.897994075825409-26.262764604168297-33.657687612745576h.000009062816389Z"/>
      <path class="cls-5" d="m133.774337575227037,87.954643627299447h15.326636643441816l-6.586800716570906-20.271753449850621c-.338731832655867-1.043293319550685-1.814493696792852-1.042921744070554-2.153225529447809,0l-6.58661946023949,20.271753449850621h.000009062816389Z"/>
      <path class="cls-4" d="m160.037102179396243,121.612149983712698l10.936118897910092-33.657687612745576h15.326636643441816l-26.262764604169206,33.657687612745576h.000009062817298Z"/>
      <path class="cls-6" d="m186.29985772074815,87.954462370967121h0l3.323280464564959,10.228394488026424c.30309683784526.932862899471729-.02876537983866,1.954813285968157-.822414353759086,2.531299048893743l-28.763621652157781,20.897994075825409,26.262755541351908-33.657687612745576h0Z"/>
      <path class="cls-5" d="m186.29985772074815,87.954643627299447h-15.326636643441816l6.586800716571815-20.271753449850621c.338731832654958-1.043293319550685,1.814484633976463-1.042921744070554,2.153216466630511,0l6.58661946023949,20.271753449850621h0Z"/>
    </g>
  </g>
  <g>
    <rect class="cls-14" x="330" y="264.2563547530508" width="100" height="100" rx="15" ry="15"/>
    <g>
      <path class="cls-3" d="m410.276510886693359,310.308448251672417c-.162744134486275-.127688593816856-1.683947690378773-1.260754346969406-4.892999082985625-1.260754346969406-.847503630136998.003744506695512-1.6927550630935.075183102633673-2.527880764009751.214123527079209-.62100217383886-4.199436792257984-4.030316010062961-6.17268653471001-4.188006433802002-6.263996650895933l-.861364713597141-.490878277378215-.567187478603955.806437652683599c-.71006467047664,1.084126240837577-1.337237498379181,2.203500283081667-1.64155877596022,3.459374869491512-.574694802538943,2.397564606817468-.225366202435907,4.64887372598605,1.009130821303188,6.573193111398723-1.492309514014778.820120208316439-4.035186615346902.892684902844849-4.51856672406393.910308803546286h-39.33693088903965c-1.034252890667631.001318359325523-1.873123098279393.826318328203342-1.879312062888857,1.845565726274799-.046316526575538,3.421874870908141.441934187429069,6.952496075602539,1.635186705887463,10.165310285454325,1.363494821609493,3.528369007512083,3.392999139576204,6.127496106726539,6.032436906212752,7.717693800639609,2.957253916756599,1.786688165018859,7.762682812617641,2.808370865732286,13.210317494796982,2.808370865732286,2.460195830039083.007507323936807,4.916811948298346-.211679069161619,7.335754117784745-.65605771450646,3.36299730965402-.609750343208361,6.599624384814888-1.769256525050878,9.574502202272924-3.430682243622869,2.451379302050555-1.401013130740466,4.657507148511286-3.182629274464489,6.53437475348619-5.277383223759898,3.136303592620607-3.503246938149459,5.004382135426567-7.403439051755413,6.394299075180243-10.87031208990993h.553308084592572c3.434435905590362,0,5.545312290800211-1.355996652946487,6.709698233202289-2.491497708741008.773821992290323-.725061007802651,1.378491158931865-1.607812439344343,1.770556573828799-2.585623071401642l.246569814915347-.711190769068708-.592309547966579-.462002546046278h-.000018310545784Z"/>
      <path class="cls-3" d="m360.786821591613261,313.004136016187658h-3.756188823139382c-.691122410451499,0-1.251937818980878-.560815408531198-1.251937818980878-1.251937818980878v-3.756188823139382c0-.69112698808749.560815408529379-1.252120924444171,1.251937818980878-1.252120924444171h3.756188823139382c.69112241044968,0,1.252120924440533.560993936356681,1.252120924440533,1.252120924444171v3.756188823139382c0,.69112241044968-.560998513990853,1.251937818980878-1.252120924440533,1.251937818980878Z"/>
      <path class="cls-3" d="m368.299190082616406,313.004136016187658h-3.756179667863762c-.691131565723481,0-1.252130079716153-.560815408531198-1.252130079716153-1.251937818980878v-3.756188823139382c0-.69112698808749.560998513992672-1.252120924444171,1.252130079716153-1.252120924444171h3.756179667863762c.6911315657253,0,1.251937818982697.560993936356681,1.251937818982697,1.252120924444171v3.756188823139382c0,.69112241044968-.560806253257397,1.251937818980878-1.251937818982697,1.251937818980878Z"/>
      <path class="cls-3" d="m375.811375468159895,313.004136016187658h-3.756179667863762c-.6911315657253,0-1.251937818980878-.560815408531198-1.251937818980878-1.251937818980878v-3.756188823139382c0-.69112698808749.560806253255578-1.252120924444171,1.251937818980878-1.252120924444171h3.756179667863762c.6911315657253,0,1.252130079717972.560993936356681,1.252130079717972,1.252120924444171v3.756188823139382c0,.69112241044968-.560998513992672,1.251937818980878-1.252130079717972,1.251937818980878Z"/>
      <path class="cls-3" d="m383.32376226971428,313.004136016187658h-3.756188823139382c-.691122410451499,0-1.252120924442352-.560815408531198-1.252120924442352-1.251937818980878v-3.756188823139382c0-.69112698808749.560998513990853-1.252120924444171,1.252120924442352-1.252120924444171h3.756188823139382c.691122410447861,0,1.251937818979059.560993936356681,1.251937818979059,1.252120924444171v3.756188823139382c0,.69112241044968-.560815408531198,1.251937818980878-1.251937818979059,1.251937818980878Z"/>
      <path class="cls-3" d="m368.299190082616406,305.491950630644169h-3.756179667863762c-.691131565723481,0-1.252130079716153-.560998513992672-1.252130079716153-1.252125502080162v-3.756184245503391c0-.691126988085671.560998513992672-1.251937818979059,1.252130079716153-1.251937818979059h3.756179667863762c.6911315657253,0,1.251937818982697.560810830893388,1.251937818982697,1.251937818979059v3.756184245503391c0,.69112698808749-.560806253257397,1.252125502080162-1.251937818982697,1.252125502080162Z"/>
      <path class="cls-3" d="m375.811375468159895,305.491950630644169h-3.756179667863762c-.6911315657253,0-1.251937818980878-.560998513992672-1.251937818980878-1.252125502080162v-3.756184245503391c0-.691126988085671.560806253255578-1.251937818979059,1.251937818980878-1.251937818979059h3.756179667863762c.6911315657253,0,1.252130079717972.560810830893388,1.252130079717972,1.251937818979059v3.756184245503391c0,.69112698808749-.560998513992672,1.252125502080162-1.252130079717972,1.252125502080162Z"/>
      <path class="cls-3" d="m383.32376226971428,305.491950630644169h-3.756188823139382c-.691122410451499,0-1.252120924442352-.560998513992672-1.252120924442352-1.252125502080162v-3.756184245503391c0-.691126988085671.560998513990853-1.251937818979059,1.252120924442352-1.251937818979059h3.756188823139382c.691122410447861,0,1.251937818979059.560810830893388,1.251937818979059,1.251937818979059v3.756184245503391c0,.69112698808749-.560815408531198,1.252125502080162-1.251937818979059,1.252125502080162Z"/>
      <path class="cls-3" d="m383.32376226971428,297.979572984365404h-3.756188823139382c-.691122410451499,0-1.252120924442352-.560998513992672-1.252120924442352-1.252125502080162v-3.755996562404107c0-.69112698808749.560998513990853-1.252125502078343,1.252120924442352-1.252125502078343h3.756188823139382c.691122410447861,0,1.251937818979059.560998513990853,1.251937818979059,1.252125502078343v3.755996562404107c0,.69112698808749-.560815408531198,1.252125502080162-1.251937818979059,1.252125502080162Z"/>
      <path class="cls-3" d="m390.83594765525595,313.004136016187658h-3.756005717677908c-.691113255175878,0-1.25211176916855-.560815408531198-1.25211176916855-1.251937818980878v-3.756188823139382c0-.69112698808749.560998513992672-1.252120924444171,1.25211176916855-1.252120924444171h3.756005717677908c.691113255179516,0,1.252111769172188.560993936356681,1.252111769172188,1.252120924444171v3.756188823139382c0,.69112241044968-.560998513992672,1.251937818980878-1.252111769172188,1.251937818980878Z"/>
    </g>
  </g>
  <g>
    <rect x="110" y="374.2563547530508" width="100" height="100" rx="15" ry="15"/>
    <g>
      <path class="cls-3" d="m151.242170831892508,424.256362382443513c0-4.428750276056235,3.590412315752474-8.019162591808708,8.019386387313716-8.019162591808708,4.428750276056235,0,8.019162591806889,3.590422488272452,8.019162591806889,8.019162591808708,0,4.428953726515829-3.590402143227038,8.019162591808708-8.019152419285092,8.019162591808708-4.428963899037626,0-8.0193762147901-3.59020886529288-8.0193762147901-8.019162591808708h-.000020345045414Z"/>
      <path class="cls-3" d="m126.508006830681552,415.75406598625068c0,.0964660350146-.096659312950578.289581210457982-.096659312950578.386464318911749,0,.869374327785408.676248979823868,1.642496243541245,1.642496243541245,1.642496243541245h13.623134270284936c.676238807298432,0,1.159372611680737-.386464318908111,1.449370895576067-.966247263719197,2.802082478207012-6.183541000302284,8.985613305987499-10.338329974874796,16.038325183617417-10.338329974874796,9.75854194380554,0,17.681248673123264,7.922915266039126,17.681248673123264,17.681243586861456s-7.922706729317724,17.681248673121445-17.681248673123264,17.681248673121445c-7.149798436543279,0-13.236446155869999-4.251249923325304-16.038325183617417-10.241665575664229-.289998283895329-.676248979823868-.773121915754018-1.062916749189753-1.449584518559277-1.062916749189753h-13.622493401338943c-.869587950768619,0-1.642709866522637.676248979822049-1.642709866522637,1.64269969399902,0,.096455862490984,0,.289794833435735.096883108455586.38646431890993,3.767912668483405,14.685827223969682,17.004582619856592,25.507072293983583,32.753326593019665,25.507072293983583,18.647282313857431,0,33.816243342209418-15.169164478811581,33.816243342209418-33.816243342211237-.000203450457775-18.64728231385925-15.169367929269356-33.816238255949429-33.816436620145396-33.816238255949429-15.748540522703479,0-28.985403752014463,10.821245070013902-32.753540216002875,25.313946946020224l-.000030517567211.000005086259989Z"/>
    </g>
  </g>
  <g>
    <rect class="cls-1" x="220" y="154.2563547530508" width="100" height="100" rx="15" ry="15"/>
    <g id="layer2">
      <path id="path907" class="cls-8" d="m259.295651422517949,174.243172436416899c-3.774273797789647.093282124110374-5.183375999060445,4.044378830400092-4.088261420657545,6.570379170215347l3.47177573474346,8.290206748039964-14.049426579756073.04863973405827c-2.979573007271938.030994924871266-4.747398491516833,2.635774928292449-4.62364264435746,4.59117791620065v35.999597886024276c-.008413048413786,2.818397986387936,2.322938726016218,4.526438458848133,4.607467638456001,4.52636317624092l35.415576928267001-.016286137370116c4.971459044527364.095311365670568,5.732716769076433-4.294431802835788,4.62364264435746-6.878625598058534l-3.277102082158308-7.981963905082011h13.773533748601949c3.772429373913837-.117903317617674,4.790490411347491-2.720103995518002,4.818316296941703-4.915595765059152l.032468313045683-35.691355043067233c-.095379478505492-1.90689253380333-1.363292734757124-4.519527554712113-4.850784609987386-4.52636317624092l-35.853563967496484-.016175005901459Zm28.992378840117453,9.390795447456185c1.474047789572069.008686178922289,2.313298295235654,1.14213125529659,2.326906522717763,2.385641295919413l-.008603726542788,21.384734397845023c-.006563926375748,1.786054762891581-1.165740418666246,2.586097369719937-2.409846446595111,2.595686939929692l-10.740892216626889-.004244505093993-9.546809688773465-23.079783243225393c-.685921344004782-1.724963823326107.415721311912421-3.288990460552668,2.12672648514399-3.263336119687665l18.252519070676499-.018698765687077Zm-25.742120384776172,14.867468899489722l9.574112181004239,23.178783456649398c.516040763408455,1.916092919819675-.376993787809624,3.070888681344513-2.344113975804248,3.206666240856066l-17.795833265759029-.053801969984306c-2.223490625889099-.068159438652401-2.574216161096956-1.249856185169847-2.55840412490852-2.649488909913998l-.060226085803151-20.995272376318098c.141387906193813-2.283405722826501,1.37293966314337-2.683767590417119,2.847374620408118-2.664631468631342l10.337090650862592-.02225497265772Z"/>
    </g>
  </g>
  <rect class="cls-1" x="110" y="264.256362382443513" width="100" height="99.999999999998181" rx="15" ry="15"/>
  <rect class="cls-8" y="154.2563547530508" width="100" height="100" rx="15" ry="15"/>
  <rect class="cls-8" x="220" y="374.256370011836225" width="100" height="99.999999999996362" rx="15" ry="15"/>
  <rect class="cls-12" x="440" y="374.256354753052619" width="100" height="99.999999999996362" rx="15" ry="15"/>
  <rect class="cls-12" x="330" y="154.2563547530508" width="100" height="100" rx="15" ry="15"/>
  <rect class="cls-1" x="110" y="154.256354753052619" width="100" height="99.999999999996362" rx="15" ry="15"/>
  <rect class="cls-1" x="220" y="44.256324235483589" width="100" height="99.999999999996362" rx="15" ry="15"/>
  <rect class="cls-8" x="440" y="44.256339494269014" width="100" height="99.999999999996362" rx="15" ry="15"/>
</svg>