<?xml version="1.0" encoding="UTF-8"?>
<svg id="Layer_1" data-name="Layer 1" xmlns="http://www.w3.org/2000/svg" viewBox="0 0 677.473419042927162 644.138297878253979">
  <defs>
    <style>
      .cls-1 {
        fill: #14191f;
      }

      .cls-2 {
        fill: #00c79a;
      }

      .cls-3 {
        fill: #a9a9a9;
      }

      .cls-4 {
        fill: #1f2428;
      }

      .cls-5 {
        fill: #303338;
      }
    </style>
  </defs>
  <rect class="cls-3" x="157.225766721418211" y="9.206310933160342" width="49.991633486774049" height="49.991633486896291" rx="24.99579161635187" ry="24.99579161635187" transform="translate(8.707496668562129 -31.122849945230953) rotate(10.000003703666998)"/>
  <rect class="cls-3" x="534.767906020729129" y="541.191178857841578" width="24.995816797027487" height="24.995816766452549" rx="12.497895991186576" ry="12.497895991186576" transform="translate(104.461324674002071 -86.619948165477808) rotate(10.000002349773213)"/>
  <rect class="cls-3" x="184.53217301772068" y="619.140389506017755" width="24.995816789336374" height="24.99581675209015" rx="12.497895248961829" ry="12.497895248961829" transform="translate(112.676179572216427 -24.617910909184161) rotate(10.00000092017353)"/>
  <rect class="cls-3" x="117.030094056460371" y="115.819148915235644" width="399.999999999996817" height="400.00000005387102" rx="35.380037687475848" ry="35.380037687475848" transform="translate(200.383403467006644 -116.203263613627826) rotate(29.9999801274239)"/>
  <rect class="cls-5" x="142.030094056462133" y="140.007214460302606" width="350.000000000000341" height="350.000000047139565" rx="35.380037687477355" ry="35.380037687477355" transform="translate(59.516800915877752 -50.266011430961271) rotate(9.99999571424225)"/>
  <rect class="cls-4" x="172.030094057019824" y="165.819148921969997" width="300.000000000000227" height="300.000000040404643" rx="35.380037687479259" ry="35.380037687479259" transform="translate(-88.5956777049621 129.186911957754944) rotate(-19.999987142728706)"/>
  <rect class="cls-1" x="197.030081366146078" y="190.007214467034828" width="250" height="250.000000033669494" rx="35.380037687478762" ry="35.380037687478762"/>
  <g>
    <rect class="cls-2" x="222.030094057020506" y="215.007216721614896" width="200" height="199.999999999999091" rx="21.83908045976932" ry="21.83908045976932"/>
    <path class="cls-1" d="m322.030142401302328,239.587739631546356h-.00006103515625c-22.09136962890625,0-40,17.90863037109375-40,40v50.404296874999091c0,22.09136962890625,17.90863037109375,40,40,40h.00006103515625c22.09136962890625,0,39.99993896484375-17.90863037109375,39.99993896484375-40v-50.404296874999091c0-22.09136962890625-17.9085693359375-40-39.99993896484375-40Zm19.99993896484375,88.571838378905341c0,11.04571533203125-8.95428466796875,20-19.99993896484375,20h-.00006103515625c-11.04571533203125,0-20-8.95428466796875-20-20v-48.510681152342841c0-11.045654296875,8.95428466796875-20,20-20h.00006103515625c11.045654296875,0,19.99993896484375,8.954345703125,19.99993896484375,20v48.510681152342841Z"/>
    <rect class="cls-1" x="272.030094053816356" y="305.412236286681946" width="100.000000000000909" height="79.999999999999091" rx="9.250672536070851" ry="9.250672536070851"/>
    <g>
      <rect class="cls-3" x="309.530094038541279" y="323.618354413089946" width="25.000000030548847" height="24.999999971117347" rx="12.499987501588164" ry="12.499987501588164"/>
      <rect class="cls-3" x="317.030094111567792" y="342.77792890574824" width="9.999999959821537" height="24.428189263593822" rx="4.999994969364431" ry="4.999994969364431"/>
    </g>
  </g>
  <rect class="cls-3" x="52.744353240708712" y="280.416419549321972" width="49.991633513322135" height="49.991633482537281" rx="24.995792037704661" ry="24.995792037704661" transform="translate(54.21534063667518 -8.859541810449969) rotate(10.000002644294424)"/>
  <rect class="cls-3" x="314.984934298578992" y="545.42223224948691" width="49.991633514085834" height="49.991633478215135" rx="24.99579155007341" ry="24.99579155007341" transform="translate(104.217159290869944 -50.371118521988592) rotate(10.000003048925445)"/>
  <rect class="cls-3" x="7.946128545151211" y="150.002131055894409" width="24.99581678166939" height="24.995816759876817" rx="12.497895881718785" ry="12.497895881718785" transform="translate(28.528431061008959 -1.081328801868608) rotate(10.000001570424047)"/>
  <rect class="cls-3" x=".002091702937371" y="463.626484413061064" width="24.995816783831245" height="24.995816740563384" rx="12.497896246199703" ry="12.497896246199703" transform="translate(82.868048795168548 5.062799010523975) rotate(10.0000015272959)"/>
  <rect class="cls-3" x="414.881904452387516" y=".00209162165231" width="24.995816804675599" height="24.995816758806541" rx="12.49789553514645" ry="12.49789553514645" transform="translate(8.663463132676611 -74.02382857356001) rotate(10.000000819250669)"/>
  <rect class="cls-3" x="523.849513634180084" y="150.002131053157967" width="24.995816805363575" height="24.995816754358373" rx="12.49789553874702" ry="12.49789553874702" transform="translate(36.366162159353792 -90.667019469015912) rotate(10.000000890468288)"/>
  <rect class="cls-3" x="627.477602311410806" y="349.159080609445709" width="49.991633517207106" height="49.991633507010192" rx="24.995791754182537" ry="24.995791754182537" transform="translate(74.883872504438045 -107.616589456025281) rotate(10.000002268743168)"/>
</svg>