<?xml version="1.0" encoding="UTF-8"?>
<svg id="Layer_1" data-name="Layer 1" xmlns="http://www.w3.org/2000/svg" viewBox="0 0 627.68 361.91">
  <defs>
    <style>
      .cls-1 {
        fill: #14191f;
      }

      .cls-2, .cls-3, .cls-4, .cls-5, .cls-6, .cls-7, .cls-8, .cls-9, .cls-10 {
        fill: #fff;
      }

      .cls-3, .cls-11, .cls-12 {
        stroke: #231f20;
        stroke-miterlimit: 10;
        stroke-width: .5px;
      }

      .cls-13, .cls-14, .cls-15, .cls-16 {
        fill: #a9a9a9;
      }

      .cls-13, .cls-17, .cls-6, .cls-8, .cls-9 {
        isolation: isolate;
      }

      .cls-13, .cls-18, .cls-7, .cls-19, .cls-8, .cls-16 {
        font-family: Poppins-Regular, Poppins;
      }

      .cls-13, .cls-18, .cls-19 {
        font-size: 5px;
      }

      .cls-14 {
        opacity: .5;
      }

      .cls-20 {
        fill: #ed4337;
      }

      .cls-21 {
        fill: #7367f0;
      }

      .cls-22, .cls-18, .cls-23 {
        fill: #00c79a;
      }

      .cls-24 {
        fill: #d77500;
      }

      .cls-4 {
        font-size: 18px;
      }

      .cls-4, .cls-5, .cls-6, .cls-9, .cls-10 {
        font-family: Poppins-Medium, Poppins;
        font-weight: 500;
      }

      .cls-25 {
        fill: #1f2428;
      }

      .cls-5 {
        font-size: 12px;
      }

      .cls-6 {
        font-size: 10px;
      }

      .cls-26 {
        fill: #00dd52;
      }

      .cls-27 {
        fill: #734f00;
        stroke: #734f00;
        stroke-linejoin: round;
        stroke-width: 1.54px;
      }

      .cls-27, .cls-28, .cls-29, .cls-30, .cls-31 {
        stroke-linecap: round;
      }

      .cls-7, .cls-10 {
        font-size: 8px;
      }

      .cls-23 {
        opacity: .2;
      }

      .cls-8 {
        font-size: 7px;
      }

      .cls-9 {
        font-size: 7px;
      }

      .cls-16 {
        font-size: 6px;
      }

      .cls-32 {
        fill: #00ef5b;
      }

      .cls-11 {
        fill: #ef4337;
      }

      .cls-28 {
        stroke-miterlimit: 11.34;
      }

      .cls-28, .cls-29, .cls-30, .cls-31 {
        fill: none;
      }

      .cls-28, .cls-31 {
        stroke: #000;
      }

      .cls-29 {
        stroke-width: .37px;
      }

      .cls-29, .cls-30 {
        stroke: #48cf4f;
      }

      .cls-29, .cls-30, .cls-31 {
        stroke-miterlimit: 12.29;
      }

      .cls-30 {
        stroke-width: .46px;
      }

      .cls-33, .cls-12 {
        fill: #2667f0;
      }

      .cls-34 {
        fill: #303338;
      }

      .cls-35 {
        fill: #ff0;
      }

      .cls-31 {
        stroke-width: .61px;
      }
    </style>
  </defs>
  <rect class="cls-14" x="124.17" y="44.86" width="384.15" height="290.03" rx="26.08" ry="26.08" transform="translate(37.78 -52.03) rotate(10)"/>
  <rect class="cls-1" x="69.41" y="41.49" width="492.39" height="266.71" rx="21.11" ry="21.11"/>
  <text class="cls-4" transform="translate(196.5 70.8)"><tspan x="0" y="0">Splashboard</tspan></text>
  <text class="cls-7" transform="translate(196.5 229.05)"><tspan x="0" y="0">My Servers</tspan></text>
  <rect class="cls-34" x="196.5" y="235.91" width="349.43" height="45.51" rx="7.64" ry="7.64"/>
  <g>
    <text class="cls-16" transform="translate(246.57 265.23)"><tspan x="0" y="0">4GB RAM | 20GB Storage</tspan></text>
    <text class="cls-10" transform="translate(246.81 255.8)"><tspan x="0" y="0">Python Server</tspan></text>
    <g>
      <rect class="cls-23" x="305.59" y="247.83" width="28.8" height="10.97" rx="5.48" ry="5.48"/>
      <text class="cls-18" transform="translate(311.48 254.93)"><tspan x="0" y="0">Online</tspan></text>
    </g>
  </g>
  <text class="cls-19" transform="translate(364.65 255.8)"><tspan class="cls-2" x="0" y="0">Time:</tspan><tspan class="cls-15" x="13.25" y="0" xml:space="preserve"> 624 hours left</tspan></text>
  <rect class="cls-1" x="364.66" y="259.66" width="120" height="5" rx="2.5" ry="2.5"/>
  <rect class="cls-22" x="364.66" y="259.66" width="74.88" height="5" rx="2.5" ry="2.5"/>
  <g>
    <rect class="cls-22" x="512.59" y="247.87" width="20" height="20" rx="4.54" ry="4.54"/>
    <path class="cls-1" d="m524.44,257.52c.2.2.2.51,0,.71l-3,3c-.2.2-.51.2-.71,0s-.2-.51,0-.71l2.65-2.65-2.64-2.65c-.2-.2-.2-.51,0-.71s.51-.2.71,0l3,3h0Z"/>
  </g>
  <rect class="cls-34" x="195.54" y="288.95" width="349.43" height="45.51" rx="7.64" ry="7.64"/>
  <rect class="cls-33" x="207.9" y="296.22" width="28" height="28" rx="4.66" ry="4.66"/>
  <rect class="cls-25" x="247.06" y="300.86" width="93.39" height="7.87" rx="3.94" ry="3.94"/>
  <rect class="cls-25" x="247.06" y="311.71" width="59.84" height="7.87" rx="3.94" ry="3.94"/>
  <rect class="cls-25" x="364.94" y="300.86" width="48.15" height="7.87" rx="3.94" ry="3.94"/>
  <rect class="cls-25" x="365.11" y="311.71" width="119.83" height="7.87" rx="3.94" ry="3.94"/>
  <g>
    <rect class="cls-22" x="512.59" y="301.71" width="20" height="20" rx="4.54" ry="4.54"/>
    <path class="cls-1" d="m524.44,311.35c.2.2.2.51,0,.71l-3,3c-.2.2-.51.2-.71,0s-.2-.51,0-.71l2.65-2.65-2.64-2.65c-.2-.2-.2-.51,0-.71s.51-.2.71,0l3,3h0Z"/>
  </g>
  <path id="rect1-5-5-5-7-6-7-9" class="cls-25" d="m97.92,115.74h0c3.91,0,7.09,3.17,7.09,7.09h0c0,3.91-3.17,7.09-7.09,7.09h0c-3.91,0-7.09-3.17-7.09-7.09h0c0-3.91,3.17-7.09,7.09-7.09Z"/>
  <path id="rect1-5-5-5-7-6-7-9-5" class="cls-35" d="m96.34,179.84h0c3.91,0,7.09,3.17,7.09,7.09h0c0,3.91-3.17,7.09-7.09,7.09h0c-3.91,0-7.09-3.17-7.09-7.09h0c0-3.91,3.17-7.09,7.09-7.09Z"/>
  <path id="rect1-5-5-5-7-6-7-9-5-5" class="cls-33" d="m96.34,211.88h0c3.91,0,7.09,3.17,7.09,7.09h0c0,3.91-3.17,7.09-7.09,7.09h0c-3.91,0-7.09-3.17-7.09-7.09h0c0-3.91,3.17-7.09,7.09-7.09Z"/>
  <path id="rect1-5-5-5-7-6-7-9-5-8" class="cls-20" d="m96.34,243.93h0c3.91,0,7.09,3.17,7.09,7.09h0c0,3.91-3.17,7.09-7.09,7.09h0c-3.91,0-7.09-3.17-7.09-7.09h0c0-3.91,3.17-7.09,7.09-7.09Z"/>
  <path id="rect1-5-5-5" class="cls-34" d="m36.27,80.46h99.37c2.65,0,4.8,2.09,4.8,4.68v17.92c0,2.58-2.15,4.68-4.8,4.68H36.27c-2.65,0-4.8-2.09-4.8-4.68v-17.92c0-2.58,2.15-4.68,4.8-4.68Z"/>
  <path id="rect1-5-5-5-7-6-7" class="cls-22" d="m50.48,87.01h0c3.91,0,7.09,3.17,7.09,7.09h0c0,3.91-3.17,7.09-7.09,7.09h0c-3.91,0-7.09-3.17-7.09-7.09h0c0-3.91,3.17-7.09,7.09-7.09Z"/>
  <g id="text1-0-8-3-1" class="cls-17">
    <text class="cls-8" transform="translate(65.77 96.26)"><tspan x="0" y="0">Splashboard</tspan></text>
  </g>
  <g id="text1-2" class="cls-17">
    <text class="cls-6" transform="translate(80.48 66.63)"><tspan x="0" y="0">Splashboard</tspan></text>
  </g>
  <rect class="cls-21" x="196.5" y="83.38" width="349.43" height="121.25" rx="9.52" ry="9.52"/>
  <text class="cls-5" transform="translate(233.27 135.91)"><tspan x="0" y="0">Welcome back, Dasho</tspan></text>
  <g>
    <path class="cls-2" d="m234.68,145.83v4.88h-.64v-4.88h.64Z"/>
    <path class="cls-2" d="m236.54,147.4v2.26c0,.19.04.32.12.4.08.08.22.12.41.12h.47v.54h-.57c-.35,0-.62-.08-.8-.25-.18-.16-.27-.43-.27-.8v-2.26h-.5v-.52h.5v-.97h.64v.97h1v.52h-1Z"/>
    <path class="cls-2" d="m238.41,145.83h.71l-.67,1.59h-.45l.41-1.59Z"/>
    <path class="cls-2" d="m240.41,150.63c-.23-.1-.42-.24-.55-.42-.14-.18-.21-.39-.22-.62h.66c.02.19.11.35.27.47.16.12.37.18.63.18.24,0,.43-.05.57-.16.14-.11.21-.24.21-.41s-.07-.29-.22-.37c-.15-.08-.38-.16-.69-.24-.28-.07-.52-.15-.7-.23-.18-.08-.33-.19-.46-.34-.13-.15-.19-.35-.19-.6,0-.2.06-.38.18-.54.12-.16.28-.29.5-.39.21-.1.46-.14.73-.14.42,0,.77.11,1.03.32.26.21.4.51.42.88h-.64c-.01-.2-.09-.36-.24-.48-.15-.12-.34-.18-.59-.18-.23,0-.41.05-.55.15-.14.1-.2.23-.2.38,0,.13.04.23.12.31.08.08.18.15.31.2.12.05.29.1.51.16.28.07.5.15.67.22.17.07.32.18.44.33s.19.33.19.57c0,.21-.06.4-.17.57s-.28.3-.49.4-.46.14-.73.14c-.29,0-.56-.05-.79-.15Z"/>
    <path class="cls-2" d="m247.82,147.03c.25.15.44.33.56.55v-.7h.64v3.92c0,.35-.07.66-.22.93-.15.27-.36.49-.64.64-.28.15-.6.23-.97.23-.5,0-.92-.12-1.26-.36-.34-.24-.53-.56-.6-.97h.63c.07.23.21.42.43.56.22.14.48.21.79.21.35,0,.64-.11.86-.33.22-.22.33-.53.33-.92v-.81c-.13.22-.31.41-.56.56-.25.15-.54.22-.87.22s-.65-.08-.93-.25c-.28-.17-.5-.4-.65-.71s-.24-.65-.24-1.04.08-.74.24-1.03.38-.53.65-.69c.28-.16.59-.25.93-.25s.62.07.87.22Zm.38,1c-.12-.21-.27-.38-.47-.49s-.42-.17-.65-.17-.46.06-.65.17c-.2.11-.35.28-.47.49s-.17.47-.17.76.06.55.17.77.27.38.47.5c.2.11.41.17.65.17s.46-.06.65-.17.36-.28.47-.5.17-.47.17-.76-.06-.54-.17-.76Z"/>
    <path class="cls-2" d="m251.22,146.99c.21-.12.46-.18.76-.18v.66h-.17c-.71,0-1.07.39-1.07,1.16v2.09h-.64v-3.84h.64v.62c.11-.22.27-.39.48-.51Z"/>
    <path class="cls-2" d="m256.19,149.03h-3.07c.02.38.15.67.39.89.24.21.52.32.86.32.27,0,.5-.06.69-.19.18-.13.31-.3.39-.51h.69c-.1.37-.31.67-.62.9-.31.23-.69.35-1.15.35-.36,0-.69-.08-.98-.25-.29-.16-.51-.4-.68-.7-.16-.3-.25-.65-.25-1.05s.08-.74.24-1.04c.16-.3.38-.53.67-.69.29-.16.62-.24.99-.24s.69.08.97.24c.28.16.5.38.65.65.15.28.23.59.23.94,0,.12,0,.25-.02.38Zm-.8-1.14c-.11-.17-.25-.31-.44-.4-.18-.09-.39-.14-.61-.14-.32,0-.6.1-.82.31-.23.21-.36.49-.39.85h2.42c0-.24-.05-.45-.16-.63Z"/>
    <path class="cls-2" d="m257.05,147.75c.16-.3.38-.53.65-.69.28-.16.59-.25.93-.25s.63.07.88.22c.25.15.43.33.55.55v-.7h.64v3.84h-.64v-.71c-.13.22-.31.41-.56.56s-.54.22-.87.22-.65-.08-.92-.25-.49-.4-.65-.71-.24-.65-.24-1.04.08-.74.24-1.03Zm2.83.28c-.12-.21-.27-.38-.47-.49s-.42-.17-.65-.17-.46.06-.65.17c-.2.11-.35.28-.47.49s-.17.47-.17.76.06.55.17.77.27.38.47.5c.2.11.41.17.65.17s.46-.06.65-.17.36-.28.47-.5.17-.47.17-.76-.06-.54-.17-.76Z"/>
    <path class="cls-2" d="m262.56,147.4v2.26c0,.19.04.32.12.4.08.08.22.12.41.12h.47v.54h-.57c-.35,0-.62-.08-.8-.25-.18-.16-.27-.43-.27-.8v-2.26h-.5v-.52h.5v-.97h.64v.97h1v.52h-1Z"/>
    <path class="cls-2" d="m266.98,147.4v2.26c0,.19.04.32.12.4.08.08.22.12.41.12h.47v.54h-.57c-.35,0-.62-.08-.8-.25-.18-.16-.27-.43-.27-.8v-2.26h-.5v-.52h.5v-.97h.64v.97h1v.52h-1Z"/>
    <path class="cls-2" d="m269.44,150.53c-.29-.16-.52-.4-.69-.7-.17-.3-.25-.65-.25-1.05s.09-.74.26-1.04c.17-.3.4-.53.7-.69.29-.16.62-.24.99-.24s.69.08.99.24c.29.16.53.39.7.69.17.3.26.65.26,1.04s-.09.75-.26,1.05c-.17.3-.41.53-.71.7-.3.16-.63.25-.99.25s-.69-.08-.98-.25Zm1.62-.48c.2-.11.36-.27.49-.48.12-.21.19-.48.19-.78s-.06-.57-.18-.78c-.12-.21-.28-.37-.48-.48-.2-.1-.41-.16-.64-.16s-.45.05-.64.16c-.19.1-.35.26-.47.48s-.17.48-.17.78.06.58.17.79c.11.21.27.37.46.48s.4.16.63.16.44-.05.64-.16Z"/>
    <path class="cls-2" d="m277.78,146.99c.23.12.42.31.55.56.13.25.2.55.2.9v2.26h-.63v-2.17c0-.38-.1-.68-.29-.88-.19-.2-.45-.3-.78-.3s-.6.1-.8.31c-.2.21-.3.52-.3.92v2.12h-.64v-5.18h.64v1.89c.13-.2.3-.35.52-.46s.47-.16.75-.16c.29,0,.55.06.78.19Z"/>
    <path class="cls-2" d="m279.58,147.75c.16-.3.38-.53.65-.69.28-.16.59-.25.93-.25s.63.07.88.22c.25.15.43.33.55.55v-.7h.64v3.84h-.64v-.71c-.13.22-.31.41-.56.56-.25.15-.54.22-.87.22s-.65-.08-.92-.25-.49-.4-.65-.71c-.16-.3-.24-.65-.24-1.04s.08-.74.24-1.03Zm2.83.28c-.12-.21-.27-.38-.47-.49s-.42-.17-.65-.17-.46.06-.65.17c-.2.11-.35.28-.47.49-.12.21-.17.47-.17.76s.06.55.17.77c.12.22.27.38.47.5.2.11.41.17.65.17s.46-.06.65-.17.36-.28.47-.5c.12-.22.17-.47.17-.76s-.06-.54-.17-.76Z"/>
    <path class="cls-2" d="m285.74,150.13l1.19-3.25h.68l-1.5,3.84h-.74l-1.5-3.84h.69l1.2,3.25Z"/>
    <path class="cls-2" d="m291.71,149.03h-3.07c.02.38.15.67.39.89.24.21.52.32.86.32.27,0,.5-.06.69-.19.18-.13.31-.3.39-.51h.69c-.1.37-.31.67-.62.9s-.69.35-1.15.35c-.36,0-.69-.08-.98-.25-.29-.16-.51-.4-.68-.7-.16-.3-.25-.65-.25-1.05s.08-.74.24-1.04c.16-.3.38-.53.67-.69.29-.16.62-.24.99-.24s.69.08.97.24c.28.16.5.38.65.65.15.28.23.59.23.94,0,.12,0,.25-.02.38Zm-.8-1.14c-.11-.17-.25-.31-.44-.4-.18-.09-.39-.14-.61-.14-.32,0-.6.1-.82.31-.23.21-.36.49-.39.85h2.42c0-.24-.05-.45-.16-.63Z"/>
    <path class="cls-2" d="m297.75,146.88l-2.31,5.64h-.66l.76-1.85-1.55-3.79h.71l1.2,3.11,1.19-3.11h.66Z"/>
    <path class="cls-2" d="m299.08,150.53c-.29-.16-.52-.4-.69-.7-.17-.3-.25-.65-.25-1.05s.09-.74.26-1.04c.17-.3.4-.53.7-.69.29-.16.62-.24.99-.24s.69.08.99.24c.29.16.53.39.7.69.17.3.26.65.26,1.04s-.09.75-.26,1.05c-.17.3-.41.53-.71.7-.3.16-.63.25-.99.25s-.68-.08-.98-.25Zm1.62-.48c.2-.11.36-.27.49-.48.12-.21.19-.48.19-.78s-.06-.57-.18-.78c-.12-.21-.28-.37-.48-.48s-.41-.16-.64-.16-.45.05-.64.16-.35.26-.47.48c-.12.21-.17.48-.17.78s.06.58.17.79c.11.21.27.37.46.48s.4.16.63.16.44-.05.64-.16Z"/>
    <path class="cls-2" d="m306.27,146.88v3.84h-.64v-.57c-.12.2-.29.35-.51.46-.22.11-.46.16-.72.16-.3,0-.57-.06-.81-.19-.24-.12-.43-.31-.56-.56-.14-.25-.21-.55-.21-.9v-2.25h.63v2.16c0,.38.1.67.29.87.19.2.45.3.78.3s.61-.1.8-.31.29-.52.29-.92v-2.11h.64Z"/>
    <path class="cls-2" d="m311.9,146.99c.23.12.42.31.55.56.13.25.2.55.2.9v2.26h-.63v-2.17c0-.38-.1-.68-.29-.88-.19-.2-.45-.3-.78-.3s-.6.1-.8.31-.3.52-.3.92v2.12h-.64v-5.18h.64v1.89c.13-.2.3-.35.52-.46s.47-.16.75-.16c.29,0,.55.06.78.19Z"/>
    <path class="cls-2" d="m317.17,149.03h-3.07c.02.38.15.67.39.89.24.21.52.32.86.32.27,0,.5-.06.69-.19.18-.13.31-.3.39-.51h.69c-.1.37-.31.67-.62.9s-.69.35-1.15.35c-.36,0-.69-.08-.98-.25-.29-.16-.51-.4-.68-.7-.16-.3-.25-.65-.25-1.05s.08-.74.24-1.04c.16-.3.38-.53.67-.69.29-.16.62-.24.99-.24s.69.08.97.24c.28.16.5.38.65.65.15.28.23.59.23.94,0,.12,0,.25-.02.38Zm-.8-1.14c-.11-.17-.25-.31-.44-.4-.18-.09-.39-.14-.61-.14-.32,0-.6.1-.82.31-.23.21-.36.49-.39.85h2.42c0-.24-.05-.45-.16-.63Z"/>
    <path class="cls-2" d="m319.15,146.99c.21-.12.46-.18.76-.18v.66h-.17c-.71,0-1.07.39-1.07,1.16v2.09h-.64v-3.84h.64v.62c.11-.22.27-.39.48-.51Z"/>
    <path class="cls-2" d="m324.12,149.03h-3.07c.02.38.15.67.39.89s.52.32.86.32c.28,0,.5-.06.69-.19s.31-.3.39-.51h.69c-.1.37-.31.67-.62.9-.31.23-.69.35-1.15.35-.36,0-.69-.08-.98-.25-.29-.16-.51-.4-.68-.7-.16-.3-.25-.65-.25-1.05s.08-.74.24-1.04c.16-.3.38-.53.67-.69.29-.16.62-.24.99-.24s.69.08.97.24.5.38.65.65c.15.28.23.59.23.94,0,.12,0,.25-.02.38Zm-.8-1.14c-.11-.17-.25-.31-.44-.4-.18-.09-.39-.14-.61-.14-.32,0-.6.1-.82.31-.23.21-.36.49-.39.85h2.42c0-.24-.05-.45-.16-.63Z"/>
    <path class="cls-2" d="m325.19,150.63c-.08-.08-.13-.19-.13-.31s.04-.22.13-.31.19-.13.31-.13.22.04.3.13.12.19.12.31-.04.22-.12.31-.18.13-.3.13-.22-.04-.31-.13Zm.62-4.79l-.08,3.5h-.53l-.08-3.5h.69Z"/>
    <path class="cls-2" d="m332.7,145.83v4.88h-.64v-2.21h-2.49v2.21h-.64v-4.88h.64v2.14h2.49v-2.14h.64Z"/>
    <path class="cls-2" d="m334.48,150.53c-.29-.16-.52-.4-.69-.7-.17-.3-.25-.65-.25-1.05s.09-.74.26-1.04c.17-.3.4-.53.7-.69.29-.16.62-.24.99-.24s.69.08.99.24c.29.16.53.39.7.69.17.3.26.65.26,1.04s-.09.75-.26,1.05c-.17.3-.41.53-.71.7-.3.16-.63.25-.99.25s-.68-.08-.98-.25Zm1.62-.48c.2-.11.36-.27.49-.48.12-.21.19-.48.19-.78s-.06-.57-.18-.78c-.12-.21-.28-.37-.48-.48s-.41-.16-.64-.16-.45.05-.64.16-.35.26-.47.48c-.12.21-.17.48-.17.78s.06.58.17.79c.11.21.27.37.46.48s.4.16.63.16.44-.05.64-.16Z"/>
    <path class="cls-2" d="m339.46,147.03c.25-.15.54-.22.87-.22s.65.08.93.25c.28.16.5.39.65.69.16.3.24.64.24,1.03s-.08.73-.24,1.04c-.16.3-.38.54-.65.71s-.59.25-.93.25-.61-.07-.86-.22-.44-.33-.57-.55v2.53h-.64v-5.66h.64v.71c.13-.22.31-.4.56-.55Zm1.87.99c-.12-.21-.27-.38-.47-.49-.2-.11-.42-.17-.65-.17s-.45.06-.65.17-.36.28-.48.5c-.12.22-.18.47-.18.75s.06.54.18.76.28.38.48.5.41.17.65.17.46-.06.65-.17.36-.28.47-.5c.12-.22.17-.47.17-.77s-.06-.54-.17-.76Z"/>
    <path class="cls-2" d="m346.48,149.03h-3.07c.02.38.15.67.39.89s.52.32.86.32c.28,0,.5-.06.69-.19s.31-.3.39-.51h.69c-.1.37-.31.67-.62.9-.31.23-.69.35-1.15.35-.36,0-.69-.08-.98-.25-.29-.16-.51-.4-.68-.7-.16-.3-.25-.65-.25-1.05s.08-.74.24-1.04c.16-.3.38-.53.67-.69.29-.16.62-.24.99-.24s.69.08.97.24.5.38.65.65c.15.28.23.59.23.94,0,.12,0,.25-.02.38Zm-.8-1.14c-.11-.17-.25-.31-.44-.4-.18-.09-.39-.14-.61-.14-.32,0-.6.1-.82.31-.23.21-.36.49-.39.85h2.42c0-.24-.05-.45-.16-.63Z"/>
    <path class="cls-2" d="m348.9,147.4h-.8v3.31h-.64v-3.31h-.5v-.52h.5v-.27c0-.43.11-.74.33-.94.22-.2.58-.3,1.07-.3v.53c-.28,0-.48.05-.59.16-.11.11-.17.29-.17.54v.27h.8v.52Z"/>
    <path class="cls-2" d="m353.04,146.88v3.84h-.64v-.57c-.12.2-.29.35-.51.46-.22.11-.46.16-.72.16-.3,0-.57-.06-.81-.19-.24-.12-.43-.31-.56-.56-.14-.25-.21-.55-.21-.9v-2.25h.63v2.16c0,.38.1.67.29.87.19.2.45.3.78.3s.61-.1.8-.31.29-.52.29-.92v-2.11h.64Z"/>
    <path class="cls-2" d="m354.76,145.53v5.18h-.64v-5.18h.64Z"/>
    <path class="cls-2" d="m356.48,145.53v5.18h-.64v-5.18h.64Z"/>
    <path class="cls-2" d="m360.87,146.88l-2.31,5.64h-.66l.76-1.85-1.55-3.79h.71l1.2,3.11,1.19-3.11h.66Z"/>
    <path class="cls-2" d="m364.15,147.4v2.26c0,.19.04.32.12.4.08.08.22.12.41.12h.47v.54h-.57c-.35,0-.62-.08-.8-.25-.18-.16-.27-.43-.27-.8v-2.26h-.5v-.52h.5v-.97h.64v.97h1v.52h-1Z"/>
    <path class="cls-2" d="m368.61,146.99c.23.12.42.31.55.56.13.25.2.55.2.9v2.26h-.63v-2.17c0-.38-.1-.68-.29-.88-.19-.2-.45-.3-.78-.3s-.6.1-.8.31-.3.52-.3.92v2.12h-.64v-5.18h.64v1.89c.13-.2.3-.35.52-.46s.47-.16.75-.16c.29,0,.55.06.78.19Z"/>
    <path class="cls-2" d="m373.88,149.03h-3.07c.02.38.15.67.39.89.24.21.52.32.86.32.27,0,.5-.06.69-.19.18-.13.31-.3.39-.51h.69c-.1.37-.31.67-.62.9s-.69.35-1.15.35c-.36,0-.69-.08-.98-.25-.29-.16-.51-.4-.68-.7-.16-.3-.25-.65-.25-1.05s.08-.74.24-1.04c.16-.3.38-.53.67-.69.29-.16.62-.24.99-.24s.69.08.97.24c.28.16.5.38.65.65.15.28.23.59.23.94,0,.12,0,.25-.02.38Zm-.8-1.14c-.11-.17-.25-.31-.44-.4-.18-.09-.39-.14-.61-.14-.32,0-.6.1-.82.31-.23.21-.36.49-.39.85h2.42c0-.24-.05-.45-.16-.63Z"/>
    <path class="cls-2" d="m377.27,151.55c0,.34-.09.59-.26.75s-.42.24-.76.24h-.37v-.54h.27c.18,0,.3-.03.37-.1.07-.07.11-.19.11-.36v-4.65h.64v4.67Zm-.62-5.42c-.08-.08-.12-.19-.12-.31s.04-.22.12-.31.18-.13.3-.13.22.04.3.13c.08.08.12.19.12.31s-.04.22-.12.31c-.08.08-.18.13-.3.13s-.22-.04-.3-.13Z"/>
    <path class="cls-2" d="m379.04,150.53c-.29-.16-.52-.4-.69-.7-.17-.3-.25-.65-.25-1.05s.09-.74.26-1.04c.17-.3.4-.53.7-.69.29-.16.62-.24.99-.24s.69.08.99.24c.29.16.53.39.7.69.17.3.26.65.26,1.04s-.09.75-.26,1.05c-.17.3-.41.53-.71.7-.3.16-.63.25-.99.25s-.68-.08-.98-.25Zm1.62-.48c.2-.11.36-.27.49-.48.12-.21.19-.48.19-.78s-.06-.57-.18-.78c-.12-.21-.28-.37-.48-.48s-.41-.16-.64-.16-.45.05-.64.16-.35.26-.47.48c-.12.21-.17.48-.17.78s.06.58.17.79c.11.21.27.37.46.48s.4.16.63.16.44-.05.64-.16Z"/>
    <path class="cls-2" d="m386.23,146.88v3.84h-.64v-.57c-.12.2-.29.35-.51.46-.22.11-.46.16-.72.16-.3,0-.57-.06-.81-.19-.24-.12-.43-.31-.56-.56-.14-.25-.21-.55-.21-.9v-2.25h.63v2.16c0,.38.1.67.29.87.19.2.45.3.78.3s.61-.1.8-.31.29-.52.29-.92v-2.11h.64Z"/>
    <path class="cls-2" d="m388.42,146.99c.21-.12.46-.18.76-.18v.66h-.17c-.71,0-1.07.39-1.07,1.16v2.09h-.64v-3.84h.64v.62c.11-.22.27-.39.48-.51Z"/>
    <path class="cls-2" d="m392.92,147.23c.29.28.43.69.43,1.22v2.26h-.63v-2.17c0-.38-.1-.68-.29-.88-.19-.2-.45-.3-.78-.3s-.6.1-.8.31c-.2.21-.3.52-.3.92v2.12h-.64v-3.84h.64v.55c.13-.2.3-.35.51-.46s.46-.16.72-.16c.47,0,.84.14,1.13.42Z"/>
    <path class="cls-2" d="m397.88,149.03h-3.07c.02.38.15.67.39.89s.52.32.86.32c.28,0,.5-.06.69-.19s.31-.3.39-.51h.69c-.1.37-.31.67-.62.9-.31.23-.69.35-1.15.35-.36,0-.69-.08-.98-.25-.29-.16-.51-.4-.68-.7-.16-.3-.25-.65-.25-1.05s.08-.74.24-1.04c.16-.3.38-.53.67-.69.29-.16.62-.24.99-.24s.69.08.97.24.5.38.65.65c.15.28.23.59.23.94,0,.12,0,.25-.02.38Zm-.8-1.14c-.11-.17-.25-.31-.44-.4-.18-.09-.39-.14-.61-.14-.32,0-.6.1-.82.31-.23.21-.36.49-.39.85h2.42c0-.24-.05-.45-.16-.63Z"/>
    <path class="cls-2" d="m402.04,146.88l-2.31,5.64h-.66l.76-1.85-1.55-3.79h.71l1.2,3.11,1.19-3.11h.66Z"/>
    <path class="cls-2" d="m409.66,146.88l-1.2,3.84h-.66l-.92-3.04-.92,3.04h-.66l-1.2-3.84h.65l.88,3.22.95-3.22h.65l.93,3.23.87-3.23h.63Z"/>
    <path class="cls-2" d="m410.29,147.75c.16-.3.38-.53.65-.69.28-.16.59-.25.93-.25s.63.07.88.22c.25.15.43.33.55.55v-.7h.64v3.84h-.64v-.71c-.13.22-.31.41-.56.56-.25.15-.54.22-.87.22s-.65-.08-.92-.25-.49-.4-.65-.71c-.16-.3-.24-.65-.24-1.04s.08-.74.24-1.03Zm2.83.28c-.12-.21-.27-.38-.47-.49s-.42-.17-.65-.17-.46.06-.65.17c-.2.11-.35.28-.47.49-.12.21-.17.47-.17.76s.06.55.17.77c.12.22.27.38.47.5s.41.17.65.17.46-.06.65-.17.36-.28.47-.5c.12-.22.17-.47.17-.76s-.06-.54-.17-.76Z"/>
    <path class="cls-2" d="m415.59,150.63c-.23-.1-.42-.24-.55-.42-.14-.18-.21-.39-.22-.62h.66c.02.19.11.35.27.47.16.12.37.18.63.18.24,0,.43-.05.57-.16.14-.11.21-.24.21-.41s-.07-.29-.22-.37-.38-.16-.69-.24c-.28-.07-.52-.15-.7-.23-.18-.08-.33-.19-.46-.34-.13-.15-.19-.35-.19-.6,0-.2.06-.38.17-.54.12-.16.28-.29.5-.39s.46-.14.74-.14c.42,0,.77.11,1.03.32.26.21.4.51.42.88h-.64c-.01-.2-.09-.36-.24-.48-.15-.12-.34-.18-.59-.18-.23,0-.41.05-.55.15-.14.1-.2.23-.2.38,0,.13.04.23.12.31.08.08.18.15.31.2.12.05.29.1.51.16.28.07.5.15.67.22s.32.18.44.33c.12.14.19.33.19.57,0,.21-.06.4-.17.57-.12.17-.28.3-.49.4-.21.1-.46.14-.73.14-.29,0-.56-.05-.79-.15Z"/>
    <path class="cls-2" d="m421.68,147.23c.29.28.43.69.43,1.22v2.26h-.63v-2.17c0-.38-.1-.68-.29-.88-.19-.2-.45-.3-.78-.3s-.6.1-.8.31c-.2.21-.3.52-.3.92v2.12h-.64v-3.84h.64v.55c.13-.2.3-.35.51-.46s.46-.16.72-.16c.47,0,.84.14,1.13.42Z"/>
    <path class="cls-2" d="m423.25,145.83h.71l-.67,1.59h-.45l.41-1.59Z"/>
    <path class="cls-2" d="m425.46,147.4v2.26c0,.19.04.32.12.4.08.08.22.12.41.12h.47v.54h-.57c-.35,0-.62-.08-.8-.25-.18-.16-.27-.43-.27-.8v-2.26h-.5v-.52h.5v-.97h.64v.97h1v.52h-1Z"/>
    <path class="cls-2" d="m234.82,155.8v2.26c0,.19.04.32.12.4.08.08.22.12.41.12h.47v.54h-.57c-.35,0-.62-.08-.8-.25-.18-.16-.27-.43-.27-.8v-2.26h-.5v-.52h.5v-.97h.64v.97h1v.52h-1Z"/>
    <path class="cls-2" d="m237.29,158.93c-.29-.16-.52-.4-.69-.7-.17-.3-.25-.65-.25-1.05s.09-.74.26-1.04c.17-.3.4-.53.7-.69.29-.16.62-.24.99-.24s.69.08.99.24c.29.16.53.39.7.69.17.3.26.65.26,1.04s-.09.75-.26,1.05c-.17.3-.41.53-.71.7-.3.16-.63.25-.99.25s-.69-.08-.98-.25Zm1.62-.48c.2-.11.36-.27.49-.48.12-.21.19-.48.19-.78s-.06-.57-.18-.78c-.12-.21-.28-.37-.48-.48-.2-.1-.41-.16-.64-.16s-.45.05-.64.16c-.19.1-.35.26-.47.48s-.17.48-.17.78.06.58.17.79c.11.21.27.37.46.48s.4.16.63.16.44-.05.64-.16Z"/>
    <path class="cls-2" d="m241.77,158.93c-.29-.16-.52-.4-.69-.7-.17-.3-.25-.65-.25-1.05s.09-.74.26-1.04c.17-.3.4-.53.7-.69.29-.16.62-.24.99-.24s.69.08.99.24c.29.16.53.39.7.69.17.3.26.65.26,1.04s-.09.75-.26,1.05c-.17.3-.41.53-.71.7-.3.16-.63.25-.99.25s-.69-.08-.98-.25Zm1.62-.48c.2-.11.36-.27.49-.48.12-.21.19-.48.19-.78s-.06-.57-.18-.78c-.12-.21-.28-.37-.48-.48-.2-.1-.41-.16-.64-.16s-.45.05-.64.16c-.19.1-.35.26-.47.48s-.17.48-.17.78.06.58.17.79c.11.21.27.37.46.48s.4.16.63.16.44-.05.64-.16Z"/>
    <path class="cls-2" d="m248.06,153.93v5.18h-.64v-5.18h.64Z"/>
    <path class="cls-2" d="m249.84,158.93c-.29-.16-.52-.4-.69-.7-.17-.3-.25-.65-.25-1.05s.09-.74.26-1.04c.17-.3.4-.53.7-.69.29-.16.62-.24.99-.24s.69.08.99.24c.29.16.53.39.7.69.17.3.26.65.26,1.04s-.09.75-.26,1.05c-.17.3-.41.53-.71.7-.3.16-.63.25-.99.25s-.69-.08-.98-.25Zm1.62-.48c.2-.11.36-.27.49-.48.12-.21.19-.48.19-.78s-.06-.57-.18-.78c-.12-.21-.28-.37-.48-.48-.2-.1-.41-.16-.64-.16s-.45.05-.64.16c-.19.1-.35.26-.47.48s-.17.48-.17.78.06.58.17.79c.11.21.27.37.46.48s.4.16.63.16.44-.05.64-.16Z"/>
    <path class="cls-2" d="m256.62,155.63c.29.28.43.69.43,1.22v2.26h-.63v-2.17c0-.38-.1-.68-.29-.88-.19-.2-.45-.3-.78-.3s-.6.1-.8.31c-.2.21-.3.52-.3.92v2.12h-.64v-3.84h.64v.55c.13-.2.3-.35.51-.46.22-.11.46-.16.72-.16.47,0,.84.14,1.13.42Z"/>
    <path class="cls-2" d="m260.55,155.43c.25.15.44.33.56.55v-.7h.64v3.92c0,.35-.07.66-.22.93-.15.27-.36.49-.64.64-.28.15-.6.23-.97.23-.5,0-.92-.12-1.26-.36-.34-.24-.53-.56-.6-.97h.63c.07.23.21.42.43.56.22.14.48.21.79.21.35,0,.64-.11.86-.33.22-.22.33-.53.33-.92v-.81c-.13.22-.31.41-.56.56-.25.15-.54.22-.87.22s-.65-.08-.93-.25c-.28-.17-.5-.4-.65-.71s-.24-.65-.24-1.04.08-.74.24-1.03.38-.53.65-.69c.28-.16.59-.25.93-.25s.62.07.87.22Zm.38,1c-.12-.21-.27-.38-.47-.49s-.42-.17-.65-.17-.46.06-.65.17c-.2.11-.35.28-.47.49s-.17.47-.17.76.06.55.17.77.27.38.47.5c.2.11.41.17.65.17s.46-.06.65-.17.36-.28.47-.5.17-.47.17-.76-.06-.54-.17-.76Z"/>
    <path class="cls-2" d="m265.2,154.56c.28.26.43.61.43,1.05,0,.49-.15.85-.46,1.09-.3.24-.71.35-1.23.35l-.02.67h-.55l-.03-1.11h.2c.46,0,.82-.07,1.08-.21s.39-.4.39-.79c0-.28-.08-.5-.25-.67-.17-.16-.39-.25-.68-.25s-.52.08-.68.23c-.17.16-.25.37-.25.64h-.6c0-.28.06-.53.19-.74.13-.21.3-.38.54-.49s.5-.17.8-.17c.46,0,.83.13,1.12.39Zm-1.87,4.47c-.08-.08-.13-.19-.13-.31s.04-.22.13-.31.19-.13.31-.13.22.04.3.13c.08.08.12.19.12.31s-.04.22-.12.31c-.08.08-.18.13-.3.13s-.22-.04-.31-.13Z"/>
    <path class="cls-2" d="m269.01,158.59h1.71v.52h-2.34v-4.88h.64v4.36Z"/>
    <path class="cls-2" d="m274.87,157.43h-3.07c.02.38.15.67.39.89.24.21.52.32.86.32.27,0,.5-.06.69-.19.18-.13.31-.3.39-.51h.69c-.1.37-.31.67-.62.9-.31.23-.69.35-1.15.35-.36,0-.69-.08-.98-.25-.29-.16-.51-.4-.68-.7-.16-.3-.25-.65-.25-1.05s.08-.74.24-1.04c.16-.3.38-.53.67-.69.29-.16.62-.24.99-.24s.69.08.97.24c.28.16.5.38.65.65.15.28.23.59.23.94,0,.12,0,.25-.02.38Zm-.8-1.14c-.11-.17-.25-.31-.44-.4-.18-.09-.39-.14-.61-.14-.32,0-.6.1-.82.31-.23.21-.36.49-.39.85h2.42c0-.24-.05-.45-.16-.63Z"/>
    <path class="cls-2" d="m276.51,155.8v2.26c0,.19.04.32.12.4.08.08.22.12.41.12h.47v.54h-.57c-.36,0-.62-.08-.8-.25-.18-.16-.27-.43-.27-.8v-2.26h-.5v-.52h.5v-.97h.64v.97h1v.52h-1Z"/>
    <path class="cls-2" d="m285.56,155.39c.23.12.42.31.55.56.13.25.2.55.2.9v2.26h-.63v-2.17c0-.38-.09-.68-.28-.88-.19-.2-.44-.3-.77-.3s-.59.11-.79.32c-.2.21-.29.52-.29.92v2.11h-.63v-2.17c0-.38-.09-.68-.28-.88-.19-.2-.44-.3-.77-.3s-.59.11-.79.32c-.2.21-.29.52-.29.92v2.11h-.64v-3.84h.64v.55c.13-.2.29-.35.51-.46.21-.11.45-.16.7-.16.32,0,.61.07.85.22.25.14.43.36.55.64.11-.27.28-.48.53-.63.25-.15.52-.22.83-.22s.57.06.8.19Z"/>
    <path class="cls-2" d="m290.84,157.43h-3.07c.02.38.15.67.39.89s.52.32.86.32c.28,0,.5-.06.69-.19s.31-.3.39-.51h.69c-.1.37-.31.67-.62.9-.31.23-.69.35-1.15.35-.36,0-.69-.08-.98-.25-.29-.16-.51-.4-.68-.7-.16-.3-.25-.65-.25-1.05s.08-.74.24-1.04c.16-.3.38-.53.67-.69.29-.16.62-.24.99-.24s.69.08.97.24.5.38.65.65c.15.28.23.59.23.94,0,.12,0,.25-.02.38Zm-.8-1.14c-.11-.17-.25-.31-.44-.4-.18-.09-.39-.14-.61-.14-.32,0-.6.1-.82.31-.23.21-.36.49-.39.85h2.42c0-.24-.05-.45-.16-.63Z"/>
    <path class="cls-2" d="m296.02,155.43c.25.15.44.33.56.55v-.7h.64v3.92c0,.35-.07.66-.22.93s-.36.49-.64.64c-.28.15-.6.23-.97.23-.5,0-.92-.12-1.26-.36-.34-.24-.53-.56-.59-.97h.63c.07.23.21.42.43.56.22.14.48.21.79.21.35,0,.64-.11.86-.33.22-.22.33-.53.33-.92v-.81c-.13.22-.31.41-.56.56-.25.15-.54.22-.87.22s-.65-.08-.93-.25-.5-.4-.65-.71c-.16-.3-.24-.65-.24-1.04s.08-.74.24-1.03c.16-.3.38-.53.65-.69.28-.16.59-.25.93-.25s.62.07.87.22Zm.38,1c-.12-.21-.27-.38-.47-.49s-.42-.17-.65-.17-.46.06-.65.17c-.2.11-.35.28-.47.49-.12.21-.17.47-.17.76s.06.55.17.77c.12.22.27.38.47.5s.41.17.65.17.46-.06.65-.17.36-.28.47-.5c.12-.22.17-.47.17-.76s-.06-.54-.17-.76Z"/>
    <path class="cls-2" d="m299.42,155.39c.21-.12.46-.18.76-.18v.66h-.17c-.71,0-1.07.39-1.07,1.16v2.09h-.64v-3.84h.64v.62c.11-.22.27-.39.48-.51Z"/>
    <path class="cls-2" d="m300.91,156.15c.16-.3.38-.53.65-.69.28-.16.59-.25.93-.25s.63.07.88.22c.25.15.43.33.55.55v-.7h.64v3.84h-.64v-.71c-.13.22-.31.41-.56.56-.25.15-.54.22-.87.22s-.65-.08-.92-.25-.49-.4-.65-.71c-.16-.3-.24-.65-.24-1.04s.08-.74.24-1.03Zm2.83.28c-.12-.21-.27-.38-.47-.49s-.42-.17-.65-.17-.46.06-.65.17c-.2.11-.35.28-.47.49-.12.21-.17.47-.17.76s.06.55.17.77c.12.22.27.38.47.5.2.11.41.17.65.17s.46-.06.65-.17.36-.28.47-.5c.12-.22.17-.47.17-.76s-.06-.54-.17-.76Z"/>
    <path class="cls-2" d="m306.86,155.43c.25-.14.54-.22.86-.22.35,0,.66.08.93.25.28.16.49.39.65.69.16.3.24.64.24,1.03s-.08.73-.24,1.04c-.16.3-.38.54-.65.71s-.59.25-.93.25-.62-.07-.87-.22c-.25-.15-.44-.33-.56-.55v.71h-.64v-5.18h.64v2.06c.13-.23.32-.42.57-.56Zm1.85.99c-.12-.21-.27-.38-.47-.49-.2-.11-.42-.17-.65-.17s-.45.06-.65.17-.36.28-.48.5c-.12.22-.18.47-.18.75s.06.54.18.76.28.38.48.5.41.17.65.17.46-.06.65-.17.36-.28.47-.5c.12-.22.17-.47.17-.77s-.06-.54-.17-.76Z"/>
    <path class="cls-2" d="m313.02,155.8v2.26c0,.19.04.32.12.4.08.08.22.12.41.12h.47v.54h-.57c-.36,0-.62-.08-.8-.25-.18-.16-.27-.43-.27-.8v-2.26h-.5v-.52h.5v-.97h.64v.97h1v.52h-1Z"/>
    <path class="cls-2" d="m317.48,155.39c.23.12.42.31.55.56.13.25.2.55.2.9v2.26h-.63v-2.17c0-.38-.1-.68-.29-.88-.19-.2-.45-.3-.78-.3s-.6.1-.8.31-.3.52-.3.92v2.12h-.64v-5.18h.64v1.89c.13-.2.3-.35.52-.46s.47-.16.75-.16c.29,0,.55.06.78.19Z"/>
    <path class="cls-2" d="m319.27,156.15c.16-.3.38-.53.65-.69.28-.16.59-.25.93-.25s.63.07.88.22c.25.15.43.33.55.55v-.7h.64v3.84h-.64v-.71c-.13.22-.31.41-.56.56-.25.15-.54.22-.87.22s-.65-.08-.92-.25-.49-.4-.65-.71c-.16-.3-.24-.65-.24-1.04s.08-.74.24-1.03Zm2.83.28c-.12-.21-.27-.38-.47-.49s-.42-.17-.65-.17-.46.06-.65.17c-.2.11-.35.28-.47.49-.12.21-.17.47-.17.76s.06.55.17.77c.12.22.27.38.47.5s.41.17.65.17.46-.06.65-.17.36-.28.47-.5c.12-.22.17-.47.17-.76s-.06-.54-.17-.76Z"/>
    <path class="cls-2" d="m324.78,155.8v2.26c0,.19.04.32.12.4.08.08.22.12.41.12h.47v.54h-.57c-.35,0-.62-.08-.8-.25-.18-.16-.27-.43-.27-.8v-2.26h-.5v-.52h.5v-.97h.64v.97h1v.52h-1Z"/>
    <path class="cls-2" d="m328.42,156.15c.16-.3.38-.53.66-.69.28-.16.61-.25.97-.25.47,0,.86.11,1.17.34.31.23.51.55.61.95h-.69c-.07-.23-.19-.42-.38-.55-.19-.14-.42-.2-.7-.2-.36,0-.66.12-.88.37-.22.25-.34.6-.34,1.06s.11.82.34,1.07c.22.25.52.38.88.38.28,0,.51-.07.7-.2.19-.13.32-.32.38-.56h.69c-.1.39-.31.71-.62.94-.31.24-.69.35-1.16.35-.36,0-.69-.08-.97-.25-.28-.16-.5-.39-.66-.69-.16-.3-.24-.65-.24-1.05s.08-.74.24-1.04Z"/>
    <path class="cls-2" d="m333.37,158.93c-.29-.16-.52-.4-.69-.7-.17-.3-.25-.65-.25-1.05s.09-.74.26-1.04c.17-.3.4-.53.7-.69.29-.16.62-.24.99-.24s.69.08.99.24c.29.16.53.39.7.69.17.3.26.65.26,1.04s-.09.75-.26,1.05c-.17.3-.41.53-.71.7-.3.16-.63.25-.99.25s-.68-.08-.98-.25Zm1.62-.48c.2-.11.36-.27.49-.48.12-.21.19-.48.19-.78s-.06-.57-.18-.78c-.12-.21-.28-.37-.48-.48s-.41-.16-.64-.16-.45.05-.64.16-.35.26-.47.48c-.12.21-.17.48-.17.78s.06.58.17.79c.11.21.27.37.46.48s.4.16.63.16.44-.05.64-.16Z"/>
    <path class="cls-2" d="m337.15,156.15c.16-.3.38-.53.65-.69.28-.16.59-.25.93-.25s.63.07.88.22c.25.15.43.33.55.55v-.7h.64v3.84h-.64v-.71c-.13.22-.31.41-.56.56-.25.15-.54.22-.87.22s-.65-.08-.92-.25-.49-.4-.65-.71c-.16-.3-.24-.65-.24-1.04s.08-.74.24-1.03Zm2.83.28c-.12-.21-.27-.38-.47-.49s-.42-.17-.65-.17-.46.06-.65.17c-.2.11-.35.28-.47.49-.12.21-.17.47-.17.76s.06.55.17.77c.12.22.27.38.47.5s.41.17.65.17.46-.06.65-.17.36-.28.47-.5c.12-.22.17-.47.17-.76s-.06-.54-.17-.76Z"/>
    <path class="cls-2" d="m342.66,155.8v2.26c0,.19.04.32.12.4.08.08.22.12.41.12h.47v.54h-.57c-.35,0-.62-.08-.8-.25-.18-.16-.27-.43-.27-.8v-2.26h-.5v-.52h.5v-.97h.64v.97h1v.52h-1Z"/>
    <path class="cls-2" d="m347.86,155.8h-.81v3.31h-.64v-3.31h-.5v-.52h.5v-.27c0-.43.11-.74.33-.94.22-.2.58-.3,1.07-.3v.53c-.28,0-.48.05-.59.16-.11.11-.17.29-.17.54v.27h.81v.52Z"/>
    <path class="cls-2" d="m349.3,158.93c-.29-.16-.52-.4-.69-.7-.17-.3-.25-.65-.25-1.05s.09-.74.26-1.04c.17-.3.4-.53.7-.69.29-.16.62-.24.99-.24s.69.08.99.24c.29.16.53.39.7.69.17.3.26.65.26,1.04s-.09.75-.26,1.05c-.17.3-.41.53-.71.7-.3.16-.63.25-.99.25s-.68-.08-.98-.25Zm1.62-.48c.2-.11.36-.27.49-.48.12-.21.19-.48.19-.78s-.06-.57-.18-.78c-.12-.21-.28-.37-.48-.48s-.41-.16-.64-.16-.45.05-.64.16-.35.26-.47.48c-.12.21-.17.48-.17.78s.06.58.17.79c.11.21.27.37.46.48s.4.16.63.16.44-.05.64-.16Z"/>
    <path class="cls-2" d="m354.2,155.39c.21-.12.46-.18.76-.18v.66h-.17c-.71,0-1.07.39-1.07,1.16v2.09h-.64v-3.84h.64v.62c.11-.22.27-.39.48-.51Z"/>
    <path class="cls-2" d="m360.87,155.28l-2.31,5.64h-.66l.76-1.85-1.55-3.79h.71l1.2,3.11,1.19-3.11h.66Z"/>
    <path class="cls-2" d="m362.2,158.93c-.29-.16-.52-.4-.69-.7-.17-.3-.25-.65-.25-1.05s.08-.74.26-1.04c.17-.3.4-.53.7-.69.29-.16.62-.24.99-.24s.69.08.99.24c.29.16.53.39.7.69.17.3.26.65.26,1.04s-.09.75-.26,1.05c-.17.3-.41.53-.71.7-.3.16-.63.25-.99.25s-.69-.08-.98-.25Zm1.62-.48c.2-.11.36-.27.49-.48.12-.21.19-.48.19-.78s-.06-.57-.18-.78-.28-.37-.48-.48c-.2-.1-.41-.16-.64-.16s-.45.05-.64.16c-.19.1-.35.26-.46.48-.12.21-.17.48-.17.78s.06.58.17.79c.11.21.27.37.46.48s.4.16.63.16.44-.05.64-.16Z"/>
    <path class="cls-2" d="m369.39,155.28v3.84h-.64v-.57c-.12.2-.29.35-.51.46-.22.11-.46.16-.72.16-.3,0-.57-.06-.8-.19s-.43-.31-.56-.56c-.14-.25-.21-.55-.21-.9v-2.25h.63v2.16c0,.38.1.67.29.87.19.2.45.3.78.3s.61-.1.8-.31c.2-.21.29-.52.29-.92v-2.11h.64Z"/>
    <path class="cls-2" d="m370.67,159.03c-.08-.08-.13-.19-.13-.31s.04-.22.13-.31.19-.13.31-.13.22.04.3.13c.08.08.12.19.12.31s-.04.22-.12.31c-.08.08-.18.13-.3.13s-.22-.04-.31-.13Zm.62-4.79l-.08,3.5h-.53l-.08-3.5h.69Z"/>
  </g>
  <g>
    <circle id="path2-5-5-4-2-8-3-92" class="cls-2" cx="484.27" cy="144" r="25"/>
    <g id="g2">
      <ellipse id="path4-7" class="cls-32" cx="478.79" cy="137.71" rx="5.45" ry="10.66" transform="translate(-9.88 234.69) rotate(-27.27)"/>
      <path id="path5-1-6" class="cls-29" d="m483.16,145.61c-8.48-15.72-8.63-15.99-8.63-15.99"/>
      <path id="path6-5-9" class="cls-30" d="m480.07,139.51c.11-6.44,0-6.44,0-6.44"/>
      <path id="path11-8" class="cls-24" d="m481.24,144.84l.37,4.12-.7,3.56,3.79.05-.75-3.57.53-4.26-3.25.1Z"/>
      <g id="g10">
        <ellipse id="path4-2" class="cls-26" cx="487.38" cy="137.52" rx="11.98" ry="6.79" transform="translate(70.25 424.67) rotate(-50.3)"/>
        <path id="path5-9" class="cls-30" d="m480.8,145.51c12.83-16.16,13.05-16.44,13.05-16.44"/>
        <path id="path6-0" class="cls-30" d="m483.08,142.34c.11-6.44,0-6.44,0-6.44"/>
        <path id="path7-9" class="cls-30" d="m486.75,138.01l7.72-2.33"/>
        <path id="path10-3" class="cls-30" d="m489.41,134.73l-1.17-4.28"/>
      </g>
      <path id="path10-9" class="cls-30" d="m478.29,136.88l-4.66-1.88"/>
      <path id="path12" class="cls-27" d="m477.21,152.45l11.41-.18-1.41,7.5h-9.2s-.81-7.31-.81-7.31Z"/>
      <circle id="path2-67" cx="478.81" cy="156.15" r=".9"/>
      <circle id="path2-6-04" cx="486.17" cy="155.9" r=".9"/>
      <path id="path3-9" class="cls-31" d="m481.57,156.79c.41.89,1.45,1,1.86-.01"/>
    </g>
  </g>
  <rect class="cls-22" x="207.9" y="244.11" width="28" height="28" rx="4.66" ry="4.66"/>
  <g>
    <rect id="rect1-5-5-4-3-0-3" class="cls-34" x="455.61" y="22.2" width="137.97" height="38.59" rx="7.54" ry="7.54"/>
    <g id="g18">
      <g id="text1-0-8-6" class="cls-17">
        <text class="cls-9" transform="translate(489.07 39.65)"><tspan x="0" y="0">Message from Tony</tspan></text>
      </g>
      <g id="text1-0-8-6-9" class="cls-17">
        <text class="cls-13" transform="translate(489.21 47.45)"><tspan x="0" y="0">Python Server</tspan></text>
      </g>
    </g>
    <path id="path1-7" class="cls-22" d="m470.14,44.15c3.18,0,5.76-2.18,5.76-4.87s-2.58-4.87-5.76-4.87-5.76,2.18-5.76,4.87c0,1.07.41,2.06,1.1,2.86-.1.26-.24.49-.39.68-.13.17-.27.3-.37.4-.05.04-.09.08-.12.1-.01.01-.03.02-.03.02h0c-.15.12-.22.32-.16.5.06.18.23.31.42.31.6,0,1.21-.16,1.72-.35.25-.1.49-.2.7-.32.85.42,1.84.66,2.9.66h0Zm6.64-4.87c0,3.11-2.74,5.45-5.99,5.73.67,2.06,2.9,3.57,5.55,3.57,1.06,0,2.05-.24,2.9-.66.21.11.44.22.7.32.51.19,1.12.35,1.72.35.19,0,.36-.12.42-.31.06-.18,0-.38-.16-.5h0s-.02-.02-.03-.03c-.03-.02-.07-.06-.12-.1-.1-.09-.24-.22-.37-.4-.15-.19-.3-.43-.39-.68.69-.8,1.1-1.79,1.1-2.86,0-2.57-2.35-4.68-5.33-4.86.01.14.02.29.02.43h0Z"/>
    <rect id="rect1-5-5-4-3-0-5" class="cls-15" x="566.44" y="32.99" width="17.01" height="17.01" rx="3.32" ry="3.32"/>
  </g>
  <rect class="cls-35" x="112.1" y="182.26" width="64.06" height="9.33" rx="4.66" ry="4.66"/>
  <rect class="cls-33" x="112.1" y="214.31" width="53.98" height="9.33" rx="4.66" ry="4.66"/>
  <rect class="cls-20" x="112.1" y="246.35" width="32.03" height="9.33" rx="4.66" ry="4.66"/>
  <rect id="rect1-5-5-5-2" data-name="rect1-5-5-5" class="cls-1" x="43.3" y="110.35" width="106.08" height="27.28" rx="4.68" ry="4.68"/>
  <path id="rect1-5-5-5-7-6-7-2" data-name="rect1-5-5-5-7-6-7" class="cls-20" d="m62.32,116.9h0c3.91,0,7.09,3.17,7.09,7.09h0c0,3.91-3.17,7.09-7.09,7.09h0c-3.91,0-7.09-3.17-7.09-7.09h0c0-3.91,3.17-7.09,7.09-7.09Z"/>
  <g id="text1-0-8-3-1-2" data-name="text1-0-8-3-1" class="cls-17">
    <text class="cls-8" transform="translate(77.61 126.15)"><tspan x="0" y="0">Chatrooms</tspan></text>
  </g>
  <rect id="rect1-5-5-5-3" data-name="rect1-5-5-5" class="cls-1" x="54.28" y="141.34" width="106.08" height="27.28" rx="4.68" ry="4.68"/>
  <path id="rect1-5-5-5-7-6-7-3" data-name="rect1-5-5-5-7-6-7" class="cls-21" d="m73.3,147.89h0c3.91,0,7.09,3.17,7.09,7.09h0c0,3.91-3.17,7.09-7.09,7.09h0c-3.91,0-7.09-3.17-7.09-7.09h0c0-3.91,3.17-7.09,7.09-7.09Z"/>
  <g id="text1-0-8-3-1-3" data-name="text1-0-8-3-1" class="cls-17">
    <text class="cls-8" transform="translate(88.59 157.14)"><tspan x="0" y="0">Settings</tspan></text>
  </g>
  <rect class="cls-14" x="0" y="223.54" width="49.99" height="49.99" rx="25" ry="25"/>
  <rect class="cls-14" x="99.94" y="319.58" width="20" height="20" rx="10" ry="10"/>
  <rect class="cls-14" x="25.46" y="43.71" width="20" height="20" rx="10" ry="10"/>
  <rect class="cls-14" x="573.63" y="71.6" width="49.99" height="49.99" rx="25" ry="25"/>
  <rect class="cls-14" x="562.31" y="314.22" width="20" height="20" rx="10" ry="10"/>
  <rect class="cls-14" x="337.41" y="3.18" width="20" height="20" rx="10" ry="10"/>
  <ellipse id="path1-5-0" class="cls-2" cx="482.22" cy="88.77" rx="16.88" ry="12.52"/>
  <g>
    <path id="path8" d="m473.86,107.36s-.75,3.92-.89,5.92c-.16,2.28.65,5.51.65,5.51h2.05s-.6-3.92-.52-5.89c.08-1.88.97-5.55.97-5.55h-2.26Z"/>
    <path id="rect9" d="m475.16,117.14h2.33c.93,0,1.69.62,1.69,1.39h0c0,.77-.76,1.39-1.69,1.39h-2.33c-.93,0-1.69-.62-1.69-1.39h0c0-.77.76-1.39,1.69-1.39Z"/>
    <path id="path8-7" d="m486.73,106.86s-.89,3.75-1.07,5.74c-.2,2.28.75,5.68.75,5.68h2.61s-1.34-3.83-1.24-5.8c.1-1.97,1.82-5.64,1.82-5.64h-2.88Z"/>
    <path id="rect9-6" d="m487.98,116.99h2.26c.91,0,1.64.62,1.64,1.39h0c0,.77-.73,1.39-1.64,1.39h-2.26c-.91,0-1.64-.62-1.64-1.39h0c0-.77.73-1.39,1.64-1.39Z"/>
    <circle id="path1" class="cls-2" cx="469.09" cy="96.6" r="12.52"/>
    <ellipse id="path1-5" class="cls-2" cx="489.69" cy="97.23" rx="16.88" ry="12.52"/>
    <circle id="path2" cx="478.03" cy="96.79" r="1.57"/>
    <circle id="path2-6" cx="488.38" cy="96.61" r="1.57"/>
    <path id="path3" class="cls-28" d="m481.84,100.21c.71,1.55,2.52,1.73,3.22-.02"/>
  </g>
  <path id="path8-2" data-name="path8" d="m605.07,195.89s-2.52,4.72-3.43,7.22c-1.03,2.86-.89,7.34-.89,7.34l3.2.84s.41-5.27,1.21-7.76c.77-2.38,3.43-6.72,3.43-6.72l-3.53-.93Z"/>
  <path id="rect9-6-2" data-name="rect9-6" d="m604.49,209.86l1.54,2.67c.62,1.07.33,2.39-.64,2.95h0c-.97.56-2.26.15-2.88-.92l-1.54-2.67c-.62-1.07-.33-2.39.64-2.95h0c.97-.56,2.26-.15,2.88.92Z"/>
  <path class="cls-11" d="m589.69,188.79l-9.26,5.23c-.96.54-2.1-.34-1.82-1.41l4.24-15.82c.09-.33.34-.6.66-.71l8.75-2.96c.94-.32,1.86.54,1.6,1.5l-3.59,13.4c-.09.32-.3.6-.59.76Z"/>
  <path class="cls-11" d="m615.58,196.01l4.7,7.96c.78,1.33,2.78,1.06,3.18-.43l3.93-14.68c.09-.33,0-.68-.22-.93l-5.49-6.25c-.92-1.05-2.63-.64-2.99.7l-3.3,12.31c-.12.45-.06.93.18,1.34Z"/>
  <path id="path8-3" data-name="path8" d="m593.61,193.38s-2.38,4.76-3.26,7.27c-1,2.86-1.01,7.31-1.01,7.31l2.81.74s.52-5.24,1.31-7.73c.76-2.38,3.24-6.77,3.24-6.77l-3.1-.82Z"/>
  <path class="cls-3" d="m612.42,156.24c-7.5-2.15-16.13,10.48-17.84,12.96-6.73,9.8-8,20.46-8.28,25.43-.03.48.28.9.74,1.02l27.37,7.33c.47.13.95-.1,1.16-.53,2.54-5.27,7.07-16.52,5.3-29.19-.56-4.01-2.13-15.22-8.46-17.03Z"/>
  <rect class="cls-12" x="600.25" y="165.52" width="15" height="15" rx="7.5" ry="7.5" transform="translate(65.49 -151.4) rotate(15)"/>
  <path id="path3-2" data-name="path3" class="cls-28" d="m598.6,190.97c.83,2.28,4.18,3.42,6.08,1.6"/>
  <path id="rect9-6-3" data-name="rect9-6" d="m593.15,206.63l1.54,2.67c.62,1.07.33,2.39-.64,2.95h0c-.97.56-2.26.15-2.88-.92l-1.54-2.67c-.62-1.07-.33-2.39.64-2.95h0c.97-.56,2.26-.15,2.88.92Z"/>
  <rect class="cls-14" x="582.68" y="219.07" width="3" height="16.9" rx="1.5" ry="1.5" transform="translate(78.79 -143.44) rotate(15)"/>
  <rect class="cls-14" x="589.4" y="221.06" width="3" height="27.46" rx="1.5" ry="1.5" transform="translate(80.9 -144.94) rotate(15)"/>
  <rect class="cls-14" x="599.53" y="223.63" width="3" height="19.54" rx="1.5" ry="1.5" transform="translate(80.89 -147.6) rotate(15)"/>
  <path id="path3-3" data-name="path3" class="cls-28" d="m595.02,183.62c1.21-1.11,3.41-.69,3.83,1.05"/>
  <path id="path3-4" data-name="path3" class="cls-28" d="m608.91,187.97c1.42-1.46,3.9-1.01,4.31,1.19"/>
  <g>
    <path class="cls-2" d="m91.8,33.39c-.95.92-2.21,2.42-2.54,4.36-.25,1.48.11,2.73.53,3.61l2.81.55c-.67-.72-1.85-2.25-1.49-4.24.39-2.2,2.45-3.73,3.42-4.36-.91.03-1.81.06-2.72.08Z"/>
    <rect class="cls-2" x="89.68" y="39.84" width="3.7" height="2.07" rx="1.03" ry="1.03"/>
    <path class="cls-2" d="m99.58,32.66c-.43,2.15-.54,4.67.11,7.41.11.48.25.94.39,1.39h1.96c-.71-1.17-2.13-4.02-.54-7.12.37-.72.84-1.33,1.33-1.86-1.09.06-2.17.11-3.26.17Z"/>
    <rect class="cls-2" x="99.92" y="39.87" width="3.7" height="1.99" rx="1" ry="1"/>
    <path class="cls-2" d="m80.58,7.8h2.83c7.17,0,12.99,5.82,12.99,12.99v12.99h-15.82c-7.17,0-12.99-5.82-12.99-12.99h0c0-7.17,5.82-12.99,12.99-12.99Z"/>
    <rect class="cls-2" x="90.69" y="0" width="21.48" height="26.37" rx="10.74" ry="10.74"/>
    <path class="cls-2" d="m103.89,7.8h.71c7.17,0,12.99,5.82,12.99,12.99h0c0,7.17-5.82,12.99-12.99,12.99h-15.82v-10.87c0-8.34,6.77-15.11,15.11-15.11Z"/>
    <g>
      <g>
        <rect x="86.14" y="24.86" width="3.02" height="3.02" rx="1.51" ry="1.51"/>
        <rect x="102.11" y="24.86" width="3.02" height="3.02" rx="1.51" ry="1.51"/>
      </g>
      <path d="m92.2,26.87h6.88c0,1.11-.9,2.02-2.02,2.02h-2.85c-1.11,0-2.02-.9-2.02-2.02h0Z"/>
    </g>
  </g>
</svg>