<?xml version="1.0" encoding="UTF-8"?>
<svg id="Layer_1" data-name="Layer 1" xmlns="http://www.w3.org/2000/svg" viewBox="0 0 627.68 361.91">
  <defs>
    <style>
      .cls-1 {
        fill: #303338;
      }

      .cls-1, .cls-2, .cls-3, .cls-4, .cls-5, .cls-6, .cls-7, .cls-8, .cls-9, .cls-10, .cls-11, .cls-12, .cls-13, .cls-14, .cls-15, .cls-16 {
        stroke-width: 0px;
      }

      .cls-2 {
        fill: #14191f;
      }

      .cls-17, .cls-18, .cls-8 {
        fill: #fff;
      }

      .cls-17, .cls-19, .cls-20 {
        stroke: #231f20;
        stroke-miterlimit: 10;
        stroke-width: .5px;
      }

      .cls-3, .cls-20 {
        fill: #2667f0;
      }

      .cls-21 {
        isolation: isolate;
      }

      .cls-5 {
        fill: #A30000;
      }

      .cls-6, .cls-22, .cls-13 {
        fill: #00c79a;
      }

      .cls-22 {
        font-size: 5px;
      }

      .cls-22, .cls-18 {
        font-family: Poppins-Regular, Poppins;
      }

      .cls-7 {
        fill: #ff0;
      }

      .cls-23 {
        fill: #734f00;
        stroke: #734f00;
        stroke-linejoin: round;
        stroke-width: 1.54px;
      }

      .cls-23, .cls-24, .cls-25, .cls-26, .cls-27 {
        stroke-linecap: round;
      }

      .cls-18 {
        font-size: 8px;
      }

      .cls-9 {
        fill: #d77500;
      }

      .cls-10 {
        opacity: .5;
      }

      .cls-10, .cls-14 {
        fill: #a9a9a9;
      }

      .cls-11 {
        fill: #00dd52;
      }

      .cls-12 {
        fill: #00ef5b;
      }

      .cls-19 {
        fill: #ef4337;
      }

      .cls-13 {
        opacity: .2;
      }

      .cls-24 {
        stroke-miterlimit: 11.34;
      }

      .cls-24, .cls-25, .cls-26, .cls-27 {
        fill: none;
      }

      .cls-24, .cls-27 {
        stroke: #000;
      }

      .cls-25 {
        stroke-width: .37px;
      }

      .cls-25, .cls-26 {
        stroke: #48cf4f;
      }

      .cls-25, .cls-26, .cls-27 {
        stroke-miterlimit: 12.29;
      }

      .cls-26 {
        stroke-width: .46px;
      }

      .cls-15 {
        fill: #7367f0;
      }

      .cls-16 {
        fill: #1f2428;
      }

      .cls-27 {
        stroke-width: .61px;
      }
    </style>
  </defs>
  <rect class="cls-10" x="124.17" y="44.86" width="384.15" height="290.03" rx="26.08" ry="26.08" transform="translate(37.78 -52.03) rotate(10)"/>
  <rect class="cls-2" x="69.41" y="41.49" width="492.39" height="266.71" rx="21.11" ry="21.11"/>
  <g>
    <path class="cls-8" d="m199.7,70.49c-.67-.29-1.2-.71-1.58-1.25-.38-.54-.58-1.17-.58-1.89h2.2c.05.54.26.98.64,1.33.38.35.91.52,1.59.52s1.26-.17,1.66-.51c.4-.34.59-.78.59-1.32,0-.42-.12-.76-.37-1.03-.25-.26-.55-.47-.92-.61-.37-.14-.87-.3-1.52-.47-.82-.22-1.48-.44-1.99-.66-.51-.22-.94-.57-1.3-1.03-.36-.47-.54-1.09-.54-1.87,0-.72.18-1.35.54-1.89.36-.54.86-.95,1.51-1.24.65-.29,1.4-.43,2.25-.43,1.21,0,2.21.3,2.98.91.77.61,1.2,1.44,1.29,2.49h-2.27c-.04-.46-.25-.85-.65-1.17-.4-.32-.92-.49-1.57-.49-.59,0-1.07.15-1.44.45-.37.3-.56.73-.56,1.3,0,.38.12.7.35.95s.53.44.89.58c.36.14.85.3,1.48.47.83.23,1.5.46,2.02.68.52.23.97.58,1.33,1.05.37.47.55,1.11.55,1.9,0,.64-.17,1.24-.51,1.8-.34.56-.84,1.02-1.49,1.36-.65.34-1.43.51-2.31.51-.84,0-1.6-.15-2.27-.44Z"/>
    <path class="cls-8" d="m212.2,61.19c.6-.31,1.28-.47,2.03-.47.86,0,1.65.21,2.37.64.71.43,1.27,1.02,1.68,1.79.41.77.61,1.65.61,2.65s-.2,1.89-.61,2.67c-.41.79-.97,1.4-1.68,1.84-.71.44-1.5.66-2.37.66-.76,0-1.43-.15-2.02-.46-.59-.31-1.07-.69-1.44-1.14v6.16h-2.05v-14.63h2.05v1.46c.35-.46.82-.84,1.42-1.15Zm4.18,2.83c-.28-.5-.65-.88-1.12-1.13-.46-.26-.96-.39-1.48-.39s-1.01.13-1.47.4-.83.65-1.12,1.15c-.28.5-.42,1.1-.42,1.78s.14,1.28.42,1.79c.28.51.65.9,1.12,1.16.46.26.95.4,1.47.4s1.02-.13,1.48-.4c.46-.27.83-.66,1.12-1.18.28-.52.42-1.12.42-1.8s-.14-1.27-.42-1.77Z"/>
    <path class="cls-8" d="m222.98,57.48v13.32h-2.05v-13.32h2.05Z"/>
    <path class="cls-8" d="m225.62,63.15c.41-.77.98-1.37,1.69-1.79s1.5-.64,2.37-.64c.78,0,1.46.15,2.04.46.58.31,1.05.69,1.4,1.14v-1.44h2.07v9.92h-2.07v-1.48c-.35.47-.82.86-1.42,1.17-.6.31-1.28.47-2.05.47-.85,0-1.63-.22-2.34-.66-.71-.44-1.27-1.05-1.68-1.84-.41-.79-.62-1.68-.62-2.67s.21-1.88.62-2.65Zm7.07.9c-.28-.5-.65-.89-1.11-1.15s-.95-.4-1.48-.4-1.02.13-1.48.39c-.46.26-.82.64-1.11,1.13-.28.5-.42,1.09-.42,1.77s.14,1.28.42,1.8c.28.52.65.91,1.12,1.18s.95.4,1.47.4,1.02-.13,1.48-.4c.46-.26.83-.65,1.11-1.16.28-.51.42-1.11.42-1.79s-.14-1.28-.42-1.78Z"/>
    <path class="cls-8" d="m239.39,70.54c-.62-.28-1.11-.67-1.47-1.15-.36-.49-.55-1.03-.58-1.63h2.12c.04.42.24.77.6,1.05.37.28.82.42,1.38.42s1.02-.11,1.34-.33.48-.51.48-.85c0-.37-.18-.65-.53-.83-.35-.18-.92-.38-1.68-.59-.74-.2-1.35-.4-1.82-.59-.47-.19-.87-.49-1.22-.88-.34-.4-.51-.92-.51-1.57,0-.53.16-1.01.47-1.45s.76-.78,1.34-1.04,1.25-.38,2.01-.38c1.13,0,2.04.29,2.73.85.69.57,1.06,1.35,1.11,2.33h-2.05c-.04-.44-.22-.8-.54-1.06-.32-.26-.76-.4-1.31-.4s-.95.1-1.24.31-.43.47-.43.81c0,.26.1.49.29.67.19.18.43.32.7.42.28.1.68.23,1.22.39.72.19,1.31.39,1.77.58.46.2.86.49,1.2.87.34.38.51.89.52,1.53,0,.56-.16,1.07-.47,1.51s-.75.79-1.32,1.04c-.57.25-1.24.38-2.01.38s-1.48-.14-2.1-.42Z"/>
    <path class="cls-8" d="m254.65,61.21c.59.32,1.06.8,1.4,1.44.34.64.51,1.4.51,2.3v5.85h-2.03v-5.54c0-.89-.22-1.57-.67-2.04-.44-.47-1.05-.71-1.82-.71s-1.38.24-1.83.71c-.45.47-.68,1.15-.68,2.04v5.54h-2.05v-13.32h2.05v4.55c.35-.42.79-.74,1.32-.97.53-.23,1.12-.34,1.75-.34.76,0,1.43.16,2.02.49Z"/>
    <path class="cls-8" d="m262.66,61.18c.61-.31,1.28-.46,2.02-.46.88,0,1.67.21,2.38.63.71.42,1.27,1.02,1.67,1.79.41.77.61,1.66.61,2.66s-.2,1.89-.61,2.67c-.41.79-.97,1.4-1.68,1.84-.71.44-1.5.66-2.37.66-.77,0-1.45-.15-2.04-.45-.59-.3-1.06-.68-1.41-1.15v1.44h-2.05v-13.32h2.05v4.88c.35-.48.83-.87,1.43-1.18Zm4.18,2.84c-.28-.5-.65-.88-1.12-1.13-.46-.26-.96-.39-1.48-.39s-1.01.13-1.47.4-.83.65-1.12,1.15c-.28.5-.42,1.1-.42,1.78s.14,1.28.42,1.79c.28.51.65.9,1.12,1.16.46.26.95.4,1.47.4s1.02-.13,1.48-.4c.46-.27.83-.66,1.12-1.18.28-.52.42-1.12.42-1.8s-.14-1.27-.42-1.77Z"/>
    <path class="cls-8" d="m273.14,70.32c-.76-.43-1.35-1.03-1.78-1.8s-.65-1.67-.65-2.69.22-1.9.67-2.68c.44-.78,1.05-1.38,1.82-1.8.77-.42,1.63-.63,2.57-.63s1.81.21,2.57.63c.77.42,1.37,1.02,1.82,1.8.44.78.67,1.67.67,2.68s-.23,1.9-.68,2.68c-.46.78-1.08,1.38-1.86,1.81-.79.43-1.65.64-2.6.64s-1.78-.21-2.54-.64Zm4.02-1.52c.46-.25.84-.63,1.12-1.13.29-.5.43-1.12.43-1.84s-.14-1.33-.41-1.83c-.28-.5-.64-.87-1.1-1.12-.46-.25-.95-.38-1.48-.38s-1.02.13-1.47.38-.81.63-1.07,1.12c-.26.5-.4,1.11-.4,1.83,0,1.07.27,1.89.82,2.47.55.58,1.23.87,2.06.87.53,0,1.02-.13,1.49-.38Z"/>
    <path class="cls-8" d="m282.8,63.15c.41-.77.98-1.37,1.69-1.79s1.5-.64,2.37-.64c.78,0,1.46.15,2.04.46.58.31,1.05.69,1.4,1.14v-1.44h2.07v9.92h-2.07v-1.48c-.35.47-.82.86-1.42,1.17-.6.31-1.28.47-2.05.47-.85,0-1.63-.22-2.34-.66-.71-.44-1.27-1.05-1.68-1.84-.41-.79-.62-1.68-.62-2.67s.21-1.88.62-2.65Zm7.07.9c-.28-.5-.65-.89-1.11-1.15s-.95-.4-1.48-.4-1.02.13-1.48.39c-.46.26-.83.64-1.11,1.13-.28.5-.42,1.09-.42,1.77s.14,1.28.42,1.8c.28.52.65.91,1.12,1.18s.95.4,1.47.4,1.02-.13,1.48-.4c.46-.26.83-.65,1.11-1.16.28-.51.42-1.11.42-1.79s-.14-1.28-.42-1.78Z"/>
    <path class="cls-8" d="m298.32,61.14c.5-.28,1.09-.42,1.77-.42v2.12h-.52c-.8,0-1.41.2-1.83.61-.41.41-.62,1.12-.62,2.12v5.22h-2.05v-9.92h2.05v1.44c.3-.5.7-.9,1.2-1.18Z"/>
    <path class="cls-8" d="m301.92,63.15c.41-.77.98-1.37,1.69-1.79s1.51-.64,2.38-.64c.65,0,1.29.14,1.92.42.63.28,1.13.66,1.5,1.12v-4.79h2.07v13.32h-2.07v-1.49c-.34.48-.8.88-1.39,1.19-.59.31-1.28.47-2.04.47-.86,0-1.65-.22-2.37-.66-.71-.44-1.28-1.05-1.69-1.84-.41-.79-.62-1.68-.62-2.67s.21-1.88.62-2.65Zm7.07.9c-.28-.5-.65-.89-1.11-1.15s-.95-.4-1.48-.4-1.02.13-1.48.39c-.46.26-.82.64-1.11,1.13s-.42,1.09-.42,1.77.14,1.28.42,1.8c.28.52.65.91,1.12,1.18s.95.4,1.47.4,1.02-.13,1.48-.4c.46-.26.83-.65,1.11-1.16.28-.51.42-1.11.42-1.79s-.14-1.28-.42-1.78Z"/>
  </g>
  <text class="cls-18" transform="translate(196.5 229.05)"><tspan x="0" y="0">My Servers</tspan></text>
  <rect class="cls-1" x="196.5" y="235.91" width="349.43" height="45.51" rx="7.64" ry="7.64"/>
  <g>
    <path class="cls-14" d="m246.81,264.26v-.41l2.11-2.92h.65v2.86h.6v.47h-.6v.97h-.54v-.97h-2.22Zm2.24-2.76l-1.61,2.29h1.61v-2.29Z"/>
    <path class="cls-14" d="m253.98,262.26c-.12-.24-.28-.43-.5-.57-.22-.13-.48-.2-.77-.2s-.55.07-.79.2c-.23.13-.42.33-.55.58s-.2.54-.2.87.07.62.2.86.32.44.55.57c.23.13.5.2.79.2.41,0,.74-.12,1.01-.37.26-.24.42-.57.46-.99h-1.67v-.44h2.25v.42c-.03.34-.14.66-.32.94-.18.29-.43.51-.73.68-.3.17-.63.25-1,.25-.39,0-.74-.09-1.06-.27-.32-.18-.57-.44-.76-.76-.19-.32-.28-.69-.28-1.1s.09-.77.28-1.1c.19-.33.44-.58.76-.76s.67-.27,1.06-.27c.44,0,.84.11,1.18.33.34.22.59.53.75.93h-.65Z"/>
    <path class="cls-14" d="m257.99,263.26c.13.1.23.22.3.37.07.15.11.31.11.47,0,.21-.05.4-.16.57s-.26.3-.47.4-.45.15-.73.15h-1.56v-4.18h1.5c.28,0,.53.05.73.14.2.09.35.22.45.38.1.16.15.34.15.54,0,.25-.07.45-.2.62s-.31.28-.53.35c.15.02.29.09.42.19Zm-1.96-.41h.92c.26,0,.45-.06.59-.18.14-.12.21-.29.21-.5s-.07-.38-.21-.5c-.14-.12-.34-.18-.61-.18h-.91v1.36Zm1.6,1.73c.15-.13.23-.31.23-.53s-.08-.42-.24-.55c-.16-.13-.37-.2-.64-.2h-.95v1.48h.97c.27,0,.48-.06.64-.19Z"/>
    <path class="cls-14" d="m262.96,265.23l-1-1.71h-.66v1.71h-.55v-4.18h1.35c.32,0,.58.05.8.16s.38.25.49.44c.11.18.16.39.16.63,0,.29-.08.54-.25.76s-.42.37-.75.44l1.05,1.75h-.65Zm-1.66-2.15h.8c.3,0,.52-.07.67-.22.15-.15.22-.34.22-.58s-.07-.44-.22-.58c-.15-.14-.37-.2-.67-.2h-.8v1.58Z"/>
    <path class="cls-14" d="m266.88,264.3h-1.82l-.34.93h-.58l1.51-4.16h.63l1.51,4.16h-.58l-.34-.93Zm-.16-.44l-.76-2.11-.76,2.11h1.51Z"/>
    <path class="cls-14" d="m272.69,261.08v4.15h-.55v-3.1l-1.38,3.1h-.38l-1.39-3.1v3.1h-.55v-4.15h.59l1.54,3.43,1.54-3.43h.58Z"/>
    <path class="cls-14" d="m275.9,265.87h-.55v-5.41h.55v5.41Z"/>
    <path class="cls-14" d="m279.6,263.79c.29-.26.53-.54.73-.82.2-.29.3-.57.3-.84,0-.26-.06-.47-.19-.62s-.33-.23-.61-.23-.48.09-.63.26-.23.4-.24.68h-.53c.02-.45.15-.79.41-1.04.26-.24.59-.37.99-.37s.74.11.98.34c.24.23.36.54.36.94,0,.33-.1.65-.3.97s-.42.59-.67.83-.57.52-.97.83h2.06v.46h-2.89v-.39c.51-.41.91-.74,1.19-1Z"/>
    <path class="cls-14" d="m282.26,261.4c.22-.39.62-.58,1.18-.58s.95.19,1.17.58c.22.39.34.92.34,1.61s-.11,1.24-.34,1.63c-.22.39-.61.58-1.17.58s-.95-.19-1.18-.58c-.22-.39-.34-.93-.34-1.63s.11-1.23.34-1.61Zm2.07.73c-.05-.24-.14-.44-.28-.58-.14-.15-.35-.22-.62-.22s-.48.07-.62.22-.24.34-.28.58c-.05.24-.07.54-.07.89s.02.66.07.91c.05.24.14.44.28.59.14.15.35.22.62.22s.47-.07.62-.22c.14-.15.24-.34.28-.59.05-.24.07-.55.07-.91s-.02-.64-.07-.89Z"/>
    <path class="cls-14" d="m288.95,262.26c-.12-.24-.28-.43-.5-.57-.22-.13-.48-.2-.77-.2s-.55.07-.79.2c-.23.13-.42.33-.55.58-.13.25-.2.54-.2.87s.07.62.2.86c.13.25.32.44.55.57.23.13.5.2.79.2.41,0,.74-.12,1.01-.37.26-.24.42-.57.46-.99h-1.67v-.44h2.25v.42c-.03.34-.14.66-.32.94-.18.29-.43.51-.73.68s-.63.25-1,.25c-.39,0-.74-.09-1.06-.27-.32-.18-.57-.44-.76-.76-.19-.32-.28-.69-.28-1.1s.09-.77.28-1.1c.19-.33.44-.58.76-.76.32-.18.67-.27,1.06-.27.44,0,.84.11,1.18.33.34.22.59.53.75.93h-.65Z"/>
    <path class="cls-14" d="m292.96,263.26c.13.1.23.22.3.37.07.15.11.31.11.47,0,.21-.05.4-.16.57-.11.17-.27.3-.47.4s-.45.15-.73.15h-1.56v-4.18h1.5c.28,0,.53.05.73.14.2.09.35.22.45.38.1.16.15.34.15.54,0,.25-.07.45-.2.62-.13.16-.31.28-.53.35.15.02.29.09.42.19Zm-1.97-.41h.92c.26,0,.45-.06.59-.18.14-.12.21-.29.21-.5s-.07-.38-.21-.5c-.14-.12-.34-.18-.61-.18h-.91v1.36Zm1.6,1.73c.15-.13.23-.31.23-.53s-.08-.42-.24-.55c-.16-.13-.37-.2-.64-.2h-.95v1.48h.97c.27,0,.48-.06.64-.19Z"/>
    <path class="cls-14" d="m296.31,265.12c-.22-.1-.39-.23-.51-.41-.12-.17-.19-.38-.19-.6h.58c.02.2.1.36.24.5.14.13.35.2.62.2s.46-.06.61-.2c.15-.13.23-.3.23-.5,0-.16-.04-.29-.13-.39s-.2-.18-.33-.23c-.13-.05-.31-.11-.53-.17-.28-.07-.5-.14-.66-.22-.17-.07-.31-.18-.43-.34-.12-.15-.18-.36-.18-.62,0-.23.06-.43.17-.61.12-.18.28-.31.49-.41.21-.1.45-.14.72-.14.39,0,.71.1.96.29s.39.46.42.78h-.6c-.02-.16-.1-.3-.25-.42-.15-.12-.34-.18-.59-.18-.23,0-.41.06-.56.18-.14.12-.22.28-.22.49,0,.15.04.28.13.37.09.1.19.17.32.22.13.05.3.11.53.17.28.08.5.15.67.23.17.07.31.19.43.34.12.15.18.36.18.63,0,.2-.05.4-.16.58-.11.18-.27.33-.48.44s-.46.17-.75.17-.52-.05-.74-.15Z"/>
    <path class="cls-14" d="m299.92,262.39v1.94c0,.16.03.27.1.34.07.07.19.1.35.1h.4v.46h-.49c-.3,0-.53-.07-.68-.21-.15-.14-.23-.37-.23-.69v-1.94h-.43v-.45h.43v-.83h.55v.83h.86v.45h-.86Z"/>
    <path class="cls-14" d="m302.03,265.07c-.25-.14-.45-.34-.59-.6-.14-.26-.21-.56-.21-.9s.07-.63.22-.89c.15-.26.34-.46.6-.59.25-.14.53-.21.85-.21s.59.07.85.21c.25.14.45.33.6.59.15.26.22.55.22.89s-.08.64-.23.9c-.15.26-.35.46-.61.6-.26.14-.54.21-.85.21s-.59-.07-.84-.21Zm1.39-.41c.17-.09.31-.23.42-.41.11-.18.16-.41.16-.67s-.05-.49-.16-.67c-.1-.18-.24-.32-.41-.41-.17-.09-.35-.14-.55-.14s-.38.04-.55.14c-.17.09-.3.23-.4.41-.1.18-.15.41-.15.67s.05.49.15.68c.1.18.23.32.39.41s.34.14.54.14.38-.05.55-.14Z"/>
    <path class="cls-14" d="m306.23,262.04c.18-.1.39-.16.65-.16v.56h-.14c-.61,0-.92.33-.92,1v1.79h-.55v-3.29h.55v.53c.1-.19.23-.33.41-.44Z"/>
    <path class="cls-14" d="m307.51,262.69c.14-.25.32-.45.56-.59.24-.14.5-.21.79-.21s.54.06.75.19.37.28.47.47v-.6h.55v3.29h-.55v-.61c-.11.19-.27.35-.48.48-.21.13-.46.19-.75.19s-.56-.07-.79-.22c-.24-.14-.42-.35-.56-.61-.14-.26-.2-.56-.2-.89s.07-.63.2-.89Zm2.43.24c-.1-.18-.24-.33-.41-.42-.17-.1-.36-.15-.56-.15s-.39.05-.56.14c-.17.1-.3.24-.4.42-.1.18-.15.4-.15.65s.05.47.15.66c.1.19.23.33.4.43.17.1.35.15.56.15s.39-.05.56-.15c.17-.1.3-.24.41-.43.1-.19.15-.4.15-.65s-.05-.46-.15-.65Z"/>
    <path class="cls-14" d="m313.67,262.07c.21.12.37.28.48.47v-.6h.55v3.36c0,.3-.06.57-.19.8s-.31.42-.55.55c-.24.13-.51.2-.83.2-.43,0-.79-.1-1.08-.31s-.46-.48-.51-.83h.54c.06.2.18.36.37.48.19.12.41.18.68.18.3,0,.54-.09.74-.28.19-.19.29-.45.29-.79v-.69c-.11.19-.27.35-.48.48-.21.13-.46.19-.74.19s-.56-.07-.79-.22c-.24-.14-.42-.35-.56-.61-.14-.26-.2-.56-.2-.89s.07-.63.2-.89.32-.45.56-.59c.24-.14.5-.21.79-.21s.53.06.75.19Zm.33.86c-.1-.18-.24-.33-.41-.42-.17-.1-.36-.15-.56-.15s-.39.05-.56.14c-.17.1-.3.24-.4.42-.1.18-.15.4-.15.65s.05.47.15.66.23.33.4.43c.17.1.35.15.56.15s.39-.05.56-.15c.17-.1.31-.24.41-.43s.15-.4.15-.65-.05-.46-.15-.65Z"/>
    <path class="cls-14" d="m318.61,263.79h-2.63c.02.32.13.58.33.76.2.18.45.27.73.27.24,0,.43-.05.59-.17.16-.11.27-.26.33-.44h.59c-.09.32-.26.57-.53.77-.26.2-.59.3-.98.3-.31,0-.59-.07-.84-.21-.25-.14-.44-.34-.58-.6-.14-.26-.21-.56-.21-.9s.07-.64.2-.89c.14-.26.33-.45.57-.59.25-.14.53-.21.85-.21s.59.07.83.2c.24.14.43.32.56.56.13.24.19.51.19.81,0,.1,0,.21-.02.33Zm-.68-.98c-.09-.15-.22-.26-.38-.34-.16-.08-.33-.12-.52-.12-.28,0-.51.09-.71.26-.19.18-.3.42-.33.73h2.08c0-.21-.05-.39-.14-.54Z"/>
  </g>
  <g>
    <path class="cls-8" d="m251.1,252.7c-.13.25-.35.45-.64.61-.29.16-.67.24-1.13.24h-1.01v2.26h-.91v-5.56h1.92c.43,0,.79.07,1.08.22.3.15.52.35.66.6.15.25.22.53.22.84,0,.28-.07.55-.2.8Zm-.99-.13c.17-.16.26-.38.26-.67,0-.61-.34-.91-1.03-.91h-1.01v1.82h1.01c.35,0,.61-.08.78-.24Z"/>
    <path class="cls-8" d="m256.14,251.39l-2.7,6.48h-.94l.9-2.14-1.74-4.34h1.02l1.24,3.36,1.29-3.36h.94Z"/>
    <path class="cls-8" d="m257.89,252.14v2.44c0,.17.04.28.12.36.08.07.21.11.4.11h.56v.76h-.72c-.41,0-.73-.1-.94-.29s-.33-.5-.33-.94v-2.44h-.52v-.74h.52v-1.1h.92v1.1h1.07v.74h-1.07Z"/>
    <path class="cls-8" d="m262.98,251.54c.26.14.47.36.62.64.15.28.23.62.23,1.02v2.6h-.9v-2.46c0-.39-.1-.7-.3-.91-.2-.21-.47-.32-.81-.32s-.61.11-.81.32c-.2.21-.3.51-.3.91v2.46h-.91v-5.92h.91v2.02c.15-.19.35-.33.59-.43.24-.1.5-.15.78-.15.34,0,.64.07.9.22Z"/>
    <path class="cls-8" d="m265.78,255.59c-.34-.19-.6-.46-.79-.8-.19-.34-.29-.74-.29-1.2s.1-.85.3-1.19.47-.61.81-.8c.34-.19.72-.28,1.14-.28s.8.09,1.14.28c.34.19.61.45.81.8s.3.74.3,1.19-.1.85-.3,1.19-.48.61-.83.8-.73.28-1.16.28-.79-.09-1.13-.28Zm1.79-.68c.21-.11.37-.28.5-.5s.19-.5.19-.82-.06-.59-.18-.81c-.12-.22-.29-.39-.49-.5s-.42-.17-.66-.17-.45.06-.65.17c-.2.11-.36.28-.48.5-.12.22-.18.49-.18.81,0,.47.12.84.36,1.1.24.26.55.39.92.39.23,0,.45-.06.66-.17Z"/>
    <path class="cls-8" d="m273.25,251.54c.27.14.49.36.64.64.16.28.23.62.23,1.02v2.6h-.9v-2.46c0-.39-.1-.7-.3-.91-.2-.21-.47-.32-.81-.32s-.61.11-.81.32c-.2.21-.3.51-.3.91v2.46h-.91v-4.41h.91v.5c.15-.18.34-.32.57-.42.23-.1.48-.15.74-.15.35,0,.66.07.93.22Z"/>
    <path class="cls-8" d="m278.19,255.66c-.3-.13-.53-.32-.7-.56-.17-.24-.26-.52-.26-.84h.98c.02.24.12.44.29.59s.4.23.71.23.56-.08.74-.23.26-.35.26-.59c0-.19-.05-.34-.16-.46s-.25-.21-.41-.27c-.16-.06-.39-.13-.68-.21-.36-.1-.66-.19-.88-.29-.23-.1-.42-.25-.58-.46-.16-.21-.24-.49-.24-.83,0-.32.08-.6.24-.84.16-.24.38-.42.67-.55.29-.13.62-.19,1-.19.54,0,.98.13,1.32.4.34.27.53.64.57,1.11h-1.01c-.02-.2-.11-.38-.29-.52s-.41-.22-.7-.22c-.26,0-.47.07-.64.2-.17.13-.25.33-.25.58,0,.17.05.31.16.42.1.11.24.2.4.26s.38.13.66.21c.37.1.67.2.9.3.23.1.43.26.59.47.16.21.24.49.24.84,0,.28-.08.55-.23.8-.15.25-.37.45-.66.6-.29.15-.63.23-1.03.23-.37,0-.71-.07-1.01-.2Z"/>
    <path class="cls-8" d="m286.21,253.94h-3.37c.03.35.16.63.39.85.24.21.52.32.86.32.49,0,.84-.21,1.04-.62h.98c-.13.41-.38.74-.72,1s-.78.39-1.3.39c-.42,0-.8-.09-1.13-.28-.33-.19-.59-.46-.78-.8-.19-.34-.28-.74-.28-1.2s.09-.85.28-1.2c.18-.34.44-.61.78-.8.33-.19.72-.28,1.15-.28s.79.09,1.11.27c.33.18.58.44.76.76.18.33.27.71.27,1.13,0,.17-.01.31-.03.45Zm-.92-.74c0-.34-.12-.6-.36-.81-.23-.2-.53-.3-.87-.3-.32,0-.58.1-.81.3-.22.2-.36.47-.4.81h2.44Z"/>
    <path class="cls-8" d="m288.58,251.51c.22-.13.48-.19.79-.19v.94h-.23c-.36,0-.63.09-.81.27-.18.18-.28.5-.28.94v2.32h-.91v-4.41h.91v.64c.13-.22.31-.4.53-.52Z"/>
    <path class="cls-8" d="m291.92,254.99l1.25-3.59h.97l-1.68,4.41h-1.09l-1.67-4.41h.98l1.25,3.59Z"/>
    <path class="cls-8" d="m298.83,253.94h-3.37c.03.35.16.63.39.85s.52.32.86.32c.49,0,.84-.21,1.04-.62h.98c-.13.41-.38.74-.72,1-.35.26-.78.39-1.3.39-.42,0-.8-.09-1.13-.28s-.59-.46-.78-.8c-.19-.34-.28-.74-.28-1.2s.09-.85.28-1.2c.18-.34.44-.61.78-.8.33-.19.72-.28,1.15-.28s.79.09,1.11.27.58.44.76.76c.18.33.27.71.27,1.13,0,.17-.01.31-.03.45Zm-.92-.74c0-.34-.13-.6-.36-.81-.23-.2-.53-.3-.87-.3-.32,0-.58.1-.81.3-.22.2-.36.47-.4.81h2.44Z"/>
    <path class="cls-8" d="m301.2,251.51c.22-.13.48-.19.79-.19v.94h-.23c-.36,0-.63.09-.81.27-.18.18-.28.5-.28.94v2.32h-.91v-4.41h.91v.64c.13-.22.31-.4.53-.52Z"/>
  </g>
  <rect class="cls-13" x="305.59" y="247.83" width="28.8" height="10.97" rx="5.48" ry="5.48"/>
  <text class="cls-22" transform="translate(311.48 254.93)"><tspan x="0" y="0">Online</tspan></text>
  <g>
    <path class="cls-8" d="m367.18,252.32v.37h-.95v3.12h-.46v-3.12h-.96v-.37h2.36Z"/>
    <path class="cls-8" d="m367.76,252.53c-.06-.06-.09-.13-.09-.22s.03-.16.09-.22c.06-.06.13-.09.22-.09s.15.03.21.09c.06.06.09.13.09.22s-.03.16-.09.22c-.06.06-.13.09-.21.09s-.16-.03-.22-.09Zm.44.54v2.74h-.46v-2.74h.46Z"/>
    <path class="cls-8" d="m372.84,253.15c.17.09.3.22.39.4.1.18.15.39.15.64v1.62h-.45v-1.55c0-.27-.07-.48-.2-.63-.14-.14-.32-.22-.55-.22s-.42.08-.57.23c-.14.15-.21.37-.21.66v1.51h-.45v-1.55c0-.27-.07-.48-.2-.63s-.32-.22-.55-.22-.43.08-.57.23c-.14.15-.21.37-.21.66v1.51h-.46v-2.74h.46v.39c.09-.14.21-.25.36-.33.15-.08.32-.12.5-.12.23,0,.43.05.61.16.18.1.31.25.4.45.08-.19.2-.34.38-.45.18-.11.37-.16.59-.16s.4.04.57.13Z"/>
    <path class="cls-8" d="m376.61,254.6h-2.19c.02.27.11.48.28.63.17.15.37.23.61.23.2,0,.36-.05.49-.14s.22-.21.28-.37h.49c-.07.26-.22.48-.44.64-.22.17-.49.25-.82.25-.26,0-.49-.06-.7-.17-.21-.12-.37-.28-.48-.5-.12-.21-.18-.46-.18-.75s.06-.53.17-.75c.11-.21.27-.38.48-.49.21-.12.44-.17.71-.17s.49.06.69.17c.2.11.35.27.46.47s.16.42.16.67c0,.09,0,.18-.01.28Zm-.57-.82c-.08-.12-.18-.22-.31-.29-.13-.07-.28-.1-.44-.1-.23,0-.43.07-.59.22-.16.15-.25.35-.28.61h1.73c0-.17-.04-.32-.12-.45Z"/>
    <path class="cls-8" d="m377.15,253.6c-.06-.06-.09-.13-.09-.22s.03-.16.09-.22c.06-.06.13-.09.22-.09s.15.03.21.09c.06.06.09.13.09.22s-.03.16-.09.22-.13.09-.21.09-.16-.03-.22-.09Zm0,2.14c-.06-.06-.09-.13-.09-.22s.03-.16.09-.22.13-.09.22-.09.15.03.21.09c.06.06.09.13.09.22s-.03.16-.09.22c-.06.06-.13.09-.21.09s-.16-.03-.22-.09Z"/>
    <path class="cls-14" d="m380.88,252.49c-.3,0-.52.11-.67.34-.15.23-.22.6-.22,1.13.08-.17.21-.31.38-.41.18-.1.38-.15.6-.15.34,0,.62.11.82.32s.31.51.31.88c0,.23-.04.43-.13.61-.09.18-.22.32-.4.43-.18.11-.39.16-.65.16-.34,0-.61-.08-.81-.23-.19-.15-.33-.36-.4-.63-.08-.27-.12-.6-.12-1,0-1.22.43-1.83,1.28-1.83.33,0,.58.09.77.27s.3.4.33.67h-.42c-.07-.37-.3-.56-.68-.56Zm-.4,1.39c-.13.06-.23.15-.31.26-.08.12-.12.26-.12.43,0,.25.07.46.22.62s.36.24.63.24c.23,0,.42-.07.56-.22.14-.14.21-.34.21-.59,0-.26-.07-.46-.2-.61-.13-.15-.33-.22-.58-.22-.14,0-.28.03-.41.09Z"/>
    <path class="cls-14" d="m383.66,254.6c.24-.22.44-.45.61-.68s.25-.47.25-.7c0-.22-.05-.39-.16-.51-.1-.12-.27-.19-.51-.19s-.4.07-.53.21c-.12.14-.19.33-.2.57h-.44c.01-.37.13-.66.34-.87.21-.2.49-.31.83-.31s.62.1.82.29c.2.19.3.45.3.79,0,.28-.08.55-.25.81s-.35.49-.56.69-.48.43-.8.69h1.72v.38h-2.41v-.33c.42-.34.75-.62,1-.84Z"/>
    <path class="cls-14" d="m385.49,255v-.34l1.75-2.43h.54v2.38h.5v.39h-.5v.81h-.45v-.81h-1.85Zm1.87-2.3l-1.34,1.91h1.34v-1.91Z"/>
    <path class="cls-14" d="m392.07,253.15c.17.09.3.22.39.4.09.18.14.39.14.64v1.62h-.45v-1.55c0-.27-.07-.48-.21-.63s-.32-.22-.56-.22-.43.08-.57.23c-.14.15-.21.37-.21.65v1.52h-.46v-3.7h.46v1.35c.09-.14.21-.25.37-.32.16-.08.34-.12.53-.12s.39.04.56.13Z"/>
    <path class="cls-14" d="m393.85,255.67c-.21-.12-.37-.28-.49-.5-.12-.21-.18-.46-.18-.75s.06-.53.18-.74c.12-.21.29-.38.5-.49.21-.12.45-.17.71-.17s.5.06.71.17c.21.11.38.28.5.49.12.21.18.46.18.75s-.06.53-.19.75-.29.38-.51.5c-.21.12-.45.17-.71.17s-.49-.06-.7-.17Zm1.16-.34c.14-.08.26-.19.35-.34.09-.15.13-.34.13-.56s-.04-.41-.13-.56-.2-.27-.34-.34c-.14-.08-.29-.11-.46-.11s-.32.04-.46.11c-.14.07-.25.19-.33.34s-.12.34-.12.56.04.41.12.56c.08.15.19.27.33.34s.29.11.45.11.32-.04.46-.12Z"/>
    <path class="cls-14" d="m398.98,253.06v2.74h-.46v-.41c-.09.14-.21.25-.36.33-.16.08-.33.12-.51.12-.21,0-.4-.04-.57-.13-.17-.09-.3-.22-.4-.4-.1-.18-.15-.39-.15-.64v-1.61h.45v1.54c0,.27.07.48.21.62.14.14.32.22.56.22s.43-.08.57-.22c.14-.15.21-.37.21-.66v-1.5h.46Z"/>
    <path class="cls-14" d="m400.55,253.14c.15-.09.33-.13.54-.13v.47h-.12c-.51,0-.76.28-.76.83v1.49h-.46v-2.74h.46v.45c.08-.16.19-.28.34-.37Z"/>
    <path class="cls-14" d="m402.02,255.74c-.17-.07-.3-.17-.39-.3-.1-.13-.15-.28-.16-.44h.47c.01.14.08.25.19.33.12.09.27.13.45.13.17,0,.31-.04.41-.12.1-.08.15-.17.15-.29s-.05-.21-.16-.27-.27-.12-.5-.17c-.2-.05-.37-.11-.5-.16-.13-.05-.24-.14-.33-.25s-.14-.25-.14-.43c0-.14.04-.27.12-.38.08-.12.2-.21.36-.28s.33-.1.52-.1c.3,0,.55.08.74.23s.29.36.3.63h-.46c0-.14-.07-.26-.17-.35-.11-.09-.25-.13-.42-.13-.16,0-.29.04-.39.11-.1.07-.15.16-.15.27,0,.09.03.16.09.22.06.06.13.11.22.14.09.04.21.07.37.12.2.05.36.11.48.16s.23.13.32.23c.09.1.13.24.14.41,0,.15-.04.29-.12.41-.08.12-.2.21-.35.28-.15.07-.33.1-.52.1-.21,0-.4-.04-.57-.11Z"/>
    <path class="cls-14" d="m406.02,252.1v3.7h-.46v-3.7h.46Z"/>
    <path class="cls-14" d="m409.28,254.6h-2.19c.02.27.11.48.28.63.17.15.37.23.61.23.2,0,.36-.05.49-.14s.22-.21.28-.37h.49c-.07.26-.22.48-.44.64-.22.17-.49.25-.82.25-.26,0-.49-.06-.7-.17-.21-.12-.37-.28-.48-.5-.12-.21-.18-.46-.18-.75s.06-.53.17-.75c.11-.21.27-.38.48-.49.21-.12.44-.17.71-.17s.49.06.69.17c.2.11.35.27.46.47s.16.42.16.67c0,.09,0,.18-.01.28Zm-.57-.82c-.08-.12-.18-.22-.31-.29-.13-.07-.28-.1-.44-.1-.23,0-.43.07-.59.22-.16.15-.25.35-.28.61h1.73c0-.17-.04-.32-.12-.45Z"/>
    <path class="cls-14" d="m411.01,253.44h-.58v2.37h-.46v-2.37h-.35v-.38h.35v-.2c0-.31.08-.53.24-.67s.41-.21.76-.21v.38c-.2,0-.34.04-.42.12-.08.08-.12.21-.12.39v.2h.58v.38Z"/>
    <path class="cls-14" d="m412.1,253.44v1.62c0,.13.03.23.08.28s.16.08.29.08h.33v.38h-.41c-.25,0-.44-.06-.57-.17-.13-.12-.19-.31-.19-.58v-1.62h-.36v-.38h.36v-.69h.46v.69h.71v.38h-.71Z"/>
  </g>
  <rect class="cls-2" x="364.66" y="259.66" width="120" height="5" rx="2.5" ry="2.5"/>
  <rect class="cls-6" x="364.66" y="259.66" width="74.88" height="5" rx="2.5" ry="2.5"/>
  <g>
    <rect class="cls-6" x="512.59" y="247.87" width="20" height="20" rx="4.54" ry="4.54"/>
    <path class="cls-2" d="m524.44,257.52c.2.2.2.51,0,.71l-3,3c-.2.2-.51.2-.71,0s-.2-.51,0-.71l2.65-2.65-2.64-2.65c-.2-.2-.2-.51,0-.71s.51-.2.71,0l3,3h0Z"/>
  </g>
  <rect class="cls-1" x="195.54" y="288.95" width="349.43" height="45.51" rx="7.64" ry="7.64"/>
  <rect class="cls-3" x="207.9" y="296.22" width="28" height="28" rx="4.66" ry="4.66"/>
  <rect class="cls-16" x="247.06" y="300.86" width="93.39" height="7.87" rx="3.94" ry="3.94"/>
  <rect class="cls-16" x="247.06" y="311.71" width="59.84" height="7.87" rx="3.94" ry="3.94"/>
  <rect class="cls-16" x="364.94" y="300.86" width="48.15" height="7.87" rx="3.94" ry="3.94"/>
  <rect class="cls-16" x="365.11" y="311.71" width="119.83" height="7.87" rx="3.94" ry="3.94"/>
  <g>
    <rect class="cls-6" x="512.59" y="301.71" width="20" height="20" rx="4.54" ry="4.54"/>
    <path class="cls-2" d="m524.44,311.35c.2.2.2.51,0,.71l-3,3c-.2.2-.51.2-.71,0s-.2-.51,0-.71l2.65-2.65-2.64-2.65c-.2-.2-.2-.51,0-.71s.51-.2.71,0l3,3h0Z"/>
  </g>
  <path id="rect1-5-5-5-7-6-7-9" class="cls-16" d="m97.92,115.74h0c3.91,0,7.09,3.17,7.09,7.09h0c0,3.91-3.17,7.09-7.09,7.09h0c-3.91,0-7.09-3.17-7.09-7.09h0c0-3.91,3.17-7.09,7.09-7.09Z"/>
  <path id="rect1-5-5-5-7-6-7-9-5" class="cls-7" d="m96.34,179.84h0c3.91,0,7.09,3.17,7.09,7.09h0c0,3.91-3.17,7.09-7.09,7.09h0c-3.91,0-7.09-3.17-7.09-7.09h0c0-3.91,3.17-7.09,7.09-7.09Z"/>
  <path id="rect1-5-5-5-7-6-7-9-5-5" class="cls-3" d="m96.34,211.88h0c3.91,0,7.09,3.17,7.09,7.09h0c0,3.91-3.17,7.09-7.09,7.09h0c-3.91,0-7.09-3.17-7.09-7.09h0c0-3.91,3.17-7.09,7.09-7.09Z"/>
  <path id="rect1-5-5-5-7-6-7-9-5-8" class="cls-5" d="m96.34,243.93h0c3.91,0,7.09,3.17,7.09,7.09h0c0,3.91-3.17,7.09-7.09,7.09h0c-3.91,0-7.09-3.17-7.09-7.09h0c0-3.91,3.17-7.09,7.09-7.09Z"/>
  <path id="rect1-5-5-5" class="cls-1" d="m36.27,80.46h99.37c2.65,0,4.8,2.09,4.8,4.68v17.92c0,2.58-2.15,4.68-4.8,4.68H36.27c-2.65,0-4.8-2.09-4.8-4.68v-17.92c0-2.58,2.15-4.68,4.8-4.68Z"/>
  <path id="rect1-5-5-5-7-6-7" class="cls-6" d="m50.48,87.01h0c3.91,0,7.09,3.17,7.09,7.09h0c0,3.91-3.17,7.09-7.09,7.09h0c-3.91,0-7.09-3.17-7.09-7.09h0c0-3.91,3.17-7.09,7.09-7.09Z"/>
  <g id="text1-0-8-3-1" class="cls-21">
    <g class="cls-21">
      <path class="cls-8" d="m66.99,96.14c-.25-.11-.45-.27-.6-.48-.14-.2-.22-.44-.22-.7h.68c.02.23.12.42.28.58.17.16.41.23.72.23s.54-.08.72-.23c.17-.15.26-.35.26-.58,0-.19-.05-.34-.15-.46-.1-.12-.23-.21-.39-.27-.15-.06-.36-.13-.62-.2-.32-.08-.58-.17-.77-.25-.19-.08-.36-.22-.5-.4-.14-.18-.21-.42-.21-.72,0-.27.07-.5.2-.71.14-.21.33-.36.57-.48.24-.11.53-.17.84-.17.46,0,.83.11,1.12.34.29.23.46.53.49.91h-.7c-.02-.19-.12-.35-.29-.49-.17-.14-.4-.21-.69-.21-.27,0-.48.07-.65.21s-.25.33-.25.58c0,.18.05.32.15.43.1.11.22.2.37.26.15.06.35.12.62.2.32.09.58.18.78.26.2.09.36.22.5.4s.21.42.21.73c0,.24-.06.46-.19.67s-.31.38-.56.51-.54.2-.88.2-.61-.06-.86-.17Z"/>
      <path class="cls-8" d="m71.62,92.58c.25-.15.54-.22.87-.22s.65.08.93.25c.28.16.5.39.65.69s.24.64.24,1.03-.08.73-.24,1.04-.38.54-.65.71c-.28.17-.59.25-.93.25s-.61-.07-.86-.22c-.25-.15-.44-.33-.57-.55v2.53h-.64v-5.66h.64v.71c.13-.22.31-.4.56-.55Zm1.87.99c-.12-.21-.27-.38-.47-.49-.2-.11-.42-.17-.65-.17s-.45.06-.65.17-.36.28-.48.5c-.12.22-.18.47-.18.75s.06.54.18.76.28.38.48.5.41.17.65.17.46-.06.65-.17.36-.28.47-.5.17-.47.17-.77-.06-.54-.17-.76Z"/>
      <path class="cls-8" d="m75.79,91.08v5.18h-.64v-5.18h.64Z"/>
      <path class="cls-8" d="m76.87,93.29c.16-.3.38-.53.65-.69.28-.16.59-.25.93-.25s.63.07.88.22c.25.15.43.33.55.55v-.7h.64v3.84h-.64v-.71c-.13.22-.31.41-.56.56s-.54.22-.87.22-.65-.08-.92-.25-.49-.4-.65-.71-.24-.65-.24-1.04.08-.74.24-1.03Zm2.83.28c-.12-.21-.27-.38-.47-.49s-.42-.17-.65-.17-.46.06-.65.17c-.2.11-.35.28-.47.49s-.17.47-.17.76.06.55.17.77.27.38.47.5c.2.11.41.17.65.17s.46-.06.65-.17.36-.28.47-.5.17-.47.17-.76-.06-.54-.17-.76Z"/>
      <path class="cls-8" d="m82.17,96.17c-.23-.1-.42-.24-.55-.42-.14-.18-.21-.39-.22-.62h.66c.02.19.11.35.27.47.16.12.37.18.63.18.24,0,.43-.05.57-.16.14-.11.21-.24.21-.41s-.07-.29-.22-.37c-.15-.08-.38-.16-.69-.24-.28-.07-.52-.15-.7-.23-.18-.08-.33-.19-.46-.34-.13-.15-.19-.35-.19-.6,0-.2.06-.38.18-.54.12-.16.28-.29.5-.39.21-.1.46-.14.73-.14.42,0,.77.11,1.03.32.26.21.4.51.42.88h-.64c-.01-.2-.09-.36-.24-.48-.15-.12-.34-.18-.59-.18-.23,0-.41.05-.55.15-.14.1-.2.23-.2.38,0,.13.04.23.12.31.08.08.18.15.31.2.12.05.29.1.51.16.28.07.5.15.67.22.17.07.32.18.44.33s.19.33.19.57c0,.21-.06.4-.17.57s-.28.3-.49.4-.46.14-.73.14c-.29,0-.56-.05-.79-.15Z"/>
      <path class="cls-8" d="m87.94,92.54c.23.12.42.31.55.56.13.25.2.55.2.9v2.26h-.63v-2.17c0-.38-.1-.68-.29-.88-.19-.2-.45-.3-.78-.3s-.6.1-.8.31c-.2.21-.3.52-.3.92v2.12h-.64v-5.18h.64v1.89c.13-.2.3-.35.52-.46s.47-.16.75-.16c.29,0,.55.06.78.19Z"/>
      <path class="cls-8" d="m90.95,92.58c.25-.14.54-.22.86-.22.35,0,.66.08.93.25.28.16.49.39.65.69s.24.64.24,1.03-.08.73-.24,1.04-.38.54-.65.71c-.28.17-.59.25-.93.25s-.62-.07-.87-.22c-.25-.15-.44-.33-.56-.55v.71h-.64v-5.18h.64v2.06c.13-.23.32-.42.57-.56Zm1.85.99c-.12-.21-.27-.38-.47-.49-.2-.11-.42-.17-.65-.17s-.45.06-.65.17-.36.28-.48.5c-.12.22-.18.47-.18.75s.06.54.18.76.28.38.48.5.41.17.65.17.46-.06.65-.17.36-.28.47-.5.17-.47.17-.77-.06-.54-.17-.76Z"/>
      <path class="cls-8" d="m95.16,96.08c-.29-.16-.52-.4-.69-.7-.17-.3-.25-.65-.25-1.05s.09-.74.26-1.04c.17-.3.4-.53.7-.69.29-.16.62-.24.99-.24s.69.08.99.24c.29.16.53.39.7.69.17.3.26.65.26,1.04s-.09.75-.26,1.05c-.17.3-.41.53-.71.7-.3.16-.63.25-.99.25s-.69-.08-.98-.25Zm1.62-.48c.2-.11.36-.27.49-.48.12-.21.19-.48.19-.78s-.06-.57-.18-.78c-.12-.21-.28-.37-.48-.48-.2-.1-.41-.16-.64-.16s-.45.05-.64.16c-.19.1-.35.26-.47.48s-.17.48-.17.78.06.58.17.79c.11.21.27.37.46.48s.4.16.63.16.44-.05.64-.16Z"/>
      <path class="cls-8" d="m98.95,93.29c.16-.3.38-.53.65-.69.28-.16.59-.25.93-.25s.63.07.88.22c.25.15.43.33.55.55v-.7h.64v3.84h-.64v-.71c-.13.22-.31.41-.56.56s-.54.22-.87.22-.65-.08-.92-.25-.49-.4-.65-.71-.24-.65-.24-1.04.08-.74.24-1.03Zm2.83.28c-.12-.21-.27-.38-.47-.49s-.42-.17-.65-.17-.46.06-.65.17c-.2.11-.35.28-.47.49s-.17.47-.17.76.06.55.17.77.27.38.47.5c.2.11.41.17.65.17s.46-.06.65-.17.36-.28.47-.5.17-.47.17-.76-.06-.54-.17-.76Z"/>
      <path class="cls-8" d="m104.8,92.53c.21-.12.46-.18.76-.18v.66h-.17c-.71,0-1.07.39-1.07,1.16v2.09h-.64v-3.84h.64v.62c.11-.22.27-.39.48-.51Z"/>
      <path class="cls-8" d="m106.29,93.29c.16-.3.38-.53.65-.69.28-.16.59-.25.93-.25.3,0,.58.07.83.21s.45.32.59.54v-2.03h.64v5.18h-.64v-.72c-.13.23-.31.42-.56.56-.25.15-.54.22-.87.22s-.65-.08-.93-.25c-.28-.17-.5-.4-.65-.71s-.24-.65-.24-1.04.08-.74.24-1.03Zm2.83.28c-.12-.21-.27-.38-.47-.49s-.42-.17-.65-.17-.46.06-.65.17c-.2.11-.35.28-.47.49s-.17.47-.17.76.06.55.17.77.27.38.47.5c.2.11.41.17.65.17s.46-.06.65-.17.36-.28.47-.5.17-.47.17-.76-.06-.54-.17-.76Z"/>
    </g>
  </g>
  <g id="text1-2" class="cls-21">
    <g class="cls-21">
      <path class="cls-8" d="m82.26,66.46c-.37-.16-.67-.4-.88-.7-.21-.3-.32-.65-.32-1.05h1.22c.03.3.15.55.35.74.21.19.51.29.89.29s.7-.09.92-.28c.22-.19.33-.44.33-.74,0-.23-.07-.42-.21-.57s-.31-.26-.51-.34c-.2-.08-.49-.17-.85-.26-.45-.12-.82-.24-1.1-.36-.28-.12-.52-.31-.73-.58-.2-.26-.3-.61-.3-1.04,0-.4.1-.75.3-1.05.2-.3.48-.53.84-.69.36-.16.78-.24,1.25-.24.67,0,1.22.17,1.65.5.43.34.67.8.71,1.39h-1.26c-.02-.25-.14-.47-.36-.65-.22-.18-.51-.27-.87-.27-.33,0-.59.08-.8.25s-.31.41-.31.72c0,.21.07.39.2.52.13.14.29.25.5.33.2.08.47.17.82.26.46.13.83.25,1.12.38s.54.32.74.58c.2.26.31.61.31,1.05,0,.35-.09.69-.29,1-.19.31-.47.57-.83.76-.36.19-.79.28-1.29.28-.47,0-.89-.08-1.26-.24Z"/>
      <path class="cls-8" d="m89.2,61.29c.33-.17.71-.26,1.13-.26.48,0,.92.12,1.31.35.4.24.71.57.94,1s.34.92.34,1.47-.11,1.05-.34,1.48-.54.78-.94,1.02-.83.36-1.31.36c-.42,0-.79-.08-1.12-.25s-.59-.38-.8-.63v3.42h-1.14v-8.13h1.14v.81c.19-.25.46-.47.79-.64Zm2.32,1.57c-.16-.28-.36-.49-.62-.63-.26-.14-.53-.21-.82-.21s-.56.07-.81.22c-.26.15-.46.36-.62.64s-.23.61-.23.99.08.71.23.99c.16.28.36.5.62.65.26.15.53.22.81.22s.57-.08.82-.23c.26-.15.46-.37.62-.65s.24-.62.24-1-.08-.71-.24-.99Z"/>
      <path class="cls-8" d="m95.19,59.23v7.4h-1.14v-7.4h1.14Z"/>
      <path class="cls-8" d="m96.66,62.38c.23-.43.54-.76.94-1,.4-.24.84-.35,1.32-.35.43,0,.81.08,1.13.25.32.17.58.38.77.64v-.8h1.15v5.51h-1.15v-.82c-.19.26-.46.48-.79.65s-.71.26-1.14.26c-.47,0-.91-.12-1.3-.36s-.71-.58-.94-1.02-.34-.93-.34-1.48.11-1.04.34-1.47Zm3.93.5c-.16-.28-.36-.49-.62-.64-.25-.15-.53-.22-.82-.22s-.57.07-.82.21c-.25.14-.46.35-.62.63-.16.28-.23.6-.23.99s.08.71.23,1,.36.5.62.65c.26.15.53.23.81.23s.57-.07.82-.22c.25-.15.46-.36.62-.65.16-.28.23-.61.23-.99s-.08-.71-.23-.99Z"/>
      <path class="cls-8" d="m104.31,66.49c-.34-.16-.61-.37-.81-.64s-.31-.57-.32-.9h1.18c.02.23.13.43.33.58.2.16.46.23.77.23s.57-.06.75-.19c.18-.12.27-.28.27-.47,0-.21-.1-.36-.3-.46-.2-.1-.51-.21-.94-.33-.41-.11-.75-.22-1.01-.33s-.48-.27-.67-.49c-.19-.22-.29-.51-.29-.87,0-.29.09-.56.26-.81s.42-.44.75-.58c.32-.14.7-.21,1.12-.21.63,0,1.13.16,1.51.48.38.32.59.75.62,1.29h-1.14c-.02-.25-.12-.44-.3-.59-.18-.15-.42-.22-.73-.22s-.53.06-.69.17c-.16.11-.24.26-.24.45,0,.15.05.27.16.37.11.1.24.18.39.23.15.06.38.13.68.21.4.11.73.22.98.33.26.11.48.27.67.48s.28.5.29.85c0,.31-.09.59-.26.84-.17.25-.42.44-.73.58-.32.14-.69.21-1.12.21s-.82-.08-1.17-.23Z"/>
      <path class="cls-8" d="m112.79,61.3c.33.18.59.45.78.8.19.35.29.78.29,1.28v3.25h-1.13v-3.08c0-.49-.12-.87-.37-1.13-.25-.26-.58-.4-1.01-.4s-.76.13-1.01.4c-.25.26-.38.64-.38,1.13v3.08h-1.14v-7.4h1.14v2.53c.19-.23.44-.41.73-.54.3-.13.62-.19.98-.19.42,0,.79.09,1.12.27Z"/>
      <path class="cls-8" d="m117.24,61.29c.34-.17.71-.25,1.12-.25.49,0,.93.12,1.32.35s.7.56.93,1c.23.43.34.92.34,1.48s-.11,1.05-.34,1.48-.54.78-.94,1.02-.83.36-1.31.36c-.43,0-.81-.08-1.14-.25-.33-.17-.59-.38-.78-.64v.8h-1.14v-7.4h1.14v2.71c.19-.27.46-.48.79-.66Zm2.32,1.58c-.16-.28-.36-.49-.62-.63-.26-.14-.53-.21-.82-.21s-.56.07-.81.22c-.26.15-.46.36-.62.64s-.23.61-.23.99.08.71.23.99c.16.28.36.5.62.65.26.15.53.22.81.22s.57-.08.82-.23c.26-.15.46-.37.62-.65s.24-.62.24-1-.08-.71-.24-.99Z"/>
      <path class="cls-8" d="m123.06,66.37c-.42-.24-.75-.57-.99-1-.24-.43-.36-.93-.36-1.49s.12-1.06.37-1.49c.25-.43.58-.77,1.01-1,.43-.23.9-.35,1.43-.35s1,.12,1.43.35c.43.23.76.57,1.01,1,.25.43.37.93.37,1.49s-.13,1.06-.38,1.49c-.25.43-.6.77-1.04,1-.44.24-.92.35-1.44.35s-.99-.12-1.41-.35Zm2.23-.84c.26-.14.47-.35.62-.63.16-.28.24-.62.24-1.02s-.08-.74-.23-1.02-.36-.48-.61-.62c-.25-.14-.53-.21-.82-.21s-.56.07-.81.21-.45.35-.6.62c-.15.28-.22.61-.22,1.02,0,.59.15,1.05.46,1.38.3.32.69.48,1.15.48.29,0,.57-.07.82-.21Z"/>
      <path class="cls-8" d="m128.43,62.38c.23-.43.54-.76.94-1,.4-.24.84-.35,1.32-.35.43,0,.81.08,1.13.25.32.17.58.38.77.64v-.8h1.15v5.51h-1.15v-.82c-.19.26-.46.48-.79.65s-.71.26-1.14.26c-.47,0-.91-.12-1.3-.36s-.71-.58-.94-1.02-.34-.93-.34-1.48.11-1.04.34-1.47Zm3.93.5c-.16-.28-.36-.49-.62-.64-.25-.15-.53-.22-.82-.22s-.57.07-.82.21c-.25.14-.46.35-.62.63-.16.28-.23.6-.23.99s.08.71.23,1,.36.5.62.65c.26.15.53.23.81.23s.57-.07.82-.22c.25-.15.46-.36.62-.65.16-.28.23-.61.23-.99s-.08-.71-.23-.99Z"/>
      <path class="cls-8" d="m137.05,61.27c.28-.16.6-.23.98-.23v1.18h-.29c-.45,0-.79.11-1.02.34s-.34.62-.34,1.18v2.9h-1.14v-5.51h1.14v.8c.17-.28.39-.5.67-.66Z"/>
      <path class="cls-8" d="m139.05,62.38c.23-.43.54-.76.94-1,.4-.24.84-.35,1.33-.35.36,0,.71.08,1.06.23.35.16.63.37.83.62v-2.66h1.15v7.4h-1.15v-.83c-.19.27-.44.49-.77.66s-.71.26-1.13.26c-.48,0-.92-.12-1.32-.36-.4-.24-.71-.58-.94-1.02s-.34-.93-.34-1.48.11-1.04.34-1.47Zm3.93.5c-.16-.28-.36-.49-.62-.64-.25-.15-.53-.22-.82-.22s-.57.07-.82.21c-.25.14-.46.35-.62.63-.16.28-.23.6-.23.99s.08.71.23,1,.36.5.62.65c.26.15.53.23.81.23s.57-.07.82-.22c.25-.15.46-.36.62-.65.16-.28.23-.61.23-.99s-.08-.71-.23-.99Z"/>
    </g>
  </g>
  <rect class="cls-15" x="196.5" y="83.38" width="349.43" height="121.25" rx="9.52" ry="9.52"/>
  <g>
    <path class="cls-8" d="m245.03,127.57l-2.47,8.34h-1.55l-1.75-6.31-1.86,6.31h-1.54s-2.36-8.34-2.36-8.34h1.45l1.73,6.79,1.87-6.79h1.54l1.74,6.76,1.74-6.76h1.46Z"/>
    <path class="cls-8" d="m252.17,133.12h-5.05c.04.53.24.95.59,1.27.35.32.78.48,1.3.48.74,0,1.26-.31,1.56-.92h1.48c-.2.61-.56,1.11-1.09,1.49-.52.39-1.17.58-1.95.58-.63,0-1.2-.14-1.7-.43-.5-.28-.89-.68-1.18-1.2-.28-.52-.43-1.11-.43-1.79s.14-1.28.41-1.79.66-.91,1.16-1.19c.5-.28,1.07-.42,1.72-.42s1.18.14,1.67.41c.49.27.87.65,1.14,1.15s.41,1.06.41,1.7c0,.25-.02.47-.05.67Zm-1.38-1.1c0-.5-.19-.91-.54-1.21-.35-.3-.79-.46-1.31-.46-.47,0-.88.15-1.21.45-.34.3-.54.71-.6,1.22h3.66Z"/>
    <path class="cls-8" d="m254.93,127.03v8.88h-1.37v-8.88h1.37Z"/>
    <path class="cls-8" d="m256.69,130.81c.28-.52.66-.91,1.15-1.19.49-.28,1.05-.42,1.68-.42.8,0,1.46.19,1.99.57s.88.92,1.06,1.63h-1.48c-.12-.33-.31-.58-.58-.77-.26-.18-.6-.28-1-.28-.56,0-1.01.2-1.34.59-.33.4-.5.95-.5,1.66s.17,1.27.5,1.67c.33.4.78.6,1.34.6.79,0,1.32-.35,1.57-1.04h1.48c-.19.67-.55,1.21-1.08,1.6-.53.4-1.18.59-1.97.59-.63,0-1.19-.14-1.68-.43-.49-.28-.87-.68-1.15-1.2s-.41-1.11-.41-1.79.14-1.28.41-1.79Z"/>
    <path class="cls-8" d="m265.11,135.59c-.5-.28-.9-.68-1.19-1.2-.29-.52-.43-1.11-.43-1.79s.15-1.27.44-1.79.7-.92,1.21-1.2c.51-.28,1.08-.42,1.72-.42s1.2.14,1.72.42c.51.28.92.68,1.21,1.2s.44,1.12.44,1.79-.15,1.27-.46,1.79c-.3.52-.72.92-1.24,1.21-.52.28-1.1.43-1.73.43s-1.19-.14-1.69-.43Zm2.68-1.01c.31-.17.56-.42.75-.76.19-.34.29-.74.29-1.22s-.09-.89-.28-1.22-.43-.58-.73-.75c-.3-.17-.63-.25-.98-.25s-.68.08-.98.25c-.3.17-.54.42-.71.75-.18.33-.26.74-.26,1.22,0,.71.18,1.26.55,1.65.36.39.82.58,1.37.58.35,0,.68-.08.99-.25Z"/>
    <path class="cls-8" d="m280.99,129.52c.41.22.74.54.97.96.24.42.35.94.35,1.54v3.9h-1.36v-3.7c0-.59-.15-1.05-.44-1.36-.3-.32-.7-.47-1.21-.47s-.92.16-1.22.47c-.3.32-.45.77-.45,1.36v3.7h-1.36v-3.7c0-.59-.15-1.05-.44-1.36-.3-.32-.7-.47-1.21-.47s-.92.16-1.22.47c-.3.32-.45.77-.45,1.36v3.7h-1.37v-6.61h1.37v.76c.22-.27.51-.48.85-.64.34-.15.71-.23,1.1-.23.53,0,1,.11,1.42.34.42.22.74.55.96.97.2-.4.51-.72.94-.95.42-.24.88-.35,1.37-.35.52,0,.99.11,1.4.32Z"/>
    <path class="cls-8" d="m290.07,133.12h-5.05c.04.53.24.95.59,1.27.35.32.78.48,1.3.48.74,0,1.26-.31,1.56-.92h1.48c-.2.61-.56,1.11-1.09,1.49-.52.39-1.17.58-1.95.58-.63,0-1.2-.14-1.7-.43-.5-.28-.89-.68-1.18-1.2s-.43-1.11-.43-1.79.14-1.28.41-1.79c.28-.52.66-.91,1.16-1.19.5-.28,1.07-.42,1.72-.42s1.18.14,1.67.41.87.65,1.14,1.15c.27.49.41,1.06.41,1.7,0,.25-.02.47-.05.67Zm-1.38-1.1c0-.5-.19-.91-.54-1.21-.35-.3-.79-.46-1.31-.46-.47,0-.88.15-1.21.45-.34.3-.54.71-.6,1.22h3.66Z"/>
    <path class="cls-8" d="m296.9,129.5c.4-.2.85-.31,1.35-.31.58,0,1.11.14,1.58.42.47.28.84.68,1.12,1.19.27.52.41,1.11.41,1.77s-.14,1.26-.41,1.78c-.27.52-.65.93-1.12,1.22-.48.29-1,.44-1.58.44-.51,0-.97-.1-1.36-.3-.4-.2-.71-.46-.94-.77v.96h-1.37v-8.88h1.37v3.25c.23-.32.55-.58.95-.79Zm2.78,1.9c-.19-.33-.44-.58-.74-.76s-.64-.26-.99-.26-.67.09-.98.26c-.31.18-.56.43-.74.77-.19.34-.28.73-.28,1.19s.09.85.28,1.19c.19.34.44.6.74.77.31.18.63.26.98.26s.68-.09.99-.27c.31-.18.56-.44.74-.79.19-.34.28-.74.28-1.2s-.09-.85-.28-1.18Z"/>
    <path class="cls-8" d="m302.68,130.81c.28-.51.65-.91,1.13-1.19.48-.28,1-.43,1.58-.43.52,0,.97.1,1.36.31s.7.46.93.76v-.96h1.38v6.61h-1.38v-.98c-.23.31-.55.57-.95.78-.4.21-.86.31-1.37.31-.57,0-1.09-.15-1.56-.44-.47-.29-.85-.7-1.12-1.22-.28-.52-.41-1.12-.41-1.78s.14-1.25.41-1.76Zm4.72.6c-.19-.34-.43-.59-.74-.77-.3-.18-.63-.26-.98-.26s-.68.09-.98.26c-.3.17-.55.42-.74.76-.19.33-.28.73-.28,1.18s.09.86.28,1.2c.19.34.44.61.74.79.31.18.63.27.98.27s.68-.09.98-.26c.3-.18.55-.43.74-.77.19-.34.28-.74.28-1.19s-.09-.85-.28-1.19Z"/>
    <path class="cls-8" d="m310.81,130.81c.28-.52.66-.91,1.15-1.19.49-.28,1.05-.42,1.68-.42.8,0,1.46.19,1.99.57.52.38.88.92,1.06,1.63h-1.48c-.12-.33-.31-.58-.58-.77s-.6-.28-1-.28c-.56,0-1.01.2-1.34.59s-.5.95-.5,1.66.17,1.27.5,1.67c.33.4.78.6,1.34.6.79,0,1.32-.35,1.57-1.04h1.48c-.19.67-.55,1.21-1.08,1.6-.53.4-1.18.59-1.97.59-.63,0-1.19-.14-1.68-.43-.49-.28-.87-.68-1.15-1.2-.28-.52-.41-1.11-.41-1.79s.14-1.28.41-1.79Z"/>
    <path class="cls-8" d="m320.67,132.61l3.05,3.3h-1.85l-2.45-2.84v2.84h-1.37v-8.88h1.37v5.16l2.4-2.89h1.9l-3.05,3.31Z"/>
    <path class="cls-8" d="m326.2,134.27l-1.45,3.31h-.89l.85-3.31h1.49Z"/>
    <path class="cls-8" d="m335.58,128.08c.67.34,1.18.83,1.55,1.46.36.64.55,1.38.55,2.23s-.18,1.58-.55,2.21c-.36.62-.88,1.1-1.55,1.43s-1.45.5-2.33.5h-2.72v-8.34h2.72c.89,0,1.67.17,2.33.51Zm-.09,5.92c.52-.53.78-1.27.78-2.23s-.26-1.72-.78-2.27c-.52-.54-1.27-.82-2.24-.82h-1.36v6.11h1.36c.98,0,1.72-.26,2.24-.79Z"/>
    <path class="cls-8" d="m338.99,130.81c.28-.51.65-.91,1.13-1.19.48-.28,1-.43,1.58-.43.52,0,.97.1,1.36.31.39.2.7.46.93.76v-.96h1.38v6.61h-1.38v-.98c-.23.31-.55.57-.95.78s-.86.31-1.37.31c-.57,0-1.09-.15-1.56-.44-.47-.29-.85-.7-1.12-1.22-.28-.52-.41-1.12-.41-1.78s.14-1.25.41-1.76Zm4.72.6c-.19-.34-.43-.59-.74-.77-.3-.18-.63-.26-.98-.26s-.68.09-.98.26-.55.42-.74.76c-.19.33-.28.73-.28,1.18s.09.86.28,1.2c.19.34.44.61.74.79.31.18.63.27.98.27s.68-.09.98-.26c.3-.18.55-.43.74-.77.19-.34.28-.74.28-1.19s-.09-.85-.28-1.19Z"/>
    <path class="cls-8" d="m348.17,135.74c-.41-.19-.74-.44-.98-.77-.24-.32-.37-.69-.38-1.09h1.42c.02.28.16.51.4.7.24.19.55.28.92.28s.68-.07.89-.22c.21-.15.32-.34.32-.57,0-.25-.12-.43-.35-.55-.24-.12-.61-.25-1.12-.4-.5-.14-.9-.27-1.21-.4-.31-.13-.58-.32-.81-.59s-.34-.61-.34-1.04c0-.35.1-.67.31-.97s.51-.52.89-.69c.39-.17.83-.25,1.34-.25.75,0,1.36.19,1.82.57s.71.9.74,1.55h-1.37c-.02-.3-.14-.53-.36-.71-.22-.18-.51-.26-.88-.26s-.64.07-.83.2c-.19.14-.29.32-.29.54,0,.18.06.32.19.44.13.12.28.21.47.28.18.07.46.15.82.26.48.13.87.26,1.18.39.31.13.57.33.8.58.22.26.34.6.35,1.02,0,.38-.1.71-.31,1.01s-.5.53-.88.7c-.38.17-.83.25-1.34.25s-.99-.09-1.4-.28Z"/>
    <path class="cls-8" d="m358.34,129.52c.4.22.71.54.94.96.23.42.34.94.34,1.54v3.9h-1.36v-3.7c0-.59-.15-1.05-.44-1.36-.3-.32-.7-.47-1.21-.47s-.92.16-1.22.47c-.3.32-.45.77-.45,1.36v3.7h-1.37v-8.88h1.37v3.04c.23-.28.53-.5.88-.65.36-.15.75-.23,1.17-.23.5,0,.95.11,1.35.32Z"/>
    <path class="cls-8" d="m362.54,135.59c-.5-.28-.9-.68-1.19-1.2s-.43-1.11-.43-1.79.15-1.27.44-1.79.7-.92,1.21-1.2c.51-.28,1.08-.42,1.72-.42s1.2.14,1.72.42c.51.28.92.68,1.21,1.2s.44,1.12.44,1.79-.15,1.27-.46,1.79c-.3.52-.72.92-1.24,1.21-.52.28-1.1.43-1.73.43s-1.19-.14-1.69-.43Zm2.68-1.01c.31-.17.56-.42.75-.76s.29-.74.29-1.22-.09-.89-.28-1.22c-.18-.33-.43-.58-.73-.75-.3-.17-.63-.25-.98-.25s-.68.08-.98.25c-.3.17-.54.42-.71.75-.18.33-.26.74-.26,1.22,0,.71.18,1.26.55,1.65.36.39.82.58,1.37.58.35,0,.68-.08.99-.25Z"/>
  </g>
  <g>
    <path class="cls-8" d="m234.68,145.83v4.88h-.64v-4.88h.64Z"/>
    <path class="cls-8" d="m236.54,147.4v2.26c0,.19.04.32.12.4.08.08.22.12.41.12h.47v.54h-.57c-.35,0-.62-.08-.8-.25-.18-.16-.27-.43-.27-.8v-2.26h-.5v-.52h.5v-.97h.64v.97h1v.52h-1Z"/>
    <path class="cls-8" d="m238.41,145.83h.71l-.67,1.59h-.45l.41-1.59Z"/>
    <path class="cls-8" d="m240.41,150.63c-.23-.1-.42-.24-.55-.42-.14-.18-.21-.39-.22-.62h.66c.02.19.11.35.27.47.16.12.37.18.63.18.24,0,.43-.05.57-.16.14-.11.21-.24.21-.41s-.07-.29-.22-.37c-.15-.08-.38-.16-.69-.24-.28-.07-.52-.15-.7-.23-.18-.08-.33-.19-.46-.34-.13-.15-.19-.35-.19-.6,0-.2.06-.38.18-.54.12-.16.28-.29.5-.39.21-.1.46-.14.73-.14.42,0,.77.11,1.03.32.26.21.4.51.42.88h-.64c-.01-.2-.09-.36-.24-.48-.15-.12-.34-.18-.59-.18-.23,0-.41.05-.55.15-.14.1-.2.23-.2.38,0,.13.04.23.12.31.08.08.18.15.31.2.12.05.29.1.51.16.28.07.5.15.67.22.17.07.32.18.44.33s.19.33.19.57c0,.21-.06.4-.17.57s-.28.3-.49.4-.46.14-.73.14c-.29,0-.56-.05-.79-.15Z"/>
    <path class="cls-8" d="m247.82,147.03c.25.15.44.33.56.55v-.7h.64v3.92c0,.35-.07.66-.22.93-.15.27-.36.49-.64.64-.28.15-.6.23-.97.23-.5,0-.92-.12-1.26-.36-.34-.24-.53-.56-.6-.97h.63c.07.23.21.42.43.56.22.14.48.21.79.21.35,0,.64-.11.86-.33.22-.22.33-.53.33-.92v-.81c-.13.22-.31.41-.56.56-.25.15-.54.22-.87.22s-.65-.08-.93-.25c-.28-.17-.5-.4-.65-.71s-.24-.65-.24-1.04.08-.74.24-1.03.38-.53.65-.69c.28-.16.59-.25.93-.25s.62.07.87.22Zm.38,1c-.12-.21-.27-.38-.47-.49s-.42-.17-.65-.17-.46.06-.65.17c-.2.11-.35.28-.47.49s-.17.47-.17.76.06.55.17.77.27.38.47.5c.2.11.41.17.65.17s.46-.06.65-.17.36-.28.47-.5.17-.47.17-.76-.06-.54-.17-.76Z"/>
    <path class="cls-8" d="m251.22,146.99c.21-.12.46-.18.76-.18v.66h-.17c-.71,0-1.07.39-1.07,1.16v2.09h-.64v-3.84h.64v.62c.11-.22.27-.39.48-.51Z"/>
    <path class="cls-8" d="m256.19,149.03h-3.07c.02.38.15.67.39.89.24.21.52.32.86.32.27,0,.5-.06.69-.19.18-.13.31-.3.39-.51h.69c-.1.37-.31.67-.62.9-.31.23-.69.35-1.15.35-.36,0-.69-.08-.98-.25-.29-.16-.51-.4-.68-.7-.16-.3-.25-.65-.25-1.05s.08-.74.24-1.04c.16-.3.38-.53.67-.69.29-.16.62-.24.99-.24s.69.08.97.24c.28.16.5.38.65.65.15.28.23.59.23.94,0,.12,0,.25-.02.38Zm-.8-1.14c-.11-.17-.25-.31-.44-.4-.18-.09-.39-.14-.61-.14-.32,0-.6.1-.82.31-.23.21-.36.49-.39.85h2.42c0-.24-.05-.45-.16-.63Z"/>
    <path class="cls-8" d="m257.05,147.75c.16-.3.38-.53.65-.69.28-.16.59-.25.93-.25s.63.07.88.22c.25.15.43.33.55.55v-.7h.64v3.84h-.64v-.71c-.13.22-.31.41-.56.56s-.54.22-.87.22-.65-.08-.92-.25-.49-.4-.65-.71-.24-.65-.24-1.04.08-.74.24-1.03Zm2.83.28c-.12-.21-.27-.38-.47-.49s-.42-.17-.65-.17-.46.06-.65.17c-.2.11-.35.28-.47.49s-.17.47-.17.76.06.55.17.77.27.38.47.5c.2.11.41.17.65.17s.46-.06.65-.17.36-.28.47-.5.17-.47.17-.76-.06-.54-.17-.76Z"/>
    <path class="cls-8" d="m262.56,147.4v2.26c0,.19.04.32.12.4.08.08.22.12.41.12h.47v.54h-.57c-.35,0-.62-.08-.8-.25-.18-.16-.27-.43-.27-.8v-2.26h-.5v-.52h.5v-.97h.64v.97h1v.52h-1Z"/>
    <path class="cls-8" d="m266.98,147.4v2.26c0,.19.04.32.12.4.08.08.22.12.41.12h.47v.54h-.57c-.35,0-.62-.08-.8-.25-.18-.16-.27-.43-.27-.8v-2.26h-.5v-.52h.5v-.97h.64v.97h1v.52h-1Z"/>
    <path class="cls-8" d="m269.44,150.53c-.29-.16-.52-.4-.69-.7-.17-.3-.25-.65-.25-1.05s.09-.74.26-1.04c.17-.3.4-.53.7-.69.29-.16.62-.24.99-.24s.69.08.99.24c.29.16.53.39.7.69.17.3.26.65.26,1.04s-.09.75-.26,1.05c-.17.3-.41.53-.71.7-.3.16-.63.25-.99.25s-.69-.08-.98-.25Zm1.62-.48c.2-.11.36-.27.49-.48.12-.21.19-.48.19-.78s-.06-.57-.18-.78c-.12-.21-.28-.37-.48-.48-.2-.1-.41-.16-.64-.16s-.45.05-.64.16c-.19.1-.35.26-.47.48s-.17.48-.17.78.06.58.17.79c.11.21.27.37.46.48s.4.16.63.16.44-.05.64-.16Z"/>
    <path class="cls-8" d="m277.78,146.99c.23.12.42.31.55.56.13.25.2.55.2.9v2.26h-.63v-2.17c0-.38-.1-.68-.29-.88-.19-.2-.45-.3-.78-.3s-.6.1-.8.31c-.2.21-.3.52-.3.92v2.12h-.64v-5.18h.64v1.89c.13-.2.3-.35.52-.46s.47-.16.75-.16c.29,0,.55.06.78.19Z"/>
    <path class="cls-8" d="m279.58,147.75c.16-.3.38-.53.65-.69.28-.16.59-.25.93-.25s.63.07.88.22c.25.15.43.33.55.55v-.7h.64v3.84h-.64v-.71c-.13.22-.31.41-.56.56-.25.15-.54.22-.87.22s-.65-.08-.92-.25-.49-.4-.65-.71c-.16-.3-.24-.65-.24-1.04s.08-.74.24-1.03Zm2.83.28c-.12-.21-.27-.38-.47-.49s-.42-.17-.65-.17-.46.06-.65.17c-.2.11-.35.28-.47.49-.12.21-.17.47-.17.76s.06.55.17.77c.12.22.27.38.47.5.2.11.41.17.65.17s.46-.06.65-.17.36-.28.47-.5c.12-.22.17-.47.17-.76s-.06-.54-.17-.76Z"/>
    <path class="cls-8" d="m285.74,150.13l1.19-3.25h.68l-1.5,3.84h-.74l-1.5-3.84h.69l1.2,3.25Z"/>
    <path class="cls-8" d="m291.71,149.03h-3.07c.02.38.15.67.39.89.24.21.52.32.86.32.27,0,.5-.06.69-.19.18-.13.31-.3.39-.51h.69c-.1.37-.31.67-.62.9s-.69.35-1.15.35c-.36,0-.69-.08-.98-.25-.29-.16-.51-.4-.68-.7-.16-.3-.25-.65-.25-1.05s.08-.74.24-1.04c.16-.3.38-.53.67-.69.29-.16.62-.24.99-.24s.69.08.97.24c.28.16.5.38.65.65.15.28.23.59.23.94,0,.12,0,.25-.02.38Zm-.8-1.14c-.11-.17-.25-.31-.44-.4-.18-.09-.39-.14-.61-.14-.32,0-.6.1-.82.31-.23.21-.36.49-.39.85h2.42c0-.24-.05-.45-.16-.63Z"/>
    <path class="cls-8" d="m297.75,146.88l-2.31,5.64h-.66l.76-1.85-1.55-3.79h.71l1.2,3.11,1.19-3.11h.66Z"/>
    <path class="cls-8" d="m299.08,150.53c-.29-.16-.52-.4-.69-.7-.17-.3-.25-.65-.25-1.05s.09-.74.26-1.04c.17-.3.4-.53.7-.69.29-.16.62-.24.99-.24s.69.08.99.24c.29.16.53.39.7.69.17.3.26.65.26,1.04s-.09.75-.26,1.05c-.17.3-.41.53-.71.7-.3.16-.63.25-.99.25s-.68-.08-.98-.25Zm1.62-.48c.2-.11.36-.27.49-.48.12-.21.19-.48.19-.78s-.06-.57-.18-.78c-.12-.21-.28-.37-.48-.48s-.41-.16-.64-.16-.45.05-.64.16-.35.26-.47.48c-.12.21-.17.48-.17.78s.06.58.17.79c.11.21.27.37.46.48s.4.16.63.16.44-.05.64-.16Z"/>
    <path class="cls-8" d="m306.27,146.88v3.84h-.64v-.57c-.12.2-.29.35-.51.46-.22.11-.46.16-.72.16-.3,0-.57-.06-.81-.19-.24-.12-.43-.31-.56-.56-.14-.25-.21-.55-.21-.9v-2.25h.63v2.16c0,.38.1.67.29.87.19.2.45.3.78.3s.61-.1.8-.31.29-.52.29-.92v-2.11h.64Z"/>
    <path class="cls-8" d="m311.9,146.99c.23.12.42.31.55.56.13.25.2.55.2.9v2.26h-.63v-2.17c0-.38-.1-.68-.29-.88-.19-.2-.45-.3-.78-.3s-.6.1-.8.31-.3.52-.3.92v2.12h-.64v-5.18h.64v1.89c.13-.2.3-.35.52-.46s.47-.16.75-.16c.29,0,.55.06.78.19Z"/>
    <path class="cls-8" d="m317.17,149.03h-3.07c.02.38.15.67.39.89.24.21.52.32.86.32.27,0,.5-.06.69-.19.18-.13.31-.3.39-.51h.69c-.1.37-.31.67-.62.9s-.69.35-1.15.35c-.36,0-.69-.08-.98-.25-.29-.16-.51-.4-.68-.7-.16-.3-.25-.65-.25-1.05s.08-.74.24-1.04c.16-.3.38-.53.67-.69.29-.16.62-.24.99-.24s.69.08.97.24c.28.16.5.38.65.65.15.28.23.59.23.94,0,.12,0,.25-.02.38Zm-.8-1.14c-.11-.17-.25-.31-.44-.4-.18-.09-.39-.14-.61-.14-.32,0-.6.1-.82.31-.23.21-.36.49-.39.85h2.42c0-.24-.05-.45-.16-.63Z"/>
    <path class="cls-8" d="m319.15,146.99c.21-.12.46-.18.76-.18v.66h-.17c-.71,0-1.07.39-1.07,1.16v2.09h-.64v-3.84h.64v.62c.11-.22.27-.39.48-.51Z"/>
    <path class="cls-8" d="m324.12,149.03h-3.07c.02.38.15.67.39.89s.52.32.86.32c.28,0,.5-.06.69-.19s.31-.3.39-.51h.69c-.1.37-.31.67-.62.9-.31.23-.69.35-1.15.35-.36,0-.69-.08-.98-.25-.29-.16-.51-.4-.68-.7-.16-.3-.25-.65-.25-1.05s.08-.74.24-1.04c.16-.3.38-.53.67-.69.29-.16.62-.24.99-.24s.69.08.97.24.5.38.65.65c.15.28.23.59.23.94,0,.12,0,.25-.02.38Zm-.8-1.14c-.11-.17-.25-.31-.44-.4-.18-.09-.39-.14-.61-.14-.32,0-.6.1-.82.31-.23.21-.36.49-.39.85h2.42c0-.24-.05-.45-.16-.63Z"/>
    <path class="cls-8" d="m325.19,150.63c-.08-.08-.13-.19-.13-.31s.04-.22.13-.31.19-.13.31-.13.22.04.3.13.12.19.12.31-.04.22-.12.31-.18.13-.3.13-.22-.04-.31-.13Zm.62-4.79l-.08,3.5h-.53l-.08-3.5h.69Z"/>
    <path class="cls-8" d="m332.7,145.83v4.88h-.64v-2.21h-2.49v2.21h-.64v-4.88h.64v2.14h2.49v-2.14h.64Z"/>
    <path class="cls-8" d="m334.48,150.53c-.29-.16-.52-.4-.69-.7-.17-.3-.25-.65-.25-1.05s.09-.74.26-1.04c.17-.3.4-.53.7-.69.29-.16.62-.24.99-.24s.69.08.99.24c.29.16.53.39.7.69.17.3.26.65.26,1.04s-.09.75-.26,1.05c-.17.3-.41.53-.71.7-.3.16-.63.25-.99.25s-.68-.08-.98-.25Zm1.62-.48c.2-.11.36-.27.49-.48.12-.21.19-.48.19-.78s-.06-.57-.18-.78c-.12-.21-.28-.37-.48-.48s-.41-.16-.64-.16-.45.05-.64.16-.35.26-.47.48c-.12.21-.17.48-.17.78s.06.58.17.79c.11.21.27.37.46.48s.4.16.63.16.44-.05.64-.16Z"/>
    <path class="cls-8" d="m339.46,147.03c.25-.15.54-.22.87-.22s.65.08.93.25c.28.16.5.39.65.69.16.3.24.64.24,1.03s-.08.73-.24,1.04c-.16.3-.38.54-.65.71s-.59.25-.93.25-.61-.07-.86-.22-.44-.33-.57-.55v2.53h-.64v-5.66h.64v.71c.13-.22.31-.4.56-.55Zm1.87.99c-.12-.21-.27-.38-.47-.49-.2-.11-.42-.17-.65-.17s-.45.06-.65.17-.36.28-.48.5c-.12.22-.18.47-.18.75s.06.54.18.76.28.38.48.5.41.17.65.17.46-.06.65-.17.36-.28.47-.5c.12-.22.17-.47.17-.77s-.06-.54-.17-.76Z"/>
    <path class="cls-8" d="m346.47,149.03h-3.07c.02.38.15.67.39.89s.52.32.86.32c.28,0,.5-.06.69-.19s.31-.3.39-.51h.69c-.1.37-.31.67-.62.9-.31.23-.69.35-1.15.35-.36,0-.69-.08-.98-.25-.29-.16-.51-.4-.68-.7-.16-.3-.25-.65-.25-1.05s.08-.74.24-1.04c.16-.3.38-.53.67-.69.29-.16.62-.24.99-.24s.69.08.97.24.5.38.65.65c.15.28.23.59.23.94,0,.12,0,.25-.02.38Zm-.8-1.14c-.11-.17-.25-.31-.44-.4-.18-.09-.39-.14-.61-.14-.32,0-.6.1-.82.31-.23.21-.36.49-.39.85h2.42c0-.24-.05-.45-.16-.63Z"/>
    <path class="cls-8" d="m348.9,147.4h-.81v3.31h-.64v-3.31h-.5v-.52h.5v-.27c0-.43.11-.74.33-.94.22-.2.58-.3,1.07-.3v.53c-.28,0-.48.05-.59.16-.11.11-.17.29-.17.54v.27h.81v.52Z"/>
    <path class="cls-8" d="m353.04,146.88v3.84h-.64v-.57c-.12.2-.29.35-.51.46-.22.11-.46.16-.72.16-.3,0-.57-.06-.8-.19s-.43-.31-.56-.56c-.14-.25-.21-.55-.21-.9v-2.25h.63v2.16c0,.38.1.67.29.87.19.2.45.3.78.3s.61-.1.8-.31c.2-.21.29-.52.29-.92v-2.11h.64Z"/>
    <path class="cls-8" d="m354.75,145.53v5.18h-.64v-5.18h.64Z"/>
    <path class="cls-8" d="m356.48,145.53v5.18h-.64v-5.18h.64Z"/>
    <path class="cls-8" d="m360.86,146.88l-2.31,5.64h-.66l.76-1.85-1.55-3.79h.71l1.2,3.11,1.19-3.11h.66Z"/>
    <path class="cls-8" d="m364.15,147.4v2.26c0,.19.04.32.12.4.08.08.22.12.41.12h.47v.54h-.57c-.35,0-.62-.08-.8-.25-.18-.16-.27-.43-.27-.8v-2.26h-.5v-.52h.5v-.97h.64v.97h1v.52h-1Z"/>
    <path class="cls-8" d="m368.61,146.99c.23.12.42.31.55.56.13.25.2.55.2.9v2.26h-.63v-2.17c0-.38-.1-.68-.29-.88-.19-.2-.45-.3-.78-.3s-.6.1-.8.31-.3.52-.3.92v2.12h-.64v-5.18h.64v1.89c.13-.2.3-.35.52-.46s.47-.16.75-.16c.29,0,.55.06.78.19Z"/>
    <path class="cls-8" d="m373.88,149.03h-3.07c.02.38.15.67.39.89.24.21.52.32.86.32.27,0,.5-.06.69-.19.18-.13.31-.3.39-.51h.69c-.1.37-.31.67-.62.9s-.69.35-1.15.35c-.36,0-.69-.08-.98-.25-.29-.16-.51-.4-.68-.7-.16-.3-.25-.65-.25-1.05s.08-.74.24-1.04c.16-.3.38-.53.67-.69.29-.16.62-.24.99-.24s.69.08.97.24c.28.16.5.38.65.65.15.28.23.59.23.94,0,.12,0,.25-.02.38Zm-.8-1.14c-.11-.17-.25-.31-.44-.4-.18-.09-.39-.14-.61-.14-.32,0-.6.1-.82.31-.23.21-.36.49-.39.85h2.42c0-.24-.05-.45-.16-.63Z"/>
    <path class="cls-8" d="m377.27,151.55c0,.34-.09.59-.26.75s-.42.24-.76.24h-.37v-.54h.27c.18,0,.3-.03.37-.1.07-.07.11-.19.11-.36v-4.65h.64v4.67Zm-.62-5.42c-.08-.08-.12-.19-.12-.31s.04-.22.12-.31.18-.13.3-.13.22.04.3.13c.08.08.12.19.12.31s-.04.22-.12.31c-.08.08-.18.13-.3.13s-.22-.04-.3-.13Z"/>
    <path class="cls-8" d="m379.04,150.53c-.29-.16-.52-.4-.69-.7-.17-.3-.25-.65-.25-1.05s.09-.74.26-1.04c.17-.3.4-.53.7-.69.29-.16.62-.24.99-.24s.69.08.99.24c.29.16.53.39.7.69.17.3.26.65.26,1.04s-.09.75-.26,1.05c-.17.3-.41.53-.71.7-.3.16-.63.25-.99.25s-.68-.08-.98-.25Zm1.62-.48c.2-.11.36-.27.49-.48.12-.21.19-.48.19-.78s-.06-.57-.18-.78c-.12-.21-.28-.37-.48-.48s-.41-.16-.64-.16-.45.05-.64.16-.35.26-.47.48c-.12.21-.17.48-.17.78s.06.58.17.79c.11.21.27.37.46.48s.4.16.63.16.44-.05.64-.16Z"/>
    <path class="cls-8" d="m386.23,146.88v3.84h-.64v-.57c-.12.2-.29.35-.51.46-.22.11-.46.16-.72.16-.3,0-.57-.06-.81-.19-.24-.12-.43-.31-.56-.56-.14-.25-.21-.55-.21-.9v-2.25h.63v2.16c0,.38.1.67.29.87.19.2.45.3.78.3s.61-.1.8-.31.29-.52.29-.92v-2.11h.64Z"/>
    <path class="cls-8" d="m388.42,146.99c.21-.12.46-.18.76-.18v.66h-.17c-.71,0-1.07.39-1.07,1.16v2.09h-.64v-3.84h.64v.62c.11-.22.27-.39.48-.51Z"/>
    <path class="cls-8" d="m392.92,147.23c.29.28.43.69.43,1.22v2.26h-.63v-2.17c0-.38-.1-.68-.29-.88-.19-.2-.45-.3-.78-.3s-.6.1-.8.31c-.2.21-.3.52-.3.92v2.12h-.64v-3.84h.64v.55c.13-.2.3-.35.51-.46s.46-.16.72-.16c.47,0,.84.14,1.13.42Z"/>
    <path class="cls-8" d="m397.87,149.03h-3.07c.02.38.15.67.39.89s.52.32.86.32c.28,0,.5-.06.69-.19s.31-.3.39-.51h.69c-.1.37-.31.67-.62.9-.31.23-.69.35-1.15.35-.36,0-.69-.08-.98-.25-.29-.16-.51-.4-.68-.7-.16-.3-.25-.65-.25-1.05s.08-.74.24-1.04c.16-.3.38-.53.67-.69.29-.16.62-.24.99-.24s.69.08.97.24.5.38.65.65c.15.28.23.59.23.94,0,.12,0,.25-.02.38Zm-.8-1.14c-.11-.17-.25-.31-.44-.4-.18-.09-.39-.14-.61-.14-.32,0-.6.1-.82.31-.23.21-.36.49-.39.85h2.42c0-.24-.05-.45-.16-.63Z"/>
    <path class="cls-8" d="m402.04,146.88l-2.31,5.64h-.66l.76-1.85-1.55-3.79h.71l1.2,3.11,1.19-3.11h.66Z"/>
    <path class="cls-8" d="m409.65,146.88l-1.2,3.84h-.66l-.92-3.04-.92,3.04h-.66l-1.2-3.84h.65l.88,3.22.95-3.22h.65l.93,3.23.87-3.23h.63Z"/>
    <path class="cls-8" d="m410.28,147.75c.16-.3.38-.53.65-.69.28-.16.59-.25.93-.25s.63.07.88.22c.25.15.43.33.55.55v-.7h.64v3.84h-.64v-.71c-.13.22-.31.41-.56.56-.25.15-.54.22-.87.22s-.65-.08-.92-.25-.49-.4-.65-.71c-.16-.3-.24-.65-.24-1.04s.08-.74.24-1.03Zm2.83.28c-.12-.21-.27-.38-.47-.49s-.42-.17-.65-.17-.46.06-.65.17c-.2.11-.35.28-.47.49-.12.21-.17.47-.17.76s.06.55.17.77c.12.22.27.38.47.5.2.11.41.17.65.17s.46-.06.65-.17.36-.28.47-.5c.12-.22.17-.47.17-.76s-.06-.54-.17-.76Z"/>
    <path class="cls-8" d="m415.58,150.63c-.23-.1-.42-.24-.55-.42s-.21-.39-.22-.62h.66c.02.19.11.35.27.47.16.12.37.18.63.18.24,0,.43-.05.57-.16.14-.11.21-.24.21-.41s-.08-.29-.22-.37c-.15-.08-.38-.16-.69-.24-.29-.07-.52-.15-.7-.23-.18-.08-.33-.19-.46-.34-.13-.15-.19-.35-.19-.6,0-.2.06-.38.18-.54.12-.16.28-.29.5-.39.21-.1.46-.14.73-.14.42,0,.77.11,1.03.32.26.21.4.51.42.88h-.64c-.01-.2-.09-.36-.24-.48-.15-.12-.34-.18-.59-.18-.23,0-.41.05-.55.15-.14.1-.2.23-.2.38,0,.13.04.23.12.31.08.08.18.15.31.2.12.05.29.1.51.16.28.07.5.15.67.22.17.07.32.18.44.33.12.14.19.33.19.57,0,.21-.06.4-.17.57-.12.17-.28.3-.49.4-.21.1-.46.14-.73.14-.29,0-.56-.05-.79-.15Z"/>
    <path class="cls-8" d="m421.67,147.23c.29.28.43.69.43,1.22v2.26h-.63v-2.17c0-.38-.1-.68-.29-.88-.19-.2-.45-.3-.78-.3s-.6.1-.8.31-.3.52-.3.92v2.12h-.64v-3.84h.64v.55c.13-.2.3-.35.51-.46.22-.11.46-.16.72-.16.47,0,.84.14,1.13.42Z"/>
    <path class="cls-8" d="m423.25,145.83h.71l-.67,1.59h-.45l.41-1.59Z"/>
    <path class="cls-8" d="m425.46,147.4v2.26c0,.19.04.32.12.4.08.08.22.12.41.12h.47v.54h-.57c-.35,0-.62-.08-.8-.25-.18-.16-.27-.43-.27-.8v-2.26h-.5v-.52h.5v-.97h.64v.97h1v.52h-1Z"/>
    <path class="cls-8" d="m234.82,155.8v2.26c0,.19.04.32.12.4.08.08.22.12.41.12h.47v.54h-.57c-.35,0-.62-.08-.8-.25-.18-.16-.27-.43-.27-.8v-2.26h-.5v-.52h.5v-.97h.64v.97h1v.52h-1Z"/>
    <path class="cls-8" d="m237.29,158.93c-.29-.16-.52-.4-.69-.7-.17-.3-.25-.65-.25-1.05s.09-.74.26-1.04c.17-.3.4-.53.7-.69.29-.16.62-.24.99-.24s.69.08.99.24c.29.16.53.39.7.69.17.3.26.65.26,1.04s-.09.75-.26,1.05c-.17.3-.41.53-.71.7-.3.16-.63.25-.99.25s-.69-.08-.98-.25Zm1.62-.48c.2-.11.36-.27.49-.48.12-.21.19-.48.19-.78s-.06-.57-.18-.78c-.12-.21-.28-.37-.48-.48-.2-.1-.41-.16-.64-.16s-.45.05-.64.16c-.19.1-.35.26-.47.48s-.17.48-.17.78.06.58.17.79c.11.21.27.37.46.48s.4.16.63.16.44-.05.64-.16Z"/>
    <path class="cls-8" d="m241.77,158.93c-.29-.16-.52-.4-.69-.7-.17-.3-.25-.65-.25-1.05s.09-.74.26-1.04c.17-.3.4-.53.7-.69.29-.16.62-.24.99-.24s.69.08.99.24c.29.16.53.39.7.69.17.3.26.65.26,1.04s-.09.75-.26,1.05c-.17.3-.41.53-.71.7-.3.16-.63.25-.99.25s-.69-.08-.98-.25Zm1.62-.48c.2-.11.36-.27.49-.48.12-.21.19-.48.19-.78s-.06-.57-.18-.78c-.12-.21-.28-.37-.48-.48-.2-.1-.41-.16-.64-.16s-.45.05-.64.16c-.19.1-.35.26-.47.48s-.17.48-.17.78.06.58.17.79c.11.21.27.37.46.48s.4.16.63.16.44-.05.64-.16Z"/>
    <path class="cls-8" d="m248.06,153.93v5.18h-.64v-5.18h.64Z"/>
    <path class="cls-8" d="m249.84,158.93c-.29-.16-.52-.4-.69-.7-.17-.3-.25-.65-.25-1.05s.09-.74.26-1.04c.17-.3.4-.53.7-.69.29-.16.62-.24.99-.24s.69.08.99.24c.29.16.53.39.7.69.17.3.26.65.26,1.04s-.09.75-.26,1.05c-.17.3-.41.53-.71.7-.3.16-.63.25-.99.25s-.69-.08-.98-.25Zm1.62-.48c.2-.11.36-.27.49-.48.12-.21.19-.48.19-.78s-.06-.57-.18-.78c-.12-.21-.28-.37-.48-.48-.2-.1-.41-.16-.64-.16s-.45.05-.64.16c-.19.1-.35.26-.47.48s-.17.48-.17.78.06.58.17.79c.11.21.27.37.46.48s.4.16.63.16.44-.05.64-.16Z"/>
    <path class="cls-8" d="m256.62,155.63c.29.28.43.69.43,1.22v2.26h-.63v-2.17c0-.38-.1-.68-.29-.88-.19-.2-.45-.3-.78-.3s-.6.1-.8.31c-.2.21-.3.52-.3.92v2.12h-.64v-3.84h.64v.55c.13-.2.3-.35.51-.46.22-.11.46-.16.72-.16.47,0,.84.14,1.13.42Z"/>
    <path class="cls-8" d="m260.55,155.43c.25.15.44.33.56.55v-.7h.64v3.92c0,.35-.07.66-.22.93-.15.27-.36.49-.64.64-.28.15-.6.23-.97.23-.5,0-.92-.12-1.26-.36-.34-.24-.53-.56-.6-.97h.63c.07.23.21.42.43.56.22.14.48.21.79.21.35,0,.64-.11.86-.33.22-.22.33-.53.33-.92v-.81c-.13.22-.31.41-.56.56-.25.15-.54.22-.87.22s-.65-.08-.93-.25c-.28-.17-.5-.4-.65-.71s-.24-.65-.24-1.04.08-.74.24-1.03.38-.53.65-.69c.28-.16.59-.25.93-.25s.62.07.87.22Zm.38,1c-.12-.21-.27-.38-.47-.49s-.42-.17-.65-.17-.46.06-.65.17c-.2.11-.35.28-.47.49s-.17.47-.17.76.06.55.17.77.27.38.47.5c.2.11.41.17.65.17s.46-.06.65-.17.36-.28.47-.5.17-.47.17-.76-.06-.54-.17-.76Z"/>
    <path class="cls-8" d="m265.2,154.56c.28.26.43.61.43,1.05,0,.49-.15.85-.46,1.09-.3.24-.71.35-1.23.35l-.02.67h-.55l-.03-1.11h.2c.46,0,.82-.07,1.08-.21s.39-.4.39-.79c0-.28-.08-.5-.25-.67-.17-.16-.39-.25-.68-.25s-.52.08-.68.23c-.17.16-.25.37-.25.64h-.6c0-.28.06-.53.19-.74.13-.21.3-.38.54-.49s.5-.17.8-.17c.46,0,.83.13,1.12.39Zm-1.87,4.47c-.08-.08-.13-.19-.13-.31s.04-.22.13-.31.19-.13.31-.13.22.04.3.13c.08.08.12.19.12.31s-.04.22-.12.31c-.08.08-.18.13-.3.13s-.22-.04-.31-.13Z"/>
    <path class="cls-8" d="m269.01,158.59h1.71v.52h-2.34v-4.88h.64v4.36Z"/>
    <path class="cls-8" d="m274.87,157.43h-3.07c.02.38.15.67.39.89.24.21.52.32.86.32.27,0,.5-.06.69-.19.18-.13.31-.3.39-.51h.69c-.1.37-.31.67-.62.9-.31.23-.69.35-1.15.35-.36,0-.69-.08-.98-.25-.29-.16-.51-.4-.68-.7-.16-.3-.25-.65-.25-1.05s.08-.74.24-1.04c.16-.3.38-.53.67-.69.29-.16.62-.24.99-.24s.69.08.97.24c.28.16.5.38.65.65.15.28.23.59.23.94,0,.12,0,.25-.02.38Zm-.8-1.14c-.11-.17-.25-.31-.44-.4-.18-.09-.39-.14-.61-.14-.32,0-.6.1-.82.31-.23.21-.36.49-.39.85h2.42c0-.24-.05-.45-.16-.63Z"/>
    <path class="cls-8" d="m276.51,155.8v2.26c0,.19.04.32.12.4.08.08.22.12.41.12h.47v.54h-.57c-.36,0-.62-.08-.8-.25-.18-.16-.27-.43-.27-.8v-2.26h-.5v-.52h.5v-.97h.64v.97h1v.52h-1Z"/>
    <path class="cls-8" d="m285.56,155.39c.23.12.42.31.55.56.13.25.2.55.2.9v2.26h-.63v-2.17c0-.38-.09-.68-.28-.88-.19-.2-.44-.3-.77-.3s-.59.11-.79.32c-.2.21-.29.52-.29.92v2.11h-.63v-2.17c0-.38-.09-.68-.28-.88-.19-.2-.44-.3-.77-.3s-.59.11-.79.32c-.2.21-.29.52-.29.92v2.11h-.64v-3.84h.64v.55c.13-.2.29-.35.51-.46.21-.11.45-.16.7-.16.32,0,.61.07.85.22.25.14.43.36.55.64.11-.27.28-.48.53-.63.25-.15.52-.22.83-.22s.57.06.8.19Z"/>
    <path class="cls-8" d="m290.84,157.43h-3.07c.02.38.15.67.39.89.24.21.52.32.86.32.27,0,.5-.06.69-.19.18-.13.31-.3.39-.51h.69c-.1.37-.31.67-.62.9s-.69.35-1.15.35c-.36,0-.69-.08-.98-.25-.29-.16-.51-.4-.68-.7-.16-.3-.25-.65-.25-1.05s.08-.74.24-1.04c.16-.3.38-.53.67-.69.29-.16.62-.24.99-.24s.69.08.97.24c.28.16.5.38.65.65.15.28.23.59.23.94,0,.12,0,.25-.02.38Zm-.8-1.14c-.11-.17-.25-.31-.44-.4-.18-.09-.39-.14-.61-.14-.32,0-.6.1-.82.31-.23.21-.36.49-.39.85h2.42c0-.24-.05-.45-.16-.63Z"/>
    <path class="cls-8" d="m296.02,155.43c.25.15.44.33.56.55v-.7h.64v3.92c0,.35-.07.66-.22.93s-.36.49-.64.64c-.28.15-.6.23-.97.23-.5,0-.92-.12-1.26-.36-.34-.24-.53-.56-.59-.97h.63c.07.23.21.42.43.56.22.14.48.21.79.21.35,0,.64-.11.86-.33.22-.22.33-.53.33-.92v-.81c-.13.22-.31.41-.56.56-.25.15-.54.22-.87.22s-.65-.08-.93-.25-.5-.4-.65-.71c-.16-.3-.24-.65-.24-1.04s.08-.74.24-1.03c.16-.3.38-.53.65-.69.28-.16.59-.25.93-.25s.62.07.87.22Zm.38,1c-.12-.21-.27-.38-.47-.49s-.42-.17-.65-.17-.46.06-.65.17c-.2.11-.35.28-.47.49-.12.21-.17.47-.17.76s.06.55.17.77c.12.22.27.38.47.5s.41.17.65.17.46-.06.65-.17.36-.28.47-.5c.12-.22.17-.47.17-.76s-.06-.54-.17-.76Z"/>
    <path class="cls-8" d="m299.42,155.39c.21-.12.46-.18.76-.18v.66h-.17c-.71,0-1.07.39-1.07,1.16v2.09h-.64v-3.84h.64v.62c.11-.22.27-.39.48-.51Z"/>
    <path class="cls-8" d="m300.91,156.15c.16-.3.38-.53.65-.69.28-.16.59-.25.93-.25s.63.07.88.22c.25.15.43.33.55.55v-.7h.64v3.84h-.64v-.71c-.13.22-.31.41-.56.56-.25.15-.54.22-.87.22s-.65-.08-.92-.25-.49-.4-.65-.71c-.16-.3-.24-.65-.24-1.04s.08-.74.24-1.03Zm2.83.28c-.12-.21-.27-.38-.47-.49s-.42-.17-.65-.17-.46.06-.65.17c-.2.11-.35.28-.47.49-.12.21-.17.47-.17.76s.06.55.17.77c.12.22.27.38.47.5s.41.17.65.17.46-.06.65-.17.36-.28.47-.5c.12-.22.17-.47.17-.76s-.06-.54-.17-.76Z"/>
    <path class="cls-8" d="m306.85,155.43c.25-.14.54-.22.86-.22.34,0,.66.08.93.25.28.16.49.39.65.69.16.3.24.64.24,1.03s-.08.73-.24,1.04c-.16.3-.38.54-.65.71-.28.17-.59.25-.93.25s-.62-.07-.87-.22c-.25-.15-.44-.33-.56-.55v.71h-.64v-5.18h.64v2.06c.13-.23.32-.42.57-.56Zm1.86.99c-.12-.21-.27-.38-.47-.49-.2-.11-.42-.17-.65-.17s-.45.06-.65.17-.36.28-.48.5c-.12.22-.18.47-.18.75s.06.54.18.76.28.38.48.5.41.17.65.17.46-.06.65-.17.36-.28.47-.5c.12-.22.17-.47.17-.77s-.06-.54-.17-.76Z"/>
    <path class="cls-8" d="m313.02,155.8v2.26c0,.19.04.32.12.4.08.08.22.12.41.12h.47v.54h-.57c-.36,0-.62-.08-.8-.25-.18-.16-.27-.43-.27-.8v-2.26h-.5v-.52h.5v-.97h.64v.97h1v.52h-1Z"/>
    <path class="cls-8" d="m317.48,155.39c.23.12.42.31.55.56.13.25.2.55.2.9v2.26h-.63v-2.17c0-.38-.1-.68-.29-.88-.19-.2-.45-.3-.78-.3s-.6.1-.8.31c-.2.21-.3.52-.3.92v2.12h-.64v-5.18h.64v1.89c.13-.2.3-.35.52-.46s.47-.16.75-.16c.29,0,.55.06.78.19Z"/>
    <path class="cls-8" d="m319.27,156.15c.16-.3.38-.53.65-.69.28-.16.59-.25.93-.25s.63.07.88.22c.25.15.43.33.55.55v-.7h.64v3.84h-.64v-.71c-.13.22-.31.41-.56.56-.25.15-.54.22-.87.22s-.65-.08-.92-.25-.49-.4-.65-.71c-.16-.3-.24-.65-.24-1.04s.08-.74.24-1.03Zm2.83.28c-.12-.21-.27-.38-.47-.49s-.42-.17-.65-.17-.46.06-.65.17c-.2.11-.35.28-.47.49-.12.21-.17.47-.17.76s.06.55.17.77c.12.22.27.38.47.5.2.11.41.17.65.17s.46-.06.65-.17.36-.28.47-.5c.12-.22.17-.47.17-.76s-.06-.54-.17-.76Z"/>
    <path class="cls-8" d="m324.78,155.8v2.26c0,.19.04.32.12.4.08.08.22.12.41.12h.47v.54h-.57c-.36,0-.62-.08-.8-.25-.18-.16-.27-.43-.27-.8v-2.26h-.5v-.52h.5v-.97h.64v.97h1v.52h-1Z"/>
    <path class="cls-8" d="m328.42,156.15c.16-.3.38-.53.66-.69.28-.16.61-.25.97-.25.47,0,.86.11,1.17.34.31.23.51.55.61.95h-.69c-.07-.23-.19-.42-.38-.55-.19-.14-.42-.2-.7-.2-.36,0-.66.12-.88.37-.22.25-.34.6-.34,1.06s.11.82.34,1.07c.22.25.52.38.88.38.28,0,.51-.07.7-.2.19-.13.31-.32.38-.56h.69c-.1.39-.31.71-.62.94-.31.24-.69.35-1.16.35-.36,0-.69-.08-.97-.25-.28-.16-.5-.39-.66-.69-.16-.3-.24-.65-.24-1.05s.08-.74.24-1.04Z"/>
    <path class="cls-8" d="m333.37,158.93c-.29-.16-.52-.4-.69-.7-.17-.3-.25-.65-.25-1.05s.08-.74.26-1.04c.17-.3.4-.53.7-.69.29-.16.62-.24.99-.24s.69.08.99.24c.29.16.53.39.7.69.17.3.26.65.26,1.04s-.09.75-.26,1.05c-.17.3-.41.53-.71.7-.3.16-.63.25-.99.25s-.69-.08-.98-.25Zm1.62-.48c.2-.11.36-.27.49-.48.12-.21.19-.48.19-.78s-.06-.57-.18-.78-.28-.37-.48-.48c-.2-.1-.41-.16-.64-.16s-.45.05-.64.16c-.19.1-.35.26-.46.48-.12.21-.17.48-.17.78s.06.58.17.79c.11.21.27.37.46.48s.4.16.63.16.44-.05.64-.16Z"/>
    <path class="cls-8" d="m337.15,156.15c.16-.3.38-.53.65-.69.28-.16.59-.25.93-.25s.63.07.88.22c.25.15.43.33.55.55v-.7h.64v3.84h-.64v-.71c-.13.22-.31.41-.56.56-.25.15-.54.22-.87.22s-.65-.08-.92-.25-.49-.4-.65-.71c-.16-.3-.24-.65-.24-1.04s.08-.74.24-1.03Zm2.83.28c-.12-.21-.27-.38-.47-.49s-.42-.17-.65-.17-.46.06-.65.17c-.2.11-.35.28-.47.49-.12.21-.17.47-.17.76s.06.55.17.77c.12.22.27.38.47.5.2.11.41.17.65.17s.46-.06.65-.17.36-.28.47-.5c.12-.22.17-.47.17-.76s-.06-.54-.17-.76Z"/>
    <path class="cls-8" d="m342.66,155.8v2.26c0,.19.04.32.12.4.08.08.22.12.41.12h.47v.54h-.57c-.36,0-.62-.08-.8-.25-.18-.16-.27-.43-.27-.8v-2.26h-.5v-.52h.5v-.97h.64v.97h1v.52h-1Z"/>
    <path class="cls-8" d="m347.86,155.8h-.8v3.31h-.64v-3.31h-.5v-.52h.5v-.27c0-.43.11-.74.33-.94.22-.2.58-.3,1.07-.3v.53c-.28,0-.48.05-.59.16-.11.11-.17.29-.17.54v.27h.8v.52Z"/>
    <path class="cls-8" d="m349.3,158.93c-.29-.16-.52-.4-.69-.7-.17-.3-.25-.65-.25-1.05s.08-.74.26-1.04c.17-.3.4-.53.7-.69.29-.16.62-.24.99-.24s.69.08.99.24c.29.16.53.39.7.69.17.3.26.65.26,1.04s-.09.75-.26,1.05c-.17.3-.41.53-.71.7-.3.16-.63.25-.99.25s-.69-.08-.98-.25Zm1.62-.48c.2-.11.36-.27.49-.48.12-.21.19-.48.19-.78s-.06-.57-.18-.78-.28-.37-.48-.48c-.2-.1-.41-.16-.64-.16s-.45.05-.64.16c-.19.1-.35.26-.46.48-.12.21-.17.48-.17.78s.06.58.17.79c.11.21.27.37.46.48s.4.16.63.16.44-.05.64-.16Z"/>
    <path class="cls-8" d="m354.2,155.39c.21-.12.46-.18.76-.18v.66h-.17c-.71,0-1.07.39-1.07,1.16v2.09h-.64v-3.84h.64v.62c.11-.22.27-.39.48-.51Z"/>
    <path class="cls-8" d="m360.87,155.28l-2.31,5.64h-.66l.76-1.85-1.55-3.79h.71l1.2,3.11,1.19-3.11h.66Z"/>
    <path class="cls-8" d="m362.2,158.93c-.29-.16-.52-.4-.69-.7-.17-.3-.25-.65-.25-1.05s.09-.74.26-1.04c.17-.3.4-.53.7-.69.29-.16.62-.24.99-.24s.69.08.99.24c.29.16.53.39.7.69.17.3.26.65.26,1.04s-.09.75-.26,1.05c-.17.3-.41.53-.71.7-.3.16-.63.25-.99.25s-.68-.08-.98-.25Zm1.62-.48c.2-.11.36-.27.49-.48.12-.21.19-.48.19-.78s-.06-.57-.18-.78c-.12-.21-.28-.37-.48-.48s-.41-.16-.64-.16-.45.05-.64.16-.35.26-.47.48c-.12.21-.17.48-.17.78s.06.58.17.79c.11.21.27.37.46.48s.4.16.63.16.44-.05.64-.16Z"/>
    <path class="cls-8" d="m369.39,155.28v3.84h-.64v-.57c-.12.2-.29.35-.51.46-.22.11-.46.16-.72.16-.3,0-.57-.06-.81-.19-.24-.12-.43-.31-.56-.56-.14-.25-.21-.55-.21-.9v-2.25h.63v2.16c0,.38.1.67.29.87.19.2.45.3.78.3s.61-.1.8-.31.29-.52.29-.92v-2.11h.64Z"/>
    <path class="cls-8" d="m370.67,159.03c-.08-.08-.13-.19-.13-.31s.04-.22.13-.31.19-.13.31-.13.22.04.3.13.12.19.12.31-.04.22-.12.31-.18.13-.3.13-.22-.04-.31-.13Zm.62-4.79l-.08,3.5h-.53l-.08-3.5h.69Z"/>
  </g>
  <g>
    <circle id="path2-5-5-4-2-8-3-92" class="cls-8" cx="484.27" cy="144" r="25"/>
    <g id="g2">
      <ellipse id="path4-7" class="cls-12" cx="478.79" cy="137.71" rx="5.45" ry="10.66" transform="translate(-9.88 234.69) rotate(-27.27)"/>
      <path id="path5-1-6" class="cls-25" d="m483.16,145.61c-8.48-15.72-8.63-15.99-8.63-15.99"/>
      <path id="path6-5-9" class="cls-26" d="m480.07,139.51c.11-6.44,0-6.44,0-6.44"/>
      <path id="path11-8" class="cls-9" d="m481.24,144.84l.37,4.12-.7,3.56,3.79.05-.75-3.57.53-4.26-3.25.1Z"/>
      <g id="g10">
        <ellipse id="path4-2" class="cls-11" cx="487.38" cy="137.52" rx="11.98" ry="6.79" transform="translate(70.25 424.67) rotate(-50.3)"/>
        <path id="path5-9" class="cls-26" d="m480.8,145.51c12.83-16.16,13.05-16.44,13.05-16.44"/>
        <path id="path6-0" class="cls-26" d="m483.08,142.34c.11-6.44,0-6.44,0-6.44"/>
        <path id="path7-9" class="cls-26" d="m486.75,138.01l7.72-2.33"/>
        <path id="path10-3" class="cls-26" d="m489.41,134.73l-1.17-4.28"/>
      </g>
      <path id="path10-9" class="cls-26" d="m478.29,136.88l-4.66-1.88"/>
      <path id="path12" class="cls-23" d="m477.21,152.45l11.41-.18-1.41,7.5h-9.2s-.81-7.31-.81-7.31Z"/>
      <circle id="path2-67" class="cls-4" cx="478.81" cy="156.15" r=".9"/>
      <circle id="path2-6-04" class="cls-4" cx="486.17" cy="155.9" r=".9"/>
      <path id="path3-9" class="cls-27" d="m481.57,156.79c.41.89,1.45,1,1.86-.01"/>
    </g>
  </g>
  <rect class="cls-6" x="207.9" y="244.11" width="28" height="28" rx="4.66" ry="4.66"/>
  <rect id="rect1-5-5-4-3-0-3" class="cls-1" x="455.61" y="22.2" width="137.97" height="38.59" rx="7.54" ry="7.54"/>
  <g id="text1-0-8-6" class="cls-21">
    <g class="cls-21">
      <path class="cls-8" d="m494.71,34.79v4.87h-.8v-3.33l-1.48,3.33h-.55l-1.49-3.33v3.33h-.8v-4.87h.86l1.71,3.82,1.7-3.82h.85Z"/>
      <path class="cls-8" d="m499.27,38.02h-2.95c.02.31.14.56.34.74.21.19.46.28.76.28.43,0,.73-.18.91-.54h.86c-.12.35-.33.65-.63.87-.31.23-.68.34-1.14.34-.37,0-.7-.08-.99-.25-.29-.17-.52-.4-.69-.7-.17-.3-.25-.65-.25-1.05s.08-.75.24-1.05.39-.53.68-.7c.29-.16.63-.25,1-.25s.69.08.97.24c.28.16.51.38.66.67.16.29.24.62.24.99,0,.14,0,.28-.03.39Zm-.81-.64c0-.29-.11-.53-.31-.71-.21-.18-.46-.27-.76-.27-.28,0-.51.09-.71.26-.2.17-.31.41-.35.71h2.13Z"/>
      <path class="cls-8" d="m500.67,39.55c-.24-.11-.43-.26-.57-.45-.14-.19-.21-.4-.22-.63h.83c.01.16.09.3.23.41.14.11.32.16.54.16s.4-.04.52-.13.19-.2.19-.33c0-.15-.07-.25-.21-.32s-.36-.15-.66-.23c-.29-.08-.52-.16-.71-.23-.18-.07-.34-.19-.47-.34-.13-.15-.2-.36-.2-.61,0-.21.06-.39.18-.56.12-.17.29-.3.52-.4.23-.1.49-.15.78-.15.44,0,.79.11,1.06.33s.41.52.43.91h-.8c-.01-.17-.08-.31-.21-.41-.13-.1-.3-.15-.51-.15s-.37.04-.48.12c-.11.08-.17.18-.17.31,0,.1.04.19.11.26.08.07.17.12.27.16.11.04.27.09.48.15.28.07.51.15.69.23.18.08.33.19.47.34s.2.35.2.59c0,.22-.06.42-.18.59-.12.17-.29.31-.51.41s-.48.15-.78.15-.58-.05-.82-.16Z"/>
      <path class="cls-8" d="m504.41,39.55c-.24-.11-.43-.26-.57-.45-.14-.19-.21-.4-.22-.63h.83c.01.16.09.3.23.41s.32.16.54.16.4-.04.52-.13c.12-.09.19-.2.19-.33,0-.15-.07-.25-.21-.32s-.36-.15-.65-.23c-.29-.08-.53-.16-.71-.23s-.34-.19-.47-.34c-.13-.15-.2-.36-.2-.61,0-.21.06-.39.18-.56s.29-.3.52-.4.49-.15.78-.15c.44,0,.79.11,1.06.33.27.22.41.52.43.91h-.8c-.01-.17-.08-.31-.21-.41-.13-.1-.3-.15-.51-.15s-.37.04-.48.12c-.11.08-.17.18-.17.31,0,.1.04.19.11.26.07.07.17.12.27.16.11.04.27.09.48.15.28.07.51.15.69.23.18.08.33.19.47.34.13.15.2.35.2.59,0,.22-.06.42-.18.59-.12.17-.29.31-.51.41s-.48.15-.78.15-.58-.05-.82-.16Z"/>
      <path class="cls-8" d="m507.53,36.68c.16-.3.38-.53.66-.7.28-.17.58-.25.92-.25.3,0,.57.06.79.18.23.12.41.27.54.44v-.56h.81v3.86h-.81v-.57c-.13.18-.32.33-.55.46-.23.12-.5.18-.8.18-.33,0-.63-.08-.91-.26s-.49-.41-.65-.71c-.16-.31-.24-.65-.24-1.04s.08-.73.24-1.03Zm2.75.35c-.11-.2-.25-.35-.43-.45-.18-.1-.37-.15-.57-.15s-.4.05-.57.15c-.18.1-.32.25-.43.44-.11.19-.17.42-.17.69s.05.5.17.7c.11.2.25.35.43.46s.37.16.57.16.4-.05.57-.15c.18-.1.32-.25.43-.45.11-.2.16-.43.16-.7s-.05-.5-.16-.69Z"/>
      <path class="cls-8" d="m514.65,35.91c.23.12.41.27.54.44v-.56h.81v3.92c0,.35-.08.67-.22.95-.15.28-.37.5-.65.65s-.62.24-1.01.24c-.52,0-.96-.12-1.3-.37s-.54-.58-.59-1h.79c.06.2.19.36.39.49s.43.19.71.19c.32,0,.58-.1.78-.29.2-.2.3-.48.3-.85v-.64c-.13.18-.32.33-.55.46-.23.12-.49.19-.79.19-.34,0-.64-.08-.92-.26-.28-.17-.5-.41-.66-.71-.16-.31-.24-.65-.24-1.04s.08-.73.24-1.03c.16-.3.38-.53.66-.7.28-.17.58-.25.92-.25.3,0,.56.06.79.18Zm.38,1.12c-.11-.2-.25-.35-.43-.45-.18-.1-.37-.15-.57-.15s-.4.05-.57.15c-.18.1-.32.25-.43.44-.11.19-.17.42-.17.69s.05.5.17.7c.11.2.25.35.43.46s.37.16.57.16.4-.05.57-.15c.18-.1.32-.25.43-.45.11-.2.16-.43.16-.7s-.05-.5-.16-.69Z"/>
      <path class="cls-8" d="m520.56,38.02h-2.95c.02.31.14.56.34.74.21.19.46.28.76.28.43,0,.73-.18.91-.54h.86c-.12.35-.33.65-.63.87-.31.23-.68.34-1.14.34-.37,0-.7-.08-.99-.25-.29-.17-.52-.4-.69-.7-.17-.3-.25-.65-.25-1.05s.08-.75.24-1.05.39-.53.68-.7c.29-.16.63-.25,1-.25s.69.08.97.24c.28.16.51.38.67.67.16.29.24.62.24.99,0,.14,0,.28-.03.39Zm-.8-.64c0-.29-.11-.53-.32-.71s-.46-.27-.76-.27c-.28,0-.51.09-.71.26-.2.17-.31.41-.35.71h2.14Z"/>
      <path class="cls-8" d="m524.81,36.45h-.71v3.21h-.81v-3.21h-.46v-.65h.46v-.27c0-.44.12-.77.35-.97s.61-.3,1.11-.3v.67c-.24,0-.41.05-.51.14s-.15.25-.15.47v.27h.71v.65Z"/>
      <path class="cls-8" d="m526.78,35.9c.19-.11.42-.16.69-.16v.83h-.2c-.31,0-.55.08-.71.24s-.24.43-.24.83v2.03h-.8v-3.86h.8v.56c.12-.2.27-.35.46-.46Z"/>
      <path class="cls-8" d="m528.89,39.47c-.29-.17-.52-.4-.69-.7-.17-.3-.25-.65-.25-1.05s.09-.74.26-1.04c.17-.3.41-.54.71-.7.3-.16.63-.25,1-.25s.7.08,1,.25c.3.16.53.4.71.7.17.3.26.65.26,1.04s-.09.74-.27,1.04c-.18.3-.42.54-.72.7s-.64.25-1.01.25-.69-.08-.99-.25Zm1.56-.59c.18-.1.33-.25.44-.44.11-.2.17-.43.17-.71s-.05-.52-.16-.71c-.11-.19-.25-.34-.43-.44-.18-.1-.37-.15-.57-.15s-.4.05-.57.15c-.17.1-.31.24-.42.44-.1.19-.15.43-.15.71,0,.42.11.74.32.96.21.23.48.34.8.34.21,0,.4-.05.58-.15Z"/>
      <path class="cls-8" d="m538.15,35.92c.24.13.43.31.57.56.14.25.21.55.21.9v2.27h-.79v-2.16c0-.35-.09-.61-.26-.79-.17-.18-.41-.28-.71-.28s-.54.09-.71.28c-.17.18-.26.45-.26.79v2.16h-.79v-2.16c0-.35-.09-.61-.26-.79-.17-.18-.41-.28-.71-.28s-.54.09-.71.28c-.17.18-.26.45-.26.79v2.16h-.8v-3.86h.8v.44c.13-.16.3-.28.5-.37.2-.09.42-.13.64-.13.31,0,.58.07.83.2.24.13.43.32.56.57.12-.23.3-.42.55-.56.25-.14.51-.21.8-.21.3,0,.58.06.82.19Z"/>
      <path class="cls-8" d="m544.9,34.79v.65h-1.29v4.21h-.8v-4.21h-1.3v-.65h3.39Z"/>
      <path class="cls-8" d="m546.39,39.47c-.29-.17-.53-.4-.69-.7-.17-.3-.25-.65-.25-1.05s.09-.74.26-1.04c.17-.3.41-.54.71-.7.3-.16.63-.25,1-.25s.7.08,1,.25c.3.16.53.4.71.7.17.3.26.65.26,1.04s-.09.74-.27,1.04c-.18.3-.42.54-.72.7s-.64.25-1.01.25-.69-.08-.99-.25Zm1.56-.59c.18-.1.33-.25.44-.44.11-.2.17-.43.17-.71s-.05-.52-.16-.71c-.11-.19-.25-.34-.43-.44-.18-.1-.37-.15-.57-.15s-.4.05-.57.15-.31.24-.42.44c-.1.19-.15.43-.15.71,0,.42.11.74.32.96.21.23.48.34.8.34.21,0,.4-.05.58-.15Z"/>
      <path class="cls-8" d="m552.93,35.92c.24.13.43.31.56.56.14.25.2.55.2.9v2.27h-.79v-2.16c0-.35-.09-.61-.26-.79-.17-.18-.41-.28-.71-.28s-.54.09-.71.28c-.17.18-.26.45-.26.79v2.16h-.8v-3.86h.8v.44c.13-.16.3-.28.5-.37.2-.09.42-.13.65-.13.3,0,.58.06.82.19Z"/>
      <path class="cls-8" d="m558.19,35.8l-2.37,5.67h-.83l.78-1.88-1.52-3.79h.89l1.08,2.94,1.13-2.94h.83Z"/>
    </g>
  </g>
  <g id="text1-0-8-6-9" class="cls-21">
    <g class="cls-21">
      <path class="cls-14" d="m491.62,45.71c-.2.19-.5.29-.91.29h-.67v1.46h-.46v-3.48h1.12c.39,0,.69.09.9.28.21.19.31.44.31.74s-.1.53-.3.72Zm-.35-.25c.12-.11.18-.27.18-.47,0-.43-.25-.65-.74-.65h-.67v1.28h.67c.25,0,.44-.05.56-.17Z"/>
      <path class="cls-14" d="m494.85,44.71l-1.65,4.03h-.47l.54-1.32-1.1-2.71h.5l.86,2.22.85-2.22h.47Z"/>
      <path class="cls-14" d="m495.85,45.08v1.62c0,.13.03.23.08.28.06.05.16.08.29.08h.33v.38h-.41c-.25,0-.44-.06-.57-.17s-.19-.31-.19-.58v-1.62h-.35v-.38h.35v-.69h.46v.69h.71v.38h-.71Z"/>
      <path class="cls-14" d="m499.04,44.79c.17.09.3.22.39.4.1.18.14.39.14.64v1.62h-.45v-1.55c0-.27-.07-.48-.21-.63-.14-.14-.32-.22-.56-.22s-.43.08-.57.23-.21.37-.21.65v1.52h-.46v-3.7h.46v1.35c.09-.14.21-.25.37-.32s.34-.12.53-.12c.21,0,.39.04.56.13Z"/>
      <path class="cls-14" d="m500.82,47.32c-.21-.12-.37-.28-.49-.5s-.18-.46-.18-.75.06-.53.18-.74c.12-.21.29-.38.5-.49.21-.12.44-.17.71-.17s.5.06.71.17c.21.11.38.28.5.49s.18.46.18.75-.06.53-.19.75-.29.38-.51.5c-.21.12-.45.17-.71.17s-.49-.06-.7-.17Zm1.16-.34c.14-.08.26-.19.35-.34s.13-.34.13-.56-.04-.41-.13-.56c-.09-.15-.2-.27-.34-.34-.14-.08-.29-.11-.45-.11s-.32.04-.46.11c-.14.07-.25.19-.33.34-.08.15-.12.34-.12.56s.04.41.12.56.19.27.33.34c.14.07.29.11.45.11s.32-.04.46-.12Z"/>
      <path class="cls-14" d="m505.67,44.96c.21.2.31.49.31.87v1.62h-.45v-1.55c0-.27-.07-.48-.21-.63-.14-.14-.32-.22-.56-.22s-.43.08-.57.23-.21.37-.21.65v1.52h-.46v-2.74h.46v.39c.09-.14.21-.25.37-.32.15-.08.33-.12.51-.12.33,0,.6.1.81.3Z"/>
      <path class="cls-14" d="m508.54,47.36c-.18-.08-.32-.2-.43-.34-.1-.14-.16-.31-.16-.5h.49c.02.16.08.3.2.41.12.11.29.17.52.17s.39-.05.51-.16c.12-.11.19-.25.19-.42,0-.13-.04-.24-.11-.32-.07-.08-.17-.15-.27-.19-.11-.04-.26-.09-.45-.14-.23-.06-.41-.12-.55-.18s-.26-.15-.35-.28c-.1-.13-.15-.3-.15-.52,0-.19.05-.36.14-.5.1-.15.23-.26.41-.34.18-.08.38-.12.6-.12.33,0,.59.08.8.24.21.16.33.38.35.65h-.5c-.02-.13-.09-.25-.21-.35-.12-.1-.29-.15-.49-.15-.19,0-.34.05-.46.15-.12.1-.18.24-.18.41,0,.13.04.23.11.31.07.08.16.14.26.18.11.04.25.09.44.14.23.06.42.13.56.19.14.06.26.16.36.28.1.13.15.3.15.52,0,.17-.04.33-.13.48-.09.15-.22.27-.4.37s-.38.14-.62.14-.44-.04-.62-.12Z"/>
      <path class="cls-14" d="m513.48,46.25h-2.19c.02.27.11.48.28.63.17.15.37.23.61.23.2,0,.36-.05.49-.14s.22-.21.28-.37h.49c-.07.26-.22.48-.44.64s-.49.25-.82.25c-.26,0-.49-.06-.7-.17s-.37-.28-.48-.5c-.12-.21-.17-.46-.17-.75s.06-.53.17-.75.27-.38.48-.49c.21-.12.44-.17.71-.17s.49.06.69.17c.2.11.35.27.46.47.11.2.16.42.16.67,0,.09,0,.18-.01.27Zm-.57-.82c-.08-.12-.18-.22-.31-.29-.13-.06-.28-.1-.44-.1-.23,0-.43.07-.59.22-.16.15-.25.35-.28.61h1.73c0-.17-.04-.32-.12-.45Z"/>
      <path class="cls-14" d="m514.89,44.79c.15-.09.33-.13.54-.13v.47h-.12c-.51,0-.77.28-.77.83v1.49h-.46v-2.74h.46v.45c.08-.16.19-.28.34-.37Z"/>
      <path class="cls-14" d="m516.98,47.03l.85-2.32h.49l-1.08,2.74h-.53l-1.08-2.74h.49l.85,2.32Z"/>
      <path class="cls-14" d="m521.25,46.25h-2.19c.02.27.11.48.28.63.17.15.37.23.61.23.2,0,.36-.05.49-.14s.22-.21.28-.37h.49c-.07.26-.22.48-.44.64-.22.17-.49.25-.82.25-.26,0-.49-.06-.7-.17s-.37-.28-.48-.5c-.12-.21-.18-.46-.18-.75s.06-.53.17-.75.27-.38.48-.49c.21-.12.44-.17.71-.17s.49.06.69.17c.2.11.35.27.46.47s.16.42.16.67c0,.09,0,.18-.01.27Zm-.57-.82c-.08-.12-.18-.22-.31-.29-.13-.06-.28-.1-.44-.1-.23,0-.43.07-.59.22-.16.15-.25.35-.28.61h1.73c0-.17-.04-.32-.12-.45Z"/>
      <path class="cls-14" d="m522.66,44.79c.15-.09.33-.13.54-.13v.47h-.12c-.51,0-.76.28-.76.83v1.49h-.46v-2.74h.46v.45c.08-.16.19-.28.34-.37Z"/>
    </g>
  </g>
  <path id="path1-7" class="cls-6" d="m470.14,44.15c3.18,0,5.76-2.18,5.76-4.87s-2.58-4.87-5.76-4.87-5.76,2.18-5.76,4.87c0,1.07.41,2.06,1.1,2.86-.1.26-.24.49-.39.68-.13.17-.27.3-.37.4-.05.04-.09.08-.12.1-.01.01-.03.02-.03.02h0c-.15.12-.22.32-.16.5.06.18.23.31.42.31.6,0,1.21-.16,1.72-.35.25-.1.49-.2.7-.32.85.42,1.84.66,2.9.66h0Zm6.64-4.87c0,3.11-2.74,5.45-5.99,5.73.67,2.06,2.9,3.57,5.55,3.57,1.06,0,2.05-.24,2.9-.66.21.11.44.22.7.32.51.19,1.12.35,1.72.35.19,0,.36-.12.42-.31.06-.18,0-.38-.16-.5h0s-.02-.02-.03-.03c-.03-.02-.07-.06-.12-.1-.1-.09-.24-.22-.37-.4-.15-.19-.3-.43-.39-.68.69-.8,1.1-1.79,1.1-2.86,0-2.57-2.35-4.68-5.33-4.86.01.14.02.29.02.43h0Z"/>
  <rect id="rect1-5-5-4-3-0-5" class="cls-14" x="566.44" y="32.99" width="17.01" height="17.01" rx="3.32" ry="3.32"/>
  <rect class="cls-7" x="112.1" y="182.26" width="64.06" height="9.33" rx="4.66" ry="4.66"/>
  <rect class="cls-3" x="112.1" y="214.31" width="53.98" height="9.33" rx="4.66" ry="4.66"/>
  <rect class="cls-5" x="112.1" y="246.35" width="32.03" height="9.33" rx="4.66" ry="4.66"/>
  <rect id="rect1-5-5-5-2" data-name="rect1-5-5-5" class="cls-2" x="43.3" y="110.35" width="106.08" height="27.28" rx="4.68" ry="4.68"/>
  <path id="rect1-5-5-5-7-6-7-2" data-name="rect1-5-5-5-7-6-7" class="cls-5" d="m62.32,116.9h0c3.91,0,7.09,3.17,7.09,7.09h0c0,3.91-3.17,7.09-7.09,7.09h0c-3.91,0-7.09-3.17-7.09-7.09h0c0-3.91,3.17-7.09,7.09-7.09Z"/>
  <g id="text1-0-8-3-1-2" data-name="text1-0-8-3-1" class="cls-21">
    <g class="cls-21">
      <path class="cls-8" d="m78.23,122.42c.21-.38.51-.68.88-.89.37-.21.78-.32,1.24-.32.53,0,1,.13,1.39.38.4.26.69.62.87,1.09h-.76c-.14-.29-.33-.52-.58-.68s-.56-.24-.91-.24-.65.08-.92.24c-.27.16-.48.38-.64.68-.15.29-.23.63-.23,1.03s.08.73.23,1.02c.15.29.37.52.64.68.27.16.58.24.92.24s.66-.08.91-.23c.25-.16.45-.38.58-.68h.76c-.18.47-.47.83-.87,1.08s-.86.38-1.39.38c-.45,0-.86-.11-1.24-.32s-.66-.51-.88-.89c-.21-.38-.32-.8-.32-1.28s.11-.9.32-1.28Z"/>
      <path class="cls-8" d="m86.24,122.43c.23.12.42.31.55.56.13.25.2.55.2.9v2.26h-.63v-2.17c0-.38-.1-.68-.29-.88-.19-.2-.45-.3-.78-.3s-.6.1-.8.31c-.2.21-.3.52-.3.92v2.12h-.64v-5.18h.64v1.89c.13-.2.3-.35.52-.46s.47-.16.75-.16c.29,0,.55.06.78.19Z"/>
      <path class="cls-8" d="m88.03,123.19c.16-.3.38-.53.65-.69.28-.16.59-.25.93-.25s.63.07.88.22c.25.15.43.33.55.55v-.7h.64v3.84h-.64v-.71c-.13.22-.31.41-.56.56s-.54.22-.87.22-.65-.08-.92-.25-.49-.4-.65-.71-.24-.65-.24-1.04.08-.74.24-1.03Zm2.83.28c-.12-.21-.27-.38-.47-.49s-.42-.17-.65-.17-.46.06-.65.17c-.2.11-.35.28-.47.49s-.17.47-.17.76.06.55.17.77.27.38.47.5c.2.11.41.17.65.17s.46-.06.65-.17.36-.28.47-.5.17-.47.17-.76-.06-.54-.17-.76Z"/>
      <path class="cls-8" d="m93.54,122.84v2.26c0,.19.04.32.12.4.08.08.22.12.41.12h.47v.54h-.57c-.35,0-.62-.08-.8-.25-.18-.16-.27-.43-.27-.8v-2.26h-.5v-.52h.5v-.97h.64v.97h1v.52h-1Z"/>
      <path class="cls-8" d="m96.43,122.43c.21-.12.46-.18.76-.18v.66h-.17c-.71,0-1.07.39-1.07,1.16v2.09h-.64v-3.84h.64v.62c.11-.22.27-.39.48-.51Z"/>
      <path class="cls-8" d="m98.62,125.97c-.29-.16-.52-.4-.69-.7-.17-.3-.25-.65-.25-1.05s.09-.74.26-1.04c.17-.3.4-.53.7-.69.29-.16.62-.24.99-.24s.69.08.99.24c.29.16.53.39.7.69.17.3.26.65.26,1.04s-.09.75-.26,1.05c-.17.3-.41.53-.71.7-.3.16-.63.25-.99.25s-.69-.08-.98-.25Zm1.62-.48c.2-.11.36-.27.49-.48.12-.21.19-.48.19-.78s-.06-.57-.18-.78c-.12-.21-.28-.37-.48-.48-.2-.1-.41-.16-.64-.16s-.45.05-.64.16c-.19.1-.35.26-.47.48s-.17.48-.17.78.06.58.17.79c.11.21.27.37.46.48s.4.16.63.16.44-.05.64-.16Z"/>
      <path class="cls-8" d="m103.1,125.97c-.29-.16-.52-.4-.69-.7-.17-.3-.25-.65-.25-1.05s.09-.74.26-1.04c.17-.3.4-.53.7-.69.29-.16.62-.24.99-.24s.69.08.99.24c.29.16.53.39.7.69.17.3.26.65.26,1.04s-.09.75-.26,1.05c-.17.3-.41.53-.71.7-.3.16-.63.25-.99.25s-.69-.08-.98-.25Zm1.62-.48c.2-.11.36-.27.49-.48.12-.21.19-.48.19-.78s-.06-.57-.18-.78c-.12-.21-.28-.37-.48-.48-.2-.1-.41-.16-.64-.16s-.45.05-.64.16c-.19.1-.35.26-.47.48s-.17.48-.17.78.06.58.17.79c.11.21.27.37.46.48s.4.16.63.16.44-.05.64-.16Z"/>
      <path class="cls-8" d="m112.29,122.43c.23.12.42.31.55.56.14.25.2.55.2.9v2.26h-.63v-2.17c0-.38-.09-.68-.28-.88-.19-.2-.44-.3-.77-.3s-.59.11-.79.32c-.2.21-.29.52-.29.92v2.11h-.63v-2.17c0-.38-.09-.68-.28-.88-.19-.2-.44-.3-.77-.3s-.6.11-.79.32c-.2.21-.29.52-.29.92v2.11h-.64v-3.84h.64v.55c.13-.2.3-.35.51-.46s.45-.16.7-.16c.32,0,.61.07.85.22.25.14.43.36.55.64.11-.27.28-.48.53-.63.25-.15.52-.22.83-.22s.56.06.8.19Z"/>
      <path class="cls-8" d="m114.66,126.06c-.23-.1-.42-.24-.55-.42-.14-.18-.21-.39-.22-.62h.66c.02.19.11.35.27.47.16.12.37.18.63.18.24,0,.43-.05.57-.16.14-.11.21-.24.21-.41s-.07-.29-.22-.37c-.15-.08-.38-.16-.69-.24-.28-.07-.52-.15-.7-.23-.18-.08-.33-.19-.46-.34-.13-.15-.19-.35-.19-.6,0-.2.06-.38.18-.54.12-.16.28-.29.5-.39.21-.1.46-.14.73-.14.42,0,.77.11,1.03.32.26.21.4.51.42.88h-.64c-.01-.2-.09-.36-.24-.48-.15-.12-.34-.18-.59-.18-.23,0-.41.05-.55.15-.14.1-.2.23-.2.38,0,.13.04.23.12.31.08.08.18.15.31.2.12.05.29.1.51.16.28.07.5.15.67.22.17.07.32.18.44.33s.19.33.19.57c0,.21-.06.4-.17.57s-.28.3-.49.4-.46.14-.73.14c-.29,0-.56-.05-.79-.15Z"/>
    </g>
  </g>
  <rect id="rect1-5-5-5-3" data-name="rect1-5-5-5" class="cls-2" x="54.28" y="141.34" width="106.08" height="27.28" rx="4.68" ry="4.68"/>
  <path id="rect1-5-5-5-7-6-7-3" data-name="rect1-5-5-5-7-6-7" class="cls-15" d="m73.3,147.89h0c3.91,0,7.09,3.17,7.09,7.09h0c0,3.91-3.17,7.09-7.09,7.09h0c-3.91,0-7.09-3.17-7.09-7.09h0c0-3.91,3.17-7.09,7.09-7.09Z"/>
  <g id="text1-0-8-3-1-3" data-name="text1-0-8-3-1" class="cls-21">
    <g class="cls-21">
      <path class="cls-8" d="m89.81,157.02c-.25-.11-.45-.27-.6-.48-.14-.2-.22-.44-.22-.7h.68c.02.23.12.42.28.58.17.16.41.23.72.23s.54-.08.72-.23c.17-.15.26-.35.26-.58,0-.19-.05-.34-.15-.46-.1-.12-.23-.21-.39-.27-.15-.06-.36-.13-.62-.2-.32-.08-.58-.17-.77-.25-.19-.08-.36-.22-.5-.4-.14-.18-.21-.42-.21-.72,0-.27.07-.5.2-.71.14-.21.33-.36.57-.48.24-.11.53-.17.84-.17.46,0,.83.11,1.12.34.29.23.46.53.49.91h-.7c-.02-.19-.12-.35-.29-.49-.17-.14-.4-.21-.69-.21-.27,0-.48.07-.65.21s-.25.33-.25.58c0,.18.05.32.15.43.1.11.22.2.37.26.15.06.35.12.62.2.32.09.58.18.78.26.2.09.36.22.5.4s.21.42.21.73c0,.24-.06.46-.19.67s-.31.38-.56.51-.54.2-.88.2-.61-.06-.86-.17Z"/>
      <path class="cls-8" d="m96.72,155.46h-3.07c.02.38.15.67.39.89.24.21.52.32.86.32.27,0,.5-.06.69-.19.18-.13.31-.3.39-.51h.69c-.1.37-.31.67-.62.9-.31.23-.69.35-1.15.35-.36,0-.69-.08-.98-.25-.29-.16-.51-.4-.68-.7-.16-.3-.25-.65-.25-1.05s.08-.74.24-1.04c.16-.3.38-.53.67-.69.29-.16.62-.24.99-.24s.69.08.97.24c.28.16.5.38.65.65.15.28.23.59.23.94,0,.12,0,.25-.02.38Zm-.8-1.14c-.11-.17-.25-.31-.44-.4-.18-.09-.39-.14-.61-.14-.32,0-.6.1-.82.31-.23.21-.36.49-.39.85h2.42c0-.24-.05-.45-.16-.63Z"/>
      <path class="cls-8" d="m98.36,153.83v2.26c0,.19.04.32.12.4.08.08.22.12.41.12h.47v.54h-.57c-.35,0-.62-.08-.8-.25-.18-.16-.27-.43-.27-.8v-2.26h-.5v-.52h.5v-.97h.64v.97h1v.52h-1Z"/>
      <path class="cls-8" d="m100.9,153.83v2.26c0,.19.04.32.12.4.08.08.22.12.41.12h.47v.54h-.57c-.35,0-.62-.08-.8-.25-.18-.16-.27-.43-.27-.8v-2.26h-.5v-.52h.5v-.97h.64v.97h1v.52h-1Z"/>
      <path class="cls-8" d="m102.7,152.56c-.08-.08-.13-.19-.13-.31s.04-.22.13-.31.19-.13.31-.13.22.04.3.13.12.19.12.31-.04.22-.12.31-.18.13-.3.13-.22-.04-.31-.13Zm.62.75v3.84h-.64v-3.84h.64Z"/>
      <path class="cls-8" d="m107.4,153.66c.29.28.43.69.43,1.22v2.26h-.63v-2.17c0-.38-.1-.68-.29-.88-.19-.2-.45-.3-.78-.3s-.6.1-.8.31c-.2.21-.3.52-.3.92v2.12h-.64v-3.84h.64v.55c.13-.2.3-.35.51-.46.22-.11.46-.16.72-.16.47,0,.84.14,1.13.42Z"/>
      <path class="cls-8" d="m111.33,153.46c.25.15.44.33.56.55v-.7h.64v3.92c0,.35-.07.66-.22.93-.15.27-.36.49-.64.64-.28.15-.6.23-.97.23-.5,0-.92-.12-1.26-.36-.34-.24-.53-.56-.6-.97h.63c.07.23.21.42.43.56.22.14.48.21.79.21.35,0,.64-.11.86-.33.22-.22.33-.53.33-.92v-.81c-.13.22-.31.41-.56.56-.25.15-.54.22-.87.22s-.65-.08-.93-.25c-.28-.17-.5-.4-.65-.71s-.24-.65-.24-1.04.08-.74.24-1.03.38-.53.65-.69c.28-.16.59-.25.93-.25s.62.07.87.22Zm.38,1c-.12-.21-.27-.38-.47-.49s-.42-.17-.65-.17-.46.06-.65.17c-.2.11-.35.28-.47.49s-.17.47-.17.76.06.55.17.77.27.38.47.5c.2.11.41.17.65.17s.46-.06.65-.17.36-.28.47-.5.17-.47.17-.76-.06-.54-.17-.76Z"/>
      <path class="cls-8" d="m114.18,157.05c-.23-.1-.42-.24-.55-.42-.14-.18-.21-.39-.22-.62h.66c.02.19.11.35.27.47.16.12.37.18.63.18.24,0,.43-.05.57-.16.14-.11.21-.24.21-.41s-.07-.29-.22-.37c-.15-.08-.38-.16-.69-.24-.28-.07-.52-.15-.7-.23-.18-.08-.33-.19-.46-.34-.13-.15-.19-.35-.19-.6,0-.2.06-.38.18-.54.12-.16.28-.29.5-.39.21-.1.46-.14.73-.14.42,0,.77.11,1.03.32.26.21.4.51.42.88h-.64c-.01-.2-.09-.36-.24-.48-.15-.12-.34-.18-.59-.18-.23,0-.41.05-.55.15-.14.1-.2.23-.2.38,0,.13.04.23.12.31.08.08.18.15.31.2.12.05.29.1.51.16.28.07.5.15.67.22.17.07.32.18.44.33s.19.33.19.57c0,.21-.06.4-.17.57s-.28.3-.49.4-.46.14-.73.14c-.29,0-.56-.05-.79-.15Z"/>
    </g>
  </g>
  <rect class="cls-10" x="0" y="223.54" width="49.99" height="49.99" rx="25" ry="25"/>
  <rect class="cls-10" x="99.94" y="319.58" width="20" height="20" rx="10" ry="10"/>
  <rect class="cls-10" x="25.46" y="43.71" width="20" height="20" rx="10" ry="10"/>
  <rect class="cls-10" x="573.63" y="71.6" width="49.99" height="49.99" rx="25" ry="25"/>
  <rect class="cls-10" x="562.31" y="314.22" width="20" height="20" rx="10" ry="10"/>
  <rect class="cls-10" x="337.41" y="3.18" width="20" height="20" rx="10" ry="10"/>
  <ellipse id="path1-5-0" class="cls-8" cx="482.22" cy="88.77" rx="16.88" ry="12.52"/>
  <g>
    <path id="path8" class="cls-4" d="m473.86,107.36s-.75,3.92-.89,5.92c-.16,2.28.65,5.51.65,5.51h2.05s-.6-3.92-.52-5.89c.08-1.88.97-5.55.97-5.55h-2.26Z"/>
    <path id="rect9" class="cls-4" d="m475.16,117.14h2.33c.93,0,1.69.62,1.69,1.39h0c0,.77-.76,1.39-1.69,1.39h-2.33c-.93,0-1.69-.62-1.69-1.39h0c0-.77.76-1.39,1.69-1.39Z"/>
    <path id="path8-7" class="cls-4" d="m486.73,106.86s-.89,3.75-1.07,5.74c-.2,2.28.75,5.68.75,5.68h2.61s-1.34-3.83-1.24-5.8c.1-1.97,1.82-5.64,1.82-5.64h-2.88Z"/>
    <path id="rect9-6" class="cls-4" d="m487.98,116.99h2.26c.91,0,1.64.62,1.64,1.39h0c0,.77-.73,1.39-1.64,1.39h-2.26c-.91,0-1.64-.62-1.64-1.39h0c0-.77.73-1.39,1.64-1.39Z"/>
    <circle id="path1" class="cls-8" cx="469.09" cy="96.6" r="12.52"/>
    <ellipse id="path1-5" class="cls-8" cx="489.69" cy="97.23" rx="16.88" ry="12.52"/>
    <circle id="path2" class="cls-4" cx="478.03" cy="96.79" r="1.57"/>
    <circle id="path2-6" class="cls-4" cx="488.38" cy="96.61" r="1.57"/>
    <path id="path3" class="cls-24" d="m481.84,100.21c.71,1.55,2.52,1.73,3.22-.02"/>
  </g>
  <path id="path8-2" data-name="path8" class="cls-4" d="m605.07,195.89s-2.52,4.72-3.43,7.22c-1.03,2.86-.89,7.34-.89,7.34l3.2.84s.41-5.27,1.21-7.76c.77-2.38,3.43-6.72,3.43-6.72l-3.53-.93Z"/>
  <path id="rect9-6-2" data-name="rect9-6" class="cls-4" d="m604.49,209.86l1.54,2.67c.62,1.07.33,2.39-.64,2.95h0c-.97.56-2.26.15-2.88-.92l-1.54-2.67c-.62-1.07-.33-2.39.64-2.95h0c.97-.56,2.26-.15,2.88.92Z"/>
  <path class="cls-19" d="m589.69,188.79l-9.26,5.23c-.96.54-2.1-.34-1.82-1.41l4.24-15.82c.09-.33.34-.6.66-.71l8.75-2.96c.94-.32,1.86.54,1.6,1.5l-3.59,13.4c-.09.32-.3.6-.59.76Z"/>
  <path class="cls-19" d="m615.58,196.01l4.7,7.96c.78,1.33,2.78,1.06,3.18-.43l3.93-14.68c.09-.33,0-.68-.22-.93l-5.49-6.25c-.92-1.05-2.63-.64-2.99.7l-3.3,12.31c-.12.45-.06.93.18,1.34Z"/>
  <path id="path8-3" data-name="path8" class="cls-4" d="m593.61,193.38s-2.38,4.76-3.26,7.27c-1,2.86-1.01,7.31-1.01,7.31l2.81.74s.52-5.24,1.31-7.73c.76-2.38,3.24-6.77,3.24-6.77l-3.1-.82Z"/>
  <path class="cls-17" d="m612.42,156.24c-7.5-2.15-16.13,10.48-17.84,12.96-6.73,9.8-8,20.46-8.28,25.43-.03.48.28.9.74,1.02l27.37,7.33c.47.13.95-.1,1.16-.53,2.54-5.27,7.07-16.52,5.3-29.19-.56-4.01-2.13-15.22-8.46-17.03Z"/>
  <rect class="cls-20" x="600.25" y="165.52" width="15" height="15" rx="7.5" ry="7.5" transform="translate(65.49 -151.4) rotate(15)"/>
  <path id="path3-2" data-name="path3" class="cls-24" d="m598.6,190.97c.83,2.28,4.18,3.42,6.08,1.6"/>
  <path id="rect9-6-3" data-name="rect9-6" class="cls-4" d="m593.15,206.63l1.54,2.67c.62,1.07.33,2.39-.64,2.95h0c-.97.56-2.26.15-2.88-.92l-1.54-2.67c-.62-1.07-.33-2.39.64-2.95h0c.97-.56,2.26-.15,2.88.92Z"/>
  <rect class="cls-10" x="582.68" y="219.07" width="3" height="16.9" rx="1.5" ry="1.5" transform="translate(78.79 -143.44) rotate(15)"/>
  <rect class="cls-10" x="589.4" y="221.06" width="3" height="27.46" rx="1.5" ry="1.5" transform="translate(80.9 -144.94) rotate(15)"/>
  <rect class="cls-10" x="599.53" y="223.63" width="3" height="19.54" rx="1.5" ry="1.5" transform="translate(80.89 -147.6) rotate(15)"/>
  <path id="path3-3" data-name="path3" class="cls-24" d="m595.02,183.62c1.21-1.11,3.41-.69,3.83,1.05"/>
  <path id="path3-4" data-name="path3" class="cls-24" d="m608.91,187.97c1.42-1.46,3.9-1.01,4.31,1.19"/>
  <g>
    <path class="cls-8" d="m91.8,33.39c-.95.92-2.21,2.42-2.54,4.36-.25,1.48.11,2.73.53,3.61l2.81.55c-.67-.72-1.85-2.25-1.49-4.24.39-2.2,2.45-3.73,3.42-4.36-.91.03-1.81.06-2.72.08Z"/>
    <rect class="cls-8" x="89.68" y="39.84" width="3.7" height="2.07" rx="1.03" ry="1.03"/>
    <path class="cls-8" d="m99.58,32.66c-.43,2.15-.54,4.67.11,7.41.11.48.25.94.39,1.39h1.96c-.71-1.17-2.13-4.02-.54-7.12.37-.72.84-1.33,1.33-1.86-1.09.06-2.17.11-3.26.17Z"/>
    <rect class="cls-8" x="99.92" y="39.87" width="3.7" height="1.99" rx="1" ry="1"/>
    <path class="cls-8" d="m80.58,7.8h2.83c7.17,0,12.99,5.82,12.99,12.99v12.99h-15.82c-7.17,0-12.99-5.82-12.99-12.99h0c0-7.17,5.82-12.99,12.99-12.99Z"/>
    <rect class="cls-8" x="90.69" y="0" width="21.48" height="26.37" rx="10.74" ry="10.74"/>
    <path class="cls-8" d="m103.89,7.8h.71c7.17,0,12.99,5.82,12.99,12.99h0c0,7.17-5.82,12.99-12.99,12.99h-15.82v-10.87c0-8.34,6.77-15.11,15.11-15.11Z"/>
    <g>
      <g>
        <rect class="cls-4" x="86.14" y="24.86" width="3.02" height="3.02" rx="1.51" ry="1.51"/>
        <rect class="cls-4" x="102.11" y="24.86" width="3.02" height="3.02" rx="1.51" ry="1.51"/>
      </g>
      <path class="cls-4" d="m92.2,26.87h6.88c0,1.11-.9,2.02-2.02,2.02h-2.85c-1.11,0-2.02-.9-2.02-2.02h0Z"/>
    </g>
  </g>
</svg>