<?xml version="1.0" encoding="UTF-8"?>
<svg id="Layer_1" data-name="Layer 1" xmlns="http://www.w3.org/2000/svg" viewBox="0 0 783.978202852610593 550.781124215601267">
  <defs>
    <style>
      .cls-1 {
        fill: #e9e9e9;
      }

      .cls-2 {
        fill: #fff;
      }

      .cls-3, .cls-4, .cls-5, .cls-6, .cls-7, .cls-8, .cls-9, .cls-10 {
        stroke: #231f20;
        stroke-miterlimit: 10;
      }

      .cls-3, .cls-5 {
        fill: #faaf40;
      }

      .cls-3, .cls-9 {
        stroke-width: 1.5px;
      }

      .cls-4 {
        stroke-width: .5px;
      }

      .cls-4, .cls-6, .cls-8 {
        fill: #231f20;
      }

      .cls-11 {
        fill: #a9a9a9;
      }

      .cls-5, .cls-7, .cls-8 {
        stroke-width: 2px;
      }

      .cls-7, .cls-8, .cls-9, .cls-10 {
        stroke-linecap: round;
      }

      .cls-7, .cls-9, .cls-10 {
        fill: none;
      }

      .cls-12 {
        fill: #ffeccc;
      }

      .cls-10 {
        stroke-width: 2.5px;
      }

      .cls-13 {
        fill: #005248;
      }
    </style>
  </defs>
  <rect class="cls-11" x="104.387914325539839" y="39.600398014820399" width="304.927628793819053" height="414.2664944118319" rx="29.079082442240168" ry="29.079082442240168" transform="translate(157.778506021822807 -95.369846102189172) rotate(30.000012857269166)"/>
  <rect class="cls-11" x="432.610564411375606" y="163.690865349592855" width="279.255786133092045" height="320.210614375090017" rx="29.079082442240317" ry="29.079082442240317" transform="translate(238.563629679602286 -242.738842144367027) rotate(30.000012857270438)"/>
  <rect class="cls-11" x="289.45036153725755" y="468.992990229698023" width="24.999999997255941" height="25.000000011316047" rx="12.499987505639123" ry="12.499987505639123"/>
  <rect class="cls-11" x=".000000000095145" y="221.733645213382829" width="49.999999999809717" height="50.000000014709485" rx="24.999974999808995" ry="24.999974999808995"/>
  <rect class="cls-11" x="160.702314660046454" y=".000000000094246" width="49.999999999807869" height="49.999999999811507" rx="24.999974999998809" ry="24.999974999998809"/>
  <rect class="cls-11" x="101.672172188949787" y="456.492990246509123" width="25.000000000893408" height="24.999999981513724" rx="12.499987486926656" ry="12.499987486926656"/>
  <rect class="cls-11" x="490.458482371636592" y="8.634472916550273" width="25.000000033997139" height="24.999999985659699" rx="12.499987517616795" ry="12.499987517616795"/>
  <rect class="cls-11" x="733.978202866931497" y="393.492996394609577" width="49.999999999807869" height="49.99999999981145" rx="24.999975014707882" ry="24.999975014707882"/>
  <rect class="cls-11" x="31.347647810001888" y="57.634792987571913" width="25.000000011983616" height="24.999999989979102" rx="12.499987512917032" ry="12.499987512917032"/>
  <rect class="cls-11" x="663.002834129988514" y="132.437118356647261" width="24.999999989970092" height="24.999999989979045" rx="12.499987490903587" ry="12.499987490903587"/>
  <rect class="cls-11" x="455.167009879861155" y="525.781124216399803" width="25.000000004194931" height="25.000000011315933" rx="12.499987527481011" ry="12.499987527481011"/>
  <rect class="cls-12" x="72.752967821179482" y="82.634792986772482" width="549.999977201367983" height="328.197704467933363" rx="19.999984741210938" ry="19.999984741210938"/>
  <path class="cls-13" d="m622.752973839637889,215.376775378484126c-20.67578125-13.342926025390625-51.93798828125-28.554840087890625-87.10888671875-23.80596923828125-63.48785400390625,8.57232666015625-77.05108642578125,73.725738525390625-136.44012451171875,78.020050048828125-50.75537109375,3.6700439453125-68.385040283203125-41.92596435546875-110.48211669921875-29.311553955078125-40.125701904296875,12.023681640625-37.744110107421875,57.535064697265625-76.0850830078125,64.851043701171875-36.14605712890625,6.89715576171875-56.83551025390625-31.03533935546875-95.489364624023438-22.46807861328125-21.250473022460938,4.7099609375-35.778045654296875,20.6956787109375-44.394439697265625,32.651123046875V118.292119616765376c183.333328247070312-.25531005859375,366.666702270507812-.5106201171875,550.000015258789062-.76593017578125v97.8505859375Z"/>
  <path class="cls-13" d="m92.7529678233998,75.830327021071753h509.999999997781174c11.038300489877429,0,19.999999999995339,8.961699510117896,19.999999999995339,19.99999999999531v25.799664254473242H72.752967823401548v-25.799664254470301c0-11.038300489879035,8.961699510119217-19.999999999998252,19.999999999998252-19.999999999998252Z"/>
  <g>
    <polyline class="cls-10" points="467.66700988195862 228.727680583160691 466.943392490090446 234.947337665587838 462.283818022005107 237.309039793246484"/>
    <polyline class="cls-10" points="471.09231395198276 238.649465325161145 466.943377781771233 234.947337665587838 466.305079909429878 239.2877631975025"/>
    <polyline class="cls-10" points="482.457349850868013 230.711653441027011 482.964654377515217 236.479252559205634 479.773165015812083 239.670741920908767"/>
    <polyline class="cls-10" points="485.599042112494317 240.245210006014531 484.041940485788473 236.138827027280058 487.156143739203799 237.600420968861727"/>
    <path class="cls-5" d="m492.049757189287448,214.266487900378706c-.0172119140625,3.537185668945312-.035171508789062,7.229263305664062-2.553192138671875,10.89361572265625-2.72784423828125,3.969696044921875-7.530807495117188,6.6568603515625-12.75115966796875,6.638290405273438-5.965957641601562-.021224975585938-9.94451904296875-3.567276000976562-11.419052124023438-5.106369018554688-4.65728759765625-4.8612060546875-4.694442749023438-10.952499389648438-4.7086181640625-13.276596069335938-.059844970703125-9.812484741211847,6.42138671875-19.445114135743097,11.006500244140625-19.234054565430597,1.228713989257812.056564331054688,2.28277587890625.818252563476562,5.121170043945312.85107421875,2.210601806640625.025558471679688,2.882919311523438-.421295166015625,4.410736083984375-.170211791992188,2.2386474609375.367889404296875,3.739089965820312,1.811065673828125,4.784011840820312,2.842269897460938,3.574905395507812,3.527969360351562,6.1429443359375,9.707931518555597,6.109603881835938,16.561981201172784Z"/>
    <path class="cls-5" d="m492.475691027178073,189.723931137682484c4.169845581054688-1.313995361328125,8.947265625-2.990386962890625,8.776199340820312-3.829788208007812-.03759765625-.184494018554688-.301864624023438-.267715454101562-.797866821289062-.414886474609375-1.390121459960938-.412460327148438-3.1815185546875-.906158447265625-5.325302124023438-1.404266357421875"/>
    <path class="cls-5" d="m495.60841680048452,181.150073007956053c-.10209749380374,3.592451574902952-1.698415364793618,6.964855557198462-4.192485651583411,9.693742788032978-3.544424431798689,3.878132314010145-8.901985981156031,6.456592148937489-14.360706487088464,6.519941293998272-9.579177856445312.111160278320312-17.97369384765625-7.540206909179688-19.05303955078125-16.21368408203125-.63128662109375-5.072982788085938,1.09442138671875-11.664505004882812,5.9466552734375-14.935256958007812,3.744171142578125-2.523834228515625,7.986679077148438-2.151473999023438,13.10638427734375-1.702133178710938,4.05242919921875.355667114257812,7.549957275390625.662643432617188,11.063827514648438,3.0638427734375,3.87396240234375,2.647262573242188,7.654510498046875,7.7625732421875,7.489364624023438,13.57354736328125Z"/>
    <circle class="cls-6" cx="473.996569271042063" cy="181.106912133763217" r="1.308510638295047"/>
  </g>
  <g>
    <path class="cls-7" d="m507.022312782496556,231.813836409823125l-1.327972412109375,4.154777526855469c-1.46807861328125.574470520019531-2.936172485351562,1.148933410644531-4.404251098632812,1.723403930664062"/>
    <path class="cls-7" d="m509.268803261012181,239.415421798006719c-1.042556762695312-1.085105895996094-2.085098266601562-2.170211791992188-3.127655029296875-3.255317687988281l-1.148941040039062,4.085105895996094"/>
    <path class="cls-7" d="m512.874663584497284,231.840010143452673c.527938842773438,1.150848388671875,1.055877685546875,2.301704406738281,1.583816528320312,3.452552795410156-.744674682617188.89361572265625-1.489364624023438,1.7872314453125-2.234039306640625,2.68084716796875"/>
    <path class="cls-7" d="m517.777638794424092,239.090448653783824c-.957443237304688-1.45745849609375-1.914901733398438-2.914886474609375-2.872344970703125-4.372344970703125,1.18084716796875.04254150390625,2.361709594726562.085113525390625,3.542556762695312.127655029296875"/>
    <path class="cls-3" d="m514.171254517080342,227.345758712377574c-.00274658203125.686187744140625-.023529052734375,1.92193603515625-.803955078125,3.190673828125-.315750122070312.5133056640625-1.363067626953125,2.215911865234375-3.267715454101562,2.368011474609375-2.21435546875.176849365234375-3.623733520507812-1.89886474609375-3.724151611328125-2.05194091796875-1.580917358398438-2.409698486328125-.025543212890625-5.256622314453125.104324340820312-5.4854736328125.13885498046875-.24468994140625,1.254562377929688-2.14178466796875,3.478729248046875-2.68084716796875.6192626953125-.15008544921875,1.46246337890625-.35443115234375,2.297866821289062.03192138671875,1.929855346679688.892547607421875,1.91717529296875,4.058441162109375,1.914901733398438,4.627655029296875Z"/>
    <path class="cls-3" d="m506.61307599081465,220.920228096103529c-2.017250685072213-1.14324921581283-4.328444161186781-2.601803363173531-4.245679556137475-3.332129240625363.018188725192886-.160520081153663.146026526683272-.232927369434037.385978921600326-.360974361636181.672510397667793-.358863478093554,1.539132287889515-.788408364842326,2.576243949624768-1.221790014758881"/>
    <path class="cls-3" d="m518.02908837938503,217.240381515111949c-.028900146484375.82183837890625-.086944580078125,2.472381591796875-1.240814208984375,4.041534423828125-1.718353271484375,2.3367919921875-4.466140747070312,2.588134765625-4.85107421875,2.617034912109375-.570343017578125.042816162109375-3.467926025390625.186492919921875-5.297866821289062-1.978729248046875-1.42572021484375-1.68695068359375-1.31317138671875-3.72216796875-1.242156982421875-5.006072998046875.066452026367188-1.201446533203125.177459716796875-3.20855712890625,1.769927978515625-4.81817626953125,1.7041015625-1.722442626953125,3.931243896484375-1.8037109375,4.642440795898438-1.792755126953125.414474487304688.006378173828125,3.285415649414062.0975341796875,5.042556762695312,2.425506591796875,1.27618408203125,1.690765380859375,1.21038818359375,3.5618896484375,1.176986694335938,4.51165771484375Z"/>
    <path class="cls-9" d="m510.118062378408467,217.452142989721324c.130447387695312-1.591827392578125,1.456130981445312-2.477264404296875,2.324386596679688-2.2576904296875.7222900390625.182647705078125,1.348907470703125,1.1859130859375,1.218154907226562,2.385345458984375"/>
    <line class="cls-8" x1="501.256354731594001" y1="201.601079159928304" x2="504.660610050744253" y2="205.686185542908788"/>
    <line class="cls-8" x1="511.261341576972882" y1="205.345760010994127" x2="511.261341576972882" y2="200.750015330139831"/>
    <line class="cls-8" x1="523.396565746642409" y1="202.281930223757627" x2="520.35268334092234" y2="206.537249372693623"/>
  </g>
  <g>
    <path class="cls-10" d="m551.412855859579395,230.572694136873906c-.00848388671875,1.323455810546875-.016975402832031,2.646942138671875-.025459289550781,3.97039794921875,1.503547668457031,1.446807861328125,3.007087707519531,2.89361572265625,4.510635375976562,4.340423583984375"/>
    <path class="cls-10" d="m548.919310327352832,239.053742720858281c.794326782226562-1.333343505859375,1.588653564453125-2.666656494140625,2.382980346679688-4,.312057495117188,1.730499267578125.624114990234375,3.460968017578125.936172485351562,5.19146728515625"/>
    <path class="cls-10" d="m543.983145471395801,229.777131392733281c-.198585510253906,1.702117919921875-.397163391113281,3.404266357421875-.595748901367188,5.10638427734375.737586975097656,1.191497802734375,1.475181579589844,2.382965087890625,2.2127685546875,3.574462890625"/>
    <path class="cls-10" d="m541.272337671102832,239.075349166170781c.131980895996094-1.460968017578125.263954162597656-2.921966552734375.39593505859375-4.3829345703125-.7225341796875.339111328125-1.445098876953125.67822265625-2.167633056640625,1.017333984375"/>
    <path class="cls-5" d="m539.410668134612024,214.651527197016549c-.449403107464605,2.490676109358901-.228557842034206,4.447997890467377,0,6.473685018252581.252450458468957,2.237452957742789.378680235211505,3.356179436614184,1.014549434097717,4.467778394886409.191841247989942.335385808815772,1.927944060429581,3.262540817348054,5.377148380794097,4.011878636829351,4.372976364036731.950020027958089,8.773428782224073-2.192824216366716,10.530186384130502-5.417242607014487,1.352929637552734-2.483221638274699,1.026845900567423-4.81101101537206.773686030570389-6.618164438135864-.14881271035847-1.062327519990504-.966573205812892-6.899832282058924-5.317994373446709-8.66219348820232-.781535032470856-.316520765758469-1.637039859182551-.423793220303196-3.348040417582524-.638272739295644-3.095489913896017-.388057532156381-4.720724437662284-.591813075199752-6.087323889641993.091186490619293-1.986133995702403.992621676316048-2.411717246886838,3.35127517932051-2.942211548921478,6.291344732060679Z"/>
    <path class="cls-5" d="m532.825819541681085,201.072156790515692c-2.85288359477272-1.143249215809192-6.121473860301194-2.601803363169893-6.004424558632309-3.332129240625363.025723285703862-.160520081150025.206517060796614-.232927369434037.545868166762375-.360974361636181.951093433763162-.358863478093554,2.176707776972762-.788408364842326,3.643436165079038-1.221790014758881"/>
    <path class="cls-5" d="m531.573671045719493,195.793977095857372c.105255126953125,4.5111083984375,2.399154663085938,7.623382568359375,3.176589965820312,8.647918701172784.627510070800781.82696533203125,4.327865600585938,5.532257080078125,10.902641296386719,6.207183837890625,1.4766845703125.151580810546875,7.110443115234375.72991943359375,11.31915283203125-3.404266357421875,4.795066833496094-4.710144042969659,3.553665161132812-11.424804687500909,3.397224426269531-12.197906494141534-.860847473144531-4.254241943359375-3.536796569824219-6.8076171875-4.333396911621094-7.5467529296875-2.645713806152344-2.454803466796875-5.455581665039062-3.1861572265625-8.255317687988281-3.914886474609375-3.863052368164062-1.005462646484375-6.243827819824219-1.625152587890625-8.851066589355469-.680877685546875-4.86798095703125,1.7630615234375-7.472885131835938,7.87255859375-7.355827331542969,12.88958740234375Z"/>
    <circle class="cls-4" cx="547.323117021814141" cy="203.444583898485917" r="1.500000000103114"/>
  </g>
  <g>
    <path class="cls-2" d="m147.290205284950389,194.576085681218501c1.3916015625.708984375,2.466796875,1.724609375,3.2255859375,3.0498046875.7578125,1.3251953125,1.1376953125,2.87109375,1.1376953125,4.6376953125s-.3798828125,3.2998046875-1.1376953125,4.599609375c-.7587890625,1.30078125-1.833984375,2.296875-3.2255859375,2.98828125s-3.01171875,1.037109375-4.8623046875,1.037109375h-5.6748046875v-17.375h5.6748046875c1.8505859375,0,3.470703125.3544921875,4.8623046875,1.0625Zm-.1875,12.337890625c1.083984375-1.1005859375,1.625-2.650390625,1.625-4.650390625,0-2.0166015625-.541015625-3.591796875-1.625-4.724609375-1.0830078125-1.1337890625-2.6416015625-1.7001953125-4.6748046875-1.7001953125h-2.8251953125v12.724609375h2.8251953125c2.033203125,0,3.591796875-.5498046875,4.6748046875-1.6494140625Z"/>
    <path class="cls-2" d="m166.952314659950389,197.113195056218501v13.775390625h-2.849609375v-1.625c-.4501953125.56640625-1.037109375,1.0126953125-1.7626953125,1.337890625-.724609375.32421875-1.49609375.4873046875-2.3125.4873046875-1.0830078125,0-2.0537109375-.2255859375-2.912109375-.6748046875-.8583984375-.4501953125-1.5341796875-1.1171875-2.025390625-2-.4912109375-.8837890625-.7373046875-1.9501953125-.7373046875-3.2001953125v-8.1005859375h2.8251953125v7.67578125c0,1.2333984375.3076171875,2.1787109375.9248046875,2.8369140625.6162109375.6591796875,1.4580078125.9873046875,2.525390625.9873046875,1.06640625,0,1.912109375-.328125,2.537109375-.9873046875.625-.658203125.9375-1.603515625.9375-2.8369140625v-7.67578125h2.849609375Z"/>
    <path class="cls-2" d="m170.614424034950389,200.250890368718501c.5751953125-1.0751953125,1.37109375-1.9033203125,2.3876953125-2.4873046875,1.0166015625-.5830078125,2.18359375-.875,3.5-.875,1.6669921875,0,3.0458984375.396484375,4.1376953125,1.1875,1.091796875.7919921875,1.8291015625,1.9208984375,2.212890625,3.3876953125h-3.0751953125c-.25-.68359375-.650390625-1.216796875-1.2001953125-1.6005859375-.5498046875-.3828125-1.2421875-.57421875-2.0751953125-.57421875-1.1669921875,0-2.095703125.412109375-2.787109375,1.2373046875-.6923828125.8251953125-1.0380859375,1.9794921875-1.0380859375,3.4619140625,0,1.484375.345703125,2.642578125,1.0380859375,3.4755859375.69140625.8330078125,1.6201171875,1.25,2.787109375,1.25,1.650390625,0,2.7412109375-.7255859375,3.275390625-2.1748046875h3.0751953125c-.400390625,1.3994140625-1.150390625,2.51171875-2.25,3.3369140625-1.1005859375.8251953125-2.466796875,1.2373046875-4.1005859375,1.2373046875-1.31640625,0-2.4833984375-.294921875-3.5-.88671875s-1.8125-1.42578125-2.3876953125-2.5c-.57421875-1.0751953125-.8623046875-2.3212890625-.8623046875-3.73828125,0-1.416015625.2880859375-2.662109375.8623046875-3.7373046875Z"/>
    <path class="cls-2" d="m191.152509972450389,204.013585681218501l6.349609375,6.875h-3.849609375l-5.1005859375-5.9248046875v5.9248046875h-2.849609375v-18.5h2.849609375v10.75l5-6.025390625h3.9501953125l-6.349609375,6.900390625Z"/>
    <path class="cls-2" d="m216.526533409950389,207.338780993718501h-7.2744140625l-1.25,3.5498046875h-2.9755859375l6.2255859375-17.400390625h3.2998046875l6.224609375,17.400390625h-3l-1.25-3.5498046875Zm-.7998046875-2.3251953125l-2.8251953125-8.0751953125-2.849609375,8.0751953125h5.6748046875Z"/>
    <path class="cls-2" d="m223.388838097450389,200.263585681218501c.5751953125-1.06640625,1.3583984375-1.8955078125,2.3505859375-2.4873046875.9912109375-.591796875,2.095703125-.8876953125,3.3125-.8876953125.8994140625,0,1.787109375.1962890625,2.662109375.587890625s1.5712890625.912109375,2.087890625,1.5625v-6.650390625h2.875v18.5h-2.875v-2.0751953125c-.466796875.6669921875-1.1123046875,1.216796875-1.9375,1.650390625-.8251953125.4326171875-1.771484375.6494140625-2.837890625.6494140625-1.2001953125,0-2.2958984375-.3037109375-3.287109375-.912109375-.9921875-.6083984375-1.775390625-1.4580078125-2.3505859375-2.5498046875-.57421875-1.091796875-.8623046875-2.3291015625-.8623046875-3.712890625,0-1.3828125.2880859375-2.6083984375.8623046875-3.6748046875Zm9.8251953125,1.25c-.3916015625-.7001953125-.904296875-1.2333984375-1.537109375-1.599609375-.6337890625-.3671875-1.3173828125-.55078125-2.0498046875-.55078125-.734375,0-1.4169921875.1796875-2.05078125.5380859375-.6328125.3583984375-1.1455078125.8837890625-1.537109375,1.5751953125s-.587890625,1.51171875-.587890625,2.4619140625.1962890625,1.7841796875.587890625,2.5c.3916015625.716796875.908203125,1.2626953125,1.5498046875,1.6376953125s1.3212890625.5625,2.0380859375.5625c.732421875,0,1.416015625-.18359375,2.0498046875-.5498046875.6328125-.3662109375,1.1455078125-.904296875,1.537109375-1.6123046875.3916015625-.708984375.587890625-1.5380859375.587890625-2.48828125,0-.94921875-.1962890625-1.7744140625-.587890625-2.474609375Z"/>
    <path class="cls-2" d="m245.752119347450389,208.338780993718501l3.8994140625-11.2255859375h3.025390625l-5.25,13.775390625h-3.400390625l-5.224609375-13.775390625h3.0498046875l3.900390625,11.2255859375Z"/>
    <path class="cls-2" d="m267.351728722450389,205.063390368718501h-10.525390625c.0830078125,1.1005859375.4912109375,1.9833984375,1.224609375,2.650390625s1.6337890625,1,2.7001953125,1c1.533203125,0,2.6162109375-.6416015625,3.25-1.9248046875h3.0751953125c-.4169921875,1.2666015625-1.1708984375,2.3037109375-2.2626953125,3.1123046875s-2.4462890625,1.2119140625-4.0625,1.2119140625c-1.31640625,0-2.49609375-.294921875-3.537109375-.88671875-1.0419921875-.591796875-1.8583984375-1.42578125-2.4501953125-2.5-.591796875-1.0751953125-.8876953125-2.3212890625-.8876953125-3.73828125,0-1.416015625.2880859375-2.662109375.8623046875-3.7373046875.5751953125-1.0751953125,1.3837890625-1.9033203125,2.42578125-2.4873046875,1.041015625-.5830078125,2.2373046875-.875,3.5869140625-.875,1.2998046875,0,2.4580078125.283203125,3.4755859375.849609375,1.015625.5673828125,1.8076171875,1.36328125,2.375,2.3876953125.56640625,1.025390625.849609375,2.2041015625.849609375,3.5380859375,0,.5166015625-.033203125.9833984375-.099609375,1.3994140625Zm-2.875-2.2998046875c-.017578125-1.0498046875-.392578125-1.8916015625-1.125-2.525390625-.734375-.6328125-1.642578125-.94921875-2.7255859375-.94921875-.9833984375,0-1.8251953125.3125-2.5244140625.9375-.7001953125.625-1.1171875,1.470703125-1.25,2.537109375h7.625Z"/>
    <path class="cls-2" d="m280.113447472450389,197.563390368718501c.8583984375.4501953125,1.529296875,1.1171875,2.0126953125,2,.4833984375.8837890625.724609375,1.9501953125.724609375,3.2001953125v8.125h-2.82421875v-7.7001953125c0-1.2333984375-.30859375-2.1787109375-.92578125-2.8369140625-.6162109375-.658203125-1.4580078125-.98828125-2.5244140625-.98828125-1.0673828125,0-1.9130859375.330078125-2.5380859375.98828125s-.9375,1.603515625-.9375,2.8369140625v7.7001953125h-2.849609375v-13.775390625h2.849609375v1.5751953125c.466796875-.56640625,1.0625-1.0078125,1.7880859375-1.3251953125.724609375-.31640625,1.4951171875-.474609375,2.3125-.474609375,1.0830078125,0,2.0537109375.224609375,2.912109375.6748046875Z"/>
    <path class="cls-2" d="m289.800947472450389,199.438390368718501v7.625c0,.5166015625.1201171875.8876953125.3623046875,1.1123046875.2412109375.2255859375.654296875.337890625,1.2373046875.337890625h1.75v2.375h-2.25c-1.283203125,0-2.2666015625-.2998046875-2.9501953125-.900390625-.68359375-.599609375-1.0244140625-1.57421875-1.0244140625-2.9248046875v-7.625h-1.625v-2.3251953125h1.625v-3.4248046875h2.875v3.4248046875h3.349609375v2.3251953125h-3.349609375Z"/>
    <path class="cls-2" d="m308.250166222450389,197.113195056218501v13.775390625h-2.849609375v-1.625c-.4501953125.56640625-1.037109375,1.0126953125-1.7626953125,1.337890625-.724609375.32421875-1.49609375.4873046875-2.3125.4873046875-1.0830078125,0-2.0537109375-.2255859375-2.912109375-.6748046875-.8583984375-.4501953125-1.5341796875-1.1171875-2.025390625-2-.4912109375-.8837890625-.7373046875-1.9501953125-.7373046875-3.2001953125v-8.1005859375h2.8251953125v7.67578125c0,1.2333984375.3076171875,2.1787109375.9248046875,2.8369140625.6162109375.6591796875,1.4580078125.9873046875,2.525390625.9873046875,1.06640625,0,1.912109375-.328125,2.537109375-.9873046875.625-.658203125.9375-1.603515625.9375-2.8369140625v-7.67578125h2.849609375Z"/>
    <path class="cls-2" d="m316.512861534950389,197.476476306218501c.69140625-.3916015625,1.5126953125-.587890625,2.4619140625-.587890625v2.9501953125h-.724609375c-1.1171875,0-1.962890625.283203125-2.537109375.849609375-.5751953125.5673828125-.86328125,1.5498046875-.86328125,2.9501953125v7.25h-2.849609375v-13.775390625h2.849609375v2c.4169921875-.69921875.970703125-1.2451171875,1.6630859375-1.63671875Z"/>
    <path class="cls-2" d="m334.125166222450389,205.063390368718501h-10.525390625c.0830078125,1.1005859375.4912109375,1.9833984375,1.224609375,2.650390625s1.6337890625,1,2.7001953125,1c1.533203125,0,2.6162109375-.6416015625,3.25-1.9248046875h3.0751953125c-.4169921875,1.2666015625-1.1708984375,2.3037109375-2.2626953125,3.1123046875s-2.4462890625,1.2119140625-4.0625,1.2119140625c-1.31640625,0-2.49609375-.294921875-3.537109375-.88671875-1.0419921875-.591796875-1.8583984375-1.42578125-2.4501953125-2.5-.591796875-1.0751953125-.8876953125-2.3212890625-.8876953125-3.73828125,0-1.416015625.2880859375-2.662109375.8623046875-3.7373046875.5751953125-1.0751953125,1.3837890625-1.9033203125,2.42578125-2.4873046875,1.041015625-.5830078125,2.2373046875-.875,3.5869140625-.875,1.2998046875,0,2.4580078125.283203125,3.4755859375.849609375,1.015625.5673828125,1.8076171875,1.36328125,2.375,2.3876953125.56640625,1.025390625.849609375,2.2041015625.849609375,3.5380859375,0,.5166015625-.033203125.9833984375-.099609375,1.3994140625Zm-2.875-2.2998046875c-.017578125-1.0498046875-.392578125-1.8916015625-1.125-2.525390625-.734375-.6328125-1.642578125-.94921875-2.7255859375-.94921875-.9833984375,0-1.8251953125.3125-2.5244140625.9375-.7001953125.625-1.1171875,1.470703125-1.25,2.537109375h7.625Z"/>
    <path class="cls-2" d="m339.112470909950389,210.526280993718501c-.859375-.3916015625-1.5380859375-.9248046875-2.0380859375-1.6005859375-.5-.6748046875-.7666015625-1.4287109375-.7998046875-2.26171875h2.9501953125c.0498046875.5830078125.3291015625,1.0703125.8369140625,1.4619140625.5087890625.3916015625,1.146484375.587890625,1.9130859375.587890625.7998046875,0,1.4208984375-.154296875,1.8623046875-.462890625.44140625-.3076171875.662109375-.7041015625.662109375-1.1875,0-.5166015625-.24609375-.8994140625-.7373046875-1.1494140625s-1.2705078125-.525390625-2.3369140625-.8251953125c-1.0341796875-.283203125-1.875-.55859375-2.525390625-.8251953125s-1.212890625-.6748046875-1.6875-1.224609375c-.474609375-.55078125-.712890625-1.275390625-.712890625-2.17578125,0-.732421875.216796875-1.4033203125.650390625-2.01171875s1.0537109375-1.087890625,1.8623046875-1.4375c.80859375-.3505859375,1.7373046875-.525390625,2.7880859375-.525390625,1.56640625,0,2.828125.396484375,3.787109375,1.1875.9580078125.7919921875,1.470703125,1.87109375,1.537109375,3.2373046875h-2.849609375c-.0498046875-.6162109375-.2998046875-1.1083984375-.75-1.474609375s-1.05859375-.5498046875-1.8251953125-.5498046875c-.75,0-1.3251953125.1416015625-1.724609375.4248046875-.400390625.283203125-.6005859375.658203125-.6005859375,1.125,0,.3662109375.1337890625.6748046875.400390625.9248046875s.591796875.4462890625.974609375.587890625c.3837890625.1416015625.9501953125.3203125,1.7001953125.537109375,1,.2666015625,1.8212890625.537109375,2.462890625.8125s1.1953125.6796875,1.662109375,1.212890625.7080078125,1.2412109375.7255859375,2.125c0,.783203125-.216796875,1.4833984375-.650390625,2.099609375-.43359375.6171875-1.0458984375,1.099609375-1.837890625,1.4501953125-.791015625.349609375-1.720703125.5244140625-2.787109375.5244140625-1.083984375,0-2.0546875-.1953125-2.912109375-.5869140625Z"/>
  </g>
  <g>
    <path class="cls-2" d="m151.047529503700389,221.210363024968501l-3.02978515625,10.455078125h-1.5302734375l-2.4296875-8.4150390625-2.52001953125,8.4150390625-1.51513671875.01513671875-2.9248046875-10.47021484375h1.45458984375l2.2802734375,8.865234375,2.52001953125-8.865234375h1.52978515625l2.39990234375,8.8349609375,2.29541015625-8.8349609375h1.4697265625Z"/>
    <path class="cls-2" d="m160.002607628700389,228.065343493718501h-6.56982421875c.0498046875.81005859375.3271484375,1.44287109375.83251953125,1.8974609375.5048828125.455078125,1.11767578125.6826171875,1.83740234375.6826171875.58984375,0,1.08251953125-.13720703125,1.4775390625-.41259765625.39501953125-.27490234375.67236328125-.64208984375.83251953125-1.1025390625h1.47021484375c-.22021484375.7900390625-.66015625,1.4326171875-1.3203125,1.927734375s-1.47998046875.7421875-2.4599609375.7421875c-.77978515625,0-1.4775390625-.1748046875-2.09228515625-.52490234375-.615234375-.349609375-1.09765625-.84716796875-1.44775390625-1.4921875s-.52490234375-1.392578125-.52490234375-2.24267578125c0-.849609375.169921875-1.5947265625.509765625-2.23486328125s.81787109375-1.1328125,1.4326171875-1.4775390625c.615234375-.34521484375,1.322265625-.517578125,2.12255859375-.517578125.7802734375,0,1.47021484375.169921875,2.06982421875.509765625.60009765625.34033203125,1.0625.80810546875,1.3876953125,1.40283203125.32470703125.5947265625.4873046875,1.267578125.4873046875,2.017578125,0,.259765625-.0146484375.53466796875-.044921875.82470703125Zm-1.7099609375-2.45263671875c-.22998046875-.375-.54248046875-.65966796875-.9375-.85498046875-.39501953125-.19482421875-.83251953125-.29248046875-1.3125-.29248046875-.68994140625,0-1.27734375.22021484375-1.76220703125.66015625-.4853515625.4404296875-.7626953125,1.0498046875-.83251953125,1.830078125h5.18994140625c0-.52001953125-.115234375-.9677734375-.34521484375-1.3427734375Z"/>
    <path class="cls-2" d="m164.442549034950389,223.775304431218501c.5400390625-.3095703125,1.15478515625-.46484375,1.84521484375-.46484375.73974609375,0,1.40478515625.17529296875,1.99462890625.52490234375.58984375.35009765625,1.05517578125.8427734375,1.39501953125,1.4775390625.33984375.63525390625.51025390625,1.37255859375.51025390625,2.21240234375,0,.830078125-.17041015625,1.5703125-.51025390625,2.22021484375s-.8076171875,1.15478515625-1.40234375,1.51513671875c-.59521484375.35986328125-1.2578125.53955078125-1.9873046875.53955078125-.71044921875,0-1.3330078125-.15478515625-1.86767578125-.46484375-.53515625-.3095703125-.9375-.705078125-1.20751953125-1.18505859375v1.51513671875h-1.365234375v-11.10009765625h1.365234375v4.41015625c.27978515625-.48974609375.68994140625-.89013671875,1.22998046875-1.2001953125Zm3.97509765625,2.13037109375c-.25-.4599609375-.587890625-.81005859375-1.0126953125-1.05029296875-.42529296875-.23974609375-.892578125-.35986328125-1.40234375-.35986328125-.5,0-.96240234375.12255859375-1.3876953125.3671875-.4248046875.24560546875-.7646484375.60009765625-1.02001953125,1.0654296875-.2548828125.46484375-.38232421875,1.00244140625-.38232421875,1.6123046875,0,.6201171875.12744140625,1.16259765625.38232421875,1.62744140625.25537109375.46484375.59521484375.8203125,1.02001953125,1.06494140625.42529296875.2451171875.8876953125.36767578125,1.3876953125.36767578125.509765625,0,.97705078125-.12255859375,1.40234375-.36767578125.4248046875-.24462890625.7626953125-.60009765625,1.0126953125-1.06494140625.24951171875-.46484375.375-1.01220703125.375-1.642578125,0-.61962890625-.12548828125-1.15966796875-.375-1.61962890625Z"/>
    <path class="cls-2" d="m177.357588097450389,230.555577868718501h3.66015625v1.10986328125h-5.025390625v-10.455078125h1.365234375v9.34521484375Z"/>
    <path class="cls-2" d="m182.517256066200389,221.840245837468501c-.18017578125-.1796875-.27001953125-.3994140625-.27001953125-.65966796875s.08984375-.47998046875.27001953125-.66015625c.1796875-.18017578125.3994140625-.27001953125.65966796875-.27001953125.25,0,.46240234375.08984375.6376953125.27001953125.1748046875.18017578125.26220703125.39990234375.26220703125.66015625s-.08740234375.47998046875-.26220703125.65966796875c-.17529296875.18017578125-.3876953125.27001953125-.6376953125.27001953125-.26025390625,0-.47998046875-.08984375-.65966796875-.27001953125Zm1.31982421875,1.60498046875v8.22021484375h-1.365234375v-8.22021484375h1.365234375Z"/>
    <path class="cls-2" d="m188.757002159950389,223.775304431218501c.5400390625-.3095703125,1.15478515625-.46484375,1.84521484375-.46484375.73974609375,0,1.40478515625.17529296875,1.99462890625.52490234375.58984375.35009765625,1.05517578125.8427734375,1.39501953125,1.4775390625.33984375.63525390625.51025390625,1.37255859375.51025390625,2.21240234375,0,.830078125-.17041015625,1.5703125-.51025390625,2.22021484375s-.8076171875,1.15478515625-1.40234375,1.51513671875c-.59521484375.35986328125-1.2578125.53955078125-1.9873046875.53955078125-.71044921875,0-1.3330078125-.15478515625-1.86767578125-.46484375-.53515625-.3095703125-.9375-.705078125-1.20751953125-1.18505859375v1.51513671875h-1.365234375v-11.10009765625h1.365234375v4.41015625c.27978515625-.48974609375.68994140625-.89013671875,1.22998046875-1.2001953125Zm3.97509765625,2.13037109375c-.25-.4599609375-.587890625-.81005859375-1.0126953125-1.05029296875-.42529296875-.23974609375-.892578125-.35986328125-1.40234375-.35986328125-.5,0-.96240234375.12255859375-1.3876953125.3671875-.4248046875.24560546875-.7646484375.60009765625-1.02001953125,1.0654296875-.2548828125.46484375-.38232421875,1.00244140625-.38232421875,1.6123046875,0,.6201171875.12744140625,1.16259765625.38232421875,1.62744140625.25537109375.46484375.59521484375.8203125,1.02001953125,1.06494140625.42529296875.2451171875.8876953125.36767578125,1.3876953125.36767578125.509765625,0,.97705078125-.12255859375,1.40234375-.36767578125.4248046875-.24462890625.7626953125-.60009765625,1.0126953125-1.06494140625.24951171875-.46484375.375-1.01220703125.375-1.642578125,0-.61962890625-.12548828125-1.15966796875-.375-1.61962890625Z"/>
    <path class="cls-2" d="m198.694502159950389,223.685460681218501c.44482421875-.259765625.98779296875-.39013671875,1.62744140625-.39013671875v1.41015625h-.35986328125c-1.52978515625,0-2.294921875.830078125-2.294921875,2.48974609375v4.47021484375h-1.365234375v-8.22021484375h1.365234375v1.33544921875c.23974609375-.47021484375.58251953125-.8349609375,1.02734375-1.09521484375Z"/>
    <path class="cls-2" d="m201.896650597450389,225.312902087468501c.33984375-.634765625.8076171875-1.12744140625,1.40283203125-1.4775390625.5947265625-.349609375,1.25732421875-.52490234375,1.9873046875-.52490234375.72021484375,0,1.3447265625.1552734375,1.875.46484375.52978515625.31005859375.9248046875.7001953125,1.18505859375,1.169921875v-1.5h1.3798828125v8.22021484375h-1.3798828125v-1.52978515625c-.27001953125.47998046875-.6728515625.87744140625-1.20751953125,1.1923828125-.53515625.31494140625-1.15771484375.47216796875-1.86767578125.47216796875-.72998046875,0-1.3896484375-.1796875-1.97998046875-.53955078125-.58984375-.3603515625-1.05517578125-.865234375-1.39501953125-1.51513671875s-.509765625-1.39013671875-.509765625-2.22021484375c0-.83984375.169921875-1.5771484375.509765625-2.21240234375Zm6.0751953125.607421875c-.25-.4599609375-.58740234375-.81201171875-1.0126953125-1.0576171875-.4248046875-.24462890625-.89208984375-.3671875-1.40234375-.3671875-.509765625,0-.97509765625.1201171875-1.39501953125.35986328125-.419921875.240234375-.7548828125.59033203125-1.0048828125,1.05029296875s-.375,1-.375,1.61962890625c0,.63037109375.125,1.177734375.375,1.642578125s.5849609375.8203125,1.0048828125,1.06494140625c.419921875.2451171875.88525390625.36767578125,1.39501953125.36767578125.51025390625,0,.9775390625-.12255859375,1.40234375-.36767578125.42529296875-.24462890625.7626953125-.60009765625,1.0126953125-1.06494140625s.375-1.00732421875.375-1.62744140625-.125-1.16015625-.375-1.6201171875Z"/>
    <path class="cls-2" d="m214.428877159950389,223.685460681218501c.44482421875-.259765625.98779296875-.39013671875,1.62744140625-.39013671875v1.41015625h-.35986328125c-1.52978515625,0-2.294921875.830078125-2.294921875,2.48974609375v4.47021484375h-1.365234375v-8.22021484375h1.365234375v1.33544921875c.23974609375-.47021484375.58251953125-.8349609375,1.02734375-1.09521484375Z"/>
    <path class="cls-2" d="m224.711592003700389,223.445226306218501l-4.94970703125,12.09033203125h-1.41015625l1.6201171875-3.9599609375-3.31494140625-8.13037109375h1.5146484375l2.580078125,6.66015625,2.55029296875-6.66015625h1.40966796875Z"/>
  </g>
  <g>
    <path class="cls-5" d="m110.123842260950369,103.306330160893594c1.922509645555692-.605818298849044,4.125141838238051-1.378719587653904,4.046271631901618-1.76572600284635-.017334420517727-.085061070807569-.139174854331941-.123430360374186-.367856945773383-.191283641983318-.640916279349767-.19016506533444-1.466840915327339-.417784860710526-2.455233533211867-.647437792260462"/>
    <path class="cls-5" d="m111.568187237037819,99.353348057936273c-.04707210682318,1.656301814942708-.78305535720574,3.211150563805859-1.932947862776928,4.46930555322615-1.634158873658635,1.788015080051991-4.104265633025534,2.976815434158198-6.621011786101917,3.006022593042871-4.416485327217742.051250508713565-8.286781636552405-3.476416627567232-8.784414578782162-7.475328146269021-.291055050976865-2.338901561757666.504583594612996-5.377926579432824,2.741708751496844-6.885908603195276,1.726252206774006-1.163615187611867,3.682262871199782-.991938294810097,6.042705827285317-.784769457401126,1.868374756806588.1639805226514,3.4809120393802.305512126527901,5.100983885418827,1.412586430335068,1.78609253994091,1.220521895222191,3.529116361370143,3.578938750208181,3.452975763460017,6.258091630261333Z"/>
    <circle class="cls-6" cx="101.604032803513746" cy="99.333448712663085" r=".603289564213128"/>
  </g>
  <g>
    <path class="cls-2" d="m124.861494347450389,96.655187243718501c.556640625.283203125.9833984375.6884765625,1.2802734375,1.21484375.2958984375.5263671875.4443359375,1.146484375.4443359375,1.8603515625,0,.712890625-.1484375,1.3310546875-.4443359375,1.8544921875-.296875.5234375-.7236328125.923828125-1.2802734375,1.2001953125s-1.21484375.4150390625-1.974609375.4150390625h-2.1708984375v-6.9697265625h2.1708984375c.759765625,0,1.41796875.1416015625,1.974609375.4248046875Zm.0849609375,5.080078125c.4736328125-.4765625.7099609375-1.1455078125.7099609375-2.0048828125,0-.8671875-.23828125-1.5439453125-.71484375-2.0302734375s-1.162109375-.73046875-2.0546875-.73046875h-1.2607421875v5.48046875h1.2607421875c.8994140625,0,1.5859375-.23828125,2.0595703125-.71484375Z"/>
    <path class="cls-2" d="m132.646650597450389,97.719640368718501v5.48046875h-.91015625v-.8095703125c-.1728515625.279296875-.4150390625.498046875-.724609375.654296875-.310546875.1572265625-.6513671875.2353515625-1.025390625.2353515625-.4267578125,0-.8095703125-.087890625-1.1494140625-.2646484375s-.6083984375-.4423828125-.8056640625-.7958984375c-.1962890625-.3525390625-.294921875-.783203125-.294921875-1.2890625v-3.2109375h.900390625v3.0908203125c0,.5400390625.13671875.955078125.41015625,1.2451171875.2734375.2890625.646484375.4345703125,1.1201171875.4345703125.486328125,0,.869140625-.150390625,1.1494140625-.4501953125s.419921875-.736328125.419921875-1.3095703125v-3.0107421875h.91015625Z"/>
    <path class="cls-2" d="m134.185713097450389,98.964757556218501c.2265625-.4228515625.5419921875-.7509765625.9453125-.984375s.865234375-.3505859375,1.384765625-.3505859375c.673828125,0,1.228515625.1640625,1.6650390625.490234375.4365234375.3271484375.7255859375.7802734375.865234375,1.3603515625h-.9794921875c-.09375-.333984375-.275390625-.5966796875-.544921875-.7900390625-.2705078125-.193359375-.60546875-.2900390625-1.005859375-.2900390625-.51953125,0-.939453125.1787109375-1.259765625.53515625s-.4794921875.861328125-.4794921875,1.5146484375c0,.66015625.1591796875,1.169921875.4794921875,1.5302734375.3203125.359375.740234375.5400390625,1.259765625.5400390625.400390625,0,.7333984375-.09375,1-.2802734375s.4501953125-.453125.55078125-.7998046875h.9794921875c-.146484375.5595703125-.439453125,1.0078125-.8798828125,1.3447265625s-.990234375.5048828125-1.650390625.5048828125c-.51953125,0-.9814453125-.1162109375-1.384765625-.349609375s-.71875-.5634765625-.9453125-.990234375-.33984375-.9267578125-.33984375-1.5c0-.56640625.11328125-1.0615234375.33984375-1.4853515625Z"/>
    <path class="cls-2" d="m143.316572472450389,103.200109118718501l-2.150390625-2.419921875v2.419921875h-.91015625v-7.400390625h.91015625v4.3505859375l2.1103515625-2.4306640625h1.26953125l-2.5791015625,2.73046875,2.58984375,2.75h-1.240234375Z"/>
    <path class="cls-2" d="m152.195478722450389,101.650304431218501h-3.0400390625l-.5595703125,1.5498046875h-.9599609375l2.51953125-6.9296875h1.05078125l2.509765625,6.9296875h-.9599609375l-.560546875-1.5498046875Zm-.259765625-.740234375l-1.259765625-3.51953125-1.259765625,3.51953125h2.51953125Z"/>
    <path class="cls-2" d="m154.815595909950389,98.964757556218501c.2265625-.4228515625.5390625-.7509765625.935546875-.984375s.841796875-.3505859375,1.3349609375-.3505859375c.4267578125,0,.8232421875.0986328125,1.1904296875.294921875.3662109375.197265625.646484375.455078125.83984375.775390625v-2.900390625h.919921875v7.400390625h-.919921875v-1.0302734375c-.1806640625.3271484375-.447265625.595703125-.80078125.8056640625-.3525390625.2099609375-.7666015625.314453125-1.2392578125.314453125-.4873046875,0-.9287109375-.1201171875-1.3251953125-.359375-.396484375-.240234375-.708984375-.5771484375-.935546875-1.0107421875-.2265625-.4326171875-.33984375-.9267578125-.33984375-1.4794921875,0-.560546875.11328125-1.0517578125.33984375-1.4755859375Zm4.05078125.4052734375c-.1669921875-.306640625-.3916015625-.541015625-.67578125-.705078125-.283203125-.1630859375-.5947265625-.2451171875-.9345703125-.2451171875s-.650390625.080078125-.9296875.240234375c-.2802734375.16015625-.50390625.3935546875-.669921875.7001953125-.1669921875.306640625-.25.6669921875-.25,1.080078125,0,.419921875.0830078125.78515625.25,1.0947265625.166015625.3095703125.3896484375.546875.669921875.7099609375.279296875.1630859375.58984375.2451171875.9296875.2451171875s.6513671875-.08203125.9345703125-.2451171875c.2841796875-.1630859375.5087890625-.400390625.67578125-.7099609375.166015625-.3095703125.25-.671875.25-1.0849609375s-.083984375-.7734375-.25-1.080078125Z"/>
    <path class="cls-2" d="m163.615400597450389,102.360265368718501l1.7001953125-4.640625h.970703125l-2.150390625,5.48046875h-1.060546875l-2.1494140625-5.48046875h.9794921875l1.7099609375,4.640625Z"/>
    <path class="cls-2" d="m172.156416222450389,100.799718493718501h-4.3798828125c.033203125.5400390625.2177734375.9619140625.5546875,1.265625.3369140625.302734375.7451171875.455078125,1.224609375.455078125.3935546875,0,.7216796875-.091796875.9853515625-.275390625s.4482421875-.427734375.5546875-.7353515625h.98046875c-.146484375.52734375-.4404296875.955078125-.8798828125,1.28515625-.4404296875.330078125-.9873046875.4951171875-1.640625.4951171875-.51953125,0-.984375-.1162109375-1.39453125-.349609375s-.7314453125-.5654296875-.96484375-.9951171875-.3505859375-.9287109375-.3505859375-1.4951171875.11328125-1.0634765625.33984375-1.490234375.5458984375-.7548828125.955078125-.984375c.41015625-.23046875.8818359375-.345703125,1.4150390625-.345703125.5205078125,0,.98046875.11328125,1.3798828125.33984375.400390625.2275390625.708984375.5390625.92578125.935546875.2158203125.396484375.32421875.8447265625.32421875,1.3447265625,0,.173828125-.009765625.3564453125-.029296875.5498046875Zm-1.140625-1.634765625c-.1533203125-.25-.361328125-.439453125-.625-.5703125-.2626953125-.1298828125-.5546875-.1943359375-.875-.1943359375-.4599609375,0-.8515625.146484375-1.1748046875.439453125-.3232421875.2939453125-.5078125.7001953125-.5546875,1.220703125h3.4599609375c0-.3466796875-.0771484375-.6455078125-.23046875-.8955078125Z"/>
    <path class="cls-2" d="m177.675947472450389,98.225499743718501c.4140625.4033203125.6201171875.984375.6201171875,1.744140625v3.23046875h-.8994140625v-3.099609375c0-.546875-.13671875-.9658203125-.41015625-1.255859375-.2734375-.2890625-.646484375-.4345703125-1.1201171875-.4345703125-.48046875,0-.861328125.150390625-1.14453125.4501953125-.2841796875.2998046875-.42578125.736328125-.42578125,1.3095703125v3.0302734375h-.91015625v-5.48046875h.91015625v.7802734375c.1806640625-.2802734375.42578125-.49609375.7353515625-.6494140625s.6513671875-.23046875,1.025390625-.23046875c.666015625,0,1.2060546875.2021484375,1.619140625.60546875Z"/>
    <path class="cls-2" d="m180.895674034950389,98.469640368718501v3.23046875c0,.2666015625.056640625.455078125.169921875.5654296875.11328125.109375.310546875.1650390625.58984375.1650390625h.669921875v.76953125h-.8193359375c-.5068359375,0-.88671875-.1162109375-1.140625-.349609375-.2529296875-.2333984375-.3798828125-.6171875-.3798828125-1.150390625v-3.23046875h-.7099609375v-.75h.7099609375v-1.3798828125h.91015625v1.3798828125h1.4296875v.75h-1.4296875Z"/>
    <path class="cls-2" d="m188.286299034950389,97.719640368718501v5.48046875h-.91015625v-.8095703125c-.1728515625.279296875-.4150390625.498046875-.724609375.654296875-.310546875.1572265625-.6513671875.2353515625-1.025390625.2353515625-.4267578125,0-.8095703125-.087890625-1.1494140625-.2646484375s-.6083984375-.4423828125-.8056640625-.7958984375c-.1962890625-.3525390625-.294921875-.783203125-.294921875-1.2890625v-3.2109375h.900390625v3.0908203125c0,.5400390625.13671875.955078125.41015625,1.2451171875.2734375.2890625.646484375.4345703125,1.1201171875.4345703125.486328125,0,.869140625-.150390625,1.1494140625-.4501953125s.419921875-.736328125.419921875-1.3095703125v-3.0107421875h.91015625Z"/>
    <path class="cls-2" d="m191.421064659950389,97.879796618718501c.2958984375-.1728515625.658203125-.259765625,1.0849609375-.259765625v.9404296875h-.240234375c-1.01953125,0-1.5302734375.552734375-1.5302734375,1.6591796875v2.98046875h-.91015625v-5.48046875h.91015625v.890625c.16015625-.3134765625.388671875-.556640625.685546875-.73046875Z"/>
    <path class="cls-2" d="m198.525556847450389,100.799718493718501h-4.3798828125c.033203125.5400390625.2177734375.9619140625.5546875,1.265625.3369140625.302734375.7451171875.455078125,1.224609375.455078125.3935546875,0,.7216796875-.091796875.9853515625-.275390625s.4482421875-.427734375.5546875-.7353515625h.98046875c-.146484375.52734375-.4404296875.955078125-.8798828125,1.28515625-.4404296875.330078125-.9873046875.4951171875-1.640625.4951171875-.51953125,0-.984375-.1162109375-1.39453125-.349609375s-.7314453125-.5654296875-.96484375-.9951171875-.3505859375-.9287109375-.3505859375-1.4951171875.11328125-1.0634765625.33984375-1.490234375.5458984375-.7548828125.955078125-.984375c.41015625-.23046875.8818359375-.345703125,1.4150390625-.345703125.5205078125,0,.98046875.11328125,1.3798828125.33984375.400390625.2275390625.708984375.5390625.92578125.935546875.2158203125.396484375.32421875.8447265625.32421875,1.3447265625,0,.173828125-.009765625.3564453125-.029296875.5498046875Zm-1.140625-1.634765625c-.1533203125-.25-.361328125-.439453125-.625-.5703125-.2626953125-.1298828125-.5546875-.1943359375-.875-.1943359375-.4599609375,0-.8515625.146484375-1.1748046875.439453125-.3232421875.2939453125-.5078125.7001953125-.5546875,1.220703125h3.4599609375c0-.3466796875-.0771484375-.6455078125-.23046875-.8955078125Z"/>
    <path class="cls-2" d="m200.565595909950389,103.075109118718501c-.333984375-.1435546875-.5966796875-.34375-.7900390625-.599609375-.193359375-.2568359375-.2998046875-.5517578125-.3203125-.8857421875h.9404296875c.0263671875.2734375.1552734375.4970703125.384765625.669921875.23046875.173828125.53125.2607421875.9052734375.2607421875.3466796875,0,.6201171875-.0771484375.8193359375-.23046875.2001953125-.1533203125.30078125-.3466796875.30078125-.580078125,0-.240234375-.107421875-.41796875-.3203125-.53515625-.2138671875-.1162109375-.54296875-.2314453125-.990234375-.3447265625-.40625-.1064453125-.73828125-.21484375-.9951171875-.3251953125-.2568359375-.109375-.4765625-.2734375-.6591796875-.4892578125-.18359375-.216796875-.275390625-.501953125-.275390625-.85546875,0-.2802734375.0830078125-.5361328125.25-.76953125.166015625-.2333984375.4033203125-.4189453125.7099609375-.5556640625s.65625-.205078125,1.0498046875-.205078125c.6064453125,0,1.0966796875.1533203125,1.4697265625.4599609375.3740234375.306640625.5732421875.7275390625.6005859375,1.2607421875h-.91015625c-.01953125-.287109375-.134765625-.5166015625-.3447265625-.6904296875-.2099609375-.1728515625-.4921875-.259765625-.845703125-.259765625-.326171875,0-.5859375.0693359375-.779296875.2099609375-.193359375.1396484375-.2900390625.3232421875-.2900390625.5498046875,0,.1796875.0576171875.328125.1748046875.4453125.1162109375.1162109375.263671875.2099609375.4404296875.279296875.17578125.0703125.4208984375.1484375.734375.2353515625.3935546875.1064453125.7138671875.2119140625.9599609375.3154296875.2470703125.103515625.4580078125.2578125.634765625.46484375.1767578125.2060546875.2685546875.4765625.275390625.8095703125,0,.2998046875-.0830078125.5703125-.25.810546875-.1669921875.2392578125-.4013671875.427734375-.705078125.564453125s-.6513671875.205078125-1.044921875.205078125c-.419921875,0-.796875-.0712890625-1.1298828125-.21484375Z"/>
  </g>
  <g>
    <path class="cls-2" d="m570.007002159950389,100.261632556218501h-2.431640625l-.4482421875,1.240234375h-.7685546875l2.0166015625-5.5439453125h.83984375l2.0078125,5.5439453125h-.767578125l-.4482421875-1.240234375Zm-.2080078125-.591796875l-1.0078125-2.81640625-1.0078125,2.81640625h2.015625Z"/>
    <path class="cls-2" d="m573.486494347450389,97.293859118718501c.2880859375-.1650390625.6162109375-.248046875.984375-.248046875.39453125,0,.7490234375.09375,1.0634765625.2802734375s.5625.44921875.744140625.7880859375.2724609375.7314453125.2724609375,1.1796875c0,.4423828125-.0908203125.8369140625-.2724609375,1.18359375s-.4306640625.6162109375-.748046875.80859375c-.3173828125.19140625-.6708984375.2880859375-1.0595703125.2880859375-.37890625,0-.7109375-.0830078125-.99609375-.248046875-.2861328125-.1650390625-.5-.3759765625-.64453125-.6318359375v.8076171875h-.7275390625v-5.919921875h.7275390625v2.3515625c.1494140625-.2607421875.3681640625-.474609375.65625-.6396484375Zm2.1201171875,1.1357421875c-.1337890625-.2451171875-.3134765625-.431640625-.5400390625-.5595703125s-.4765625-.1923828125-.748046875-.1923828125c-.2666015625,0-.513671875.0654296875-.740234375.1962890625s-.408203125.3203125-.5439453125.568359375-.2041015625.5341796875-.2041015625.859375c0,.3310546875.068359375.6201171875.2041015625.8681640625s.3173828125.4375.5439453125.568359375.4736328125.1953125.740234375.1953125c.271484375,0,.521484375-.064453125.748046875-.1953125s.40625-.3203125.5400390625-.568359375c.1328125-.248046875.2001953125-.5400390625.2001953125-.8759765625,0-.3310546875-.0673828125-.6181640625-.2001953125-.8642578125Z"/>
    <path class="cls-2" d="m578.306806847450389,101.293859118718501c-.3330078125-.1865234375-.5947265625-.4521484375-.7841796875-.7958984375s-.2841796875-.7431640625-.2841796875-1.1962890625c0-.4482421875.09765625-.84375.2919921875-1.1875.1953125-.3447265625.4599609375-.6083984375.7958984375-.7919921875.3359375-.1845703125.7119140625-.2763671875,1.1279296875-.2763671875s.7919921875.091796875,1.12890625.2763671875c.3359375.18359375.6005859375.4462890625.7958984375.7880859375.1943359375.3408203125.2919921875.73828125.2919921875,1.19140625s-.1005859375.8525390625-.30078125,1.1962890625c-.19921875.34375-.470703125.609375-.8115234375.7958984375-.341796875.1865234375-.7197265625.2802734375-1.1357421875.2802734375-.4111328125,0-.783203125-.09375-1.1162109375-.2802734375Zm1.8515625-.5439453125c.2294921875-.123046875.4150390625-.306640625.556640625-.5517578125.140625-.2451171875.2119140625-.5439453125.2119140625-.896484375,0-.3515625-.0693359375-.650390625-.2080078125-.8955078125s-.3203125-.4287109375-.5439453125-.5478515625c-.224609375-.1201171875-.466796875-.1806640625-.728515625-.1806640625-.2666015625,0-.5107421875.060546875-.7314453125.1806640625-.2216796875.119140625-.3994140625.302734375-.5322265625.5478515625-.1337890625.2451171875-.2001953125.5439453125-.2001953125.8955078125,0,.357421875.0654296875.6591796875.1962890625.904296875s.3046875.427734375.5234375.5478515625.458984375.1796875.720703125.1796875c.2607421875,0,.505859375-.060546875.7353515625-.18359375Z"/>
    <path class="cls-2" d="m586.518720909950389,97.118077868718501v4.3837890625h-.7275390625v-.6484375c-.138671875.224609375-.33203125.3994140625-.580078125.5244140625s-.521484375.1884765625-.8203125.1884765625c-.341796875,0-.6484375-.0712890625-.919921875-.212890625-.2724609375-.140625-.486328125-.3525390625-.64453125-.6357421875-.1572265625-.2822265625-.2353515625-.6259765625-.2353515625-1.0322265625v-2.5673828125h.7197265625v2.4716796875c0,.431640625.109375.763671875.328125.99609375s.517578125.34765625.8955078125.34765625c.3896484375,0,.6962890625-.1201171875.9208984375-.359375.2236328125-.240234375.3359375-.58984375.3359375-1.0478515625v-2.408203125h.7275390625Z"/>
    <path class="cls-2" d="m588.638838097450389,97.717687243718501v2.583984375c0,.2138671875.044921875.3642578125.1357421875.4521484375s.248046875.1318359375.47265625.1318359375h.5361328125v.6162109375h-.65625c-.4052734375,0-.7099609375-.0927734375-.912109375-.2802734375-.203125-.1865234375-.3037109375-.4931640625-.3037109375-.919921875v-2.583984375h-.568359375v-.599609375h.568359375v-1.1044921875h.7275390625v1.1044921875h1.14453125v.599609375h-1.14453125Z"/>
    <path class="cls-2" d="m593.510908409950389,95.925695056218501v3.5283203125c0,.49609375.12109375.8642578125.3642578125,1.103515625.2421875.240234375.580078125.3603515625,1.01171875.3603515625.4267578125,0,.7607421875-.1201171875,1.00390625-.3603515625.2421875-.2392578125.3642578125-.607421875.3642578125-1.103515625v-3.5283203125h.7275390625v3.5205078125c0,.4638671875-.0927734375.8544921875-.2802734375,1.171875-.1865234375.3173828125-.4384765625.552734375-.755859375.7080078125-.3173828125.154296875-.6728515625.2314453125-1.0673828125.2314453125-.3955078125,0-.7509765625-.0771484375-1.068359375-.2314453125-.3173828125-.1552734375-.568359375-.390625-.751953125-.7080078125s-.2763671875-.7080078125-.2763671875-1.171875v-3.5205078125h.728515625Z"/>
    <path class="cls-2" d="m598.845869347450389,101.402257556218501c-.2666015625-.115234375-.4765625-.275390625-.6318359375-.48046875-.154296875-.205078125-.240234375-.44140625-.255859375-.7080078125h.751953125c.021484375.21875.1240234375.3974609375.3076171875.5361328125.1845703125.138671875.42578125.2080078125.724609375.2080078125.27734375,0,.49609375-.0615234375.65625-.18359375.1591796875-.123046875.2392578125-.27734375.2392578125-.46484375,0-.19140625-.0849609375-.333984375-.255859375-.427734375-.1708984375-.0927734375-.4345703125-.185546875-.7919921875-.2763671875-.3251953125-.0849609375-.5908203125-.171875-.7958984375-.259765625s-.380859375-.21875-.5283203125-.3916015625c-.146484375-.173828125-.2197265625-.4013671875-.2197265625-.6845703125,0-.2236328125.06640625-.4287109375.2001953125-.615234375.1328125-.1865234375.322265625-.3349609375.568359375-.4443359375.2451171875-.109375.5244140625-.1640625.83984375-.1640625.4853515625,0,.876953125.123046875,1.17578125.3681640625s.458984375.5810546875.4794921875,1.0078125h-.7275390625c-.015625-.2294921875-.1083984375-.4130859375-.2763671875-.5517578125s-.392578125-.2080078125-.67578125-.2080078125c-.2607421875,0-.46875.0556640625-.6240234375.16796875-.154296875.1123046875-.2314453125.2587890625-.2314453125.439453125,0,.14453125.0458984375.2626953125.1396484375.3564453125.0927734375.09375.2109375.16796875.3515625.2236328125.1416015625.056640625.337890625.119140625.5888671875.1884765625.314453125.0849609375.5703125.1689453125.767578125.251953125s.3662109375.20703125.5078125.3720703125.21484375.380859375.2197265625.6474609375c0,.240234375-.06640625.4560546875-.19921875.6484375-.1337890625.1923828125-.3212890625.3427734375-.564453125.4521484375-.2421875.109375-.521484375.1640625-.8359375.1640625-.3359375,0-.6376953125-.0576171875-.904296875-.171875Z"/>
  </g>
  <g>
    <path class="cls-2" d="m522.949384972450389,95.965245837468501v5.5361328125h-.728515625v-4.1279296875l-1.83984375,4.1279296875h-.51171875l-1.8486328125-4.1357421875v4.1357421875h-.7275390625v-5.5361328125h.7841796875l2.0478515625,4.576171875,2.0478515625-4.576171875h.7763671875Z"/>
    <path class="cls-2" d="m524.976728722450389,101.293370837468501c-.3330078125-.1865234375-.5947265625-.4521484375-.7841796875-.7958984375s-.2841796875-.7431640625-.2841796875-1.1962890625c0-.4482421875.09765625-.84375.2919921875-1.1875.1953125-.3447265625.4599609375-.6083984375.7958984375-.7919921875.3359375-.1845703125.7119140625-.2763671875,1.1279296875-.2763671875s.7919921875.091796875,1.12890625.2763671875c.3359375.18359375.6005859375.4462890625.7958984375.7880859375.1943359375.3408203125.2919921875.73828125.2919921875,1.19140625s-.1005859375.8525390625-.30078125,1.1962890625c-.19921875.34375-.470703125.609375-.8115234375.7958984375-.341796875.1865234375-.7197265625.2802734375-1.1357421875.2802734375-.4111328125,0-.783203125-.09375-1.1162109375-.2802734375Zm1.8515625-.5439453125c.2294921875-.123046875.4150390625-.306640625.556640625-.5517578125.140625-.2451171875.2119140625-.5439453125.2119140625-.896484375,0-.3515625-.0693359375-.650390625-.2080078125-.8955078125s-.3203125-.4287109375-.5439453125-.5478515625c-.224609375-.1201171875-.466796875-.1806640625-.728515625-.1806640625-.2666015625,0-.5107421875.060546875-.7314453125.1806640625-.2216796875.119140625-.3994140625.302734375-.5322265625.5478515625-.1337890625.2451171875-.2001953125.5439453125-.2001953125.8955078125,0,.357421875.0654296875.6591796875.1962890625.904296875s.3046875.427734375.5234375.5478515625.458984375.1796875.720703125.1796875c.2607421875,0,.505859375-.060546875.7353515625-.18359375Z"/>
    <path class="cls-2" d="m530.576338097450389,97.245519274968501c.2373046875-.138671875.52734375-.2080078125.8681640625-.2080078125v.751953125h-.19140625c-.81640625,0-1.224609375.4423828125-1.224609375,1.328125v2.3837890625h-.7275390625v-4.3837890625h.7275390625v.7119140625c.1279296875-.2509765625.310546875-.4453125.5478515625-.583984375Z"/>
    <path class="cls-2" d="m536.260908409950389,99.581456774968501h-3.50390625c.0263671875.431640625.1748046875.76953125.4443359375,1.01171875.2685546875.2431640625.595703125.3642578125.9794921875.3642578125.314453125,0,.5771484375-.0732421875.7880859375-.2197265625s.3583984375-.3427734375.4443359375-.587890625h.7841796875c-.1181640625.4208984375-.3525390625.763671875-.7041015625,1.02734375-.3525390625.2646484375-.7900390625.396484375-1.3125.396484375-.416015625,0-.7880859375-.09375-1.115234375-.2802734375-.328125-.1865234375-.5859375-.4521484375-.7724609375-.7958984375s-.2802734375-.7431640625-.2802734375-1.1962890625.0908203125-.8505859375.2724609375-1.19140625c.1806640625-.341796875.435546875-.6044921875.763671875-.7880859375.328125-.1845703125.705078125-.2763671875,1.1318359375-.2763671875.416015625,0,.7841796875.0908203125,1.1044921875.2724609375.3193359375.1806640625.56640625.4306640625.740234375.748046875.1728515625.3173828125.259765625.67578125.259765625,1.0751953125,0,.138671875-.0078125.2861328125-.0244140625.4404296875Zm-.912109375-1.3076171875c-.1220703125-.2001953125-.2890625-.3525390625-.5-.4560546875-.2099609375-.1044921875-.443359375-.15625-.69921875-.15625-.3681640625,0-.681640625.1171875-.9404296875.3515625-.2587890625.2353515625-.4072265625.560546875-.4443359375.9765625h2.7685546875c0-.27734375-.0615234375-.5166015625-.1845703125-.7158203125Z"/>
  </g>
  <g>
    <rect class="cls-2" x="345.25128212274376" y="252.85469850795198" width="346.39313692734504" height="227.489361702128917" rx="12.687528569646929" ry="12.687528569646929"/>
    <rect class="cls-11" x="464.083358996053903" y="268.621747961573419" width="108.72898316514511" height="18.89361701264454" rx="9.446799054954489" ry="9.446799054954489"/>
    <g>
      <g>
        <rect class="cls-1" x="374.018920192108453" y="311.70703395621149" width="132.875130224643726" height="146.55319134593077" rx="9.446799054191032" ry="9.446799054191032"/>
        <g>
          <rect class="cls-11" x="389.956483267008707" y="325.121927783778801" width="25.000000025489555" height="24.999999948732864" rx="12.499987489521118" ry="12.499987489521118"/>
          <rect class="cls-11" x="389.956483283581349" y="355.418534477704213" width="53.549964726832627" height="7.999999944615524" rx="3.999996014481321" ry="3.999996014481321"/>
          <rect class="cls-11" x="389.956483283589932" y="382.119735975236495" width="97.735930932798055" height="8.00000002463554" rx="3.999996042544076" ry="3.999996042544076"/>
          <rect class="cls-11" x="389.95648328358152" y="395.65122856595508" width="93.627659568632168" height="7.999999995163819" rx="3.999995994154687" ry="3.999995994154687"/>
          <rect class="cls-11" x="389.956483283583566" y="409.126149164945446" width="101.000004053559906" height="7.999999946823834" rx="3.999995991544885" ry="3.999995991544885"/>
          <rect class="cls-11" x="389.956483283578336" y="422.600241796993487" width="90.223404244182348" height="7.99999995652621" rx="3.999995961936301" ry="3.999995961936301"/>
          <rect class="cls-11" x="389.956483283591524" y="436.017722260502183" width="45.111702315350385" height="7.999999996835186" rx="3.999995992596759" ry="3.999995992596759"/>
        </g>
      </g>
      <g>
        <rect class="cls-1" x="530.001650754747061" y="311.70703395621149" width="132.875130224643726" height="146.55319134593077" rx="9.446799054191001" ry="9.446799054191001"/>
        <g>
          <rect class="cls-11" x="543.939215869472946" y="325.121927783778801" width="24.999999995687176" height="24.999999948732864" rx="12.499987474620001" ry="12.499987474620001"/>
          <rect class="cls-11" x="543.939215874213232" y="355.418534477704156" width="53.549964726839335" height="7.999999944615581" rx="3.999996017706443" ry="3.999996017706443"/>
          <rect class="cls-11" x="543.93921587422642" y="382.119737641814936" width="105.000000002148226" height="8.00000000491633" rx="3.999996050380156" ry="3.999996050380156"/>
          <rect class="cls-11" x="543.939215874219713" y="395.651647412402781" width="76.538023823395747" height="8.000000008426071" rx="3.999996022584026" ry="3.999996022584026"/>
          <rect class="cls-11" x="543.939215874215051" y="409.126151945281777" width="105.000000002162551" height="8.000000022540291" rx="3.9999960443593" ry="3.9999960443593"/>
          <rect class="cls-11" x="543.93921587420823" y="422.600646584809056" width="86.069938667567271" height="7.999999938422945" rx="3.999995996112602" ry="3.999995996112602"/>
          <rect class="cls-11" x="543.939215874232559" y="436.017721013728533" width="51.006109064231623" height="8.000000021581172" rx="3.999995979604978" ry="3.999995979604978"/>
        </g>
      </g>
    </g>
  </g>
</svg>