<?xml version="1.0" encoding="UTF-8"?>
<svg id="svg38" xmlns="http://www.w3.org/2000/svg" viewBox="0 0 543 1928">
  <defs>
    <style>
      .cls-1 {
        fill: #14191f;
      }

      .cls-2 {
        fill: #1f2428;
      }
    </style>
  </defs>
  <g id="g36">
    <g id="use24">
      <path id="p0" class="cls-1" d="m0,0h543v276.81c-7.82-12.58-14.89-25.64-22.42-38.4-18.65-32.34-37.24-64.72-55.97-97.02-8.53-14.88-21.79-26.72-37.54-33.51-19.26-8.41-41.69-8.87-61.22-1.07-8.86,3.5-17.16,8.9-25.42,13.63C226.97,185.94,113.46,251.76,0,317.18V0Z"/>
    </g>
    <g id="use26">
      <path id="p1" class="cls-2" d="m427.07,107.88c15.75,6.79,29.01,18.63,37.54,33.51,18.73,32.3,37.32,64.68,55.97,97.02,7.53,12.76,14.6,25.82,22.42,38.4v162.9c-1.97.76-3.93,1.51-5.82,2.46-173.82,100.51-347.66,201.01-521.48,301.52-5.17,3.11-10.36,6.02-15.7,8.81v-435.32c113.46-65.42,226.97-131.24,340.43-196.74,8.26-4.73,16.56-10.13,25.42-13.63,19.53-7.8,41.96-7.34,61.22,1.07Z"/>
    </g>
    <g id="use28">
      <path id="p2" class="cls-1" d="m543,439.71v112.19c-82.14,47.33-164.48,95.06-246.6,142.51-15.64,8.72-28.06,22.44-35,38.97-9.85,22.75-8.2,49.69,4.07,71.18,51.22,88.78,102.38,177.6,153.6,266.38,7.09,11.75,12.95,24.72,22.63,34.36,10.9,11.36,25.06,19.17,40.43,22.54,20.86,4.8,42.83.41,60.87-10.87v113c-139.61,80.71-279.25,161.42-418.83,242.18-15.01,8.3-27.05,21.24-34.14,36.87-10.28,21.98-9.73,48.87,1.58,70.36,2.48,4.77,5.29,9.38,7.93,14.06,50.49,87.52,100.95,175.06,151.4,262.6,3.38,5.62,6.41,11.52,10.09,16.94,10.32,14.8,25.55,25.96,42.86,31.13,10.49,3.35,21.22,3.7,32.12,2.86,12.73-1.25,24.5-5.97,35.33-12.64,57.22-33.09,114.44-66.17,171.66-99.25v132.92H0v-497.09c104.72-60.58,209.48-121.11,314.21-181.69,14.33-8.03,26.58-20.54,33.57-35.48,11.1-22.39,10.69-49.58-.76-71.77-3.93-7.31-8.19-14.45-12.34-21.63-50.11-86.9-100.19-173.81-150.31-260.7-3-5.29-5.93-10.49-9.77-15.24-10.49-13.28-25.08-23.19-41.43-27.66-20.32-5.71-42.74-3.09-61.09,7.38-15.65,8.98-31.23,18.09-46.88,27.07-8.36,4.85-16.65,9.84-25.2,14.34v-113.03c5.34-2.79,10.53-5.7,15.7-8.81,173.82-100.51,347.66-201.01,521.48-301.52,1.89-.95,3.85-1.7,5.82-2.46Z"/>
    </g>
    <g id="use30">
      <path id="p3" class="cls-2" d="m543,551.9v565.07c-18.04,11.28-40.01,15.67-60.87,10.87-15.37-3.37-29.53-11.18-40.43-22.54-9.68-9.64-15.54-22.61-22.63-34.36-51.22-88.78-102.38-177.6-153.6-266.38-12.27-21.49-13.92-48.43-4.07-71.18,6.94-16.53,19.36-30.25,35-38.97,82.12-47.45,164.46-95.18,246.6-142.51Z"/>
    </g>
    <g id="use32">
      <path id="p4" class="cls-2" d="m133.17,816.74c16.35,4.47,30.94,14.38,41.43,27.66,3.84,4.75,6.77,9.95,9.77,15.24,50.12,86.89,100.2,173.8,150.31,260.7,4.15,7.18,8.41,14.32,12.34,21.63,11.45,22.19,11.86,49.38.76,71.77-6.99,14.94-19.24,27.45-33.57,35.48-104.73,60.58-209.49,121.11-314.21,181.69v-565.38c8.55-4.5,16.84-9.49,25.2-14.34,15.65-8.98,31.23-18.09,46.88-27.07,18.35-10.47,40.77-13.09,61.09-7.38Z"/>
    </g>
    <g id="use34">
      <path id="p5" class="cls-2" d="m543,1229.97v565.11c-57.22,33.08-114.44,66.16-171.66,99.25-10.83,6.67-22.6,11.39-35.33,12.64-10.9.84-21.63.49-32.12-2.86-17.31-5.17-32.54-16.33-42.86-31.13-3.68-5.42-6.71-11.32-10.09-16.94-50.45-87.54-100.91-175.08-151.4-262.6-2.64-4.68-5.45-9.29-7.93-14.06-11.31-21.49-11.86-48.38-1.58-70.36,7.09-15.63,19.13-28.57,34.14-36.87,139.58-80.76,279.22-161.47,418.83-242.18Z"/>
    </g>
  </g>
</svg>