<?xml version="1.0" encoding="UTF-8"?>
<svg id="Layer_1" data-name="Layer 1" xmlns="http://www.w3.org/2000/svg" viewBox="0 0 330.000000160844138 329.999999650239261">
  <defs>
    <style>
      .cls-1 {
        fill: #ffea00;
      }
    </style>
  </defs>
  <path class="cls-1" d="m.000000147549144-.000000001693877h280.000049998280133C307.59577377582508-.000000001693877,330.000000147726382,22.404226370207404,330.000000147726382,49.999950000203206v.000099994268339c0,27.595723628388008-22.40422637059595,49.999949998983958-49.999949998983936,49.999949998983958H49.999950142182968C22.404226516195866,99.999999993455503.000000147549144,77.595773624808785.000000147549144,50.00004999882168V-.000000001693877H.000000147549144Z"/>
  <path class="cls-1" d="m.000000000825793,114.999999178832681h100.000049959383844c27.595723650782062,0,49.999950039559153,22.404226388777076,49.999950039559153,49.999950039559153v.00009998545724c0,27.595723635187909-22.404226376116611,49.99995001130452-49.99995001130452,49.99995001130452h-50.000100000387647C22.404226366164306,214.999999215153593.000000000825793,192.595772849815091.000000000825793,165.000049227902764v-50.000050049070083H.000000000825793Z"/>
  <path class="cls-1" d="m49.999950100608729,229.999999548656348h280.000050060235424v50.000050075608925c0,27.595723638020786-22.404226378416581,49.999950016437367-49.999950016437367,49.999950016437367H49.999950072470149C22.404226419417814,329.99999964070264.000000028797558,307.595773250082402.000000028797558,280.000049597030056v-.000099976562524C.000000028797558,252.40422595188511,22.404226432026292,229.999999548656348,49.999950100608729,229.999999548656348Z"/>
</svg>