<?xml version="1.0" encoding="UTF-8"?>
<svg id="Layer_1" data-name="Layer 1" xmlns="http://www.w3.org/2000/svg" viewBox="0 0 330 330">
  <defs>
    <style>
      .cls-1 {
        fill: #00c79a
      }
    </style>
  </defs>
  <rect class="cls-1" width="100" height="100.000000000000909" rx="19.999999999999819" ry="19.999999999999819" transform="translate(100 100.000000000000909) rotate(180)"/>
  <rect class="cls-1" y="230" width="200.702127659574217" height="100" rx="20" ry="20" transform="translate(200.702127659574245 560) rotate(180)"/>
  <rect class="cls-1" x="3.063829787235591" y="115" width="183.085106382977756" height="100" rx="20" ry="20" transform="translate(189.212765957448937 330) rotate(180)"/>
  <path class="cls-1" d="m310,0h-175c-11.04571533203125,0-20,8.95428466796875-20,20v60c0,11.045654296875,8.95428466796875,20,20,20h175c11.04571533203125,0,20-8.954345703125,20-20V20c0-11.04571533203125-8.95428466796875-20-20-20Zm-10,50c0,13.80712890625-11.19287109375,25-25,25s-25-11.19287109375-25-25v-.00006103515625c0-13.80706787109375,11.19287109375-24.99993896484375,25-24.99993896484375s25,11.19287109375,25,24.99993896484375v.00006103515625Z"/>
  <path class="cls-1" d="m310,115h-175c-11.04571533203125,0-20,8.95428466796875-20,20v60c0,11.045654296875,8.95428466796875,20,20,20h175c11.04571533203125,0,20-8.954345703125,20-20v-60c0-11.04571533203125-8.95428466796875-20-20-20Zm-10,50c0,13.80712890625-11.19287109375,25-25,25s-25-11.19287109375-25-25v-.00006103515625c0-13.80706787109375,11.19287109375-24.99993896484375,25-24.99993896484375s25,11.19287109375,25,24.99993896484375v.00006103515625Z"/>
  <path class="cls-1" d="m310,230h-175c-11.04571533203125,0-20,8.95428466796875-20,20v60c0,11.045654296875,8.95428466796875,20,20,20h175c11.04571533203125,0,20-8.954345703125,20-20v-60c0-11.04571533203125-8.95428466796875-20-20-20Zm-10,50c0,13.80712890625-11.19287109375,25-25,25s-25-11.19287109375-25-25v-.00006103515625c0-13.80706787109375,11.19287109375-24.99993896484375,25-24.99993896484375s25,11.19287109375,25,24.99993896484375v.00006103515625Z"/>
</svg>