<?xml version="1.0" encoding="UTF-8"?>
<svg id="Layer_1" data-name="Layer 1" xmlns="http://www.w3.org/2000/svg" viewBox="0 0 329.999999999999091 329.999999999999091">
  <defs>
    <style>
      .cls-1 {
        fill: #7367f0;
      }
    </style>
  </defs>
  <rect class="cls-1" x="115" y="-.000000000000007" width="214.999999999999091" height="100" rx="20" ry="20" transform="translate(444.999999999999091 99.999999999999972) rotate(180)"/>
  <rect class="cls-1" width="100" height="100.000000000000909" rx="19.999999999999819" ry="19.999999999999819" transform="translate(100 100.000000000000909) rotate(180)"/>
  <path class="cls-1" d="m135,115h174.999999999999091c11.04571533203125,0,20,8.95428466796875,20,20v174.999999999999091c0,11.045654296875-8.95428466796875,20-20,20h-60c-11.04571533203125,0-20-8.954345703125-20-20v-79.999999999999091c0-8.2843017578125-6.7156982421875-15-14.999999999999091-15h-80c-11.04571533203125,0-20-8.954345703125-20-20v-60c0-11.04571533203125,8.95428466796875-20,20-20Z"/>
  <path class="cls-1" d="m20,115h60c11.04571533203125,0,20,8.95428466796875,20,20v80c0,8.28424072265625,6.7156982421875,15,15,15h80c11.04571533203125,0,20,8.95428466796875,20,19.999999999999091v60c0,11.045654296875-8.95428466796875,20-20,20H20c-11.04571533203125,0-20-8.954345703125-20-20v-174.999999999999091c0-11.04571533203125,8.95428466796875-20,20-20Z"/>
  <rect class="cls-1" x="197.499999999999091" y="50.000000000000909" width="50" height="100" rx="20" ry="20" transform="translate(444.999999999998181 200.000000000001791) rotate(180)"/>
</svg>