<?xml version="1.0" encoding="UTF-8"?>
<svg id="Layer_1" data-name="Layer 1" xmlns="http://www.w3.org/2000/svg" viewBox="0 0 330 329.999999999999091">
  <defs>
    <style>
      .cls-1 {
        fill: #2667f0;
      }
    </style>
  </defs>
  <g>
    <path class="cls-1" d="m215,310c0,11.045654296875-8.95428466796875,19.999999999999091-20,19.999999999999091h-60c-11.04571533203125,0-20-8.954345703124091-20-19.999999999999091v-15h100v15Z"/>
    <path class="cls-1" d="m135,0h60c11.04571533203125,0,20,8.95428466796875,20,20v10h-100v-10c0-11.04571533203125,8.95428466796875-20,20-20Z"/>
    <path class="cls-1" d="m215,270h-100V55h100v215Zm-37.5-167.5c0-6.903564453125-5.596435546875-12.5-12.5-12.5s-12.5,5.596435546875-12.5,12.5v125c0,6.903564453125,5.596435546875,12.5,12.5,12.5s12.5-5.596435546875,12.5-12.5v-125Z"/>
  </g>
  <g>
    <path class="cls-1" d="m100,270H0v-125h100v125Zm-37.5-90c0-6.903564453125-5.596435546875-12.5-12.5-12.5s-12.5,5.596435546875-12.5,12.5v50c0,6.903564453125,5.596435546875,12.5,12.5,12.5s12.5-5.596435546875,12.5-12.5v-50Z"/>
    <path class="cls-1" d="m100,310c0,11.045654296875-8.95428466796875,19.999999999999091-20,19.999999999999091H20c-11.04571533203125,0-20-8.954345703124091-20-19.999999999999091v-15h100v15Z"/>
    <path class="cls-1" d="m20,80h60c11.04571533203125,0,20,8.95428466796875,20,20v20H0v-20c0-11.04571533203125,8.95428466796875-20,20-20Z"/>
  </g>
  <g>
    <path class="cls-1" d="m330,310c0,11.045654296875-8.95428466796875,19.999999999999091-20,19.999999999999091h-60c-11.04571533203125,0-20-8.954345703124091-20-19.999999999999091v-15h100v15Z"/>
    <path class="cls-1" d="m250,0h60c11.04571533203125,0,20,8.95428466796875,20,20v10h-100v-10c0-11.04571533203125,8.95428466796875-20,20-20Z"/>
    <path class="cls-1" d="m330,270h-100V55h100v215Zm-37.5-167.5c0-6.903564453125-5.596435546875-12.5-12.5-12.5s-12.5,5.596435546875-12.5,12.5v125c0,6.903564453125,5.596435546875,12.5,12.5,12.5s12.5-5.596435546875,12.5-12.5v-125Z"/>
  </g>
</svg>