<?xml version="1.0" encoding="UTF-8"?>
<svg id="Layer_1" data-name="Layer 1" xmlns="http://www.w3.org/2000/svg" viewBox="0 0 814.249027635461971 999.999875028323004">
  <defs>
    <style>
      .cls-1 {
        fill: #fff;
        fill-rule: evenodd;
      }
    </style>
  </defs>
  <path class="cls-1" d="m680.036014940149471,531.26898193359375c1.40496826171875,151.33099365234375,132.75799560546875,201.6910400390625,134.2130126953125,202.3330078125-1.11102294921875,3.552001953125-20.988037109375,71.76702880859375-69.2030029296875,142.22900390625-41.67999267578125,60.91802978515625-84.93701171875,121.61199951171875-153.08203125,122.8690185546875-66.9580078125,1.2340087890625-88.489013671875-39.70599365234375-165.041015625-39.70599365234375-76.528961181640625,0-100.45098876953125,38.448974609375-163.833984375,40.94000244140625-65.7769775390625,2.4859619140625-115.864990234375-65.8740234375-157.8909912109375-126.56903076171875-85.875-124.15301513671875-151.500797271728516-350.82598876953125-63.380996704101562-503.833984375,43.7760009765625-75.985015869140625,122.005996704101562-124.102005004882812,206.918991088867188-125.33599853515625,64.59100341796875-1.232009887695312,125.555999755859375,43.454986572265625,165.041015625,43.454986572265625,39.459991455078125,0,113.546966552734375-53.739990234375,191.430999755859375-45.847000122070312,32.60498046875,1.357009887695312,124.12799072265625,13.170013427734375,182.89801025390625,99.194015502929688-4.73602294921875,2.93499755859375-109.20599365234375,63.75299072265625-108.07000732421875,190.27197265625m-125.84100341796875-371.603988647460938c34.9210205078125-42.27099609375,58.42498779296875-101.115093231201172,52.01300048828125-159.664993286132812-50.33599853515625,2.023060083389282-111.2039794921875,33.542598724365234-147.3079833984375,75.789901733398438-32.35699462890625,37.412101745605469-60.695037841796875,97.292098999023438-53.04901123046875,154.68310546875,56.10595703125,4.340988159179688,113.4219970703125-28.511001586914062,148.343994140625-70.808013916015625"/>
</svg>