<?xml version="1.0" encoding="UTF-8"?>
<svg id="Layer_1" data-name="Layer 1" xmlns="http://www.w3.org/2000/svg" viewBox="0 0 985.718017578125 1000">
  <defs>
    <style>
      .cls-1 {
        fill-rule: evenodd;
      }
    </style>
  </defs>
  <g id="Layer-1">
    <g>
      <path class="cls-1" d="m367.144012451171875,500c0-65.4849853515625,53.08599853515625-118.57000732421875,118.569976806640625-118.57000732421875,65.4849853515625,0,118.57000732421875,53.08502197265625,118.57000732421875,118.57000732421875,0,65.4840087890625-53.08502197265625,118.57000732421875-118.57000732421875,118.57000732421875-65.483978271484375,0-118.569976806640625-53.08599853515625-118.569976806640625-118.57000732421875Z"/>
      <path class="cls-1" d="m1.430139541625977,374.2869873046875c0,1.426025390625-1.430139541625977,4.28302001953125-1.430139541625977,5.7130126953125,0,12.855010986328125,9.999399185180664,24.285003662109375,24.285299301147461,24.285003662109375h201.429697036743164c9.999008178710938,0,17.141998291015625-5.7130126953125,21.429000854492188-14.2860107421875,41.431015014648438-91.427978515625,132.860000610351562-152.858993530273438,237.139999389648438-152.858993530273438,144.2860107421875,0,261.42901611328125,117.143997192382812,261.42901611328125,261.430007934570312,0,144.28497314453125-117.14300537109375,261.42901611328125-261.42901611328125,261.42901611328125-105.7139892578125,0-195.712982177734375-62.85601806640625-237.139999389648438-151.42803955078125-4.287002563476562-10-11.42999267578125-15.71600341796875-21.432998657226562-15.71600341796875H24.293100357055664C11.433399200439453,592.85498046875.003880023956299,602.85400390625.003880023956299,617.14398193359375c0,1.426025390625,0,4.28302001953125,1.430140018463135,5.7130126953125,55.713578224182129,217.1409912109375,251.425965309143066,377.14300537109375,484.283967018127441,377.14300537109375,275.714996337890625,0,500.000030517578125-224.28802490234375,500.000030517578125-500-.0040283203125-275.714996337890625-224.2919921875-500-500.0040283203125-500C252.8599853515625,0,57.143699645996094,160.001998901367188,1.430139541625977,374.2869873046875Z"/>
    </g>
  </g>
</svg>