<?xml version="1.0" encoding="UTF-8"?>
<svg id="Layer_1" data-name="Layer 1" xmlns="http://www.w3.org/2000/svg" viewBox="0 0 1000 452.11297607421875">
  <defs>
    <style>
      .cls-1 {
        fill: #fff;
      }

      .cls-1, .cls-2, .cls-3 {
        fill-rule: evenodd;
      }

      .cls-2 {
        fill: #faae40;
      }

      .cls-3 {
        fill: #f38020;
      }
    </style>
  </defs>
  <g id="Layer-1">
    <g>
      <path class="cls-1" d="m916.82501220703125,268.81500244140625l-125.76702880859375-72.13800048828125-21.740966796875-9.364990234375-514.439010620117188,3.5679931640625v261.1209716796875h661.835006713867188l.11199951171875-183.18597412109375Z"/>
      <path class="cls-3" d="m687.81402587890625,427.91802978515625c6.1319580078125-21.072021484375,3.78997802734375-40.4720458984375-6.467041015625-54.85504150390625-9.365966796875-13.156982421875-25.197998046875-20.8499755859375-44.26397705078125-21.74200439453125l-360.798004150390625-4.6829833984375c-2.34100341796875,0-4.347991943359375-1.22601318359375-5.57501220703125-2.89801025390625-1.225982666015625-1.78399658203125-1.449005126953125-4.1259765625-.891998291015625-6.46697998046875,1.227020263671875-3.5679931640625,4.683013916015625-6.13201904296875,8.4739990234375-6.46697998046875l364.031982421875-4.68304443359375c43.03704833984375-2.0069580078125,89.97601318359375-36.90496826171875,106.36602783203125-79.718994140625l20.8499755859375-54.186004638671875c.89202880859375-2.34197998046875,1.22601318359375-4.6829833984375.5570068359375-7.024993896484375C746.79498291015625,79.1619873046875,652.135009765625,0,538.968017578125,0c-104.360015869140625,0-192.88702392578125,67.454986572265625-224.552032470703125,160.88800048828125-20.514984130859375-15.274993896484375-46.60498046875-23.41400146484375-74.70098876953125-20.850006103515625-50.172988891601562,5.016998291015625-90.310989379882812,45.154998779296875-95.216995239257812,95.217010498046875-1.227005004882812,12.9329833984375-.335006713867188,25.531982421875,2.675994873046875,37.239013671875C65.447700500488281,274.83599853515625,0,341.6209716796875,0,424.0159912109375c0,7.3590087890625.557475984096527,14.60601806640625,1.449440002441406,21.96502685546875.557470083236694,3.56695556640625,3.567840099334717,6.1319580078125,7.024189949035645,6.1319580078125h665.960391044616699c3.79095458984375,0,7.3590087890625-2.67596435546875,8.4739990234375-6.46697998046875l4.906005859375-17.72796630859375Z"/>
      <path class="cls-2" d="m802.7650146484375,196.1199951171875c-3.2330322265625,0-6.69000244140625,0-9.92303466796875.334014892578125-2.34100341796875,0-4.34796142578125,1.78399658203125-5.239990234375,4.1259765625l-14.04901123046875,48.946014404296875c-6.1319580078125,21.072998046875-3.78997802734375,40.4730224609375,6.467041015625,54.85601806640625,9.365966796875,13.156005859375,25.197998046875,20.8489990234375,44.26397705078125,21.740966796875l76.82000732421875,4.68304443359375c2.34100341796875,0,4.3480224609375,1.22698974609375,5.57501220703125,2.89898681640625,1.22601318359375,1.78399658203125,1.448974609375,4.34796142578125.8919677734375,6.46697998046875-1.22698974609375,3.5679931640625-4.6829833984375,6.13201904296875-8.4739990234375,6.46600341796875l-80.053955078125,4.6829833984375c-43.37103271484375,2.00701904296875-89.97601318359375,36.905029296875-106.36602783203125,79.718994140625l-5.90899658203125,14.9410400390625c-1.22698974609375,2.89801025390625.8919677734375,5.90899658203125,4.125,5.90899658203125h274.7239990234375c3.23297119140625,0,6.13201904296875-2.00701904296875,7.02398681640625-5.239990234375,4.6829833984375-16.947998046875,7.3590087890625-34.89801025390625,7.3590087890625-53.2950439453125,0-108.7080078125-88.5269775390625-197.2349853515625-197.2349853515625-197.2349853515625"/>
    </g>
  </g>
</svg>