<?xml version="1.0" encoding="UTF-8"?>
<svg id="Layer_1" data-name="Layer 1" xmlns="http://www.w3.org/2000/svg" viewBox="0 0 999.998820555306338 761.9530963380912">
  <defs>
    <style>
      .cls-1 {
        fill: #fff;
        fill-rule: evenodd;
      }
    </style>
  </defs>
  <g id="Layer-1">
    <path class="cls-1" d="m847.831972880408102,64.353004832455554c112.93804931640625,166.04901123046875,168.7080078125,353.349029541015625,147.863037109375,568.974029541015625-.0880126953125.9119873046875-.56298828125,1.75-1.31298828125,2.29998779296875-85.5250244140625,62.79998779296875-168.38702392578125,100.9119873046875-250.0870361328125,126.18701171875-1.303955078125.39599609375-2.71600341796875-.0810546875-3.511962890625-1.18701171875-18.875-26.26300048828125-36.0250244140625-53.95001220703125-51.050048828125-83.0250244140625-.86297607421875-1.7130126953125-.074951171875-3.77496337890625,1.70001220703125-4.45001220703125,27.23699951171875-10.26300048828125,53.13702392578125-22.56298828125,78.04998779296875-37.125,1.9620361328125-1.14996337890625,2.0870361328125-3.96295166015625.2750244140625-5.31298828125-5.28802490234375-3.92498779296875-10.5250244140625-8.04998779296875-15.53802490234375-12.17498779296875-.93695068359375-.76202392578125-2.199951171875-.9119873046875-3.261962890625-.4000244140625-161.738037109375,74.68804931640625-338.912017822265625,74.68804931640625-502.56201171875,0-1.063003540039062-.4749755859375-2.324996948242188-.31195068359375-3.237991333007812.43804931640625-5,4.125-10.25,8.21197509765625-15.48699951171875,12.136962890625-1.813003540039062,1.35003662109375-1.663009643554688,4.16302490234375.311996459960938,5.31298828125,24.912994384765625,14.28704833984375,50.81298828125,26.86199951171875,78.01300048828125,37.175048828125,1.761993408203125.67498779296875,2.600006103515625,2.68695068359375,1.725006103515625,4.39996337890625-14.70001220703125,29.11199951171875-31.850006103515625,56.79998779296875-51.07501220703125,83.06201171875-.837982177734375,1.06298828125-2.212982177734375,1.54998779296875-3.51300048828125,1.1500244140625-81.311996459960938-25.2750244140625-164.174392700195312-63.38702392578125-249.699215412139893-126.18701171875-.712500095367432-.54998779296875-1.225000381469727-1.42498779296875-1.300000190734863-2.3380126953125C-13.291197018578714,446.776985545346179,22.221203608557516,257.927009959408679,151.85899619583779,64.315010447689929c.31201171875-.512008666992188.787002563476562-.912002563476562,1.337005615234375-1.150009155273438C216.983004374548727,33.890007395932116,285.321017069861227,12.353004832455554,356.746004862829977.053009410092272c1.29998779296875-.200004577636719,2.600006103515625.400001525878906,3.274993896484375,1.549995422363281,8.82501220703125,15.625,18.912017822265625,35.662002563476562,25.73699951171875,52.037002563476562,75.287994384765625-11.5,151.75-11.5,228.61199951171875,0,6.82501220703125-16.024993896484375,16.56298828125-36.412002563476562,25.3499755859375-52.037002563476562.64202880859375-1.169998168945312,1.9630126953125-1.795997619628906,3.2750244140625-1.549995422363281,71.4630126953125,12.336997985839844,139.79998779296875,33.874992370605469,203.5369873046875,63.111991882324219.56298828125.238006591796875,1.0250244140625.63800048828125,1.29998779296875,1.188003540039062Zm-423.798980712890625,354.623992919921875c.78802490234375-55.136993408203125-39.4119873046875-100.761993408203125-89.875-100.761993408203125-50.04998779296875,0-89.861984252929688,45.225006103515625-89.861984252929688,100.761993408203125,0,55.5250244140625,40.599990844726562,100.75,89.861984252929688,100.75,50.063018798828125,0,89.875-45.2249755859375,89.875-100.75Zm332.274993896484375,0c.7869873046875-55.136993408203125-39.4129638671875-100.761993408203125-89.86297607421875-100.761993408203125-50.06201171875,0-89.875,45.225006103515625-89.875,100.761993408203125,0,55.5250244140625,40.5999755859375,100.75,89.875,100.75,50.45001220703125,0,89.86297607421875-45.2249755859375,89.86297607421875-100.75Z"/>
  </g>
</svg>