<?xml version="1.0" encoding="UTF-8"?>
<svg id="Layer_1" data-name="Layer 1" xmlns="http://www.w3.org/2000/svg" viewBox="0 0 999.999999978693268 751.233084036824948">
  <defs>
    <style>
      .cls-1 {
        fill: #2395ec;
        fill-rule: evenodd;
      }
    </style>
  </defs>
  <g id="Layer-1">
    <g>
      <path class="cls-1" d="m990.130004861505768,309.82000732421875c-2.7130126953125-2.128997802734375-28.0670166015625-21.014007568359375-81.551025390625-21.014007568359375-14.126953125.06298828125-28.21197509765625,1.25201416015625-42.1309814453125,3.569000244140625-10.3499755859375-69.989990234375-67.1729736328125-102.87701416015625-69.802001953125-104.399993896484375l-14.35699462890625-8.180999755859375-9.4530029296875,13.438995361328125c-11.83197021484375,18.07098388671875-22.2860107421875,36.72698974609375-27.35699462890625,57.657012939453125-9.5780029296875,39.96099853515625-3.7559814453125,77.480987548828125,16.8189697265625,109.553985595703125-24.87396240234375,13.66900634765625-67.2559814453125,14.878997802734375-75.31097412109375,15.170989990234375H31.372100808771393c-17.236600875854492.02099609375-31.217814832925797,13.77301025390625-31.322151929140091,30.759033203125-.772097915410995,57.031005859375,7.366231232881546,115.876953125,27.252951413393021,169.4229736328125,22.724699020385742,58.80499267578125,56.550996780395508,102.1259765625,100.540102005004883,128.62701416015625,49.28900146484375,29.77801513671875,129.378005981445312,46.80596923828125,220.172988891601562,46.80596923828125,41.003997802734375.125,81.946014404296875-3.5260009765625,122.26202392578125-10.9339599609375,56.04998779296875-10.16302490234375,109.99298095703125-29.48602294921875,159.573974609375-57.177001953125,40.8590087890625-23.35101318359375,77.62701416015625-53.0460205078125,108.90802001953125-87.95703125,52.27301025390625-58.386962890625,83.406982421875-123.38897705078125,106.57000732421875-181.1719970703125h9.22296142578125c57.24005126953125,0,92.42303466796875-22.5989990234375,111.82904052734375-41.5260009765625,12.89697265625-12.082000732421875,22.9759521484375-26.793975830078125,29.5069580078125-43.09100341796875l4.11102294921875-11.852996826171875-9.8699951171875-7.699981689453125Z"/>
      <path class="cls-1" d="m165.30000303045108,354.74798583984375h-62.603004455566406c-11.518600463867188,0-20.867301940917969-9.3489990234375-20.867301940917969-20.86798095703125v-62.60198974609375c0-11.519012451171875,9.348701477050781-20.868011474609375,20.867301940917969-20.868011474609375h62.603004455566406c11.518997192382812,0,20.86700439453125,9.3489990234375,20.86700439453125,20.868011474609375v62.60198974609375c0,11.51898193359375-9.348007202148438,20.86798095703125-20.86700439453125,20.86798095703125Z"/>
      <path class="cls-1" d="m290.505004861505768,354.74798583984375h-62.603012084960938c-11.518997192382812,0-20.866989135742188-9.3489990234375-20.866989135742188-20.86798095703125v-62.60198974609375c0-11.519012451171875,9.347991943359375-20.868011474609375,20.866989135742188-20.868011474609375h62.603012084960938c11.51898193359375,0,20.86700439453125,9.3489990234375,20.86700439453125,20.868011474609375v62.60198974609375c0,11.51898193359375-9.3480224609375,20.86798095703125-20.86700439453125,20.86798095703125Z"/>
      <path class="cls-1" d="m415.709991433771393,354.74798583984375h-62.602996826171875c-11.51898193359375,0-20.86700439453125-9.3489990234375-20.86700439453125-20.86798095703125v-62.60198974609375c0-11.519012451171875,9.3480224609375-20.868011474609375,20.86700439453125-20.868011474609375h62.602996826171875c11.519012451171875,0,20.86700439453125,9.3489990234375,20.86700439453125,20.868011474609375v62.60198974609375c0,11.51898193359375-9.347991943359375,20.86798095703125-20.86700439453125,20.86798095703125Z"/>
      <path class="cls-1" d="m540.914978006037018,354.74798583984375h-62.60296630859375c-11.519012451171875,0-20.86700439453125-9.3489990234375-20.86700439453125-20.86798095703125v-62.60198974609375c0-11.519012451171875,9.347991943359375-20.868011474609375,20.86700439453125-20.868011474609375h62.60296630859375c11.51904296875,0,20.86700439453125,9.3489990234375,20.86700439453125,20.868011474609375v62.60198974609375c0,11.51898193359375-9.34796142578125,20.86798095703125-20.86700439453125,20.86798095703125Z"/>
      <path class="cls-1" d="m290.505004861505768,229.542999267578125h-62.603012084960938c-11.518997192382812,0-20.866989135742188-9.3489990234375-20.866989135742188-20.868011474609375v-62.60198974609375c0-11.519012451171875,9.347991943359375-20.867996215820312,20.866989135742188-20.867996215820312h62.603012084960938c11.51898193359375,0,20.86700439453125,9.348983764648438,20.86700439453125,20.867996215820312v62.60198974609375c0,11.519012451171875-9.3480224609375,20.868011474609375-20.86700439453125,20.868011474609375Z"/>
      <path class="cls-1" d="m415.709991433771393,229.542999267578125h-62.602996826171875c-11.51898193359375,0-20.86700439453125-9.3489990234375-20.86700439453125-20.868011474609375v-62.60198974609375c0-11.519012451171875,9.3480224609375-20.867996215820312,20.86700439453125-20.867996215820312h62.602996826171875c11.519012451171875,0,20.86700439453125,9.348983764648438,20.86700439453125,20.867996215820312v62.60198974609375c0,11.519012451171875-9.347991943359375,20.868011474609375-20.86700439453125,20.868011474609375Z"/>
      <path class="cls-1" d="m540.914978006037018,229.542999267578125h-62.60296630859375c-11.519012451171875,0-20.86700439453125-9.3489990234375-20.86700439453125-20.868011474609375v-62.60198974609375c0-11.519012451171875,9.347991943359375-20.867996215820312,20.86700439453125-20.867996215820312h62.60296630859375c11.51904296875,0,20.86700439453125,9.348983764648438,20.86700439453125,20.867996215820312v62.60198974609375c0,11.519012451171875-9.34796142578125,20.868011474609375-20.86700439453125,20.868011474609375Z"/>
      <path class="cls-1" d="m540.914978006037018,104.337997436523438h-62.60296630859375c-11.519012451171875,0-20.86700439453125-9.3489990234375-20.86700439453125-20.867996215820312V20.867996215820312c0-11.518997192382812,9.347991943359375-20.867996215820312,20.86700439453125-20.867996215820312h62.60296630859375c11.51904296875,0,20.86700439453125,9.3489990234375,20.86700439453125,20.867996215820312v62.602005004882812c0,11.518997192382812-9.34796142578125,20.867996215820312-20.86700439453125,20.867996215820312Z"/>
      <path class="cls-1" d="m666.119995095880768,354.74798583984375h-62.60296630859375c-11.51800537109375,0-20.86700439453125-9.3489990234375-20.86700439453125-20.86798095703125v-62.60198974609375c0-11.519012451171875,9.3489990234375-20.868011474609375,20.86700439453125-20.868011474609375h62.60296630859375c11.51898193359375,0,20.86700439453125,9.3489990234375,20.86700439453125,20.868011474609375v62.60198974609375c0,11.51898193359375-9.3480224609375,20.86798095703125-20.86700439453125,20.86798095703125Z"/>
    </g>
  </g>
</svg>