<?xml version="1.0" encoding="UTF-8"?>
<svg id="Layer_1" data-name="Layer 1" xmlns="http://www.w3.org/2000/svg" viewBox="0 0 1000 984.5830078125">
  <defs>
    <style>
      .cls-1 {
        fill: #fff;
        fill-rule: evenodd;
      }
    </style>
  </defs>
  <g id="Layer-1">
    <path class="cls-1" d="m500,0C223.875,0,0,223.875,0,500c0,234.2919921875,161.332992553710938,430.3330078125,378.8330078125,484.5830078125-2.3330078125-6.75-3.8330078125-14.5830078125-3.8330078125-24.291015625v-85.458984375h-62.8330078125c-34.208984375,0-64.624984741210938-14.7080078125-79.374984741210938-42.041015625-16.375-30.375-19.209014892578125-76.833984375-59.792007446289062-105.25-12.042007446289062-9.458984375-2.875-20.25,11-18.7919921875,25.625,7.25,46.875,24.8330078125,66.875,50.9169921875,19.9169921875,26.125,29.2919921875,32.041015625,66.5,32.041015625,18.0419921875,0,45.0419921875-1.041015625,70.4580078125-5.041015625,13.6669921875-34.708984375,37.2919921875-66.6669921875,66.1669921875-81.75-166.5-17.125-245.957992553710938-99.958984375-245.957992553710938-212.4169921875,0-48.4169921875,20.625-95.25,55.666000366210938-134.7080078125-11.500015258789062-39.1669921875-25.9580078125-119.0419921875,4.4169921875-149.458999633789062,74.9169921875,0,120.2080078125,48.583999633789062,131.0830078125,61.708999633789062,37.333984375-12.7919921875,78.333984375-20.0419921875,121.4169921875-20.0419921875,43.1669921875,0,84.3330078125,7.25,121.75,20.125,10.75-13.0419921875,56.0830078125-61.792007446289062,131.1669921875-61.792007446289062,30.5,30.459014892578125,15.875,110.667007446289062,4.25,149.750015258789062,34.8330078125,39.375,55.3330078125,86.083984375,55.3330078125,134.4169921875,0,112.375-79.3330078125,195.1669921875-245.5830078125,212.375,45.75,23.875,79.125,90.9580078125,79.125,141.5v113.9169921875c0,4.3330078125-.958984375,7.4580078125-1.458984375,11.166015625,194.833984375-68.291015625,334.7919921875-253.291015625,334.7919921875-471.4580078125C1000,223.875,776.125,0,500,0Z"/>
  </g>
</svg>