<?xml version="1.0" encoding="UTF-8"?>
<svg id="Layer_1" data-name="Layer 1" xmlns="http://www.w3.org/2000/svg" viewBox="0 0 999.997706581454622 921.164012967887174">
  <defs>
    <style>
      .cls-1 {
        fill: #fca326;
      }

      .cls-1, .cls-2, .cls-3 {
        fill-rule: evenodd;
      }

      .cls-2 {
        fill: #e24329;
      }

      .cls-3 {
        fill: #fc6d26;
      }
    </style>
  </defs>
  <g id="Layer-1">
    <g>
      <path class="cls-2" d="m500.000000074429408,921.163036405387174h0l184.12799072265625-566.68402099609375h-368.2559814453125l184.12799072265625,566.68402099609375h0Z"/>
      <path class="cls-3" d="m500.000000074429408,921.161998807730924l-184.12799072265625-566.683990478515625H57.821300581021205l442.178699493408203,566.683990478515625h0Z"/>
      <path class="cls-1" d="m57.821800306363002,354.480022489371549h0L1.868610098881618,526.690013944449674c-5.103540062904358,15.70599365234375.486050009727478,32.91302490234375,13.847689986228943,42.6199951171875l484.283699989318848,351.85400390625L57.821800306363002,354.480022489371549h0Z"/>
      <path class="cls-2" d="m57.821800306363002,354.480022489371549h258.050209045410156L204.972000196499721,13.171611844840299c-5.703994750976562-17.564498901367188-30.550003051757812-17.559799194335938-36.253997802734375,0L57.821800306363002,354.480022489371549h0Z"/>
      <path class="cls-3" d="m500.000000074429408,921.161998807730924l184.12799072265625-566.683990478515625h258.04998779296875l-442.177978515625,566.683990478515625h0Z"/>
      <path class="cls-1" d="m942.177978590054408,354.480022489371549h0l55.9530029296875,172.209991455078125c5.0989990234375,15.70599365234375-.4859619140625,32.91302490234375-13.84698486328125,42.6199951171875l-484.28399658203125,351.85400390625,442.177978515625-566.683990478515625h0Z"/>
      <path class="cls-2" d="m942.177978590054408,354.480022489371549h-258.04998779296875L795.028015211148158,13.171611844840299c5.7039794921875-17.564498901367188,30.54998779296875-17.559799194335938,36.25396728515625,0l110.89599609375,341.30841064453125h0Z"/>
    </g>
  </g>
</svg>