<?xml version="1.0" encoding="UTF-8"?>
<svg id="Layer_1" data-name="Layer 1" xmlns="http://www.w3.org/2000/svg" xmlns:xlink="http://www.w3.org/1999/xlink" viewBox="0 0 977.27301025390625 1000">
  <defs>
    <style>
      .cls-1 {
        fill: #ea4335;
      }

      .cls-1, .cls-2, .cls-3, .cls-4 {
        fill-rule: evenodd;
      }

      .cls-5 {
        clip-path: url(#clippath-2);
      }

      .cls-6 {
        clip-path: url(#clippath-1);
      }

      .cls-2 {
        fill: #fbbc05;
      }

      .cls-7 {
        clip-path: url(#clippath);
      }

      .cls-8 {
        fill: none;
      }

      .cls-9 {
        clip-path: url(#clippath-3);
      }

      .cls-3 {
        fill: #4285f4;
      }

      .cls-4 {
        fill: #34a853;
      }
    </style>
    <clipPath id="clippath">
      <path class="cls-8" d="m965.90899658203125,409.09100341796875h-465.90899658203125v193.1820068359375h268.1820068359375c-25,122.72698974609375-129.5460205078125,193.1820068359375-268.1820068359375,193.1820068359375-163.635986328125,0-295.455001831054688-131.81903076171875-295.455001831054688-295.45501708984375S336.364013671875,204.544998168945312,500,204.544998168945312c70.45501708984375,0,134.09100341796875,25,184.09100341796875,65.909988403320312l145.4539794921875-145.454986572265625C740.90899658203125,47.727298736572266,627.27301025390625,0,500,0,222.727005004882812,0,0,222.727005004882812,0,500c0,277.27301025390625,222.727005004882812,500,500,500,250,0,477.27301025390625-181.8179931640625,477.27301025390625-500,0-29.545013427734375-4.5460205078125-61.364013671875-11.364013671875-90.90899658203125Z"/>
    </clipPath>
    <clipPath id="clippath-1">
      <path class="cls-8" d="m965.90899658203125,409.09100341796875h-465.90899658203125v193.1820068359375h268.1820068359375c-25,122.72698974609375-129.5460205078125,193.1820068359375-268.1820068359375,193.1820068359375-163.635986328125,0-295.455001831054688-131.81903076171875-295.455001831054688-295.45501708984375S336.364013671875,204.544998168945312,500,204.544998168945312c70.45501708984375,0,134.09100341796875,25,184.09100341796875,65.909988403320312l145.4539794921875-145.454986572265625C740.90899658203125,47.727298736572266,627.27301025390625,0,500,0,222.727005004882812,0,0,222.727005004882812,0,500c0,277.27301025390625,222.727005004882812,500,500,500,250,0,477.27301025390625-181.8179931640625,477.27301025390625-500,0-29.545013427734375-4.5460205078125-61.364013671875-11.364013671875-90.90899658203125Z"/>
    </clipPath>
    <clipPath id="clippath-2">
      <path class="cls-8" d="m965.90899658203125,409.09100341796875h-465.90899658203125v193.1820068359375h268.1820068359375c-25,122.72698974609375-129.5460205078125,193.1820068359375-268.1820068359375,193.1820068359375-163.635986328125,0-295.455001831054688-131.81903076171875-295.455001831054688-295.45501708984375S336.364013671875,204.544998168945312,500,204.544998168945312c70.45501708984375,0,134.09100341796875,25,184.09100341796875,65.909988403320312l145.4539794921875-145.454986572265625C740.90899658203125,47.727298736572266,627.27301025390625,0,500,0,222.727005004882812,0,0,222.727005004882812,0,500c0,277.27301025390625,222.727005004882812,500,500,500,250,0,477.27301025390625-181.8179931640625,477.27301025390625-500,0-29.545013427734375-4.5460205078125-61.364013671875-11.364013671875-90.90899658203125Z"/>
    </clipPath>
    <clipPath id="clippath-3">
      <path class="cls-8" d="m965.90899658203125,409.09100341796875h-465.90899658203125v193.1820068359375h268.1820068359375c-25,122.72698974609375-129.5460205078125,193.1820068359375-268.1820068359375,193.1820068359375-163.635986328125,0-295.455001831054688-131.81903076171875-295.455001831054688-295.45501708984375S336.364013671875,204.544998168945312,500,204.544998168945312c70.45501708984375,0,134.09100341796875,25,184.09100341796875,65.909988403320312l145.4539794921875-145.454986572265625C740.90899658203125,47.727298736572266,627.27301025390625,0,500,0,222.727005004882812,0,0,222.727005004882812,0,500c0,277.27301025390625,222.727005004882812,500,500,500,250,0,477.27301025390625-181.8179931640625,477.27301025390625-500,0-29.545013427734375-4.5460205078125-61.364013671875-11.364013671875-90.90899658203125Z"/>
    </clipPath>
  </defs>
  <g id="Layer-1">
    <g class="cls-7">
      <path class="cls-2" d="m-45.454498291015625,795.45501708984375V204.544998168945312l386.363494873046875,295.455001831054688L-45.454498291015625,795.45501708984375Z"/>
    </g>
    <g class="cls-6">
      <path class="cls-1" d="m-45.454498291015625,204.544998168945312l386.363494873046875,295.455001831054688,159.09100341796875-138.635986328125,545.449951171875-88.63702392578125V-45.454498291015625H-45.454498291015625v249.999496459960938Z"/>
    </g>
    <g class="cls-5">
      <path class="cls-4" d="m-45.454498291015625,795.45501708984375L636.364013671875,272.72698974609375l179.54498291015625,22.727996826171875,229.54095458984375-340.90948486328125v1090.904449462890625H-45.454498291015625v-249.99493408203125Z"/>
    </g>
    <g class="cls-9">
      <path class="cls-3" d="m1045.449951171875,1045.449951171875L340.90899658203125,500l-90.90899658203125-68.1820068359375,795.449951171875-227.272994995117188v840.904953002929688Z"/>
    </g>
  </g>
</svg>