<?xml version="1.0" encoding="UTF-8"?>
<svg id="Layer_1" data-name="Layer 1" xmlns="http://www.w3.org/2000/svg" viewBox="0 0 723.1519775390625 999.998990555354794">
  <defs>
    <style>
      .cls-1 {
        fill: #ef3d3a;
      }

      .cls-1, .cls-2, .cls-3, .cls-4, .cls-5, .cls-6, .cls-7, .cls-8, .cls-9, .cls-10, .cls-11, .cls-12 {
        fill-rule: evenodd;
      }

      .cls-2 {
        fill: #fff;
      }

      .cls-3 {
        fill: #dcd9d8;
      }

      .cls-4 {
        fill: #335061;
      }

      .cls-5 {
        fill: #49728b;
      }

      .cls-6 {
        fill: #d33833;
      }

      .cls-7 {
        fill: #231f20;
      }

      .cls-8 {
        fill: #1d1919;
      }

      .cls-9 {
        fill: #81b0c4;
      }

      .cls-10 {
        fill: #f7e4cd;
      }

      .cls-13 {
        fill: none;
        stroke: #d33833;
        stroke-miterlimit: 10;
        stroke-width: .256999999284744px;
      }

      .cls-11 {
        fill: #f0d6b7;
      }

      .cls-12 {
        fill: #6d6b6d;
      }
    </style>
  </defs>
  <g id="Layer-1">
    <path class="cls-6" d="m712.24700927734375,481.924009313795068c0,198.10699462890625-157.01702880859375,358.718017578125-350.686004638671875,358.718017578125-193.670013427734375,0-350.656005859375-160.61102294921875-350.656005859375-358.718017578125,0-198.10601806640625,156.985992431640625-358.717010498046875,350.656005859375-358.717010498046875,193.668975830078125,0,350.686004638671875,160.610992431640625,350.686004638671875,358.717010498046875"/>
    <path class="cls-1" d="m25.154006958007812,570.760007848951318S-.218994140625,196.701002111646631,344.43701171875,186.014005651685693l-24.05999755859375-40.090011596679688-187.045013427734375,62.494003295898438-53.121002197265625,61.4630126953125-46.7449951171875,89.522979736328125-26.717010498046875,104.21002197265625,8.031005859375,69.46197509765625"/>
    <path class="cls-7" d="m121.364013671875,237.259000768873193c-61.5570068359375,62.962982177734375-99.616012573242188,149.89300537109375-99.616012573242188,246.040008544921875,0,96.14801025390625,38.121994018554688,183.1090087890625,99.616012573242188,246.00897216796875,61.493988037109375,62.9000244140625,146.392974853515625,101.77203369140625,240.196990966796875,101.77203369140625,93.803009033203125,0,178.639007568359375-38.84002685546875,240.196014404296875-101.77203369140625s99.615966796875-149.8919677734375,99.615966796875-246.00897216796875c0-96.115997314453125-38.1209716796875-183.108001708984375-99.615966796875-246.040008544921875-61.4940185546875-62.930999755859375-146.39300537109375-101.772003173828125-240.196014404296875-101.772003173828125-93.80401611328125,0-178.6400146484375,38.84100341796875-240.196990966796875,101.772003173828125Zm-15.561019897460938,507.298004150390625C40.402999877929688,677.687986364576318,0,585.258970251295068,0,483.330991735670068c0-101.928985595703125,40.434005737304688-194.358001708984375,105.802993774414062-261.225997924804688,65.369003295898438-66.869003295898438,155.860000610351562-108.364997863769531,255.758010864257812-108.333992004394531,99.897003173828125.030998229980469,190.387969970703125,41.464988708496094,255.756988525390625,108.333992004394531,65.3690185546875,66.867996215820312,105.833984375,159.297012329101562,105.833984375,261.225997924804688,0,101.927978515625-40.4329833984375,194.35699462890625-105.833984375,261.22601318359375-65.39996337890625,66.86798095703125-155.8599853515625,108.3330078125-255.756988525390625,108.3330078125-99.89801025390625,0-190.389007568359375-41.46502685546875-255.758010864257812-108.3330078125"/>
    <g>
      <path class="cls-11" d="m509.1719970703125,483.924009313795068l-53.1199951171875,8.030975341796875-72.1810302734375,8.029998779296875-46.7459716796875,1.344024658203125-45.433013916015625-1.344024658203125-34.746978759765625-10.68597412109375-30.71600341796875-33.43499755859375-24.05999755859375-68.118011474609375-5.31201171875-14.68701171875-32.05999755859375-10.686004638671875-18.74798583984375-30.715972900390625-13.592010498046875-44.09002685546875,14.686004638671875-38.745986938476562,34.74700927734375-12.029998779296875,28.058990478515625,13.373001098632812,13.373992919921875,29.37298583984375,16.029998779296875-2.686981201171875,5.31201171875-6.68701171875-5.31201171875-30.715988159179688-1.343994140625-38.74700927734375,8.031005859375-53.1199951171875-.313018798828125-30.527999877929688,24.373016357421875-38.934303283691406,42.746002197265625-30.715900421142578,74.74298095703125-32.403298377990723,82.80499267578125,12.030200004577637,72.1810302734375,52.088998794555664,33.43499755859375,53.120307922363281,21.37298583984375,38.745986938476562,5.31201171875,96.179000854492188-16.030029296875,82.80499267578125-29.3719482421875,73.430999755859375-28.06005859375,38.746002197265625"/>
      <path class="cls-4" d="m463.739013671875,715.028013220045068l-191.045013427734375,8.031005859375v32.0589599609375l16.02899169921875,112.177001953125-8.029998779296875,9.3740234375-133.54998779296875-45.4019775390625-9.373992919921875-16.029052734375-13.3740234375-150.9239501953125-30.715988159179688-90.83502197265625-6.686996459960938-21.37298583984375,106.864990234375-73.4310302734375,33.43499755859375-13.373992919921875,29.37200927734375,36.058990478515625,25.37298583984375,22.717041015625,29.37200927734375,9.37396240234375,13.342010498046875,4,16.029998779296875,69.4620361328125,12.029998779296875,14.68597412109375,30.715972900390625-10.68597412109375-21.37298583984375,41.4019775390625,116.239990234375,54.7760009765625-14.68701171875,8.031005859375"/>
      <path class="cls-12" d="m147.14300537109375,248.820997228834131l34.74700927734375-12.029998779296875,28.058990478515625,13.373001098632812,13.373992919921875,29.37298583984375,16.029998779296875-2.686981201171875,4-16.029998779296875-8.031005859375-30.71600341796875,8.031005859375-73.493011474609375-6.68701171875-40.090995788574219,24.060028076171875-28.059494018554688,52.0889892578125-41.402400970458984-14.686004638671875-19.998201370239258-73.493011474609375,36.059198379516602-30.715972900390625,24.060298919677734-17.3740234375,37.402603149414062-26.71600341796875,36.059005737304688-8.030975341796875,42.746994018554688,5.311981201171875,45.432998657226562"/>
      <path class="cls-3" d="m201.88800048828125,123.206998815748193s19.99798583984375-49.432601928710938,100.208984375-73.430400848388672c80.2120361328125-23.997800827026367,4-17.373401641845703,4-17.373401641845703l-86.866973876953125,33.434402465820312-33.43499755859375,33.434501647949219-14.686004638671875,26.715896606445312,30.71600341796875-2.686996459960938m-39.996002197265625,116.146003723144531s-28.05999755859375-93.52301025390625,78.83599853515625-106.866012573242188l-3.9990234375-16.02899169921875-73.430999755859375,17.373001098632812-21.37298583984375,69.461990356445312,5.31201171875,45.434005737304688,14.68597412109375-9.373992919921875"/>
      <path class="cls-10" d="m204.57501220703125,363.684995641920068l17.49798583984375-16.936004638671875c.360992431640625,5.13201904296875,4.157012939453125,9.365020751953125,9.217987060546875,10.281005859375,1.344024658203125,9.373992919921875,5.31201171875,93.522003173828125,62.495025634765625,138.95599365234375,5.248992919921875,4.156005859375-42.74700927734375-6.686981201171875-42.74700927734375-6.686981201171875l-42.746002197265625-66.8070068359375m241.790985107421875-84.21099853515625s3.1240234375-40.496002197265625,14.06103515625-37.371002197265625c10.93597412109375,3.125,10.93597412109375,14.061004638671875,10.93597412109375,14.061004638671875,0,0-26.49700927734375,17.12298583984375-24.93499755859375,23.37298583984375"/>
    </g>
    <path class="cls-10" d="m561.2919921875,189.981992712232568s-22.02899169921875,4.688003540039062-24.05999755859375,24.061004638671875,24.05999755859375,3.999008178710938,28.05999755859375,2.686996459960938m-165.3599853515625-25.40399169921875s-29.37200927734375,4-29.37200927734375,22.716995239257812,33.43402099609375,17.373001098632812,42.74603271484375,9.374008178710938"/>
    <g>
      <path class="cls-10" d="m217.917999267578125,278.192991247388818s-50.777008056640625-30.746994018554688-56.0889892578125-1.342987060546875c-5.31201171875,29.402984619140625-17.3740234375,50.7760009765625,8.029998779296875,81.49200439453125l-17.373016357421875-5.31201171875-16.029998779296875-41.402008056640625-5.311981201171875-40.089996337890625,30.715972900390625-32.05999755859375,34.74700927734375,2.686996459960938,19.998016357421875,16.030014038085938,1.343994140625,19.99798583984375m24.05999755859375-84.17999267578125s22.717010498046875-117.551300048828125,137.611968994140625-140.611701965332031c94.58502197265625-18.685798645019531,144.26800537109375,3.999603271484375,162.98504638671875,25.372604370117188,0,0-84.17901611328125-100.178302764892578-164.3590087890625-69.462332725524902-80.180999755859375,30.715929985046387-138.925018310546875,87.491927146911621-137.675018310546875,123.207427024841309l1.343017578125,61.462997436523438m309.972015380859375-101.553092956542969s-38.74700927734375-1.343605041503906-40.09002685546875,33.434097290039062c.13800048828125,3.708000183105469,1.0419921875,7.346000671386719,2.656005859375,10.687004089355469,0,0,30.74700927734375-34.747001647949219,49.4329833984375-16.030006408691406m-181.6400146484375,19.623008728027344s-6.65496826171875-53.307304382324219-52.119964599609375-22.310005187988281c-29.37200927734375,19.997993469238281-26.71600341796875,48.120002746582031-21.373016357421875,53.120002746582031,5.343017578125,5,3.906005859375,16.091995239257812,7.968017578125,8.748992919921875,4.061981201171875-7.343002319335938,2.717987060546875-31.433990478515625,17.436004638671875-38.121002197265625,14.71697998046875-6.686996459960938,38.746002197265625-14.154991149902344,48.119964599609375-1.718994140625"/>
      <path class="cls-5" d="m256.66400146484375,501.298002233716943l-125.614013671875,56.120025634765625s52.089019775390625,207.073974609375,25.373016357421875,271.2249755859375l-18.748016357421875-6.68701171875-1.343994140625-78.83697509765625-34.621994018554688-149.33001708984375-14.686004638671875-41.4019775390625,131.237991333007812-88.180023193359375,38.74700927734375,37.402984619140625m12.623016357421875,114.2080078125l17.81097412109375,21.74798583984375v80.1490478515625h-21.37298583984375l-2.656005859375-62.4940185546875c0-6.68701171875,2.656005859375-30.71600341796875,2.656005859375-30.71600341796875m3.968994140625,105.208984375l-60.1199951171875,2.656005859375,17.373992919921875,12.030029296875,42.746002197265625,6.68695068359375"/>
      <g>
        <path class="cls-4" d="m475.76898193359375,716.372007360670068l49.43304443359375-1.343994140625,12.02996826171875,122.92596435546875-50.7769775390625,6.68701171875-10.68603515625-128.23797607421875"/>
        <path class="cls-4" d="m489.14300537109375,716.372007360670068l74.80499267578125-4,30.71600341796875-81.49200439453125c0-4,26.71697998046875-112.177978515625,26.71697998046875-112.177978515625l-60.1199951171875-62.8060302734375-12.02996826171875-10.686981201171875-32.05999755859375,32.05999755859375v124.238006591796875l-28.05999755859375,114.89599609375"/>
      </g>
      <path class="cls-5" d="m522.5460205078125,707.028989782545068l-46.74603271484375,9.3740234375,6.68701171875,37.40301513671875c17.37298583984375,8.02996826171875,46.7459716796875-13.3740234375,46.7459716796875-13.3740234375m-5.375-267.162994384765625l93.52301025390625,69.462005615234375,2.68701171875-32.05902099609375-70.80596923828125-65.462982177734375-25.373046875,28.05999755859375"/>
      <path class="cls-2" d="m316.407989501953125,979.565977087232568l-27.652984619140625-112.23895263671875-13.748992919921875-82.8050537109375-2.281005859375-61.46295166015625,125.175994873046875-6.656005859375h77.89898681640625l-7.093017578125,140.61199951171875,12.030029296875,108.208984375-1.343017578125,19.99798583984375-101.553955078125,8.031005859375-61.4630126953125-13.37396240234375"/>
      <path class="cls-3" d="m458.364013671875,715.028013220045068s-6.68701171875,138.95599365234375,13.37396240234375,237.47796630859375c0,0-40.0899658203125,25.373046875-98.865966796875,32.05999755859375l112.177001953125-4,13.37396240234375-8.02996826171875-16.02996826171875-219.10498046875-3.9990234375-46.77703857421875"/>
      <path class="cls-2" d="m539.51300048828125,827.268003454420068l52.0889892578125-14.68603515625,98.86602783203125-5.31195068359375,14.68597412109375-45.43402099609375-26.71600341796875-78.83599853515625-30.71600341796875-4-42.7459716796875,13.3740234375-41.02801513671875,19.99798583984375-21.77899169921875-4-16.96697998046875,6.656005859375"/>
      <path class="cls-3" d="m538.57598876953125,800.520017614576318s34.74603271484375-16.030029296875,40.09002685546875-14.68603515625l-14.68701171875-73.49298095703125,17.3740234375-6.68701171875,12.02996826171875,77.49298095703125,81.49298095703125,3.9990234375s16.029052734375-30.71600341796875,12.030029296875-62.4940185546875l14.68597412109375,42.74603271484375,1.343017578125,24.06097412109375-21.37298583984375,32.05902099609375-24.05999755859375,5.31201171875-40.09002685546875-1.343994140625-13.37396240234375-17.373046875-46.7449951171875,6.68701171875-14.68701171875,5.31201171875"/>
    </g>
    <path class="cls-2" d="m486.04901123046875,705.653989782545068l-29.37200927734375-74.80596923828125-30.71600341796875-44.05804443359375s6.68701171875-18.74798583984375,16.030029296875-18.74798583984375h30.7159423828125l29.37200927734375,10.68603515625-2.656005859375,49.4329833984375-13.37396240234375,77.49298095703125"/>
    <path class="cls-3" d="m491.79901123046875,680.343992223951318s-37.40301513671875-72.18096923828125-37.40301513671875-82.80499267578125c0,0,6.68701171875-16.030029296875,16.030029296875-12.030029296875,9.34197998046875,3.9990234375,29.3719482421875,14.68603515625,29.3719482421875,14.68603515625v-25.37298583984375l-45.4329833984375-9.3740234375-30.71600341796875,4,52.0889892578125,122.926025390625,10.68603515625,1.343994140625"/>
    <path class="cls-2" d="m328.376007080078125,503.954008093091943l-36.996002197265625-4.06201171875-34.74700927734375-10.68701171875v12.029998779296875l16.967010498046875,18.74798583984375,53.1199951171875,24.06103515625"/>
    <g>
      <path class="cls-3" d="m268.694000244140625,507.984983434888818s41.402984619140625,17.37298583984375,54.7760009765625,13.37298583984375l1.343994140625,16.030029296875-37.402984619140625-7.9990234375-22.717010498046875-16.02996826171875,4-5.31201171875"/>
      <path class="cls-6" d="m539.35699462890625,572.635007848951318c-22.65399169921875-.625-43.1209716796875-3.343994140625-61.0880126953125-8.43701171875,1.2490234375-7.343017578125-1.06298828125-14.56097412109375.781005859375-19.87298583984375,4.9990234375-3.593017578125,13.3740234375-3.531005859375,20.93499755859375-4.375-6.56201171875-3.218017578125-15.71697998046875-4.468017578125-23.24798583984375-2.6240234375-.18701171875-5.093994140625-2.4990234375-8.25-3.843017578125-12.24896240234375,12.7490234375-4.56201171875,42.80902099609375-34.372039794921875,59.7449951171875-24.498016357421875,8.06103515625,4.686981201171875,11.4990234375,31.559967041015625,12.123046875,44.558013916015625.531982421875,10.81195068359375-.93701171875,21.74798583984375-5.405029296875,27.49798583984375"/>
    </g>
    <path class="cls-13" d="m539.35699462890625,572.635007848951318c-22.65399169921875-.625-43.1209716796875-3.343994140625-61.0880126953125-8.43701171875,1.2490234375-7.343017578125-1.06298828125-14.56097412109375.781005859375-19.87298583984375,4.9990234375-3.593017578125,13.3740234375-3.531005859375,20.93499755859375-4.375-6.56201171875-3.218017578125-15.71697998046875-4.468017578125-23.24798583984375-2.6240234375-.18701171875-5.093994140625-2.4990234375-8.25-3.843017578125-12.24896240234375,12.7490234375-4.56201171875,42.80902099609375-34.372039794921875,59.7449951171875-24.498016357421875,8.06103515625,4.686981201171875,11.4990234375,31.559967041015625,12.123046875,44.558013916015625.531982421875,10.81195068359375-.93701171875,21.74798583984375-5.405029296875,27.49798583984375Z"/>
    <path class="cls-6" d="m430.96002197265625,535.575986852857568l-.18701171875,5.18701171875c-7.093017578125,4.68701171875-18.49798583984375,4.593017578125-26.24798583984375,8.4990234375,11.43695068359375.5,20.46697998046875,3.25,28.27899169921875,7.18695068359375l-.5,12.967041015625c-12.968017578125,8.875-24.80999755859375,22.12298583984375-40.09002685546875,30.43499755859375-7.18701171875,3.93701171875-32.55999755859375,14.06097412109375-40.246002197265625,12.27996826171875-4.375-1-4.75-6.40496826171875-6.467987060546875-11.49896240234375-3.68798828125-10.93603515625-12.18701171875-28.21600341796875-12.967987060546875-44.62103271484375-.93701171875-20.71600341796875-3.031005859375-55.4010009765625,19.27899169921875-51.1510009765625,18.449981689453125,3.91400146484375,36.251007080078125,10.426025390625,52.871002197265625,19.342041015625,8.52996826171875,4.68695068359375,13.43597412109375,10.40496826171875,26.37200927734375,11.40496826171875"/>
    <path class="cls-13" d="m430.96002197265625,535.575986852857568l-.18701171875,5.18701171875c-7.093017578125,4.68701171875-18.49798583984375,4.593017578125-26.24798583984375,8.4990234375,11.43695068359375.5,20.46697998046875,3.25,28.27899169921875,7.18695068359375l-.5,12.967041015625c-12.968017578125,8.875-24.80999755859375,22.12298583984375-40.09002685546875,30.43499755859375-7.18701171875,3.93701171875-32.55999755859375,14.06097412109375-40.246002197265625,12.27996826171875-4.375-1-4.75-6.40496826171875-6.467987060546875-11.49896240234375-3.68798828125-10.93603515625-12.18701171875-28.21600341796875-12.967987060546875-44.62103271484375-.93701171875-20.71600341796875-3.031005859375-55.4010009765625,19.27899169921875-51.1510009765625,18.449981689453125,3.91400146484375,36.251007080078125,10.426025390625,52.871002197265625,19.342041015625,8.52996826171875,4.68695068359375,13.43597412109375,10.40496826171875,26.37200927734375,11.40496826171875l-.093994140625-.031005859375Z"/>
    <path class="cls-6" d="m443.833984375,560.291990270826318c-1.96795654296875-11.24896240234375-4.281005859375-14.49798583984375-3.37396240234375-24.37298583984375,30.09100341796875-20.05999755859375,35.7149658203125,34.43499755859375,3.37396240234375,24.37298583984375"/>
    <path class="cls-13" d="m443.833984375,560.291990270826318c-1.96795654296875-11.24896240234375-4.281005859375-14.49798583984375-3.37396240234375-24.37298583984375,30.09100341796875-20.05999755859375,35.7149658203125,34.43499755859375,3.37396240234375,24.37298583984375Z"/>
    <path class="cls-1" d="m487.42401123046875,569.416013708326318s-9.3740234375-13.37298583984375-2.68701171875-17.37298583984375,13.3740234375,0,17.37298583984375-6.68701171875c4-6.68701171875,0-10.68603515625,1.343994140625-18.748046875,1.343017578125-8.06195068359375,8.030029296875-9.37396240234375,14.68603515625-10.68695068359375,6.656005859375-1.31201171875,25.37298583984375-3.9990234375,28.05999755859375,2.68798828125l-8.031005859375-24.061004638671875-16.02899169921875-5.31201171875-50.77703857421875,29.373016357421875-2.68695068359375,14.68597412109375v29.37200927734375m-121.864013671875,50.8079833984375l-5.18701171875-62.49395751953125c-3.125-31.09100341796875,7.498992919921875-25.68603515625,34.43402099609375-25.68603515625,4.125,0,24.99798583984375,4.906005859375,26.87298583984375,8.031005859375,7.27996826171875,14.8740234375-12.4990234375,11.56103515625,8.43701171875,22.80999755859375,17.37298583984375,9.468017578125,48.0579833984375-5.74896240234375,41.0269775390625-26.80999755859375-3.93701171875-4.68701171875-20.46697998046875-1.468017578125-26.40399169921875-4.531005859375l-31.30902099609375-16.24798583984375c-13.27996826171875-6.873992919921875-43.964996337890625-16.936004638671875-58.1199951171875-7.31201171875-35.871978759765625,24.37298583984375,2.25,85.36700439453125,15.061004638671875,110.802001953125"/>
    <path class="cls-7" d="m382.2769775390625,140.175001135084131c-36.4019775390625-8.436996459960938-54.494964599609375,15.248001098632812-65.55596923828125,39.839996337890625-9.843017578125-2.375-6.2490234375-15.779998779296875-3.125-22.623001098632812,6.25-17.936004638671875,32.80999755859375-41.777999877929688,54.2449951171875-38.558998107910156,9.2490234375,1.405998229980469,21.74798583984375,9.842994689941406,14.7490234375,21.342002868652344m177.10894775390625,41.151992797851562l1.718017578125.063003540039062c8.218017578125,17.091995239257812,15.6240234375,35.214996337890625,25.71697998046875,49.9949951171875-6.96795654296875,16.186004638671875-52.6519775390625,30.527999877929688-51.9639892578125,1.43701171875,9.8740234375-4.31201171875,26.93499755859375-.875,35.71502685546875-6.404998779296875-5.06201171875-13.905014038085938-12.3740234375-25.748001098632812-11.2490234375-45.402008056640625m-158.7349853515625,1.061996459960938c7.81097412109375,14.311004638671875,10.31097412109375,29.37200927734375,21.43499755859375,40.152999877929688,5,4.874008178710938,14.68597412109375,10.811004638671875,9.906005859375,24.37200927734375-3.41302490234375,5.222000122070312-8.30999755859375,9.302993774414062-14.06201171875,11.718002319335938-17.34197998046875,5.125-57.8070068359375,1.061981201171875-43.7459716796875-20.561004638671875,14.37396240234375.625,33.62200927734375,9.311996459960938,44.3709716796875-1.093002319335938-8.24896240234375-13.123992919921875-22.90399169921875-39.214996337890625-17.49798583984375-54.557998657226562m152.1729736328125,145.45599365234375c-26.12200927734375,16.77899169921875-55.24395751953125,34.996002197265625-98.052978515625,30.808990478515625-9.155029296875-7.93597412109375-12.6240234375-25.621978759765625-3.75-37.339996337890625,4.625,7.93701171875,1.718994140625,22.592010498046875,14.6240234375,24.779022216796875,24.27899169921875,4.155975341796875,52.5579833984375-14.842010498046875,69.99395751953125-21.498016357421875,10.842041015625-18.279998779296875-.93798828125-24.99798583984375-10.68701171875-36.74700927734375-19.99798583984375-24.05999755859375-46.7769775390625-53.931991577148438-45.8079833984375-89.990982055664062,8.06103515625-5.844009399414062,8.7490234375,8.935989379882812,9.93603515625,11.623001098632812,10.43695068359375,24.373001098632812,36.6839599609375,55.6199951171875,55.8389892578125,76.555999755859375,4.68701171875,5.156005859375,12.49896240234375,10.092987060546875,13.31097412109375,13.498992919921875,2.5,9.904998779296875-6.46795654296875,21.748016357421875-5.43701171875,28.34100341796875m-344.655975341796875-17.717010498046875c-8.186004638671875-4.686981201171875-10.123992919921875-25.24798583984375-19.74798583984375-25.84197998046875-13.7490234375-.843017578125-11.2490234375,26.71697998046875-11.186004638671875,42.808990478515625-9.468017578125-8.592987060546875-11.1240234375-34.99700927734375-4.18701171875-48.5889892578125-7.906005859375-3.875-11.467987060546875,4.280975341796875-15.842987060546875,7.18597412109375,5.625-40.995986938476562,59.9949951171875-18.74798583984375,50.9329833984375,24.467010498046875m361.061004638671875,34.37200927734375c-12.4990234375,23.12298583984375-29.37298583984375,48.6199951171875-65.0570068359375,49.3699951171875-.718017578125-7.498992919921875-1.25-18.842010498046875.031005859375-23.34100341796875,27.27899169921875-2.625,44.12103271484375-16.498992919921875,64.9940185546875-26.02899169921875m-170.9210205078125,14.99798583984375c22.74798583984375,11.968017578125,64.58697509765625,13.2490234375,95.52203369140625,12.343017578125,1.65594482421875,6.781005859375,1.625,15.154998779296875,1.68695068359375,23.43499755859375-39.7769775390625,1.968994140625-86.77294921875-7.811004638671875-96.865966796875-35.77801513671875m-4.3740234375,22.311004638671875c15.74798583984375,39.52801513671875,69.8370361328125,34.99700927734375,115.4580078125,33.87200927734375-2,5.123992919921875-6.3740234375,11.186004638671875-11.77996826171875,13.373992919921875-14.6240234375,6.248992919921875-54.93304443359375,10.467010498046875-75.2120361328125-.31298828125-12.87396240234375-6.8740234375-21.12298583984375-22.30999755859375-28.18499755859375-31.37200927734375-3.125-4.375-20.37298583984375-15.561004638671875-.25-15.623992919921875"/>
    <path class="cls-9" d="m551.29302978515625,599.913999548170068l-58.0570068359375,92.02197265625c9.18695068359375-26.9969482421875,13.12396240234375-72.17999267578125,14.49896240234375-106.677001953125,19.217041015625-8.99896240234375,35.68402099609375,2.031005859375,43.55804443359375,14.68603515625"/>
    <path class="cls-7" d="m650.65899658203125,713.591001501295068c-20.68597412109375,4.1240234375-35.21502685546875,24.24700927734375-55.3699951171875,22.93499755859375,11.093017578125-15.62298583984375,30.49700927734375-21.87298583984375,55.3699951171875-22.93499755859375m9.1240234375,32.37200927734375c-16.873046875,1.781005859375-36.65301513671875,4.49896240234375-53.7449951171875,3.12396240234375,8.12396240234375-12.37298583984375,39.2779541015625-8.12396240234375,53.7449951171875-3.12396240234375m5.84295654296875,27.87200927734375c-18.93499755859375.406005859375-42.4959716796875.031005859375-60.49395751953125-1.468017578125,10.62396240234375-11.43701171875,48.2139892578125-4.25,60.49395751953125,1.468017578125"/>
    <path class="cls-3" d="m515.6400146484375,850.203001013013818c2.718994140625,23.74798583984375,12.18701171875,47.9019775390625,10.93701171875,73.93096923828125-10.468017578125,3.531005859375-16.4990234375,6.6240234375-30.529052734375,6.56201171875l-3.06195068359375-77.08697509765625c6.87396240234375.468994140625,17.09197998046875-4.93701171875,22.62298583984375-3.125"/>
    <path class="cls-11" d="m485.11199951171875,499.609983434888818c-9.4990234375,6.25-17.6240234375,13.968017578125-26.74798583984375,20.62298583984375-20.24798583984375,1-31.30902099609375-1.40594482421875-46.1829833984375-13.02996826171875.25-.93701171875,1.75-.531005859375,1.78094482421875-1.656005859375,21.68499755859375,9.68701171875,49.2449951171875-3.93701171875,71.1500244140625-5.93701171875"/>
    <path class="cls-9" d="m371.27801513671875,647.408994665357568c5.93701171875-25.80999755859375,29.30999755859375-39.18402099609375,50.4959716796875-53.4320068359375,21.87298583984375,27.80999755859375,35.18402099609375,63.4310302734375,49.8389892578125,97.92803955078125-34.6219482421875-10.43603515625-69.99395751953125-27.37200927734375-100.302978515625-44.52703857421875"/>
    <path class="cls-7" d="m493.04901123046875,853.640012731763818c-.875,21.09197998046875,2.06201171875,54.9949951171875,3.06201171875,77.08697509765625,14.06097412109375.031005859375,20.05999755859375-3.06201171875,30.5279541015625-6.56201171875,1.18804931640625-26.05999755859375-8.24896240234375-50.1519775390625-10.93597412109375-73.93096923828125-5.531005859375-1.468017578125-15.718017578125,3.906005859375-22.62298583984375,3.125l-.031005859375.281005859375Zm-218.480010986328125-119.989013671875c9.248992919921875,85.05499267578125,22.65399169921875,156.23602294921875,47.2449951171875,231.85400390625,54.558013916015625,16.56097412109375,120.302032470703125,17.99798583984375,168.547027587890625,3.06201171875-8.843017578125-42.49603271484375-4.9990234375-94.27203369140625-10.155029296875-139.67401123046875l-7.2490234375-103.21002197265625c-58.4329833984375-12.18597412109375-141.01898193359375-2.81201171875-198.356964111328125,7.875l-.031005859375.093017578125Zm212.480010986328125-7.343017578125c-.5,36.55902099609375,1.625,72.5560302734375,4.43701171875,109.14703369140625l36.5589599609375-6.375c-4.21795654296875-35.21502685546875-3.74896240234375-74.8370361328125-12.34197998046875-105.989990234375-9.9990234375.093994140625-18.7490234375-.125-28.68499755859375,3.21795654296875h.031005859375Zm71.14996337890625-5.87396240234375c-6.65594482421875-1.56304931640625-14.37396240234375-.06304931640625-20.77996826171875.06195068359375l12.4990234375,93.89801025390625c9.99896240234375.31201171875,15.31097412109375-4.375,23.59197998046875-5.99896240234375.43701171875-27.43499755859375-2.406005859375-65.2449951171875-15.6240234375-87.96099853515625h.31298828125Zm107.74005126953125,98.427978515625c20.87298583984375-5.06201171875,33.96600341796875-30.62200927734375,28.1219482421875-56.8690185546875-3.90594482421875-17.62396240234375-10.87396240234375-50.8399658203125-18.34197998046875-62.1199951171875-5.4990234375-8.34295654296875-20.46697998046875-19.27899169921875-32.40301513671875-11.62396240234375-19.43597412109375,12.43695068359375-53.6510009765625,16.06097412109375-67.80596923828125,31.09100341796875,7.093017578125,23.65399169921875,9.31097412109375,56.1199951171875,12.24896240234375,86.08599853515625,24.279052734375,1.5,54.12005615234375-6.68701171875,74.3050537109375,2-14.06103515625,4.56195068359375-32.37200927734375,4.59295654296875-44.52703857421875,11.24896240234375,9.93701171875,4.81201171875,33.24700927734375,3.843017578125,48.4329833984375.156005859375l-.03094482421875.031005859375Zm-193.9820556640625-126.86297607421875c-14.68597412109375-34.46600341796875-27.9659423828125-70.1810302734375-49.8389892578125-97.92901611328125-21.18597412109375,14.218017578125-44.5279541015625,27.59197998046875-50.4959716796875,53.4329833984375,30.30999755859375,17.18603515625,65.7130126953125,34.05902099609375,100.302978515625,44.52703857421875l.031982421875-.031005859375Zm36.12103271484375-106.70904541015625c-1.3740234375,34.46600341796875-5.31201171875,79.67999267578125-14.49798583984375,106.67803955078125,21.87298583984375-27.90399169921875,39.5899658203125-60.4010009765625,58.0570068359375-92.02301025390625-7.8740234375-12.6240234375-24.373046875-23.65399169921875-43.55902099609375-14.68603515625v.031005859375Zm-40.62103271484375-14.56097412109375c-8.31195068359375-.93798828125-15.31097412109375,9.52996826171875-26.15399169921875,4.9990234375l-7.24896240234375,8.375c23.84100341796875,28.7469482421875,34.37200927734375,69.49298095703125,53.1199951171875,103.239990234375,9.87396240234375-32.43402099609375,8.74896240234375-67.9620361328125,10.93701171875-103.364990234375-13.56201171875.875-21.092041015625-12.281005859375-30.623046875-13.280029296875l-.031005859375.031005859375Zm-26.3409423828125-34.74700927734375c-.875,9.843017578125,1.40594482421875,13.06103515625,3.37396240234375,24.37298583984375,32.34100341796875,10.1240234375,26.68603515625-44.3709716796875-3.37396240234375-24.37298583984375Zm-35.87200927734375-11.77996826171875c-16.6199951171875-8.916015625-34.420013427734375-15.42803955078125-52.870025634765625-19.342041015625-22.311004638671875-4.280975341796875-20.21697998046875,30.43499755859375-19.279998779296875,51.1510009765625.75,16.405029296875,9.281005859375,33.74700927734375,12.968017578125,44.62103271484375,1.75,5.093994140625,2.125,10.46795654296875,6.467987060546875,11.49896240234375,7.68701171875,1.781005859375,33.027984619140625-8.34295654296875,40.246002197265625-12.27996826171875,15.31201171875-8.343017578125,27.12298583984375-21.87298583984375,40.09100341796875-30.43499755859375l.4990234375-12.967041015625c-7.81103515625-3.875-16.80999755859375-6.65594482421875-28.27801513671875-7.18695068359375,7.81201171875-3.906005859375,19.18597412109375-3.843017578125,26.24700927734375-8.4990234375l.18798828125-5.18701171875c-12.93603515625-1-17.81103515625-6.75-26.37298583984375-11.40496826171875l.093994140625.031005859375Zm-133.113006591796875-24.185028076171875c-11.561004638671875,11.748016357421875,32.43499755859375,27.746978759765625,46.464996337890625,28.621978759765625-.093994140625-7.43695068359375,4.248992919921875-14.43597412109375,3.373992919921875-19.77996826171875-16.65399169921875-2.93701171875-38.527008056640625-.9990234375-49.8070068359375-8.842010498046875h-.031982421875Zm142.486968994140625,5.498992919921875c-.06195068359375,1.156005859375-1.56195068359375.718994140625-1.781005859375,1.656005859375,14.8740234375,11.6240234375,25.93499755859375,14.06097412109375,46.18304443359375,13.030029296875l26.74798583984375-20.623016357421875c-21.87298583984375,1.968994140625-49.4639892578125,15.561004638671875-71.1500244140625,5.936981201171875Zm130.801025390625,39.68402099609375c-.625-13.06103515625-4.06201171875-39.871002197265625-12.1240234375-44.55902099609375-16.93597412109375-9.873992919921875-47.0269775390625,19.93603515625-59.7449951171875,24.49798583984375,1.375,4,3.68701171875,7.18701171875,3.843994140625,12.2490234375,7.4990234375-1.875,16.717041015625-.625,23.248046875,2.625-7.56201171875.843994140625-15.6240234375.781005859375-20.93603515625,4.3740234375-1.875,5.31195068359375.43701171875,12.49896240234375-.781005859375,19.87396240234375,17.93603515625,5.06201171875,38.43402099609375,7.7490234375,61.0880126953125,8.43603515625,4.375-5.718017578125,5.93701171875-16.65399169921875,5.406005859375-27.49700927734375Zm-292.7860107421875-33.80902099609375c-3.625-2.593994140625-28.21600341796875-34.55999755859375-31.24700927734375-33.246978759765625-44.464996337890625,17.49798583984375-86.022979736328125,47.808013916015625-123.175979614257812,76.554962158203125,35.434005737304688,75.9930419921875,49.682998657226562,169.14105224609375,52.244979858398438,258.88299560546875,40.621002197265625,18.967041015625,76.243011474609375,46.33905029296875,131.238006591796875,49.18304443359375l-15.811004638671875-127.739013671875c-13.842987060546875-5.843017578125-33.68499755859375.25-46.621002197265625-1.81201171875-.125-15.62396240234375,19.779998779296875-6.87396240234375,21.436004638671875-17.31097412109375,1.25-7.93701171875-10.936981201171875-8.530029296875-6.967987060546875-21.02899169921875,10.123992919921875,3.68695068359375,15.436004638671875,11.81097412109375,26.24700927734375,14.84197998046875,9.873992919921875-21.55999755859375-.125-59.7440185546875,1.25-78.11798095703125.31298828125-3.3740234375,1.686981201171875-18.748046875,9.279998779296875-16.06103515625,6.718994140625,2.375-.375,40.93402099609375.31298828125,57.9639892578125.625,15.717041015625-1.875,31.24700927734375,4.467987060546875,40.80804443359375,53.214019775390625-7.2490234375,107.27203369140625-11.93603515625,164.82904052734375-13.498046875-12.655029296875-5.43695068359375-27.71600341796875-10.62396240234375-44.21502685546875-19.87396240234375-8.93701171875-4.9990234375-37.121002197265625-15.52899169921875-39.683990478515625-24.05999755859375-4.1240234375-13.530029296875,10.811981201171875-20.74798583984375,13.342987060546875-32.34100341796875-26.87298583984375,14.68701171875-32.09100341796875-14.06103515625-38.433990478515625-34.37103271484375-5.75-18.43597412109375-9.06201171875-32.18499755859375-10.43701171875-42.8089599609375-23.12298583984375-11.030029296875-47.8699951171875-21.873046875-67.805999755859375-36.34002685546875l-.25.375Zm269.25701904296875-29.37298583984375c37.0589599609375-17.967010498046875,43.7459716796875,67.1820068359375,29.21600341796875,94.55401611328125,2.24896240234375,8.18695068359375,9.99896240234375,11.31097412109375,13.12298583984375,18.65496826171875l-64.6810302734375,108.2080078125c15.68603515625-9.77996826171875,38.12103271484375-1.7490234375,56.24505615234375-9.3740234375,6.74896240234375-2.65594482421875,11.62396240234375-18.12298583984375,16.74798583984375-30.46600341796875,14.06097412109375-33.9969482421875,28.80999755859375-76.86798095703125,35.37200927734375-109.364990234375,1.468994140625-7.40496826171875,5.53094482421875-23.49798583984375,4.625-30.09100341796875-1.625-11.77996826171875-17.593017578125-20.52899169921875-25.748046875-28.121978759765625l-39.9959716796875-37.87200927734375c-6.343994140625,9.375-19.93603515625,15.6240234375-25.12298583984375,23.248016357421875l.218994140625.625ZM167.2969970703125,153.454999914381006c-17.654998779296875,19.43499755859375-13.967010498046875,55.806991577148438-11.811004638671875,81.71099853515625,31.87200927734375-20.061004638671875,74.243011474609375,1.561996459960938,73.868011474609375,35.715011596679688,15.248992919921875-.406005859375,5.686981201171875-19.060012817382812,2.936981201171875-31.02801513671875-8.998992919921875-39.183990478515625,15.186004638671875-81.742996215820312,1.094024658203125-117.583000183105469-27.34100341796875,2.062004089355469-49.777008056640625,13.249000549316406-66.0570068359375,31.185005187988281h-.031005859375Zm126.300994873046875-112.740100860595703c-39.996002197265625,11.311500549316406-91.178985595703125,40.371295928955078-107.583984375,76.243099212646484,12.717987060546875-1.875,21.561004638671875-8.249000549316406,34.05999755859375-9.374000549316406,4.748992919921875-.312995910644531,10.936004638671875,2,16.40399169921875.625,10.843017578125-2.687995910644531,19.998016357421875-27.028999328613281,28.21600341796875-36.0906982421875,8-8.842903137207031,17.592987060546875-12.623802185058594,24.15399169921875-20.685600280761719,4.218994140625-2.031101226806641,10.468017578125-1.874801635742188,10.68701171875-8.218002319335938-1.875-1.968597412109375-3.75-3.124698638916016-6.248992919921875-3.124698638916016l.311981201171875.624900817871094Zm208.011993408203125,10.624099731445312c-41.4649658203125-23.341701507568359-111.677001953125-40.93380069732666-155.7979736328125-18.96710205078125-35.62200927734375,17.748401641845703-83.74200439453125,47.120700836181641-100.147003173828125,84.367099761962891,15.311004638671875,35.934005737304688-4.531005859375,68.837997436523438-5.81201171875,105.303009033203125-.68701171875,19.37298583984375,9.123992919921875,36.339981079101562,9.873992919921875,57.494979858398438-5.248992919921875,8.654998779296875-21.24798583984375,9.686004638671875-32.371978759765625,9.1240234375-3.75-18.686004638671875-10.31201171875-39.684005737304688-29.49700927734375-41.809005737304688-27.18499755859375-2.968002319335938-47.121002197265625,19.560989379882812-48.371002197265625,43.120986938476562-1.467987060546875,27.68499755859375,21.24798583984375,73.587005615234375,53.4949951171875,70.399993896484375,12.43701171875-1.25,15.498992919921875-13.748992919921875,29.05999755859375-13.59197998046875,7.343017578125,14.686004638671875-11.342987060546875,19.27899169921875-13.248992919921875,29.74700927734375-.5,2.717987060546875,1.56298828125,13.31097412109375,2.75,18.27899169921875,5.842987060546875,24.186004638671875,18.904998779296875,55.4639892578125,31.74700927734375,73.868988037109375,16.311004638671875,23.34100341796875,48.3079833984375,26.87200927734375,82.80499267578125,29.15301513671875,6.156005859375-13.2490234375,28.80999755859375-12.186004638671875,43.589996337890625-8.686004638671875-17.686004638671875-7-34.152984619140625-23.998016357421875-47.8079833984375-39.058990478515625-15.6240234375-17.2490234375-31.560028076171875-35.77801513671875-32.34100341796875-58.339019775390625,29.59100341796875,41.058990478515625,54.056976318359375,76.930999755859375,107.864990234375,94.99200439453125,40.71502685546875,13.654998779296875,88.30401611328125-6.25,119.5830078125-28.24798583984375,12.99896240234375-9.1240234375,20.74798583984375-23.623016357421875,29.99700927734375-36.87200927734375,34.5279541015625-49.9949951171875,50.6199951171875-120.613006591796875,47.1209716796875-189.357009887695312-1.468994140625-28.340988159179688-1.406005859375-56.556991577148438-10.93701171875-75.617996215820312-9.93597412109375-19.936004638671875-43.5579833984375-37.808998107910156-63.24395751953125-19.748001098632812-3.656005859375-19.374000549316406,16.37396240234375-31.372993469238281,39.8709716796875-24.372993469238281-16.74798583984375-21.623207092285156-34.3709716796875-47.620803833007812-58.1820068359375-61.057102203369141v-.124900817871094Zm77.27398681640625,639.535022735595703c32.404052734375-16.1240234375,92.96099853515625-43.37103271484375,113.302001953125.06195068359375,7.5,15.9990234375,16.31201171875,43.05902099609375,20.18603515625,59.58905029296875,5.5,23.30999755859375-6.2490234375,72.30596923828125-29.90301513671875,80.14898681640625-21.15496826171875,6.87396240234375-45.8709716796875,6.49896240234375-71.3690185546875,1.375-3-2.5-6.34295654296875-6.875-8.68695068359375-11.3740234375-18.217041015625-.718994140625-35.24603271484375.93701171875-49.6199951171875,8.43603515625,1.375,13.43695068359375-7.7490234375,15.62396240234375-16.248046875,18.43597412109375-6.343994140625,25.09197998046875,12.655029296875,57.8699951171875,8.1240234375,80.74298095703125-3.25,16.31103515625-23.31103515625,18.80999755859375-38.02801513671875,21.873046875-.468994140625,9.37396240234375.625,16.62298583984375,1.656005859375,24.27899169921875-3.375,12.40496826171875-18.49798583984375,19.49798583984375-32.80902099609375,21.24798583984375-47.1209716796875,5.6199951171875-118.676971435546875,8.219970703125-164.0479736328125-8.1240234375-12.654998779296875-31.02899169921875-22.623016357421875-68.74395751953125-33.12200927734375-104.2099609375-44.2139892578125,4.68701171875-79.99200439453125-19.05999755859375-113.677001953125-34.68402099609375-11.686004638671875-5.406005859375-28.121978759765625-8.43701171875-32.183990478515625-17.68597412109375-4.218994140625-8.9990234375-2.5-26.24700927734375-3.531005859375-42.49603271484375-2.656005859375-41.5589599609375-5-81.71099853515625-15.623992919921875-124.30096435546875-4.936996459960938-19.123046875-13.529998779296875-35.93402099609375-19.529006958007812-54.37005615234375-5.530990600585938-17.06097412109375-15.218002319335938-38.1219482421875-17.748992919921875-55.18194580078125-3.749008178710938-25.217041015625,19.998001098632812-26.623046875,35.18499755859375-37.55999755859375,23.435012817382812-16.873016357421875,41.870986938476562-26.247039794921875,67.336990356445312-41.49603271484375,7.4990234375-4.531005859375,30.24700927734375-15.62298583984375,32.80999755859375-21.24798583984375,5.1240234375-10.436004638671875-8.811981201171875-25.154022216796875-12.498992919921875-33.339996337890625-5.936981201171875-12.93701171875-8.967987060546875-23.936004638671875-9.811981201171875-36.71600341796875-21.342010498046875-3.375-37.496002197265625-16.061004638671875-47.277008056640625-30.37200927734375-16.154998779296875-23.68499755859375-27.37200927734375-67.493988037109375-13.373992919921875-100.834991455078125,1.093994140625-2.624008178710938,6.25-7.811004638671875,7.375-11.811004638671875,1.561981201171875-7.936996459960938-3-18.498001098632812-3.281005859375-26.93499755859375-1.468994140625-43.340011596679688,7.342987060546875-80.618011474609375,36.496978759765625-93.741004943847656,11.873016357421875-46.871101379394531,54.2130126953125-62.807201385498047,94.147003173828125-86.305000305175781,14.936004638671875-8.749200820922852,31.37200927734375-14.373699188232422,48.371002197265625-20.623100280761719,60.9320068359375-22.435459136962891,154.4849853515625-18.217099666595459,205.07501220703125,20.060600280761719,21.43499755859375,16.248500823974609,55.7449951171875,50.464202880859375,67.99298095703125,75.305503845214844,32.40399169921875,65.462989807128906,30.09100341796875,174.890007019042969,7.43701171875,254.538993835449219-3.031005859375,10.68701171875-7.4990234375,26.40399169921875-13.6240234375,39.24700927734375-4.31195068359375,8.967987060546875-17.65399169921875,26.871978759765625-16.02899169921875,34.839996337890625,1.656005859375,8.18701171875,30.46600341796875,30.05999755859375,36.65301513671875,36.027984619140625,11.1240234375,10.718017578125,32.24700927734375,24.998016357421875,33.96502685546875,38.49700927734375,1.875,14.37298583984375-6.343017578125,34.12200927734375-10.4990234375,48.0260009765625l-43.1209716796875,130.614013671875"/>
    <path class="cls-10" d="m362.65399169921875,369.747007360670068c1.75-2.343017578125,11.43701171875-5.93701171875,24.99798583984375.625,0,0-16.02996826171875,2.686981201171875-14.68597412109375,29.371978759765625l-6.68701171875-1.342987060546875s-6.873992919921875-24.24798583984375-3.561981201171875-28.68499755859375"/>
    <path class="cls-8" d="m479.79998779296875,599.476011266920068c0,4.06201171875-3.281005859375,7.34295654296875-7.343017578125,7.34295654296875-4.06195068359375,0-7.34295654296875-3.28094482421875-7.34295654296875-7.34295654296875s3.281005859375-7.343017578125,7.34295654296875-7.343017578125c4.06201171875,0,7.343017578125,3.281005859375,7.343017578125,7.343017578125m7.31201171875,34.37200927734375c0,4.06195068359375-3.281005859375,7.34295654296875-7.343017578125,7.34295654296875-4.06298828125,0-7.343994140625-3.281005859375-7.343994140625-7.34295654296875,0-4.06201171875,3.281005859375-7.343017578125,7.343994140625-7.343017578125,4.06201171875,0,7.343017578125,3.281005859375,7.343017578125,7.343017578125"/>
  </g>
</svg>