<?xml version="1.0" encoding="UTF-8"?>
<svg id="Layer_1" data-name="Layer 1" xmlns="http://www.w3.org/2000/svg" viewBox="0 0 999.999392920085484 973.77301025390625">
  <defs>
    <style>
      .cls-1 {
        fill: #fff;
      }

      .cls-1, .cls-2 {
        fill-rule: evenodd;
      }

      .cls-2 {
        fill: #326de6;
      }
    </style>
  </defs>
  <g id="Layer-1">
    <g>
      <path class="cls-2" d="m319.2760026833339,958.2550048828125c-23.27801513671875,0-45.260986328125-10.343994140625-60.13299560546875-29.09600830078125L32.839803495101478,647.8900146484375c-14.872802734375-18.75201416015625-20.690402030944824-42.6719970703125-14.872802734375-65.95501708984375L98.790803708724525,230.83599853515625c5.171195983886719-23.277999877929688,20.690200805664062-42.029998779296875,42.031204223632812-52.373992919921875L467.99701098411515,21.9822998046875c10.34698486328125-5.167699813842773,21.985992431640625-7.755399703979492,33.625-7.755399703979492,11.63897705078125,0,23.27398681640625,2.583799362182617,33.6209716796875,7.759401321411133l327.17901611328125,155.829692840576172c21.33697509765625,10.344009399414062,36.85498046875,29.09600830078125,42.0269775390625,52.374008178710938l80.82403564453125,351.0989990234375c5.17498779296875,23.27899169921875,0,47.2030029296875-14.8690185546875,65.95501708984375l-226.31097412109375,281.26898193359375c-14.873046875,18.10198974609375-36.85504150390625,29.09600830078125-60.13299560546875,29.09600830078125l-364.676025390625.64599609375h-.00799560546875Z"/>
      <path class="cls-1" d="m500.967988767318275,30.3916015625c9.055023193359375,0,18.107025146484375,1.937896728515625,26.511993408203125,5.817600250244141l327.17901611328125,155.829799652099609c16.81097412109375,8.406005859375,29.74200439453125,23.923995971679688,33.62103271484375,42.031005859375l80.823974609375,351.0989990234375c4.5260009765625,18.75299072265625,0,38.1510009765625-12.2850341796875,53.02001953125l-226.30694580078125,281.27197265625c-11.6390380859375,14.8690185546875-29.7449951171875,23.2750244140625-48.4940185546875,23.2750244140625h-362.74200439453125c-18.75299072265625,0-36.855010986328125-8.406005859375-48.493988037109375-23.2750244140625L44.475000180892494,638.18902587890625c-11.63909912109375-14.8690185546875-16.168699264526367-34.26702880859375-12.285099029541016-53.02001953125L113.014001645736244,234.07000732421875c4.525001525878906-18.753005981445312,16.810005187988281-34.271011352539062,33.620994567871094-42.031005859375L473.8179948708339,35.56719970703125c8.404998779296875-3.233798980712891,18.102996826171875-5.171699523925781,27.15399169921875-5.171699523925781l-.003997802734375-.003898620605469Zm0-30.3916015625c-13.576995849609375,0-27.15399169921875,3.233699798583984-40.0889892578125,9.051300048828125L133.703996457747962,165.531005859375c-25.865997314453125,12.284988403320312-43.968391418457031,34.91400146484375-50.435897827148438,62.717987060546875L2.444281615905311,579.35198974609375c-6.463559865951538,27.80303955078125,0,56.25299072265625,18.106619596481323,78.885009765625l226.307102203369141,281.26898193359375c17.459991455078125,21.98199462890625,43.967987060546875,34.26702880859375,71.772003173828125,34.26702880859375h362.73797607421875c27.80401611328125,0,54.3160400390625-12.2850341796875,71.77301025390625-34.26702880859375l226.30999755859375-281.27197265625c18.10302734375-21.9830322265625,24.56903076171875-51.0789794921875,18.10302734375-78.885986328125l-80.82403564453125-351.100021362304688c-6.46295166015625-27.802993774414062-24.57000732421875-50.4320068359375-50.4320068359375-62.716995239257812L540.4110124489589,9.047399520874023c-12.2850341796875-5.813699722290039-25.86199951171875-9.047399520874023-39.443023681640625-9.047399520874023Z"/>
      <path class="cls-1" d="m828.79303149192765,557.364990234375q-.64605712890625,0,0,0h-.64605712890625c-.64599609375,0-1.2919921875,0-1.2919921875-.64599609375-1.2919921875,0-2.583984375-.64599609375-3.8800048828125-.64599609375-4.52496337890625-.64599609375-8.40496826171875-1.2919921875-12.28497314453125-1.2919921875-1.9420166015625,0-3.8790283203125,0-6.46697998046875-.64898681640625h-.64599609375c-13.5770263671875-1.2919921875-24.57000732421875-2.58404541015625-34.91705322265625-5.8179931640625-4.5260009765625-1.9420166015625-5.8179931640625-4.5260009765625-7.11395263671875-7.114013671875,0-.64501953125-.64599609375-.64501953125-.64599609375-1.291015625l-8.405029296875-2.583984375c3.97100830078125-30.4169921875,2.43798828125-61.301025390625-4.5260009765625-91.175018310546875-7.05999755859375-30.12298583984375-19.31298828125-58.785980224609375-36.208984375-84.7039794921875l6.46697998046875-5.8170166015625v-1.2919921875c0-3.2340087890625.64599609375-6.468017578125,3.22998046875-9.701019287109375,7.760009765625-7.113983154296875,17.4610595703125-12.930999755859375,29.10003662109375-20.04498291015625,1.93798828125-1.2919921875,3.8759765625-1.93798828125,5.8170166015625-3.2340087890625,3.8800048828125-1.93798828125,7.11395263671875-3.875,10.99395751953125-6.462982177734375.64599609375-.646026611328125,1.93804931640625-1.292022705078125,3.2330322265625-2.584014892578125.64599609375-.649993896484375,1.2919921875-.649993896484375,1.2919921875-1.295989990234375,9.052001953125-7.759002685546875,10.99298095703125-20.69000244140625,4.5260009765625-29.100006103515625-3.2340087890625-4.524993896484375-9.051025390625-7.1090087890625-14.87298583984375-7.1090087890625-5.16802978515625,0-9.697021484375,1.938018798828125-14.2230224609375,5.1719970703125l-1.2919921875,1.291015625c-1.2919921875.64599609375-1.9420166015625,1.941986083984375-3.2340087890625,2.587982177734375-3.23297119140625,3.2340087890625-5.82098388671875,5.818023681640625-8.40496826171875,9.052001953125-1.29205322265625,1.291015625-2.58404541015625,3.233001708984375-4.5260009765625,4.5250244140625-9.0550537109375,9.70098876953125-17.46002197265625,17.46099853515625-25.86602783203125,23.277984619140625-1.93701171875,1.2919921875-3.875,1.9420166015625-5.8170166015625,1.9420166015625-1.2919921875,0-2.5880126953125,0-3.8800048828125-.6500244140625h-1.2919921875l-7.76300048828125,5.175994873046875c-8.40496826171875-9.050994873046875-17.45697021484375-16.81097412109375-26.50799560546875-24.569976806640625-38.97601318359375-30.46600341796875-85.88201904296875-49.093994140625-135.1400146484375-53.670013427734375l-.64599609375-8.404998779296875-1.2919921875-1.2919921875c-1.94097900390625-1.942001342773438-4.52496337890625-3.8800048828125-5.17498779296875-8.406005859375-.64599609375-10.347000122070312.6500244140625-21.985992431640625,1.9420166015625-34.9169921875v-.646011352539062c0-1.942001342773438.64599609375-4.5260009765625,1.2919921875-6.466995239257812.64599609375-3.876007080078125,1.2919921875-7.759994506835938,1.94097900390625-12.285995483398438v-5.817001342773438c0-11.639007568359375-9.05499267578125-21.337005615234375-20.043975830078125-21.337005615234375-5.176025390625,0-10.347015380859375,2.583999633789062-14.227020263671875,6.464004516601562-3.8759765625,3.8800048828125-5.816986083984375,9.050994873046875-5.816986083984375,14.873001098632812v5.170989990234375c0,4.5260009765625.644989013671875,8.406005859375,1.936981201171875,12.2860107421875.646026611328125,1.940994262695312.646026611328125,3.878997802734375,1.292022705078125,6.466995239257812v.64599609375c1.2919921875,12.930999755859375,3.233978271484375,24.57000732421875,1.941986083984375,34.917007446289062-.64599609375,4.5260009765625-3.2340087890625,6.464004516601562-5.170989990234375,8.405990600585938l-1.2919921875,1.292007446289062-.6500244140625,8.404998779296875c-11.63897705078125,1.2919921875-23.27899169921875,2.584014892578125-34.917999267578125,5.1719970703125-49.785980224609375,10.993011474609375-93.753997802734375,36.2130126953125-128.022003173828125,72.417999267578125l-6.46697998046875-4.5260009765625h-1.2919921875c-1.292022705078125,0-2.5880126953125.64599609375-3.8800048828125.64599609375-1.9420166015625,0-3.8800048828125-.64599609375-5.821014404296875-1.93798828125-8.406005859375-5.8170166015625-16.811004638671875-14.22601318359375-25.863006591796875-23.92401123046875-1.290985107421875-1.2919921875-2.582977294921875-3.233001708984375-4.524993896484375-4.524993896484375-2.587982177734375-3.2340087890625-5.175994873046875-5.821990966796875-8.40899658203125-9.052001953125-.64599609375-.649993896484375-1.93798828125-1.2919921875-3.230010986328125-2.587005615234375-.64599609375-.64599609375-1.2919921875-.64599609375-1.2919921875-1.2919921875-4.005996704101562-3.30999755859375-9.030990600585938-5.13800048828125-14.22698974609375-5.175994873046875-5.822006225585938,0-11.639007568359375,2.587982177734375-14.873001098632812,7.113006591796875-6.467010498046875,8.406005859375-4.5260009765625,21.337005615234375,4.5260009765625,29.095977783203125.64599609375,0,.64599609375.6500244140625,1.2919921875.6500244140625,1.292007446289062.64599609375,1.941009521484375,1.93798828125,3.233001708984375,2.583984375,3.8800048828125,2.584014892578125,7.113998413085938,4.5260009765625,10.994003295898438,6.467010498046875,1.940994262695312.64599609375,3.878997802734375,1.93798828125,5.820999145507812,3.2340087890625,11.634994506835938,7.1099853515625,21.336013793945312,12.930999755859375,29.095993041992188,20.04498291015625,3.2340087890625,3.22900390625,3.2340087890625,6.4630126953125,3.2340087890625,9.696990966796875v1.292022705078125l6.462982177734375,5.82098388671875c-1.2919921875,1.938018798828125-2.583984375,3.2340087890625-3.233978271484375,5.1719970703125-32.329010009765625,51.082000732421875-44.614013671875,111.214996337890625-36.208999633789062,170.7030029296875l-8.405014038085938,2.583984375c0,.6500244140625-.64599609375.6500244140625-.64599609375,1.2919921875-1.2919921875,2.5870361328125-3.233993530273438,5.175048828125-7.113998413085938,7.113037109375-9.696990966796875,3.2340087890625-21.33599853515625,4.52996826171875-34.912994384765625,5.82196044921875h-.650009155273438c-1.93798828125,0-4.5260009765625,0-6.462997436523438.64605712890625-3.8800048828125,0-7.759994506835938.64599609375-12.285003662109375,1.2919921875-1.2919921875,0-2.583999633789062.64898681640625-3.879989624023438.64898681640625-.646011352539062,0-1.292007446289062,0-1.942001342773438.64599609375-11.639007568359375,2.583984375-18.753005981445312,13.5770263671875-16.811004638671875,23.9210205078125,1.942001342773438,9.05499267578125,10.347000122070312,14.8759765625,20.690994262695312,14.8759765625,1.942001342773438,0,3.233001708984375,0,5.175003051757812-.6500244140625.646011352539062,0,1.292007446289062,0,1.292007446289062-.64495849609375,1.2919921875,0,2.583999633789062-.64599609375,3.875991821289062-.64599609375,4.529998779296875-1.2919921875,7.76300048828125-2.58404541015625,11.64300537109375-4.5260009765625,1.938003540039062-.64599609375,3.876007080078125-1.9420166015625,5.8179931640625-2.58404541015625h.646011352539062c12.284988403320312-4.52996826171875,23.277999877929688-8.40899658203125,33.625-9.70098876953125h1.2919921875c3.8800048828125,0,6.467010498046875,1.93798828125,8.404998779296875,3.2340087890625.646011352539062,0,.646011352539062.64599609375,1.292007446289062.64599609375l9.055007934570312-1.2919921875c15.51898193359375,47.843994140625,45.260986328125,90.52099609375,84.7039794921875,121.5579833984375,9.050994873046875,7.11004638671875,18.102996826171875,12.9310302734375,27.80401611328125,18.75299072265625l-3.8800048828125,8.4010009765625c0,.6500244140625.64599609375.6500244140625.64599609375,1.29205322265625,1.2919921875,2.58795166015625,2.584014892578125,5.82196044921875,1.2919921875,10.34698486328125-3.8759765625,9.70196533203125-9.696990966796875,19.39898681640625-16.811004638671875,30.3919677734375v.64599609375c-1.2919921875,1.9420166015625-2.583984375,3.2340087890625-3.8759765625,5.1719970703125-2.587005615234375,3.2330322265625-4.529022216796875,6.467041015625-7.11700439453125,10.3470458984375-.64599609375.64599609375-1.2919921875,1.93798828125-1.938018798828125,3.2340087890625,0,.64495849609375-.64599609375,1.29095458984375-.64599609375,1.29095458984375-5.170989990234375,10.9940185546875-1.2919921875,23.27899169921875,8.406005859375,27.80401611328125,2.5830078125,1.2919921875,5.170989990234375,1.9420166015625,7.759002685546875,1.9420166015625,7.759002685546875,0,15.519012451171875-5.17498779296875,19.39801025390625-12.28900146484375,0-.64599609375.64599609375-1.2919921875.64599609375-1.2919921875.64599609375-1.2919921875,1.2919921875-2.58404541015625,1.93798828125-3.2340087890625,1.9420166015625-4.5250244140625,2.5880126953125-7.759033203125,3.8800048828125-11.6390380859375l1.9420166015625-5.81695556640625c4.5260009765625-12.9310302734375,7.75897216796875-23.27801513671875,13.576995849609375-32.33001708984375,2.583984375-3.8790283203125,5.82098388671875-4.5250244140625,8.404998779296875-5.82098388671875q.64599609375,0,1.2919921875-.64599609375l4.529998779296875-8.406005859375c28.45001220703125,10.99395751953125,59.48699951171875,16.81097412109375,90.52099609375,16.81097412109375,18.751983642578125,0,38.151031494140625-1.93798828125,56.256988525390625-6.4630126953125,11.39404296875-2.5479736328125,22.62200927734375-5.7879638671875,33.62200927734375-9.70196533203125l3.8759765625,7.114013671875q.6500244140625,0,1.2960205078125.64599609375c3.2330322265625.64599609375,5.8170166015625,1.94195556640625,8.405029296875,5.82098388671875,5.1719970703125,9.052001953125,9.05096435546875,20.04498291015625,13.57696533203125,32.33001708984375v.64599609375l1.9420166015625,5.81695556640625c1.2919921875,3.8800048828125,1.93798828125,7.760009765625,3.875,11.6390380859375.6500244140625,1.2919921875,1.2960205078125,1.9420166015625,1.9420166015625,3.2340087890625,0,.64599609375.64996337890625,1.2919921875.64996337890625,1.2919921875,3.87603759765625,7.760009765625,11.635009765625,12.28900146484375,19.39501953125,12.28900146484375,2.5880126953125,0,5.17498779296875-.6500244140625,7.75897216796875-1.9420166015625,4.5260009765625-2.583984375,8.405029296875-6.46697998046875,9.7010498046875-11.63897705078125,1.2919921875-5.1710205078125,1.2919921875-10.9930419921875-1.29205322265625-16.1650390625,0-.64599609375-.64898681640625-.64599609375-.64898681640625-1.29095458984375-.64599609375-1.29205322265625-1.2919921875-2.58404541015625-1.93798828125-3.2340087890625-1.9420166015625-3.8800048828125-4.5260009765625-7.114013671875-7.114013671875-10.3470458984375-1.2919921875-1.93798828125-2.583984375-3.22998046875-3.8759765625-5.16796875v-.6500244140625c-7.11700439453125-10.99298095703125-13.583984375-20.69000244140625-16.81402587890625-30.3919677734375-1.2919921875-4.5250244140625,0-7.1090087890625.64599609375-10.343017578125,0-.64599609375.64599609375-.64599609375.64599609375-1.2919921875l-3.23394775390625-7.75897216796875c34.27099609375-20.0450439453125,63.36700439453125-48.498046875,85.35296630859375-83.41204833984375,11.6390380859375-18.10595703125,20.6910400390625-38.1510009765625,27.15399169921875-58.19500732421875l7.760009765625,1.29205322265625c.6500244140625,0,.6500244140625-.64599609375,1.2919921875-.64599609375,2.5870361328125-1.29205322265625,4.52899169921875-3.23004150390625,8.40899658203125-3.23004150390625h1.2919921875c10.3470458984375,1.2919921875,21.33599853515625,5.16802978515625,33.625,9.697021484375h.64605712890625c1.93798828125.64599609375,3.8759765625,1.93798828125,5.8179931640625,2.583984375,3.8800048828125,1.9420166015625,7.11297607421875,3.2340087890625,11.63897705078125,4.530029296875,1.2919921875,0,2.583984375.64599609375,3.8800048828125.64599609375.64599609375,0,1.2919921875,0,1.93798828125.64599609375,1.94097900390625.64495849609375,3.2330322265625.64495849609375,5.17498779296875.64495849609375,9.697021484375,0,18.10302734375-6.46295166015625,20.69000244140625-14.86798095703125,0-7.760009765625-7.11297607421875-18.10699462890625-18.751953125-21.33697509765625v-.0040283203125Zm-299.375-31.6829833984375l-28.450042724609375,13.58099365234375-28.449981689453125-13.58099365234375-7.1090087890625-30.38800048828125,19.394012451171875-24.57000732421875h31.683990478515625l19.39801025390625,24.57000732421875-6.4630126953125,30.38800048828125h-.00396728515625Zm168.76495361328125-67.243011474609375c5.0159912109375,21.381011962890625,6.54400634765625,43.431976318359375,4.5260009765625,65.300994873046875l-98.93096923828125-28.44598388671875c-9.051025390625-2.584014892578125-14.2230224609375-11.639007568359375-12.2850341796875-20.69000244140625.64599609375-2.5880126953125,1.9420166015625-5.175994873046875,3.8800048828125-7.114013671875l78.239990234375-70.47998046875c10.989013671875,18.105987548828125,19.39404296875,38.7969970703125,24.57000732421875,61.42498779296875v.003997802734375Zm-55.60797119140625-100.222991943359375l-84.7030029296875,60.134002685546875c-7.114013671875,4.5260009765625-16.81500244140625,3.22998046875-22.63299560546875-3.8800048828125-1.93701171875-1.941986083984375-2.5830078125-4.52899169921875-3.2330322265625-7.113006591796875l-5.8179931640625-105.397979736328125c44.0360107421875,5.07098388671875,85.0579833984375,24.89898681640625,116.38702392578125,56.256988525390625Zm-187.51300048828125-53.027008056640625c7.11297607421875-1.2919921875,13.576995849609375-2.583984375,20.69000244140625-3.876007080078125l-5.818023681640625,103.4520263671875c-.64599609375,9.050994873046875-7.759002685546875,16.81097412109375-17.459991455078125,16.81097412109375-2.583984375,0-5.8179931640625-.64599609375-7.760009765625-1.93798828125l-85.9949951171875-61.4219970703125c26.511993408203125-26.511016845703125,59.48699951171875-44.618011474609375,96.343017578125-53.02301025390625v-.003997802734375Zm-127.381011962890625,91.8170166015625l76.944000244140625,68.537994384765625c7.114013671875,5.821990966796875,7.760009765625,16.811004638671875,1.941986083984375,23.92498779296875-1.941986083984375,2.5830078125-4.524993896484375,4.524993896484375-7.75897216796875,5.175018310546875l-100.222015380859375,29.095977783203125c-3.8800048828125-43.968994140625,5.8170166015625-88.582977294921875,29.095001220703125-126.733978271484375Zm-17.459991455078125,175.227996826171875l102.813995361328125-17.46002197265625c8.404998779296875-.64599609375,16.165008544921875,5.17498779296875,18.10198974609375,13.58001708984375.64599609375,3.8759765625.64599609375,7.114013671875-.64599609375,10.3480224609375l-39.4429931640625,95.04595947265625c-36.209014892578125-23.27801513671875-65.30499267578125-58.84100341796875-80.822998046875-101.51397705078125h-.003997802734375Zm236.011962890625,128.6719970703125c-14.87298583984375,3.2340087890625-29.7459716796875,5.1719970703125-45.264984130859375,5.1719970703125-22.62799072265625,0-44.614990234375-3.8759765625-65.300994873046875-10.343017578125l51.0780029296875-92.4630126953125c5.1719970703125-5.82196044921875,13.576995849609375-8.40594482421875,20.691009521484375-4.5260009765625,3.01898193359375,1.85003662109375,5.652984619140625,4.26300048828125,7.759002685546875,7.11004638671875l49.7860107421875,89.87896728515625c-5.8170166015625,1.93798828125-12.2850341796875,3.2330322265625-18.75201416015625,5.1710205078125h.00396728515625Zm126.08404541015625-89.875c-16.1650390625,25.86199951171875-37.5050048828125,46.552978515625-62.071044921875,62.71697998046875l-40.7349853515625-97.63800048828125c-1.9420166015625-7.7559814453125,1.2919921875-16.1610107421875,9.051025390625-20.04400634765625,2.583984375-1.2919921875,5.8179931640625-1.93798828125,9.05096435546875-1.93798828125l103.45599365234375,17.46002197265625c-3.87896728515625,14.22296142578125-10.34698486328125,27.157958984375-18.751953125,39.4429931640625Z"/>
    </g>
  </g>
</svg>