<?xml version="1.0" encoding="UTF-8"?>
<svg id="Layer_1" data-name="Layer 1" xmlns="http://www.w3.org/2000/svg" viewBox="0 0 998.002126744824636 1000">
  <defs>
    <style>
      .cls-1 {
        fill: #2eb67d;
      }

      .cls-1, .cls-2, .cls-3, .cls-4 {
        fill-rule: evenodd;
      }

      .cls-2 {
        fill: #e01e5a;
      }

      .cls-3 {
        fill: #ecb22e;
      }

      .cls-4 {
        fill: #36c5f0;
      }
    </style>
  </defs>
  <g id="Layer-1">
    <g>
      <path class="cls-4" d="m365.911987304807553.000010013580322c-55.167999267578125.040769934654236-99.81597900390625,44.811391353607178-99.774993896484375,99.979993343353271-.040985107421875,55.167991638183594,44.64801025390625,99.937995910644531,99.816009521484375,99.978996276855469h99.816986083984375v-99.939002990722656c.040008544921875-55.167797088623047-44.64898681640625-99.938446640968323-99.858001708984375-100.019996643066406q.041015625,0,0,0m0,266.6669921875H99.816596984983335C44.648399353147397,266.707000732421875-.040659598886123,311.477996826171875.000111432116682,366.64599609375c-.081549429516599,55.167999267578125,44.607588915903762,99.938995361328125,99.775691180308058,100.02099609375h266.136184692382812c55.16900634765625-.040985107421875,99.858001708984375-44.811981201171875,99.8170166015625-99.97998046875.040985107421875-55.209014892578125-44.64801025390625-99.980010986328125-99.8170166015625-100.02001953125Z"/>
      <path class="cls-1" d="m998.002014160276303,366.64599609375c.041015625-55.167999267578125-44.64801025390625-99.938995361328125-99.8160400390625-99.97900390625-55.1689453125.040008544921875-99.85797119140625,44.811004638671875-99.81695556640625,99.97900390625v100.02099609375h99.81695556640625c55.16802978515625-.040985107421875,99.8570556640625-44.811981201171875,99.8160400390625-100.02099609375Zm-266.135986328125,0V99.980003356933594C731.906005859495053,44.852199554443359,687.257995605588803.081560015678406,632.090026855588803.000010013580322c-55.16802978515625.040779948234558-99.8570556640625,44.811391353607178-99.8170166015625,99.979993343353271v266.665992736816406c-.08099365234375,55.167999267578125,44.60797119140625,99.938995361328125,99.7760009765625,100.02099609375,55.16796875-.040985107421875,99.85699462890625-44.811981201171875,99.8170166015625-100.02099609375Z"/>
      <path class="cls-3" d="m632.049011230588803,1000c55.16796875-.03997802734375,99.85699462890625-44.81097412109375,99.8170166015625-99.97998046875.03997802734375-55.16802978515625-44.6490478515625-99.93804931640625-99.8170166015625-99.97900390625h-99.8170166015625v99.97900390625c-.03997802734375,55.12799072265625,44.64898681640625,99.89996337890625,99.8170166015625,99.97998046875Zm0-266.70697021484375h266.136962890625c55.16802978515625-.041015625,99.8570556640625-44.81201171875,99.8160400390625-99.98004150390625.08197021484375-55.16796875-44.60699462890625-99.93896484375-99.7760009765625-100.01995849609375h-266.135986328125c-55.16802978515625.03997802734375-99.8580322265625,44.81097412109375-99.8170166015625,99.97894287109375-.041015625,55.20904541015625,44.60797119140625,99.98004150390625,99.7760009765625,100.02105712890625Z"/>
      <path class="cls-2" d="m.000086545416707,633.31298828125c-.040774747081741,55.16802978515625,44.64831280773069,99.93902587890625,99.816510439566628,99.98004150390625,55.168403625488281-.041015625,99.857398986816406-44.81201171875,99.816398620605469-99.98004150390625v-99.97998046875h-99.816398620605469C44.648399353147397,533.3740234375-.04068439814364,578.14501953125.000086545416707,633.31298828125Zm266.136906862906471,0v266.6669921875c-.082000732421875,55.16802978515625,44.60699462890625,99.94000244140625,99.774993896484375,100.02001953125,55.16900634765625-.03997802734375,99.858001708984375-44.81097412109375,99.8170166015625-99.97998046875v-266.62603759765625c.08099365234375-55.16796875-44.608001708984375-99.93798828125-99.7760009765625-100.01995849609375-55.209014892578125,0-99.85699462890625,44.77099609375-99.816009521484375,99.93896484375,0,0,0,.041015625,0,0"/>
    </g>
  </g>
</svg>