<?xml version="1.0" encoding="UTF-8"?>
<svg id="Layer_1" data-name="Layer 1" xmlns="http://www.w3.org/2000/svg" viewBox="0 0 1000 1000">
  <defs>
    <style>
      .cls-1 {
        fill: #ff4a00;
        fill-rule: evenodd;
      }
    </style>
  </defs>
  <g id="Layer-1">
    <path class="cls-1" d="m624.9959716796875,500.218994140625c.01702880859375,36.0570068359375-6.48699951171875,71.82000732421875-19.198974609375,105.56201171875-33.7550048828125,12.71002197265625-69.5260009765625,19.2249755859375-105.593994140625,19.23101806640625h-.4219970703125c-37.1400146484375-.0469970703125-72.72601318359375-6.83599853515625-105.56201171875-19.21502685546875-12.720001220703125-33.7459716796875-19.230987548828125-69.5150146484375-19.218994140625-105.5780029296875v-.43798828125c-.016998291015625-36.050018310546875,6.480010986328125-71.8070068359375,19.17999267578125-105.5460205078125,33.75201416015625-12.733978271484375,69.531005859375-19.2509765625,105.605010986328125-19.2349853515625h.4219970703125c36.069976806640625-.016998291015625,71.845001220703125,6.49798583984375,105.594024658203125,19.230010986328125,12.71295166015625,33.73699951171875,19.21795654296875,69.4949951171875,19.198974609375,105.5469970703125v.43798828125l-.0040283203125.003997802734375Zm368.05902099609375-83.550994873046875h-291.8599853515625l206.364013671875-206.378997802734375c-16.197998046875-22.753005981445312-34.2659912109375-44.115005493164062-54.0159912109375-63.863006591796875v-.0159912109375c-19.75103759765625-19.727005004882812-41.1070556640625-37.779006958007812-63.8480224609375-53.968704223632812l-206.3790283203125,206.378707885742188V6.960919857025146C555.86798095703125,2.3434898853302,528.083984375.01514570042491,500.25,0h-.5159912109375c-28.31201171875.015625-56.042999267578125,2.421869993209839-83.066009521484375,6.960939884185791v291.859067440032959L210.28900146484375,92.441398620605469c-22.744003295898438,16.185600280761719-44.09100341796875,34.250602722167969-63.815994262695312,54.003608703613281l-.110000610351562.077987670898438c-19.71600341796875,19.7239990234375-37.759010314941406,41.053009033203125-53.941108703613281,63.766006469726562l206.394111633300781,206.378997802734375H6.960939884185791S0,471.4840087890625,0,499.8280029296875v.343994140625c0,28.343994140625,2.402339935302734,56.12103271484375,6.960939884185791,83.15997314453125h291.859067440032959l-206.394210815429688,206.3790283203125c32.467201232910156,45.56201171875,72.30120849609375,85.39599609375,117.863204956054688,117.86297607421875l206.378997802734375-206.39398193359375v291.875c27.417999267578125,4.593994140625,55.16900634765625,6.9169921875,82.968994140625,6.94500732421875h.707000732421875c27.79998779296875-.0250244140625,55.551025390625-2.3480224609375,82.968994140625-6.94500732421875v-291.875l206.39801025390625,206.39398193359375c22.73602294921875-16.1949462890625,44.08697509765625-34.251953125,63.83203125-53.98394775390625l.0469970703125-.0469970703125c19.72296142578125-19.7490234375,37.77398681640625-41.09906005859375,53.968994140625-63.83203125l-206.39501953125-206.3790283203125h291.8909912109375c4.54302978515625-26.991943359375,6.91400146484375-54.68695068359375,6.94500732421875-82.968963623046875v-.72601318359375c-.031005859375-28.281005859375-2.4019775390625-55.97698974609375-6.94500732421875-82.968994140625Z"/>
  </g>
</svg>