<?xml version="1.0" encoding="UTF-8"?>
<svg id="Layer_1" data-name="Layer 1" xmlns="http://www.w3.org/2000/svg" viewBox="0 0 1000 562.5">
  <defs>
    <style>
      .cls-1 {
        fill: #fff;
      }

      .cls-1, .cls-2 {
        fill-rule: evenodd;
      }
    </style>
  </defs>
  <g id="Layer-1">
    <path class="cls-2" d="m0,0h1000v562.5H0V0Z"/>
    <path class="cls-1" d="m556.126861572265625,287.206878662109375c.276260375976562,29.736862182617188,26.086883544921875,39.631881713867188,26.373138427734375,39.758758544921875-.218124389648438.697479248046875-4.124374389648438,14.10186767578125-13.598747253417969,27.947502136230469-8.19000244140625,11.970596313476562-16.689987182617188,23.896865844726562-30.079994201660156,24.143753051757812-13.157501220703125.242500305175781-17.388114929199219-7.801895141601562-32.430648803710938-7.801895141601562-15.038108825683594,0-19.738731384277344,7.555007934570312-32.193717956542969,8.044395446777344-12.925033569335938.489349365234375-22.767524719238281-12.944374084472656-31.025657653808594-24.870643615722656-16.874351501464844-24.396247863769531-29.769973754882812-68.937492370605469-12.454376220703125-99.003753662109375,8.601875305175781-14.930629730224609,23.974380493164062-24.385623931884766,40.660018920898438-24.628124237060547,12.691879272460938-.241870880126953,24.671859741210938,8.538761138916016,32.430610656738281,8.538761138916016,7.753753662109375,0,22.311897277832031-10.560016632080078,37.61627197265625-9.008750915527344,6.4068603515625.266246795654297,24.390602111816406,2.588119506835938,35.938758850097656,19.491252899169922-.930023193359375.576858520507812-21.458778381347656,12.527484893798828-21.23565673828125,37.388744354248047m-24.72747802734375-73.020000457763672c6.86187744140625-8.306255340576172,11.480598449707031-19.869384765625,10.220603942871094-31.374378204345703-9.891242980957031.397491455078125-21.851844787597656,6.591243743896484-28.94622802734375,14.892501831054688-6.358146667480469,7.351875305175781-11.92626953125,19.118118286132812-10.423774719238281,30.395622253417969,11.024398803710938.852508544921875,22.286872863769531-5.602493286132812,29.149398803710938-13.913745880126953"/>
  </g>
</svg>