<?xml version="1.0" encoding="UTF-8"?>
<svg id="Layer_1" data-name="Layer 1" xmlns="http://www.w3.org/2000/svg" viewBox="0 0 1000 562.5">
  <defs>
    <style>
      .cls-1 {
        fill: #fff;
      }

      .cls-1, .cls-2 {
        fill-rule: evenodd;
      }
    </style>
  </defs>
  <g id="Layer-1">
    <path class="cls-2" d="m0,0h1000v562.5H0V0Z"/>
    <g>
      <path class="cls-1" d="m474.49249267578125,281.292495727539062c0-13.286247253417969,10.771255493164062-24.057502746582031,24.058151245117188-24.057502746582031,13.286247253417969,0,24.057464599609375,10.771255493164062,24.057464599609375,24.057502746582031,0,13.286876678466797-10.771217346191406,24.057502746582031-24.057464599609375,24.057502746582031-13.286895751953125,0-24.058151245117188-10.770626068115234-24.058151245117188-24.057502746582031Z"/>
      <path class="cls-1" d="m400.289993286132812,255.785617828369141c0,.289382934570312-.289993286132812.868759155273438-.289993286132812,1.159381866455078,0,2.608127593994141,2.028732299804688,4.927501678466797,4.927482604980469,4.927501678466797h40.869407653808594c2.028732299804688,0,3.478126525878906-1.159381866455078,4.348106384277344-2.898750305175781,8.406257629394531-18.550624847412109,26.956863403320312-31.014995574951172,48.115005493164062-31.014995574951172,29.275627136230469,0,53.043746948242188,23.768749237060547,53.043746948242188,53.043746948242188s-23.768119812011719,53.043746948242188-53.043746948242188,53.043746948242188c-21.449394226074219,0-39.709358215332031-12.753753662109375-48.115005493164062-30.725002288818359-.869979858398438-2.028751373291016-2.319374084472656-3.188743591308594-4.3487548828125-3.188743591308594h-40.867500305175781c-2.608757019042969,0-4.928131103515625,2.028751373291016-4.928131103515625,4.928112030029297,0,.289382934570312,0,.869388580322266.290641784667969,1.159381866455078,11.303749084472656,44.057483673095703,51.013755798339844,76.521244049072266,98.260002136230469,76.521244049072266,55.941886901855469,0,101.448745727539062-45.50750732421875,101.448745727539062-101.448745727539062-.0006103515625-55.941867828369141-45.50811767578125-101.448745727539062-101.449356079101562-101.448745727539062-47.245635986328125,0-86.956253051757812,32.463741302490234-98.260650634765625,75.941867828369141Z"/>
    </g>
  </g>
</svg>