<?xml version="1.0" encoding="UTF-8"?>
<svg id="Layer_1" data-name="Layer 1" xmlns="http://www.w3.org/2000/svg" viewBox="0 0 1000 562.5">
  <defs>
    <style>
      .cls-1 {
        fill: #fff;
      }

      .cls-1, .cls-2, .cls-3 {
        fill-rule: evenodd;
      }

      .cls-2 {
        fill: #faae40;
      }

      .cls-3 {
        fill: #f38020;
      }
    </style>
  </defs>
  <g id="Layer-1">
    <path class="cls-1" d="m0,0h1000v562.5H0V0Z"/>
    <g>
      <path class="cls-1" d="m625.050010681152344,294.081878662109375l-37.732505798339844-21.641254425048828-6.52252197265625-2.809371948242188-154.331855773925781,1.070003509521484v78.336868286132812h198.549385070800781l.037498474121094-54.956245422363281Z"/>
      <path class="cls-3" d="m556.344375610351562,341.813125610351562c1.839370727539062-6.321868896484375,1.136856079101562-12.141876220703125-1.94000244140625-16.456871032714844-2.809982299804688-3.946876525878906-7.559356689453125-6.254997253417969-13.279380798339844-6.522502899169922l-108.239364624023438-1.405010223388672c-.7025146484375,0-1.304359436035156-.367488861083984-1.672515869140625-.869369506835938-.368118286132812-.534992218017578-.434989929199219-1.23748779296875-.267486572265625-1.94000244140625.367507934570312-1.070613861083984,1.404991149902344-1.840000152587891,2.541885375976562-1.94000244140625l109.209365844726562-1.404991149902344c12.911262512207031-.601882934570312,26.993141174316406-11.071243286132812,31.909980773925781-23.915634155273438l6.255035400390625-16.256237030029297c.267486572265625-.701885223388672.368118286132812-1.404380798339844.167465209960938-2.106876373291016-6.991233825683594-31.80938720703125-35.388717651367188-55.558128356933594-69.339370727539062-55.558128356933594-31.307487487792969,0-57.8656005859375,20.236244201660156-67.364997863769531,48.266258239746094-6.154365539550781-4.582500457763672-13.981857299804688-7.024383544921875-22.410621643066406-6.255016326904297-15.0518798828125,1.505012512207031-27.093124389648438,13.546886444091797-28.564987182617188,28.565006256103516-.368118286132812,3.8800048828125-.100631713867188,7.660007476806641.802497863769531,11.171875-24.51751708984375.702495574951172-44.151878356933594,20.738124847412109-44.151878356933594,45.456886291503906,0,2.207489013671875.167503356933594,4.381866455078125.434989929199219,6.58935546875.166893005371094,1.070022583007812,1.070022583007812,1.839370727539062,2.106895446777344,1.839370727539062h199.788131713867188c1.137466430664062,0,2.208099365234375-.802497863769531,2.542495727539062-1.94000244140625l1.47186279296875-5.318107604980469Z"/>
      <path class="cls-2" d="m590.829391479492188,272.273750305175781c-.970001220703125,0-2.006874084472656,0-2.976875305175781.100002288818359-.7025146484375,0-1.304397583007812.534992218017578-1.571884155273438,1.237506866455078l-4.214363098144531,14.684371948242188c-1.840019226074219,6.321239471435547-1.137504577636719,12.141246795654297,1.939964294433594,16.456241607666016,2.809410095214844,3.946876525878906,7.559394836425781,6.254997253417969,13.278770446777344,6.522502899169922l23.0462646484375,1.404991149902344c.702476501464844,0,1.304359436035156.368137359619141,1.672477722167969.869388580322266.367507934570312.535621643066406.434379577636719,1.304988861083984.267486572265625,1.94000244140625-.368118286132812,1.070613861083984-1.404991149902344,1.840000152587891-2.541847229003906,1.939983367919922l-24.016265869140625,1.405010223388672c-13.011856079101562.602493286132812-26.99310302734375,11.071872711181641-31.909980773925781,23.915615081787109l-1.772499084472656,4.482498168945312c-.368156433105469.869369506835938.267486572265625,1.772499084472656,1.23748779296875,1.772499084472656h82.419357299804688c.968780517578125,0,1.837539672851562-.601882934570312,2.106246948242188-1.571846008300781,1.40625-5.084381103515625,2.206268310546875-10.469398498535156,2.206268310546875-15.98876953125,0-32.611865997314453-26.558113098144531-59.169998168945312-59.170608520507812-59.169998168945312"/>
    </g>
  </g>
</svg>