<?xml version="1.0" encoding="UTF-8"?>
<svg id="Layer_1" data-name="Layer 1" xmlns="http://www.w3.org/2000/svg" viewBox="0 0 1000 562.5">
  <defs>
    <style>
      .cls-1 {
        fill: #fff;
      }

      .cls-1, .cls-2 {
        fill-rule: evenodd;
      }

      .cls-2 {
        fill: #5865f2;
      }
    </style>
  </defs>
  <g id="Layer-1">
    <path class="cls-2" d="m0,0h1000v562.5H0V0Z"/>
    <path class="cls-1" d="m569.566268920898438,217.870616912841797c22.587471008300781,33.210010528564453,33.742485046386719,70.670013427734375,29.572486877441406,113.794994354248047-.017509460449219.1824951171875-.112495422363281.349998474121094-.262489318847656.460014343261719-17.105026245117188,12.560005187988281-33.677520751953125,20.1824951171875-50.017509460449219,25.237503051757812-.2606201171875.0787353515625-.543136596679688-.016860961914062-.7025146484375-.237503051757812-3.774986267089844-5.252494812011719-7.205009460449219-10.789985656738281-10.209999084472656-16.604995727539062-.172500610351562-.342521667480469-.014991760253906-.7550048828125.340003967285156-.890007019042969,5.447502136230469-2.052497863769531,10.627517700195312-4.512481689453125,15.610008239746094-7.425003051757812.392494201660156-.229988098144531.41748046875-.792503356933594.055007934570312-1.062507629394531-1.057510375976562-.784988403320312-2.105026245117188-1.609992980957031-3.107528686523438-2.43499755859375-.187492370605469-.152473449707031-.439987182617188-.1824951171875-.6524658203125-.079994201660156-32.347526550292969,14.937515258789062-67.781906127929688,14.937515258789062-100.511894226074219,0-.212516784667969-.094985961914062-.465011596679688-.062484741210938-.647506713867188.087509155273438-.999984741210938.825004577636719-2.049980163574219,1.642494201660156-3.097496032714844,2.427482604980469-.362510681152344.270004272460938-.332489013671875.83251953125.062484741210938,1.062507629394531,4.982528686523438,2.857513427734375,10.162506103515625,5.372505187988281,15.602531433105469,7.43499755859375.35247802734375.135002136230469.519981384277344.537490844726562.345001220703125.880012512207031-2.940025329589844,5.822486877441406-6.370010375976562,11.359977722167969-10.214996337890625,16.612510681152344-.167503356933594.212478637695312-.4425048828125.309982299804688-.7025146484375.229988098144531-16.26251220703125-5.055007934570312-32.835006713867188-12.677497863769531-49.939994812011719-25.237503051757812-.14251708984375-.110015869140625-.245018005371094-.284996032714844-.260009765625-.467491149902344-3.484992980957031-37.302513122558594,3.617515563964844-75.072517395019531,29.54498291015625-113.795013427734375.062522888183594-.102500915527344.157508850097656-.1824951171875.267524719238281-.229988098144531,12.757492065429688-5.855007171630859,26.424980163574219-10.162506103515625,40.709991455078125-12.622509002685547.260009765625-.039997100830078.52001953125.079994201660156.654983520507812.310001373291016,1.765022277832031,3.125,3.782501220703125,7.132492065429688,5.147514343261719,10.407505035400391,15.057487487792969-2.300014495849609,30.349998474121094-2.300014495849609,45.721893310546875,0,1.364974975585938-3.205013275146484,3.312492370605469-7.282505035400391,5.069999694824219-10.407505035400391.128746032714844-.234375.393104553222656-.359382629394531.654983520507812-.310001373291016,14.292488098144531,2.467498779296875,27.960014343261719,6.774997711181641,40.707511901855469,12.622509002685547.112495422363281.047492980957031.205001831054688.127487182617188.260009765625.237483978271484Zm-84.759407043457031,70.925006866455078c.157508850097656-11.027507781982422-7.882499694824219-20.152492523193359-17.974967956542969-20.152492523193359-10.010032653808594,0-17.972526550292969,9.044990539550781-17.972526550292969,20.152492523193359,0,11.105003356933594,8.120002746582031,20.149993896484375,17.972526550292969,20.149993896484375,10.012474060058594,0,17.974967956542969-9.044990539550781,17.974967956542969-20.149993896484375Zm66.454391479492188,0c.157508850097656-11.027507781982422-7.882499694824219-20.152492523193359-17.972488403320312-20.152492523193359-10.01251220703125,0-17.974395751953125,9.044990539550781-17.974395751953125,20.152492523193359,0,11.105003356933594,8.119392395019531,20.149993896484375,17.974395751953125,20.149993896484375,10.089988708496094,0,17.972488403320312-9.044990539550781,17.972488403320312-20.149993896484375Z"/>
  </g>
</svg>