<?xml version="1.0" encoding="UTF-8"?>
<svg id="Layer_1" data-name="Layer 1" xmlns="http://www.w3.org/2000/svg" viewBox="0 0 1000 562.5">
  <defs>
    <style>
      .cls-1 {
        fill: #fff;
      }

      .cls-1, .cls-2 {
        fill-rule: evenodd;
      }

      .cls-2 {
        fill: #0db7ed;
      }
    </style>
  </defs>
  <g id="Layer-1">
    <path class="cls-2" d="m0,0h1000v562.5H0V0Z"/>
    <g>
      <path class="cls-1" d="m598.025627136230469,261.963748931884766c-.542488098144531-.425624847412109-5.613136291503906-4.202499389648438-16.310005187988281-4.202499389648438-2.82501220703125.012493133544922-5.642509460449219.250625610351562-8.426246643066406.713748931884766-2.07000732421875-13.998126983642578-13.434371948242188-20.575618743896484-13.959999084472656-20.879993438720703l-2.871246337890625-1.636257171630859-1.890640258789062,2.688121795654297c-2.366867065429688,3.613758087158203-4.457473754882812,7.345008850097656-5.471878051757812,11.531257629394531-1.915626525878906,7.991867065429688-.751228332519531,15.496253967285156,3.363761901855469,21.910629272460938-4.974365234375,2.733745574951172-13.45062255859375,2.975616455078125-15.061874389648438,3.03436279296875h-131.123123168945312c-3.447494506835938.004386901855469-6.243743896484375,2.754383087158203-6.264381408691406,6.151885986328125-.154380798339844,11.40625,1.473121643066406,23.174991607666016,5.450630187988281,33.884372711181641,4.54498291015625,11.761245727539062,11.310005187988281,20.424995422363281,20.108108520507812,25.725631713867188,9.857521057128906,5.955619812011719,25.875625610351562,9.361228942871094,44.034385681152344,9.361228942871094,8.200645446777344.0250244140625,16.389389038085938-.705604553222656,24.4525146484375-2.186851501464844,11.209983825683594-2.032508850097656,21.998748779296875-5.89752197265625,31.91497802734375-11.435623168945312,8.171272277832031-4.670028686523438,15.525016784667969-10.608749389648438,21.781272888183594-17.591266632080078,10.454368591308594-11.677494049072266,16.681251525878906-24.678115844726562,21.314353942871094-36.234378814697266h1.844367980957031c11.448135375976562,0,18.484382629394531-4.519996643066406,22.365646362304688-8.304996490478516,2.579383850097656-2.416877746582031,4.594993591308594-5.359363555908203,5.901870727539062-8.618755340576172l.821876525878906-2.370624542236328-1.974372863769531-1.539993286132812Z"/>
      <path class="cls-1" d="m433.05999755859375,270.949382781982422h-12.520637512207031c-2.303733825683594,0-4.173126220703125-1.869373321533203-4.173126220703125-4.173126220703125v-12.520637512207031c0-2.303752899169922,1.869392395019531-4.173736572265625,4.173126220703125-4.173736572265625h12.520637512207031c2.303733825683594,0,4.173736572265625,1.869983673095703,4.173736572265625,4.173736572265625v12.520637512207031c0,2.303752899169922-1.870002746582031,4.173126220703125-4.173736572265625,4.173126220703125Z"/>
      <path class="cls-1" d="m458.101234436035156,270.949382781982422h-12.520599365234375c-2.30377197265625,0-4.173774719238281-1.869373321533203-4.173774719238281-4.173126220703125v-12.520637512207031c0-2.303752899169922,1.870002746582031-4.173736572265625,4.173774719238281-4.173736572265625h12.520599365234375c2.30377197265625,0,4.173126220703125,1.869983673095703,4.173126220703125,4.173736572265625v12.520637512207031c0,2.303752899169922-1.869354248046875,4.173126220703125-4.173126220703125,4.173126220703125Z"/>
      <path class="cls-1" d="m483.141860961914062,270.949382781982422h-12.520599365234375c-2.30377197265625,0-4.173126220703125-1.869373321533203-4.173126220703125-4.173126220703125v-12.520637512207031c0-2.303752899169922,1.869354248046875-4.173736572265625,4.173126220703125-4.173736572265625h12.520599365234375c2.30377197265625,0,4.173774719238281,1.869983673095703,4.173774719238281,4.173736572265625v12.520637512207031c0,2.303752899169922-1.870002746582031,4.173126220703125-4.173774719238281,4.173126220703125Z"/>
      <path class="cls-1" d="m508.183135986328125,270.949382781982422h-12.520637512207031c-2.303733825683594,0-4.173736572265625-1.869373321533203-4.173736572265625-4.173126220703125v-12.520637512207031c0-2.303752899169922,1.870002746582031-4.173736572265625,4.173736572265625-4.173736572265625h12.520637512207031c2.303733825683594,0,4.173126220703125,1.869983673095703,4.173126220703125,4.173736572265625v12.520637512207031c0,2.303752899169922-1.869392395019531,4.173126220703125-4.173126220703125,4.173126220703125Z"/>
      <path class="cls-1" d="m458.101234436035156,245.908756256103516h-12.520599365234375c-2.30377197265625,0-4.173774719238281-1.870002746582031-4.173774719238281-4.173755645751953v-12.520618438720703c0-2.303752899169922,1.870002746582031-4.173126220703125,4.173774719238281-4.173126220703125h12.520599365234375c2.30377197265625,0,4.173126220703125,1.869373321533203,4.173126220703125,4.173126220703125v12.520618438720703c0,2.303752899169922-1.869354248046875,4.173755645751953-4.173126220703125,4.173755645751953Z"/>
      <path class="cls-1" d="m483.141860961914062,245.908756256103516h-12.520599365234375c-2.30377197265625,0-4.173126220703125-1.870002746582031-4.173126220703125-4.173755645751953v-12.520618438720703c0-2.303752899169922,1.869354248046875-4.173126220703125,4.173126220703125-4.173126220703125h12.520599365234375c2.30377197265625,0,4.173774719238281,1.869373321533203,4.173774719238281,4.173126220703125v12.520618438720703c0,2.303752899169922-1.870002746582031,4.173755645751953-4.173774719238281,4.173755645751953Z"/>
      <path class="cls-1" d="m508.183135986328125,245.908756256103516h-12.520637512207031c-2.303733825683594,0-4.173736572265625-1.870002746582031-4.173736572265625-4.173755645751953v-12.520618438720703c0-2.303752899169922,1.870002746582031-4.173126220703125,4.173736572265625-4.173126220703125h12.520637512207031c2.303733825683594,0,4.173126220703125,1.869373321533203,4.173126220703125,4.173126220703125v12.520618438720703c0,2.303752899169922-1.869392395019531,4.173755645751953-4.173126220703125,4.173755645751953Z"/>
      <path class="cls-1" d="m508.183135986328125,220.867500305175781h-12.520637512207031c-2.303733825683594,0-4.173736572265625-1.870002746582031-4.173736572265625-4.173755645751953v-12.519989013671875c0-2.303752899169922,1.870002746582031-4.173755645751953,4.173736572265625-4.173755645751953h12.520637512207031c2.303733825683594,0,4.173126220703125,1.870002746582031,4.173126220703125,4.173755645751953v12.519989013671875c0,2.303752899169922-1.869392395019531,4.173755645751953-4.173126220703125,4.173755645751953Z"/>
      <path class="cls-1" d="m533.223762512207031,270.949382781982422h-12.520027160644531c-2.303733825683594,0-4.173736572265625-1.869373321533203-4.173736572265625-4.173126220703125v-12.520637512207031c0-2.303752899169922,1.870002746582031-4.173736572265625,4.173736572265625-4.173736572265625h12.520027160644531c2.303733825683594,0,4.173736572265625,1.869983673095703,4.173736572265625,4.173736572265625v12.520637512207031c0,2.303752899169922-1.870002746582031,4.173126220703125-4.173736572265625,4.173126220703125Z"/>
    </g>
  </g>
</svg>