<?xml version="1.0" encoding="UTF-8"?>
<svg id="Layer_1" data-name="Layer 1" xmlns="http://www.w3.org/2000/svg" viewBox="0 0 1000 562.5">
  <defs>
    <style>
      .cls-1 {
        fill: #4078c0;
      }

      .cls-1, .cls-2 {
        fill-rule: evenodd;
      }

      .cls-2 {
        fill: #fff;
      }
    </style>
  </defs>
  <g id="Layer-1">
    <path class="cls-1" d="m0,0h1000v562.5H0V0Z"/>
    <path class="cls-2" d="m500,182.8125c-55.224990844726562,0-100,44.775009155273438-100,100,0,46.858139038085938,32.266883850097656,86.066856384277344,75.766868591308594,96.916885375976562-.466880798339844-1.350021362304688-.766868591308594-2.9168701171875-.766868591308594-4.858741760253906v-17.091255187988281h-12.566871643066406c-6.841239929199219,0-12.924995422363281-2.94189453125-15.875015258789062-8.408775329589844-3.274993896484375-6.074981689453125-3.84124755859375-15.366249084472656-11.958122253417969-21.049995422363281-2.408103942871094-1.891250610351562-.574989318847656-4.04998779296875,2.20001220703125-3.758125305175781,5.125007629394531,1.450004577636719,9.375,4.966888427734375,13.375015258789062,10.183143615722656,3.983116149902344,5.224990844726562,5.858116149902344,6.408729553222656,13.299980163574219,6.408729553222656,3.608131408691406,0,9.008140563964844-.208740234375,14.091873168945312-1.008758544921875,2.733116149902344-6.94122314453125,7.458114624023438-13.333091735839844,13.233146667480469-16.349983215332031-33.300018310546875-3.42498779296875-49.19189453125-19.991245269775391-49.19189453125-42.483119964599609,0-9.683132171630859,4.124984741210938-19.050006866455078,11.133766174316406-26.941871643066406-2.300033569335938-7.833137512207031-5.191879272460938-23.808135986328125.883102416992188-29.891262054443359,14.983139038085938,0,24.041900634765625,9.716262817382812,26.216888427734375,12.341251373291016,7.466239929199219-2.558116912841797,15.666236877441406-4.008121490478516,24.283103942871094-4.008121490478516,8.633155822753906,0,16.866874694824219,1.450004577636719,24.350013732910156,4.025001525878906,2.150001525878906-2.608127593994141,11.216888427734375-12.358131408691406,26.233139038085938-12.358131408691406,6.100006103515625,6.091251373291016,3.174972534179688,22.133121490478516.849990844726562,29.950008392333984,6.96685791015625,7.875003814697266,11.066856384277344,17.216243743896484,11.066856384277344,26.883125305175781,0,22.474994659423828-15.866851806640625,39.033107757568359-49.116859436035156,42.474994659423828,9.150009155273438,4.775009155273438,15.825004577636719,18.191871643066406,15.825004577636719,28.300018310546875v22.783126831054688c0,.866851806640625-.191268920898438,1.491851806640625-.291252136230469,2.233734130859375,38.966255187988281-13.65875244140625,66.958122253417969-50.658760070800781,66.958122253417969-94.291877746582031,0-55.224990844726562-44.775009155273438-100-100-100Z"/>
  </g>
</svg>