<?xml version="1.0" encoding="UTF-8"?>
<svg id="Layer_1" data-name="Layer 1" xmlns="http://www.w3.org/2000/svg" viewBox="0 0 1000 562.5">
  <defs>
    <style>
      .cls-1 {
        fill: #fca326;
      }

      .cls-1, .cls-2, .cls-3, .cls-4 {
        fill-rule: evenodd;
      }

      .cls-2 {
        fill: #548;
      }

      .cls-3 {
        fill: #e24329;
      }

      .cls-4 {
        fill: #fc6d26;
      }
    </style>
  </defs>
  <g id="Layer-1">
    <path class="cls-2" d="m0,0h1000v562.5H0V0Z"/>
    <g>
      <path class="cls-3" d="m500,373.29498291015625h0l36.825637817382812-113.336849212646484h-73.651275634765625l36.825637817382812,113.336849212646484h0Z"/>
      <path class="cls-4" d="m500,373.29498291015625l-36.825637817382812-113.336849212646484h-51.609992980957031l88.435630798339844,113.336849212646484h0Z"/>
      <path class="cls-1" d="m411.564369201660156,259.958133697509766h0l-11.190605163574219,34.442481994628906c-1.020622253417969,3.141250610351562.096855163574219,6.582508087158203,2.769355773925781,8.523750305175781l96.856880187988281,70.370616912841797-88.435630798339844-113.336849212646484h0Z"/>
      <path class="cls-3" d="m411.564369201660156,259.958744049072266h51.609992980957031l-22.179985046386719-68.261871337890625c-1.140632629394531-3.513126373291016-6.110000610351562-3.511867523193359-7.250633239746094,0l-22.179374694824219,68.261871337890625h0Z"/>
      <path class="cls-4" d="m500,373.29498291015625l36.825637817382812-113.336849212646484h51.609992980957031l-88.435630798339844,113.336849212646484h0Z"/>
      <path class="cls-1" d="m588.435630798339844,259.958133697509766h0l11.190605163574219,34.442481994628906c1.020622253417969,3.141250610351562-.096855163574219,6.582508087158203-2.769355773925781,8.523750305175781l-96.856880187988281,70.370616912841797,88.435630798339844-113.336849212646484h0Z"/>
      <path class="cls-3" d="m588.435630798339844,259.958744049072266h-51.609992980957031l22.179985046386719-68.261871337890625c1.140632629394531-3.513126373291016,6.110000610351562-3.511867523193359,7.250633239746094,0l22.179374694824219,68.261871337890625h0Z"/>
    </g>
  </g>
</svg>