<?xml version="1.0" encoding="UTF-8"?>
<svg id="Layer_1" data-name="Layer 1" xmlns="http://www.w3.org/2000/svg" xmlns:xlink="http://www.w3.org/1999/xlink" viewBox="0 0 1000 562.5">
  <defs>
    <style>
      .cls-1 {
        fill: #fff;
      }

      .cls-2 {
        fill: #ea4335;
      }

      .cls-2, .cls-3, .cls-4, .cls-5 {
        fill-rule: evenodd;
      }

      .cls-6 {
        clip-path: url(#clippath-2);
      }

      .cls-7 {
        clip-path: url(#clippath-1);
      }

      .cls-3 {
        fill: #fbbc05;
      }

      .cls-8 {
        clip-path: url(#clippath);
      }

      .cls-9 {
        fill: none;
      }

      .cls-10 {
        clip-path: url(#clippath-3);
      }

      .cls-4 {
        fill: #4285f4;
      }

      .cls-5 {
        fill: #34a853;
      }
    </style>
    <clipPath id="clippath">
      <path class="cls-9" d="m591.875,263.5h-89.6875v37.1875h51.625c-4.8125,23.625-24.9375,37.1875-51.625,37.1875-31.5,0-56.875-25.375-56.875-56.875s25.375-56.875,56.875-56.875c13.5625,0,25.8125,4.8125,35.4375,12.6875l28-28c-17.0625-14.875-38.9375-24.0625-63.4375-24.0625-53.375,0-96.25,42.875-96.25,96.25s42.875,96.25,96.25,96.25c48.125,0,91.875-35,91.875-96.25,0-5.6875-.875-11.8125-2.1875-17.5Z"/>
    </clipPath>
    <clipPath id="clippath-1">
      <path class="cls-9" d="m591.875,263.5h-89.6875v37.1875h51.625c-4.8125,23.625-24.9375,37.1875-51.625,37.1875-31.5,0-56.875-25.375-56.875-56.875s25.375-56.875,56.875-56.875c13.5625,0,25.8125,4.8125,35.4375,12.6875l28-28c-17.0625-14.875-38.9375-24.0625-63.4375-24.0625-53.375,0-96.25,42.875-96.25,96.25s42.875,96.25,96.25,96.25c48.125,0,91.875-35,91.875-96.25,0-5.6875-.875-11.8125-2.1875-17.5Z"/>
    </clipPath>
    <clipPath id="clippath-2">
      <path class="cls-9" d="m591.875,263.5h-89.6875v37.1875h51.625c-4.8125,23.625-24.9375,37.1875-51.625,37.1875-31.5,0-56.875-25.375-56.875-56.875s25.375-56.875,56.875-56.875c13.5625,0,25.8125,4.8125,35.4375,12.6875l28-28c-17.0625-14.875-38.9375-24.0625-63.4375-24.0625-53.375,0-96.25,42.875-96.25,96.25s42.875,96.25,96.25,96.25c48.125,0,91.875-35,91.875-96.25,0-5.6875-.875-11.8125-2.1875-17.5Z"/>
    </clipPath>
    <clipPath id="clippath-3">
      <path class="cls-9" d="m591.875,263.5h-89.6875v37.1875h51.625c-4.8125,23.625-24.9375,37.1875-51.625,37.1875-31.5,0-56.875-25.375-56.875-56.875s25.375-56.875,56.875-56.875c13.5625,0,25.8125,4.8125,35.4375,12.6875l28-28c-17.0625-14.875-38.9375-24.0625-63.4375-24.0625-53.375,0-96.25,42.875-96.25,96.25s42.875,96.25,96.25,96.25c48.125,0,91.875-35,91.875-96.25,0-5.6875-.875-11.8125-2.1875-17.5Z"/>
    </clipPath>
  </defs>
  <rect class="cls-1" width="1000" height="562.5"/>
  <g>
    <g class="cls-8">
      <path class="cls-3" d="m397.1875,337.875v-113.75l74.375,56.875-74.375,56.875Z"/>
    </g>
    <g class="cls-7">
      <path class="cls-2" d="m397.1875,224.125015258789062l74.375,56.874984741210938,30.625-26.6875,105-17.0625v-61.25h-210v48.125015258789062Z"/>
    </g>
    <g class="cls-6">
      <path class="cls-5" d="m397.1875,337.875l131.25-100.625,34.5625,4.375,44.1875-65.625v210h-210v-48.125Z"/>
    </g>
    <g class="cls-10">
      <path class="cls-4" d="m607.1875,386l-135.625-105-17.5-13.125,153.125-43.75v161.875Z"/>
    </g>
  </g>
</svg>