<?xml version="1.0" encoding="UTF-8"?>
<svg id="Layer_1" data-name="Layer 1" xmlns="http://www.w3.org/2000/svg" viewBox="0 0 1000 562.5">
  <defs>
    <style>
      .cls-1 {
        fill: #ef3d3a;
      }

      .cls-1, .cls-2, .cls-3, .cls-4, .cls-5, .cls-6, .cls-7, .cls-8, .cls-9, .cls-10, .cls-11, .cls-12 {
        fill-rule: evenodd;
      }

      .cls-2 {
        fill: #fff;
      }

      .cls-3 {
        fill: #dcd9d8;
      }

      .cls-4 {
        fill: #335061;
      }

      .cls-5 {
        fill: #49728b;
      }

      .cls-6 {
        fill: #d33833;
      }

      .cls-7 {
        fill: #231f20;
      }

      .cls-13 {
        fill: none;
        stroke: #d33833;
        stroke-miterlimit: 6.25;
        stroke-width: .160624999552965px;
      }

      .cls-8 {
        fill: #1d1919;
      }

      .cls-9 {
        fill: #81b0c4;
      }

      .cls-10 {
        fill: #f7e4cd;
      }

      .cls-11 {
        fill: #f0d6b7;
      }

      .cls-12 {
        fill: #6d6b6d;
      }
    </style>
  </defs>
  <g id="Layer-1">
    <path class="cls-2" d="m0,0h1000v562.5H0V0Z"/>
    <path class="cls-6" d="m569.949378967285156,277.635002136230469c0,39.621238708496094-31.403121948242188,71.743125915527344-70.137519836425781,71.743125915527344-38.733749389648438,0-70.130615234375-32.12188720703125-70.130615234375-71.743125915527344,0-39.621257781982422,31.396865844726562-71.743755340576172,70.130615234375-71.743755340576172,38.734397888183594,0,70.137519836425781,32.12249755859375,70.137519836425781,71.743755340576172"/>
    <path class="cls-1" d="m432.530632019042969,295.401878356933594s-5.074386596679688-74.811878204345703,63.856849670410156-76.948757171630859l-4.811859130859375-8.018112182617188-37.40936279296875,12.498741149902344-10.623741149902344,12.292499542236328-9.349403381347656,17.904376983642578-5.343132019042969,20.841865539550781,1.606254577636719,13.89251708984375"/>
    <path class="cls-7" d="m451.772499084472656,228.701877593994141c-12.311248779296875,12.592506408691406-19.923133850097656,29.978752136230469-19.923133850097656,49.208126068115234s7.624397277832031,36.621246337890625,19.923133850097656,49.201889038085938c12.299385070800781,12.579994201660156,29.278755187988281,20.354347229003906,48.039360046386719,20.354347229003906,18.761253356933594,0,35.7281494140625-7.768096923828125,48.039398193359375-20.354347229003906,12.311859130859375-12.586898803710938,19.923133850097656-29.978771209716797,19.923133850097656-49.201889038085938,0-19.223136901855469-7.623748779296875-36.621875762939453-19.923133850097656-49.208126068115234-12.298774719238281-12.586250305175781-29.278144836425781-20.354385375976562-48.039398193359375-20.354385375976562-18.760604858398438,0-35.727500915527344,7.768135070800781-48.039360046386719,20.354385375976562Zm-3.11187744140625,101.459369659423828c-13.079986572265625-13.373756408691406-21.160621643066406-31.859378814697266-21.160621643066406-52.245006561279297,0-20.385608673095703,8.086891174316406-38.871250152587891,21.160621643066406-52.245616912841797,13.073768615722656-13.373756408691406,31.171875-21.672496795654297,51.151237487792969-21.666240692138672,19.979400634765625.006237030029297,38.078155517578125,8.292484283447266,51.151885986328125,21.666240692138672,13.073768615722656,13.374366760253906,21.166877746582031,31.860008239746094,21.166877746582031,52.245616912841797,0,20.385627746582031-8.086891174316406,38.871250152587891-21.166877746582031,52.245006561279297s-31.1724853515625,21.6668701171875-51.151885986328125,21.6668701171875c-19.979362487792969,0-38.077468872070312-8.293113708496094-51.151237487792969-21.6668701171875"/>
    <g>
      <path class="cls-11" d="m529.334373474121094,278.034992218017578l-10.623741149902344,1.606254577636719-14.436264038085938,1.605625152587891-9.349365234375.268745422363281-9.086875915527344-.268745422363281-6.949386596679688-2.136878967285156-6.143112182617188-6.686859130859375-4.811897277832031-13.623752593994141-1.062469482421875-2.937507629394531-6.411895751953125-2.137489318847656-3.749351501464844-6.143131256103516-2.718772888183594-8.817501068115234,2.937507629394531-7.749385833740234,6.949386596679688-2.406234741210938,5.61187744140625,2.674999237060547,2.674369812011719,5.874366760253906,3.206253051757812-.537490844726562,1.062507629394531-1.337509155273438-1.062507629394531-6.143131256103516-.268745422363281-7.749366760253906,1.606216430664062-10.623741149902344-.062484741210938-6.105632781982422,4.874382019042969-7.786884307861328,8.549385070800781-6.143112182617188,14.94873046875-6.480636596679688,16.560630798339844,2.405624389648438,14.436264038085938,10.418128967285156,6.686859130859375,10.623760223388672,4.274368286132812,7.749366760253906,1.062507629394531,19.235630035400391-3.205642700195312,16.561241149902344-5.874366760253906,14.686260223388672-5.61248779296875,7.748737335205078"/>
      <path class="cls-4" d="m520.24749755859375,324.255638122558594l-38.208732604980469,1.606254577636719v6.411857604980469l3.206253051757812,22.43560791015625-1.606254577636719,1.8743896484375-26.710014343261719-9.080009460449219-1.875-3.206253051757812-2.674980163574219-30.184993743896484-6.143150329589844-18.166866302490234-1.337509155273438-4.274368286132812,21.373138427734375-14.686260223388672,6.686859130859375-2.674999237060547,5.874404907226562,7.211875915527344,5.074996948242188,4.543743133544922,5.874366760253906,1.8743896484375,2.668113708496094.799999237060547,3.206253051757812,13.892498016357422,2.406272888183594,2.937488555908203,6.143112182617188-2.137489318847656-4.275016784667969,8.280620574951172,23.248138427734375,10.954990386962891-2.937507629394531,1.606254577636719"/>
      <path class="cls-12" d="m456.928749084472656,231.014366149902344l6.949386596679688-2.406234741210938,5.61187744140625,2.674999237060547,2.674369812011719,5.874366760253906,3.206253051757812-.537490844726562.799980163574219-3.206253051757812-1.606254577636719-6.143131256103516,1.606254577636719-14.698753356933594-1.337509155273438-8.017501831054688,4.811897277832031-5.61248779296875,10.418128967285156-8.280010223388672-2.937507629394531-3.999996185302734-14.698753356933594,7.211875915527344-6.143112182617188,4.811878204345703-3.474388122558594,7.480621337890625-5.343132019042969,7.211875915527344-1.606254577636719,8.549385070800781,1.062507629394531,9.086856842041016"/>
      <path class="cls-3" d="m467.87750244140625,205.891246795654297s3.999366760253906-9.886245727539062,20.041885375976562-14.685630798339844c16.04248046875-4.799995422363281.799980163574219-3.474998474121094.799980163574219-3.474998474121094l-17.373123168945312,6.686878204345703-6.686859130859375,6.686878204345703-2.937507629394531,5.343132019042969,6.143112182617188-.537509918212891m-7.999382019042969,23.2293701171875s-5.611839294433594-18.704357147216797,15.76751708984375-21.373119354248047l-.800018310546875-3.205623626708984-14.686241149902344,3.474369049072266-4.274368286132812,13.89251708984375,1.062507629394531,9.086856842041016,2.936859130859375-1.875"/>
      <path class="cls-10" d="m468.414993286132812,253.986873626708984l3.499374389648438-3.386878967285156c.072517395019531,1.026248931884766.831260681152344,1.872501373291016,1.843757629394531,2.055625915527344.268745422363281,1.875,1.062507629394531,18.705005645751953,12.498741149902344,27.791252136230469,1.049995422363281.831260681152344-8.548736572265625-1.336879730224609-8.548736572265625-1.336879730224609l-8.549385070800781-13.361244201660156m48.358116149902344-16.842498779296875s.625-8.099384307861328,2.8118896484375-7.474384307861328c2.1875.625,2.1875,2.8125,2.1875,2.8125,0,0-5.29937744140625,3.42437744140625-4.98687744140625,4.67437744140625"/>
    </g>
    <path class="cls-10" d="m539.758758544921875,219.246253967285156s-4.406242370605469.9375-4.812507629394531,4.812488555908203c-.406265258789062,3.874378204345703,4.812507629394531.799999237060547,5.61187744140625.537509918212891m-33.071861267089844-5.081253051757812s-5.874404907226562.799999237060547-5.874404907226562,4.543743133544922c0,3.743133544921875,6.686897277832031,3.474388122558594,8.549385070800781,1.8743896484375"/>
    <g>
      <path class="cls-10" d="m471.083755493164062,236.888751983642578s-10.1556396484375-6.149368286132812-11.218147277832031-.268745422363281c-1.062469482421875,5.880622863769531-3.474349975585938,10.154991149902344,1.606254577636719,16.298122406005859l-3.474349975585938-1.061878204345703-3.206253051757812-8.280620574951172-1.062507629394531-8.018131256103516,6.143112182617188-6.411876678466797,6.949386596679688.537509918212891,4.000015258789062,3.205623626708984.268745422363281,3.999996185302734m4.811859130859375-16.83624267578125s4.543113708496094-23.510017395019531,27.522506713867188-28.122501373291016c18.916854858398438-3.73687744140625,28.853759765625.799999237060547,32.596855163574219,5.074996948242188,0,0-16.835594177246094-20.035629272460938-32.871856689453125-13.892498016357422-16.036262512207031,6.143112182617188-27.784996032714844,17.498111724853516-27.535018920898438,24.641246795654297l.268783569335938,12.292499542236328m61.994361877441406-20.310630798339844s-7.749366760253906-.268745422363281-8.018112182617188,6.686878204345703c.0274658203125.74188232421875.208740234375,1.469383239746094.531234741210938,2.137508392333984,0,0,6.149368286132812-6.949386596679688,9.886245727539062-3.206253051757812m-36.3275146484375,3.924999237060547s-1.331214904785156-10.661888122558594-10.424346923828125-4.461879730224609c-5.874366760253906,3.999366760253906-5.343132019042969,9.623756408691406-4.274368286132812,10.623741149902344,1.0687255859375,1.000003814697266.78125,3.218135833740234,1.593742370605469,1.750011444091797.812492370605469-1.468753814697266.543746948242188-6.286869049072266,3.486862182617188-7.624378204345703,2.943763732910156-1.337509155273438,7.749366760253906-2.831249237060547,9.624366760253906-.343742370605469"/>
      <path class="cls-5" d="m478.832511901855469,281.509380340576172l-25.122528076171875,11.224365234375s10.418128967285156,41.415004730224609,5.074386596679688,54.245014190673828l-3.749351501464844-1.337509155273438-.268783569335938-15.76751708984375-6.924362182617188-29.865608215332031-2.937507629394531-8.280620574951172,26.248130798339844-17.636260986328125,7.748756408691406,7.480640411376953m2.524986267089844,22.841873168945312l3.562507629394531,4.349365234375v16.030006408691406h-4.274978637695312l-.531272888183594-12.498760223388672c0-1.337490081787109.531272888183594-6.143112182617188.531272888183594-6.143112182617188m.793724060058594,21.041851043701172l-12.023735046386719.530624389648438,3.474349975585938,2.406272888183594,8.549385070800781,1.337509155273438"/>
      <g>
        <path class="cls-4" d="m522.653732299804688,324.524383544921875l9.886894226074219-.268745422363281,2.405624389648438,24.584999084472656-10.154991149902344,1.337471008300781-2.137527465820312-25.647468566894531"/>
        <path class="cls-4" d="m525.328750610351562,324.524383544921875l14.96063232421875-.800018310546875,6.143760681152344-16.298732757568359c0-.799388885498047,5.343093872070312-22.435016632080078,5.343093872070312-22.435016632080078l-12.023735046386719-12.561244964599609-2.406234741210938-2.137489318847656-6.411895751953125,6.411876678466797v24.847488403320312l-5.61187744140625,22.979393005371094"/>
      </g>
      <path class="cls-5" d="m532.009391784667969,322.6556396484375l-9.349403381347656,1.875,1.337509155273438,7.480621337890625c3.474388122558594,1.606254577636719,9.3487548828125-2.675018310546875,9.3487548828125-2.675018310546875m-1.074371337890625-53.432483673095703l18.704376220703125,13.892498016357422.537490844726562-6.411876678466797-14.161262512207031-13.092498779296875-5.074348449707031,5.61187744140625"/>
      <path class="cls-2" d="m490.7818603515625,377.163124084472656l-5.530624389648438-22.447509765625-2.749977111816406-16.561241149902344-.456275939941406-12.29248046875,25.035018920898438-1.331253051757812h15.579986572265625l-1.418724060058594,28.122482299804688,2.406234741210938,21.641883850097656-.268745422363281,3.999366760253906-20.310630798339844,1.606254577636719-12.29248046875-2.675018310546875"/>
      <path class="cls-3" d="m519.173126220703125,324.255638122558594s-1.337509155273438,27.791252136230469,2.674369812011719,47.495613098144531c0,0-8.018112182617188,5.074386596679688-19.773139953613281,6.411857604980469l22.435646057128906-.799980163574219,2.674369812011719-1.606254577636719-3.205604553222656-43.820610046386719-.800018310546875-9.355621337890625"/>
      <path class="cls-2" d="m535.402488708496094,346.703758239746094l10.418128967285156-2.937507629394531,19.773139953613281-1.062507629394531,2.936859130859375-9.086227416992188-5.343132019042969-15.76751708984375-6.143112182617188-.799999237060547-8.549385070800781,2.674999237060547-8.205604553222656,3.999366760253906-4.355621337890625-.799980163574219-3.393135070800781,1.331253051757812"/>
      <path class="cls-3" d="m535.214996337890625,341.353759765625s6.949386596679688-3.205642700195312,8.018112182617188-2.936897277832031l-2.937469482421875-14.698753356933594,3.474998474121094-1.337471008300781,2.406234741210938,15.498733520507812,16.298141479492188.800018310546875s3.206253051757812-6.143150329589844,2.406234741210938-12.498779296875l2.936859130859375,8.548774719238281.268783569335938,4.812507629394531-4.274406433105469,6.411857604980469-4.811859130859375,1.062507629394531-8.018112182617188-.268745422363281-2.675018310546875-3.474998474121094-9.3487548828125,1.337471008300781-2.937507629394531,1.062507629394531"/>
    </g>
    <path class="cls-2" d="m524.710006713867188,322.380638122558594l-5.874366760253906-14.961261749267578-6.143760681152344-8.811244964599609s1.337509155273438-3.75,3.206253051757812-3.75h6.143112182617188l5.874366760253906,2.137489318847656-.531234741210938,9.886875152587891-2.674369812011719,15.498142242431641"/>
    <path class="cls-3" d="m525.8599853515625,317.318744659423828s-7.480621337890625-14.436244964599609-7.480621337890625-16.561241149902344c0,0,1.336898803710938-3.205623626708984,3.205642700195312-2.405624389648438s5.874366760253906,2.936878204345703,5.874366760253906,2.936878204345703v-5.074386596679688l-9.086265563964844-1.875-6.143112182617188.799999237060547,10.417518615722656,24.585628509521484,2.137489318847656.268745422363281"/>
    <path class="cls-2" d="m493.175010681152344,282.040634155273438l-7.399368286132812-.812511444091797-6.949386596679688-2.136878967285156v2.405624389648438l3.393745422363281,3.75,10.623741149902344,4.811878204345703"/>
    <g>
      <path class="cls-3" d="m481.238746643066406,282.846870422363281s8.2806396484375,3.474998474121094,10.955619812011719,2.674999237060547l.268135070800781,3.205623626708984-7.480010986328125-1.599998474121094-4.543724060058594-3.205623626708984.799980163574219-1.062488555908203"/>
      <path class="cls-6" d="m535.371246337890625,295.776882171630859c-4.5306396484375-.125007629394531-8.624382019042969-.668754577636719-12.217483520507812-1.687507629394531.249977111816406-1.468124389648438-.212516784667969-2.911872863769531.15625-3.974380493164062.999984741210938-.718746185302734,2.674980163574219-.706253051757812,4.186859130859375-.874996185302734-1.311874389648438-.643749237060547-3.143119812011719-.893745422363281-4.64935302734375-.524997711181641-.03753662109375-1.018753051757812-.500030517578125-1.650009155273438-.768775939941406-2.449378967285156,2.550010681152344-.912494659423828,8.561897277832031-6.874370574951172,11.948738098144531-4.899997711181641,1.612510681152344.9375,2.300033569335938,6.311874389648438,2.425003051757812,8.911876678466797.106277465820312,2.162494659423828-.187492370605469,4.349384307861328-1.08123779296875,5.499382019042969"/>
    </g>
    <path class="cls-13" d="m535.371246337890625,295.776882171630859c-4.5306396484375-.125007629394531-8.624382019042969-.668754577636719-12.217483520507812-1.687507629394531.249977111816406-1.468124389648438-.212516784667969-2.911872863769531.15625-3.974380493164062.999984741210938-.718746185302734,2.674980163574219-.706253051757812,4.186859130859375-.874996185302734-1.311874389648438-.643749237060547-3.143119812011719-.893745422363281-4.64935302734375-.524997711181641-.03753662109375-1.018753051757812-.500030517578125-1.650009155273438-.768775939941406-2.449378967285156,2.550010681152344-.912494659423828,8.561897277832031-6.874370574951172,11.948738098144531-4.899997711181641,1.612510681152344.9375,2.300033569335938,6.311874389648438,2.425003051757812,8.911876678466797.106277465820312,2.162494659423828-.187492370605469,4.349384307861328-1.08123779296875,5.499382019042969Z"/>
    <path class="cls-6" d="m513.691864013671875,288.365001678466797l-.037498474121094,1.037502288818359c-1.418113708496094.9375-3.699378967285156.918750762939453-5.249366760253906,1.700000762939453,2.287483215332031.100002288818359,4.093742370605469.649986267089844,5.655632019042969,1.437492370605469l-.100021362304688,2.593135833740234c-2.593116760253906,1.774997711181641-4.96185302734375,4.424991607666016-8.018112182617188,6.086864471435547-1.436882019042969.787506103515625-6.511878967285156,2.8125-8.048744201660156,2.456245422363281-.875015258789062-.199985504150391-.95001220703125-1.281242370605469-1.293754577636719-2.299995422363281-.737495422363281-2.186870574951172-2.437515258789062-5.643119812011719-2.593765258789062-8.923740386962891-.187492370605469-4.143753051757812-.606231689453125-11.08062744140625,3.856277465820312-10.230636596679688,3.689994812011719.783138275146484,7.249984741210938,2.085628509521484,10.57373046875,3.868751525878906,1.706275939941406.936870574951172,2.687492370605469,2.080631256103516,5.274391174316406,2.280635833740234"/>
    <path class="cls-13" d="m513.691864013671875,288.365001678466797l-.037498474121094,1.037502288818359c-1.418113708496094.9375-3.699378967285156.918750762939453-5.249366760253906,1.700000762939453,2.287483215332031.100002288818359,4.093742370605469.649986267089844,5.655632019042969,1.437492370605469l-.100021362304688,2.593135833740234c-2.593116760253906,1.774997711181641-4.96185302734375,4.424991607666016-8.018112182617188,6.086864471435547-1.436882019042969.787506103515625-6.511878967285156,2.8125-8.048744201660156,2.456245422363281-.875015258789062-.199985504150391-.95001220703125-1.281242370605469-1.293754577636719-2.299995422363281-.737495422363281-2.186870574951172-2.437515258789062-5.643119812011719-2.593765258789062-8.923740386962891-.187492370605469-4.143753051757812-.606231689453125-11.08062744140625,3.856277465820312-10.230636596679688,3.689994812011719.783138275146484,7.249984741210938,2.085628509521484,10.57373046875,3.868751525878906,1.706275939941406.936870574951172,2.687492370605469,2.080631256103516,5.274391174316406,2.280635833740234l-.018768310546875-.006256103515625Z"/>
    <path class="cls-6" d="m516.266860961914062,293.308753967285156c-.393753051757812-2.250003814697266-.856246948242188-2.900009155273438-.674972534179688-4.875011444091797,6.018104553222656-4.011859893798828,7.143096923828125,6.886882781982422.674972534179688,4.875011444091797"/>
    <path class="cls-13" d="m516.266860961914062,293.308753967285156c-.393753051757812-2.250003814697266-.856246948242188-2.900009155273438-.674972534179688-4.875011444091797,6.018104553222656-4.011859893798828,7.143096923828125,6.886882781982422.674972534179688,4.875011444091797Z"/>
    <path class="cls-1" d="m524.985008239746094,295.133132934570312s-1.875-2.674388885498047-.537490844726562-3.474388122558594c1.337471008300781-.799999237060547,2.674369812011719,0,3.474349975585938-1.337490081787109.800018310546875-1.337509155273438,0-2.137508392333984.268745422363281-3.749370574951172.268745422363281-1.612510681152344,1.606254577636719-1.875,2.937507629394531-2.137508392333984s5.074386596679688-.799999237060547,5.61187744140625.537490844726562l-1.606254577636719-4.812488555908203-3.205604553222656-1.061878204345703-10.1556396484375,5.874366760253906-.537490844726562,2.936878204345703v5.874385833740234m-24.372520446777344,10.161876678466797l-1.037483215332031-12.498760223388672c-.625-6.218128204345703,1.499977111816406-5.136871337890625,6.886863708496094-5.136871337890625.825004577636719,0,4.9993896484375.980625152587891,5.374374389648438,1.605625152587891,1.456260681152344,2.975006103515625-2.499351501464844,2.312507629394531,1.687507629394531,4.562492370605469,3.474388122558594,1.893138885498047,9.611892700195312-1.149997711181641,8.205642700195312-5.362491607666016-.787506103515625-.936870574951172-4.093780517578125-.293750762939453-5.281257629394531-.905628204345703l-6.26190185546875-3.250007629394531c-2.655601501464844-1.374988555908203-8.792495727539062-3.386859893798828-11.623725891113281-1.462497711181641-7.17437744140625,4.875011444091797.449981689453125,17.073764801025391,3.012504577636719,22.160625457763672"/>
    <path class="cls-7" d="m503.955612182617188,209.284992218017578c-7.280616760253906-1.687488555908203-10.89935302734375,3.049373626708984-13.111228942871094,7.9681396484375-1.968765258789062-.475006103515625-1.25-3.156261444091797-.625-4.525012969970703,1.25-3.586864471435547,6.561851501464844-8.354988098144531,10.848731994628906-7.711868286132812,1.850013732910156.281257629394531,4.350013732910156,1.968746185302734,2.950019836425781,4.268741607666016m35.421867370605469,8.230628967285156l.343742370605469.01251220703125c1.643142700195312,3.418121337890625,3.1243896484375,7.043113708496094,5.14312744140625,9.998741149902344-1.39373779296875,3.237495422363281-10.530624389648438,6.105632781982422-10.393104553222656.287494659423828,1.974983215332031-.862503051757812,5.386848449707031-.174999237060547,7.143096923828125-1.281242370605469-1.012496948242188-2.780628204345703-2.474365234375-5.149383544921875-2.249374389648438-9.080009460449219m-31.747474670410156.212516784667969c1.5625,2.861862182617188,2.062492370605469,5.874366760253906,4.287490844726562,8.029994964599609.999374389648438.974998474121094,2.936859130859375,2.162494659423828,1.980628967285156,4.874992370605469-.682525634765625,1.044387817382812-1.661872863769531,1.860637664794922-2.8118896484375,2.343120574951172-3.468742370605469,1.025009155273438-11.5618896484375.212516784667969-8.7493896484375-4.111862182617188,2.875022888183594.124988555908203,6.724395751953125,1.86248779296875,8.874397277832031-.218753814697266-1.650009155273438-2.625007629394531-4.581260681152344-7.843132019042969-3.499984741210938-10.9112548828125m30.434989929199219,29.090633392333984c-5.224380493164062,3.356246948242188-11.049385070800781,6.999378204345703-19.610633850097656,6.161861419677734-1.831245422363281-1.586856842041016-2.524986267089844-5.124359130859375-.750007629394531-7.467498779296875.925025939941406,1.586875915527344.343742370605469,4.51812744140625,2.924385070800781,4.955635070800781,4.85626220703125.831241607666016,10.511856079101562-2.96875,13.998756408691406-4.300003051757812,2.168731689453125-3.655624389648438-.187492370605469-4.999370574951172-2.136878967285156-7.348747253417969-4.000015258789062-4.812507629394531-9.355621337890625-10.786876678466797-9.161872863769531-17.998752593994141,1.612510681152344-1.168746948242188,1.749992370605469,1.787509918212891,1.987495422363281,2.325000762939453,2.086868286132812,4.874382019042969,7.336883544921875,11.123752593994141,11.167488098144531,15.311241149902344.9375,1.030635833740234,2.5,2.01812744140625,2.662506103515625,2.699375152587891.499992370605469,1.981258392333984-1.293754577636719,4.350013732910156-1.087493896484375,5.668125152587891m-68.931236267089844-3.543109893798828c-1.637535095214844-.9375-2.025032043457031-5.049381256103516-3.950004577636719-5.168132781982422-2.749404907226562-.168743133544922-2.249374389648438,5.343132019042969-2.236900329589844,8.561248779296875-1.893730163574219-1.718120574951172-2.224998474121094-6.999378204345703-.837478637695312-9.717502593994141-1.581268310546875-.774993896484375-2.293739318847656.856246948242188-3.168754577636719,1.437511444091797,1.124992370605469-8.199386596679688,11.999359130859375-3.75,10.186882019042969,4.893112182617188m72.211875915527344,6.8743896484375c-2.4993896484375,4.624366760253906-5.874404907226562,9.723739624023438-13.011245727539062,9.873733520507812-.143775939941406-1.499366760253906-.250015258789062-3.768119812011719.006217956542969-4.668121337890625,5.45562744140625-.524997711181641,8.824386596679688-3.299369812011719,12.998771667480469-5.205612182617188m-34.184379577636719,2.999362945556641c4.550018310546875,2.393760681152344,12.917518615722656,2.650012969970703,19.104385375976562,2.468757629394531.331230163574219,1.356239318847656.324974060058594,3.031253814697266.337486267089844,4.686870574951172-7.954978942871094.393753051757812-17.354354858398438-1.561870574951172-19.373130798339844-7.155628204345703m-.874977111816406,4.462509155273438c3.149986267089844,7.905616760253906,13.967475891113281,6.999378204345703,23.091850280761719,6.774368286132812-.399971008300781,1.025009155273438-1.274986267089844,2.236881256103516-2.356224060058594,2.674369812011719-2.924385070800781,1.25-10.986251831054688,2.093753814697266-15.041885375976562-.062484741210938-2.574996948242188-1.374378204345703-4.225006103515625-4.461879730224609-5.63751220703125-6.274375915527344-.625-.875015258789062-4.074363708496094-3.11187744140625-.050010681152344-3.1243896484375"/>
    <path class="cls-9" d="m537.758750915527344,301.232490539550781l-11.611251831054688,18.405017852783203c1.836891174316406-5.400009155273438,2.624359130859375-14.436264038085938,2.899360656738281-21.335639953613281,3.843765258789062-1.799983978271484,7.136878967285156.406265258789062,8.711891174316406,2.936878204345703"/>
    <path class="cls-7" d="m557.631874084472656,323.968124389648438c-4.137496948242188.825004577636719-7.043113708496094,4.849357604980469-11.073760986328125,4.586868286132812,2.218132019042969-3.124351501464844,6.099395751953125-4.374351501464844,11.073760986328125-4.586868286132812m1.824989318847656,6.474380493164062c-3.374977111816406.356254577636719-7.33062744140625.900001525878906-10.749359130859375.625,1.624984741210938-2.475013732910156,7.855606079101562-1.625022888183594,10.749359130859375-.625m1.168136596679688,5.574378967285156c-3.786888122558594.081253051757812-8.498764038085938.006256103515625-12.098731994628906-.293769836425781,2.124977111816406-2.286872863769531,9.643096923828125-.849990844726562,12.098731994628906.293769836425781"/>
    <path class="cls-3" d="m530.628128051757812,351.290626525878906c.543746948242188,4.749374389648438,2.437515258789062,9.580612182617188,2.1875,14.786262512207031-2.093734741210938.706253051757812-3.300018310546875,1.324996948242188-6.10626220703125,1.312484741210938l-.61187744140625-15.41748046875c1.374397277832031.093727111816406,3.418121337890625-.987510681152344,4.524383544921875-.625"/>
    <path class="cls-11" d="m524.522514343261719,281.171875c-1.9000244140625,1.25-3.525009155273438,2.793750762939453-5.349388122558594,4.125003814697266-4.04998779296875.200004577636719-6.26251220703125-.281257629394531-9.236869812011719-2.606258392333984.050010681152344-.187492370605469.349998474121094-.106239318847656.356254577636719-.331249237060547,4.33685302734375,1.937503814697266,9.848747253417969-.787487030029297,14.230003356933594-1.187496185302734"/>
    <path class="cls-9" d="m501.755638122558594,310.731868743896484c1.187477111816406-5.161876678466797,5.861854553222656-7.836875915527344,10.099372863769531-10.686244964599609,4.374351501464844,5.561866760253906,7.036857604980469,12.686252593994141,9.967498779296875,19.585628509521484-6.924400329589844-2.087497711181641-13.998756408691406-5.475006103515625-20.060653686523438-8.905620574951172"/>
    <path class="cls-7" d="m526.110000610351562,351.978111267089844c-.175018310546875,4.2181396484375.411872863769531,10.998764038085938.61187744140625,15.417518615722656,2.8125.006256103515625,4.012489318847656-.61248779296875,6.10626220703125-1.312522888183594.237503051757812-5.211868286132812-1.650009155273438-10.030593872070312-2.1875-14.786224365234375-1.10626220703125-.293769836425781-3.143768310546875.78125-4.524383544921875.625l-.006256103515625.056228637695312Zm-43.696250915527344-23.99810791015625c1.850013732910156,17.011260986328125,4.5306396484375,31.247482299804688,9.449386596679688,46.371231079101562,10.9112548828125,3.311882019042969,24.059982299804688,3.599395751953125,33.709373474121094.612525939941406-1.768760681152344-8.499374389648438-1.000022888183594-18.855018615722656-2.03125-27.935028076171875l-1.450004577636719-20.641860961914062c-11.686248779296875-2.437515258789062-28.203773498535156-.562515258789062-39.671249389648438,1.574363708496094l-.006256103515625.018768310546875Zm42.496261596679688-1.468124389648438c-.100021362304688,7.311859130859375.324974060058594,14.511260986328125.887489318847656,21.828727722167969l7.311859130859375-1.274337768554688c-.843734741210938-7.04315185546875-.749969482421875-14.967536926269531-2.468719482421875-21.198158264160156-2.000007629394531.018768310546875-3.75-.024986267089844-5.736885070800781.643768310546875h.006256103515625Zm14.230003356933594-1.175003051757812c-1.331253051757812-.3125-2.875022888183594-.01251220703125-4.156265258789062.01251220703125l2.5,18.779373168945312c2.000007629394531.062484741210938,3.061866760253906-.875015258789062,4.718132019042969-1.200027465820312.087509155273438-5.486869812011719-.48126220703125-13.048744201660156-3.1243896484375-17.59185791015625h.062522888183594Zm21.547470092773438,19.685630798339844c4.175033569335938-1.012496948242188,6.793136596679688-6.124382019042969,5.625-11.373748779296875-.78125-3.525009155273438-2.17498779296875-10.16815185546875-3.668746948242188-12.424392700195312-1.100006103515625-1.668109893798828-4.093093872070312-3.855609893798828-6.480598449707031-2.324371337890625-3.886871337890625,2.48687744140625-10.730018615722656,3.211898803710938-13.561248779296875,6.218147277832031,1.418724060058594,4.730606079101562,1.86248779296875,11.223716735839844,2.449989318847656,17.216873168945312,4.855613708496094.29998779296875,10.823745727539062-1.336898803710938,14.861259460449219.399971008300781-2.8125.912513732910156-6.474380493164062.918769836425781-8.9056396484375,2.250022888183594,1.987495422363281.962486267089844,6.649360656738281.76873779296875,9.686241149902344.031242370605469l-.006256103515625.006256103515625Zm-38.796234130859375-25.372505187988281c-2.936859130859375-6.893119812011719-5.593109130859375-14.0362548828125-9.967498779296875-19.585628509521484-4.237518310546875,2.843132019042969-8.9056396484375,5.518131256103516-10.099372863769531,10.686244964599609,6.061859130859375,3.4368896484375,13.142509460449219,6.811885833740234,20.060615539550781,8.9056396484375l.006256103515625-.006256103515625Zm7.224388122558594-21.341876983642578c-.275001525878906,6.893119812011719-1.062507629394531,15.935630798339844-2.899398803710938,21.335620880126953,4.3743896484375-5.581245422363281,7.917518615722656-12.080612182617188,11.611251831054688-18.404998779296875-1.574974060058594-2.524375915527344-4.874382019042969-4.730625152587891-8.71185302734375-2.936878204345703v.006256103515625Zm-8.1243896484375-2.912502288818359c-1.661872863769531-.187492370605469-3.061866760253906,1.906261444091797-5.230636596679688,1.000003814697266l-1.450004577636719,1.674995422363281c4.768753051757812,5.749378204345703,6.8743896484375,13.898754119873047,10.6243896484375,20.648136138916016,1.974372863769531-6.486873626708984,1.749382019042969-13.592510223388672,2.1868896484375-20.673141479492188-2.711868286132812.175018310546875-4.2181396484375-2.456245422363281-6.124382019042969-2.65625l-.006256103515625.006256103515625Zm-5.268135070800781-6.949367523193359c-.174980163574219,1.968746185302734.281257629394531,2.612495422363281.675010681152344,4.874992370605469,6.468124389648438,2.024383544921875,5.336875915527344-8.874378204345703-.675010681152344-4.874992370605469Zm-7.17437744140625-2.355632781982422c-3.323745727539062-1.783123016357422-6.883735656738281-3.085613250732422-10.57373046875-3.868751525878906-4.462509155273438-.856246948242188-4.043769836425781,6.086883544921875-3.856239318847656,10.230636596679688.149993896484375,3.280620574951172,1.856231689453125,6.749362945556641,2.593727111816406,8.923740386962891.349998474121094,1.018753051757812.424995422363281,2.093753814697266,1.293754577636719,2.299995422363281,1.536865234375.356254577636719,6.605644226074219-1.668739318847656,8.048744201660156-2.456245422363281,3.062515258789062-1.668128967285156,5.424995422363281-4.374370574951172,8.018150329589844-6.086864471435547l.099983215332031-2.593135833740234c-1.5618896484375-.774993896484375-3.361892700195312-1.331253051757812-5.655632019042969-1.437492370605469,1.5625-.78125,3.837509155273438-.768756866455078,5.249366760253906-1.700000762939453l.037498474121094-1.037502288818359c-2.586860656738281-.200004577636719-3.561859130859375-1.350002288818359-5.27435302734375-2.280635833740234l.018730163574219.006256103515625Zm-26.622505187988281-4.837493896484375c-2.312469482421875,2.350006103515625,6.486892700195312,5.549373626708984,9.293136596679688,5.724372863769531-.018730163574219-1.486873626708984.849990844726562-2.886867523193359.675010681152344-3.955631256103516-3.331260681152344-.587501525878906-7.705612182617188-.199985504150391-9.961891174316406-1.768741607666016h-.006256103515625Zm28.497505187988281,1.100006103515625c-.012474060058594.231246948242188-.3125.14373779296875-.356254577636719.331249237060547,2.974395751953125,2.325000762939453,5.186882019042969,2.8125,9.236907958984375,2.606239318847656l5.349349975585938-4.125003814697266c-4.375.393753051757812-9.893112182617188,3.112506866455078-14.230003356933594,1.187515258789062Zm26.160011291503906,7.936859130859375c-.125007629394531-2.612495422363281-.812492370605469-7.974376678466797-2.425003051757812-8.911876678466797-3.386878967285156-1.974372863769531-9.404983520507812,3.987503051757812-11.948738098144531,4.900016784667969.275001525878906.799369812011719.737495422363281,1.436862945556641.76873779296875,2.449359893798828,1.500015258789062-.374984741210938,3.343124389648438-.124988555908203,4.649391174316406.524997711181641-1.511878967285156.16876220703125-3.1243896484375.15625-4.186897277832031.875015258789062-.374984741210938,1.062488555908203.087509155273438,2.5-.15625,3.974361419677734,3.586883544921875,1.012516021728516,7.686882019042969,1.550006866455078,12.217521667480469,1.687507629394531.874977111816406-1.143741607666016,1.187477111816406-3.330631256103516,1.08123779296875-5.499382019042969Zm-58.556861877441406-6.761875152587891c-.725021362304688-.518741607666016-5.643768310546875-6.911869049072266-6.2493896484375-6.649360656738281-8.89312744140625,3.499374389648438-17.205009460449219,9.561862945556641-24.6356201171875,15.311241149902344,7.086868286132812,15.198135375976562,9.936866760253906,33.828144073486328,10.449371337890625,51.776256561279297,8.123741149902344,3.793754577636719,15.248146057128906,9.268112182617188,26.247520446777344,9.836883544921875l-3.16253662109375-25.548133850097656c-2.768096923828125-1.168136596679688-6.736869812011719.050010681152344-9.32373046875-.362510681152344-.024986267089844-3.124351501464844,3.955612182617188-1.374359130859375,4.286880493164062-3.461875915527344.249977111816406-1.587486267089844-2.1875-1.70623779296875-1.39373779296875-4.20562744140625,2.024993896484375.736885070800781,3.08746337890625,2.361869812011719,5.249366760253906,2.9681396484375,1.974983215332031-4.311885833740234-.0250244140625-11.948757171630859.249977111816406-15.623760223388672.062522888183594-.674362182617188.3375244140625-3.749370574951172,1.856269836425781-3.211879730224609,1.343727111816406.475006103515625-.074996948242188,8.186893463134766.062484741210938,11.592502593994141.125007629394531,3.143749237060547-.374984741210938,6.249370574951172.893745422363281,8.161869049072266,10.642509460449219-1.450004577636719,21.454391479492188-2.387504577636719,32.965621948242188-2.700004577636719-2.531242370605469-1.086845397949219-5.543098449707031-2.124366760253906-8.843116760253906-3.974361419677734-1.786880493164062-1.000003814697266-7.424354553222656-3.106250762939453-7.936248779296875-4.811878204345703-.825004577636719-2.706241607666016,2.161865234375-4.149990081787109,2.668113708496094-6.468124389648438-5.374374389648438,2.936878204345703-6.418113708496094-2.8125-7.686843872070312-6.874370574951172-1.150016784667969-3.687496185302734-1.811904907226562-6.436882019042969-2.086906433105469-8.561878204345703-4.624977111816406-2.206249237060547-9.574356079101562-4.374370574951172-13.561248779296875-7.268123626708984l-.049972534179688.074996948242188Zm53.851242065429688-5.874366760253906c7.411880493164062-3.59375,8.748741149902344,13.436241149902344,5.843124389648438,18.910617828369141.449981689453125,1.637496948242188,2.000007629394531,2.262496948242188,2.624359130859375,3.731250762939453l-12.936248779296875,21.641254425048828c3.13751220703125-1.955623626708984,7.624397277832031-.349998474121094,11.2493896484375-1.8743896484375,1.349372863769531-.531234741210938,2.324371337890625-3.624992370605469,3.349380493164062-6.093730926513672,2.8125-6.799373626708984,5.761871337890625-15.373134613037109,7.074356079101562-21.872501373291016.293769836425781-1.481246948242188,1.10626220703125-4.699993133544922.925025939941406-6.018123626708984-.32501220703125-2.35626220703125-3.518142700195312-4.106254577636719-5.149383544921875-5.625l-7.999382019042969-7.573757171630859c-1.268768310546875,1.874370574951172-3.986892700195312,3.124370574951172-5.024375915527344,4.649372100830078l.043754577636719.125007629394531Zm-70.918769836425781-65.713119506835938c-3.530616760253906,3.887500762939453-2.793731689453125,11.161861419677734-2.362480163574219,16.342487335205078,6.374359130859375-4.011859893798828,14.848747253417969.3125,14.773750305175781,7.143135070800781,3.050003051757812-.081253051757812,1.137504577636719-3.811874389648438.587501525878906-6.205635070800781-1.800003051757812-7.836875915527344,3.037490844726562-16.348743438720703.218734741210938-23.516864776611328-5.468101501464844.412502288818359-9.954986572265625,2.649993896484375-13.211250305175781,6.23687744140625h-.006256103515625Zm25.260009765625-22.547512054443359c-7.998733520507812,2.261886596679688-18.235626220703125,8.074378967285156-21.516227722167969,15.248756408691406,2.543106079101562-.375003814697266,4.311866760253906-1.650009155273438,6.811866760253906-1.875.949363708496094-.062503814697266,2.186851501464844.399990081787109,3.280601501464844.125007629394531,2.168769836425781-.537509918212891,3.999404907226562-5.405635833740234,5.643157958984375-7.218132019042969,1.599998474121094-1.768760681152344,3.518714904785156-2.525005340576172,4.83123779296875-4.137496948242188.843124389648438-.405635833740234,2.093124389648438-.374374389648438,2.136878967285156-1.643123626708984-.375022888183594-.393753051757812-.750007629394531-.625-1.25-.625l.062484741210938.124988555908203Zm41.602516174316406,2.124385833740234c-8.29315185546875-4.668121337890625-22.335014343261719-8.186264038085938-31.159400939941406-3.793125152587891-7.124366760253906,3.549995422363281-16.748733520507812,9.424362182617188-20.029373168945312,16.873741149902344,3.061904907226562,7.186260223388672-.906219482421875,13.767509460449219-1.162490844726562,21.060009002685547-.137481689453125,3.874988555908203,1.824989318847656,7.268123626708984,1.975021362304688,11.499366760253906-1.050033569335938,1.731243133544922-4.250030517578125,1.936874389648438-6.474380493164062,1.824378967285156-.750007629394531-3.73687744140625-2.062492370605469-7.936248779296875-5.900001525878906-8.361244201660156-5.436897277832031-.593757629394531-9.423751831054688,3.911876678466797-9.67376708984375,8.623733520507812-.293731689453125,5.537509918212891,4.249382019042969,14.717502593994141,10.698776245117188,14.080009460449219,2.48748779296875-.249996185302734,3.0999755859375-2.749366760253906,5.811843872070312-2.718124389648438,1.468772888183594,2.936878204345703-2.268104553222656,3.855628967285156-2.649345397949219,5.949382781982422-.100021362304688.543746948242188.3125,2.662487030029297.549964904785156,3.655624389648438,1.168785095214844,4.837493896484375,3.780632019042969,11.093120574951172,6.349411010742188,14.773750305175781,3.261871337890625,4.668750762939453,9.661216735839844,5.374374389648438,16.560592651367188,5.830612182617188,1.231269836425781-2.649364471435547,5.762519836425781-2.436866760253906,8.718147277832031-1.736869812011719-3.536872863769531-1.399993896484375-6.830635070800781-4.799995422363281-9.561271667480469-7.811870574951172-3.125-3.45001220703125-6.312484741210938-7.155628204345703-6.468734741210938-11.668128967285156,5.918731689453125,8.211879730224609,10.811882019042969,15.386257171630859,21.573143005371094,18.998756408691406,8.143119812011719,2.730617523193359,17.661247253417969-1.25,23.916854858398438-5.649375915527344,2.599372863769531-1.825008392333984,4.149360656738281-4.724998474121094,5.999374389648438-7.374382019042969,6.905632019042969-9.999370574951172,10.123748779296875-24.123115539550781,9.424362182617188-37.871875762939453-.293731689453125-5.668125152587891-.281219482421875-11.311244964599609-2.1875-15.123748779296875-1.987495422363281-3.986873626708984-8.71185302734375-7.561874389648438-12.648735046386719-3.949375152587891-.731239318847656-3.874378204345703,3.274383544921875-6.274375915527344,7.974357604980469-4.874382019042969-3.349990844726562-4.324989318847656-6.874351501464844-9.524364471435547-11.636848449707031-12.211875915527344v-.024986267089844Zm15.454978942871094,127.907485961914062c6.480636596679688-3.224983215332031,18.591880798339844-8.674373626708984,22.660636901855469.01251220703125,1.499366760253906,3.199367523193359,3.261871337890625,8.611240386962891,4.036865234375,11.917514801025391,1.100006103515625,4.661865234375-1.25,14.461250305175781-5.980606079101562,16.02996826171875-4.23065185546875,1.374397277832031-9.174385070800781,1.299400329589844-14.273757934570312.275001525878906-.600013732910156-.499992370605469-1.268768310546875-1.374969482421875-1.737518310546875-2.274971008300781-3.643112182617188-.143775939941406-7.049369812011719.187492370605469-9.923744201660156,1.687469482421875.275001525878906,2.686882019042969-1.54998779296875,3.1243896484375-3.250007629394531,3.686904907226562-1.268730163574219,5.018119812011719,2.531280517578125,11.573715209960938,1.625022888183594,16.148719787597656-.649986267089844,3.261871337890625-4.661865234375,3.76190185546875-7.605628967285156,4.3743896484375-.093765258789062,1.875.125007629394531,3.325004577636719.331268310546875,4.855613708496094-.675010681152344,2.481269836425781-3.699378967285156,3.899993896484375-6.5618896484375,4.249992370605469-9.424362182617188,1.125030517578125-23.735008239746094,1.643142700195312-32.809371948242188-1.624984741210938-2.531242370605469-6.205635070800781-4.524383544921875-13.748741149902344-6.624374389648438-20.841865539550781-8.843116760253906.9375-15.998764038085938-3.811874389648438-22.735633850097656-6.936874389648438-2.336883544921875-1.081275939941406-5.6243896484375-1.687507629394531-6.436882019042969-3.536872863769531-.843734741210938-1.800003051757812-.499992370605469-5.250015258789062-.706253051757812-8.499374389648438-.531234741210938-8.311882019042969-.999984741210938-16.342506408691406-3.124351501464844-24.860630035400391-.987510681152344-3.824386596679688-2.706260681152344-7.186260223388672-3.90625-10.873756408691406-1.10626220703125-3.411865234375-3.043136596679688-7.624378204345703-3.549385070800781-11.036243438720703-.750007629394531-5.043754577636719,3.999366760253906-5.32501220703125,7.036857604980469-7.511882781982422,4.6868896484375-3.374996185302734,8.374404907226562-5.249366760253906,13.467521667480469-8.299369812011719,1.499977111816406-.906257629394531,6.049385070800781-3.125,6.561851501464844-4.249382019042969,1.025009155273438-2.087497711181641-1.762466430664062-5.031242370605469-2.5-6.668128967285156-1.187477111816406-2.587490081787109-1.793746948242188-4.787483215332031-1.962471008300781-7.343120574951172-4.268150329589844-.674991607666016-7.498779296875-3.212490081787109-9.454994201660156-6.074371337890625-3.231277465820312-4.737491607666016-5.474395751953125-13.498744964599609-2.675018310546875-20.166873931884766.218734741210938-.524997711181641,1.25-1.5625,1.474990844726562-2.362499237060547.3125-1.587505340576172-.5999755859375-3.700008392333984-.656242370605469-5.386867523193359-.293731689453125-8.668136596679688,1.468734741210938-16.123752593994141,7.299385070800781-18.748760223388672,2.374992370605469-9.373741149902344,10.842475891113281-12.561244964599609,18.829383850097656-17.260627746582031,2.987480163574219-1.749992370605469,6.274375915527344-2.875003814697266,9.67437744140625-4.124374389648438,12.186241149902344-4.487495422363281,30.896873474121094-3.643741607666016,41.014976501464844,4.011878967285156,4.286880493164062,3.249378204345703,11.148757934570312,10.092506408691406,13.598747253417969,15.061244964599609,6.480636596679688,13.092498779296875,6.018142700195312,34.978122711181641,1.487503051757812,50.907497406005859-.606231689453125,2.137508392333984-1.499977111816406,5.281257629394531-2.724990844726562,7.849388122558594-.862503051757812,1.793746948242188-3.530616760253906,5.374374389648438-3.206253051757812,6.968116760253906.331230163574219,1.637496948242188,6.09375,6.011867523193359,7.33062744140625,7.205619812011719,2.224998474121094,2.143764495849609,6.449356079101562,4.9993896484375,6.793136596679688,7.699375152587891.374984741210938,2.875003814697266-1.268157958984375,6.824378967285156-2.099380493164062,9.605636596679688l-8.624382019042969,26.122493743896484"/>
    <path class="cls-10" d="m500.030632019042969,255.199375152587891c.349998474121094-.46875,2.287483215332031-1.187496185302734,5,.125007629394531,0,0-3.206253051757812.537490844726562-2.937507629394531,5.874366760253906l-1.337509155273438-.268745422363281s-1.375007629394531-4.849376678466797-.712509155273438-5.736885070800781"/>
    <path class="cls-8" d="m523.460006713867188,301.145000457763672c0,.812492370605469-.656242370605469,1.468753814697266-1.468772888183594,1.468753814697266-.812492370605469,0-1.468734741210938-.656261444091797-1.468734741210938-1.468753814697266s.656242370605469-1.468124389648438,1.468734741210938-1.468124389648438c.812530517578125,0,1.468772888183594.655632019042969,1.468772888183594,1.468124389648438m1.462478637695312,6.874370574951172c0,.812511444091797-.656242370605469,1.468753814697266-1.468734741210938,1.468753814697266s-1.468734741210938-.656242370605469-1.468734741210938-1.468753814697266c0-.812492370605469.656242370605469-1.468124389648438,1.468734741210938-1.468124389648438s1.468734741210938.655632019042969,1.468734741210938,1.468124389648438"/>
  </g>
</svg>