<?xml version="1.0" encoding="UTF-8"?>
<svg id="Layer_1" data-name="Layer 1" xmlns="http://www.w3.org/2000/svg" viewBox="0 0 1000 562.5">
  <defs>
    <style>
      .cls-1 {
        fill: #fff;
      }

      .cls-1, .cls-2, .cls-3 {
        fill-rule: evenodd;
      }

      .cls-2 {
        fill: #326de6;
      }

      .cls-3 {
        fill: #9db8e9;
      }
    </style>
  </defs>
  <g id="Layer-1">
    <path class="cls-3" d="m0,0h1000v562.5H0V0Z"/>
    <g>
      <path class="cls-2" d="m463.855018615722656,375.713119506835938c-4.655647277832031,0-9.051895141601562-2.068138122558594-12.026252746582031-5.818748474121094l-45.260658264160156-56.253738403320312c-2.974967956542969-3.750629425048828-4.138107299804688-8.534374237060547-2.974967956542969-13.191261291503906l16.164970397949219-70.219364166259766c1.034393310546875-4.655628204345703,4.138145446777344-8.406257629394531,8.406257629394531-10.475006103515625l65.434989929199219-31.296253204345703c2.06939697265625-1.033115386962891,4.396896362304688-1.550617218017578,6.725006103515625-1.550617218017578,2.328147888183594,0,4.654998779296875.516242980957031,6.724395751953125,1.551876068115234l65.435600280761719,31.165618896484375c4.267501831054688,2.068748474121094,7.371253967285156,5.819377899169922,8.405647277832031,10.475006103515625l16.164360046386719,70.219993591308594c1.035003662109375,4.655628204345703,0,9.44000244140625-2.973747253417969,13.190631866455078l-45.261878967285156,56.253757476806641c-2.974357604980469,3.62060546875-7.371253967285156,5.819358825683594-12.026863098144531,5.819358825683594l-72.934989929199219.128746032714844h-.001869201660156Z"/>
      <path class="cls-1" d="m500.193748474121094,190.140628814697266c1.81060791015625,0,3.621253967285156.387496948242188,5.302505493164062,1.163749694824219l65.435638427734375,31.166248321533203c3.361854553222656,1.680622100830078,5.948104858398438,4.784374237060547,6.724357604980469,8.405628204345703l16.164360046386719,70.219993591308594c.905647277832031,3.750629425048828,0,7.6300048828125-2.456855773925781,10.604381561279297l-45.261268615722656,56.254386901855469c-2.328109741210938,2.973747253417969-5.949363708496094,4.654350280761719-9.698753356933594,4.654350280761719h-72.548713684082031c-3.75,0-7.370643615722656-1.68060302734375-9.698753356933594-4.654350280761719l-45.261268615722656-56.254386901855469c-2.328109741210938-2.974376678466797-3.233757019042969-6.853752136230469-2.456855773925781-10.604381561279297l16.164360046386719-70.219993591308594c.905609130859375-3.75,3.362503051757812-6.853752136230469,6.724357604980469-8.405628204345703l65.436897277832031-31.294994354248047c1.68060302734375-.646266937255859,3.62060546875-1.033763885498047,5.43060302734375-1.033763885498047l-.0006103515625-.001239776611328Zm0-6.078128814697266c-2.715606689453125,0-5.430641174316406.646877288818359-8.018112182617188,1.80999755859375l-65.435028076171875,31.296253204345703c-5.173110961914062,2.456874847412109-8.793716430664062,6.982498168945312-10.086860656738281,12.543754577636719l-16.165008544921875,70.219993591308594c-1.292495727539062,5.561256408691406,0,11.251258850097656,3.621253967285156,15.777492523193359l45.261268615722656,56.253776550292969c3.492469787597656,4.396247863769531,8.793754577636719,6.853103637695312,14.354972839355469,6.853103637695312h72.547531127929688c5.56060791015625,0,10.863113403320312-2.456855773925781,14.354362487792969-6.853103637695312l45.261878967285156-56.254386901855469c3.62060546875-4.396877288818359,4.914360046386719-10.215625762939453,3.62060546875-15.777511596679688l-16.164360046386719-70.219364166259766c-1.293144226074219-5.561256408691406-4.914360046386719-10.086879730224609-10.086860656738281-12.543754577636719l-65.176887512207031-31.296882629394531c-2.457504272460938-1.162490844726562-5.172500610351562-1.809368133544922-7.888755798339844-1.809368133544922Z"/>
      <path class="cls-1" d="m565.758743286132812,295.535621643066406q-.129356384277344,0,0,0h-.129356384277344c-.12939453125,0-.258140563964844,0-.258140563964844-.129375457763672-.258750915527344,0-.516853332519531-.129375457763672-.776252746582031-.129375457763672-.904998779296875-.128746032714844-1.681251525878906-.258121490478516-2.456855773925781-.258121490478516-.388145446777344,0-.776252746582031,0-1.293754577636719-.1300048828125h-.128746032714844c-2.715644836425781-.258121490478516-4.914398193359375-.516872406005859-6.983757019042969-1.163749694824219-.904998779296875-.388126373291016-1.163749694824219-.904998779296875-1.422500610351562-1.422500610351562,0-.129375457763672-.12939453125-.129375457763672-.12939453125-.258121490478516l-1.681251525878906-.516872406005859c.79437255859375-6.083755493164062.488128662109375-12.259998321533203-.904998779296875-18.234996795654297-1.411857604980469-6.024379730224609-3.862495422363281-11.756877899169922-7.241859436035156-16.940631866455078l1.293754577636719-1.163749694824219v-.258121490478516c0-.646877288818359.128746032714844-1.293754577636719.645637512207031-1.940631866455078,1.551856994628906-1.422500610351562,3.492469787597656-2.586250305175781,5.819969177246094-4.008750915527344.387496948242188-.258121490478516.775032043457031-.387496948242188,1.163749694824219-.646858215332031.775642395019531-.387516021728516,1.422500610351562-.775012969970703,2.198753356933594-1.292514801025391.128746032714844-.129375457763672.387496948242188-.258121490478516.646247863769531-.516872406005859.12939453125-.1300048828125.258750915527344-.1300048828125.258750915527344-.258750915527344,1.80999755859375-1.551876068115234,2.198753356933594-4.138126373291016.904998779296875-5.819988250732422-.646858215332031-.905628204345703-1.80999755859375-1.421890258789062-2.974357604980469-1.421890258789062-1.033744812011719,0-1.93939208984375.387516021728516-2.845001220703125,1.033763885498047l-.258140563964844.258750915527344c-.258102416992188.129375457763672-.388107299804688.388126373291016-.646858215332031.517501831054688-.646896362304688.646858215332031-1.164398193359375,1.163749694824219-1.681251525878906,1.80999755859375-.258140563964844.258750915527344-.516242980957031.646877288818359-.904998779296875.905609130859375-1.810646057128906,1.94000244140625-3.491897583007812,3.491878509521484-5.173110961914062,4.655628204345703-.387535095214844.258121490478516-.775032043457031.388126373291016-1.163139343261719.388126373291016-.258750915527344,0-.518112182617188,0-.776252746582031-.1300048828125h-.258140563964844l-1.553115844726562,1.035003662109375c-1.68060302734375-1.80999755859375-3.491249084472656-3.361873626708984-5.301246643066406-4.913749694824219-7.794990539550781-6.093120574951172-17.176246643066406-9.818744659423828-27.028121948242188-10.734367370605469l-.12939453125-1.680622100830078-.258102416992188-.258750915527344c-.388145446777344-.388126373291016-.904998779296875-.775623321533203-1.035003662109375-1.680622100830078-.12939453125-2.069377899169922.1300048828125-4.397506713867188.388107299804688-6.983757019042969v-.129375457763672c0-.388126373291016.12939453125-.904998779296875.258750915527344-1.293125152587891.1287841796875-.774993896484375.258140563964844-1.551876068115234.388145446777344-2.456874847412109v-1.163749694824219c0-2.328128814697266-1.811256408691406-4.267501831054688-4.008750915527344-4.267501831054688-1.035003662109375,0-2.06939697265625.516872406005859-2.845611572265625,1.293125152587891-.775032043457031.775623321533203-1.163139343261719,1.80999755859375-1.163139343261719,2.974376678466797v1.034374237060547c0,.904998779296875.128746032714844,1.681251525878906.387496948242188,2.456874847412109.128746032714844.388126373291016.128746032714844.776252746582031.258140563964844,1.293754577636719v.128746032714844c.258102416992188,2.586250305175781.646858215332031,4.914379119873047.388107299804688,6.983757019042969-.128746032714844.904998779296875-.646247863769531,1.292495727539062-1.033744812011719,1.681251525878906l-.258750915527344.258121490478516-.1300048828125,1.681251525878906c-2.327499389648438.258121490478516-4.655609130859375.516872406005859-6.983108520507812,1.034374237060547-9.957504272460938,2.198123931884766-18.751258850097656,7.242488861083984-25.605010986328125,14.483737945556641l-1.293144226074219-.905609130859375h-.258750915527344c-.258102416992188,0-.517463684082031.129356384277344-.775604248046875.129356384277344-.388145446777344,0-.776252746582031-.129356384277344-1.164360046386719-.387496948242188-1.681251525878906-1.163749694824219-3.361892700195312-2.845611572265625-5.172500610351562-4.784984588623047-.258140563964844-.258140563964844-.516891479492188-.646877288818359-.904998779296875-.905017852783203-.517501831054688-.646858215332031-1.035003662109375-1.164360046386719-1.681900024414062-1.80999755859375-.129356384277344-.129985809326172-.387496948242188-.258750915527344-.645599365234375-.518112182617188-.12939453125-.128765106201172-.258750915527344-.128765106201172-.258750915527344-.258140563964844-.801277160644531-.661869049072266-1.806259155273438-1.027488708496094-2.845649719238281-1.034984588623047-1.163749694824219,0-2.327499389648438.517501831054688-2.974357604980469,1.422500610351562-1.293144226074219,1.681251525878906-.904998779296875,4.267501831054688.904998779296875,5.819358825683594.129356384277344,0,.129356384277344.1300048828125.258750915527344.1300048828125.258102416992188.129375457763672.388107299804688.387496948242188.646858215332031.516872406005859.775642395019531.516262054443359,1.422500610351562.904998779296875,2.198143005371094,1.293125152587891.388755798339844.129375457763672.776252746582031.387516021728516,1.164360046386719.646877288818359,2.327499389648438,1.421871185302734,4.267501831054688,2.586250305175781,5.81939697265625,4.008750915527344.646858215332031.646247863769531.646858215332031,1.293125152587891.646858215332031,1.939373016357422v.258750915527344l1.292495727539062,1.164379119873047c-.258140563964844.387496948242188-.516891479492188.646247863769531-.646858215332031,1.034374237060547-6.465644836425781,10.216255187988281-8.922500610351562,22.243118286132812-7.241897583007812,34.140625l-1.68060302734375.516242980957031c0,.1300048828125-.12939453125.1300048828125-.12939453125.258750915527344-.258750915527344.517501831054688-.646858215332031,1.035003662109375-1.422500610351562,1.422500610351562-1.94000244140625.646877288818359-4.267501831054688.906257629394531-6.983108520507812,1.164379119873047h-.1300048828125c-.387496948242188,0-.904998779296875,0-1.292495727539062.129375457763672-.775642395019531,0-1.551895141601562.128746032714844-2.456893920898438.258121490478516-.258750915527344,0-.516853332519531.1300048828125-.776252746582031.1300048828125-.128746032714844,0-.258102416992188,0-.388107299804688.129375457763672-2.328147888183594.516872406005859-3.750648498535156,2.714996337890625-3.362503051757812,4.783744812011719.388755798339844,1.811256408691406,2.07000732421875,2.975635528564453,4.138107299804688,2.975635528564453.388755798339844,0,.646896362304688,0,1.035652160644531-.1300048828125.128746032714844,0,.258102416992188,0,.258102416992188-.129375457763672.258140563964844,0,.516891479492188-.129375457763672.774993896484375-.129375457763672.906257629394531-.258121490478516,1.553153991699219-.516242980957031,2.328758239746094-.904998779296875.387496948242188-.129375457763672.774993896484375-.388126373291016,1.163749694824219-.516872406005859h.128746032714844c2.457504272460938-.905628204345703,4.655647277832031-1.681880950927734,6.725006103515625-1.94000244140625h.258750915527344c.775642395019531,0,1.293144226074219.387496948242188,1.681251525878906.646877288818359.128746032714844,0,.128746032714844.128746032714844.258140563964844.128746032714844l1.811256408691406-.258121490478516c3.103713989257812,9.568748474121094,9.051856994628906,18.104381561279297,16.94061279296875,24.311866760253906,1.80999755859375,1.421890258789062,3.62060546875,2.586250305175781,5.56060791015625,3.750648498535156l-.775604248046875,1.67999267578125c0,.1300048828125.128746032714844.1300048828125.128746032714844.258750915527344.258750915527344.517501831054688.516853332519531,1.163749694824219.258750915527344,2.069358825683594-.775642395019531,1.94000244140625-1.93939208984375,3.87939453125-3.362503051757812,6.078147888183594v.129356384277344c-.258140563964844.388107299804688-.516891479492188.646247863769531-.774993896484375,1.034393310546875-.517501831054688.646247863769531-.905647277832031,1.293106079101562-1.423759460449219,2.069358825683594-.128746032714844.128746032714844-.258140563964844.387496948242188-.387496948242188.646247863769531,0,.12939453125-.128746032714844.258750915527344-.128746032714844.258750915527344-1.034393310546875,2.198753356933594-.258750915527344,4.655609130859375,1.68060302734375,5.56060791015625.516891479492188.258750915527344,1.034393310546875.388755798339844,1.551895141601562.388755798339844,1.551856994628906,0,3.103752136230469-1.035614013671875,3.8800048828125-2.458114624023438,0-.129356384277344.129356384277344-.258140563964844.129356384277344-.258140563964844.128746032714844-.258750915527344.258140563964844-.516853332519531.387496948242188-.646858215332031.388145446777344-.904998779296875.517501831054688-1.551856994628906.775642395019531-2.328109741210938l.388755798339844-1.163139343261719c.904998779296875-2.586250305175781,1.551856994628906-4.655609130859375,2.714996337890625-6.466255187988281.516853332519531-.775604248046875,1.164360046386719-.904998779296875,1.681251525878906-1.164360046386719q.129356384277344,0,.258102416992188-.128746032714844l.906257629394531-1.681251525878906c5.69000244140625,2.198753356933594,11.897506713867188,3.361854553222656,18.104362487792969,3.361854553222656,3.75,0,7.6300048828125-.387496948242188,11.251258850097656-1.292495727539062,2.27874755859375-.509376525878906,4.524383544921875-1.157493591308594,6.724395751953125-1.94000244140625l.774993896484375,1.422500610351562q.1300048828125,0,.259361267089844.12939453125c.646896362304688.128746032714844,1.163139343261719.388107299804688,1.681251525878906,1.164360046386719,1.033744812011719,1.80999755859375,1.80999755859375,4.008750915527344,2.714996337890625,6.465606689453125v.12939453125l.388755798339844,1.163139343261719c.258140563964844.776252746582031.387496948242188,1.551856994628906.774993896484375,2.328109741210938.1300048828125.258140563964844.258750915527344.388107299804688.388145446777344.646858215332031,0,.1287841796875.1300048828125.258140563964844.1300048828125.258140563964844.774993896484375,1.551856994628906,2.326850891113281,2.458114624023438,3.878746032714844,2.458114624023438.517501831054688,0,1.035614013671875-.1300048828125,1.551856994628906-.388755798339844.905647277832031-.516853332519531,1.681251525878906-1.293106079101562,1.940650939941406-2.327499389648438.258102416992188-1.034355163574219.258102416992188-2.198715209960938-.258750915527344-3.233108520507812,0-.129356384277344-.1300048828125-.129356384277344-.1300048828125-.258750915527344-.128746032714844-.258140563964844-.258140563964844-.516242980957031-.387496948242188-.646247863769531-.388145446777344-.776252746582031-.904998779296875-1.423110961914062-1.422500610351562-2.069358825683594-.258140563964844-.388145446777344-.516891479492188-.646286010742188-.775032043457031-1.033782958984375v-.129966735839844c-1.423721313476562-2.198753356933594-2.716865539550781-4.138145446777344-3.363113403320312-6.078147888183594-.258102416992188-.905609130859375,0-1.421852111816406.12939453125-2.068748474121094,0-.129356384277344.128746032714844-.129356384277344.128746032714844-.258750915527344l-.646247863769531-1.551856994628906c6.853752136230469-4.008750915527344,12.673110961914062-9.699382781982422,17.07061767578125-16.681880950927734,2.327499389648438-3.621253967285156,4.138107299804688-7.630634307861328,5.43060302734375-11.639385223388672l1.551895141601562.258750915527344c.1300048828125,0,.1300048828125-.129375457763672.258140563964844-.129375457763672.518112182617188-.258750915527344.906219482421875-.646247863769531,1.681861877441406-.646247863769531h.258750915527344c2.069358825683594.258750915527344,4.266853332519531,1.033744812011719,6.725006103515625,1.939373016357422h.129356384277344c.387496948242188.129375457763672.774993896484375.388126373291016,1.163139343261719.516872406005859.776252746582031.388755798339844,1.423110961914062.646877288818359,2.328109741210938.906257629394531.258140563964844,0,.516891479492188.128746032714844.775642395019531.128746032714844.129356384277344,0,.258750915527344,0,.387496948242188.129375457763672.388755798339844.129375457763672.646858215332031.129375457763672,1.035614013671875.129375457763672,1.93939208984375,0,3.6199951171875-1.293125152587891,4.138145446777344-2.973747253417969,0-1.551876068115234-1.423149108886719-3.621253967285156-3.750648498535156-4.267501831054688v-.000629425048828Zm-59.874992370605469-6.336879730224609l-5.69000244140625,2.716255187988281-5.69000244140625-2.716255187988281-1.421852111816406-6.077499389648438,3.878746032714844-4.913749694824219h6.336860656738281l3.879356384277344,4.913749694824219-1.292495727539062,6.077499389648438h-.0006103515625Zm33.753128051757812-13.448734283447266c1.00311279296875,4.276237487792969,1.308746337890625,8.686866760253906.904998779296875,13.06060791015625l-19.786262512207031-5.689373016357422c-1.80999755859375-.516872406005859-2.844352722167969-2.327499389648438-2.456855773925781-4.138126373291016.128746032714844-.517482757568359.388107299804688-1.034984588623047.775604248046875-1.422500610351562l15.648155212402344-14.096240997314453c2.198104858398438,3.621253967285156,3.878746032714844,7.759380340576172,4.914360046386719,12.285003662109375v.000629425048828Zm-11.121864318847656-20.044384002685547l-16.940650939941406,12.026882171630859c-1.422500610351562.904998779296875-3.363113403320312.645618438720703-4.526252746582031-.776252746582031-.388107299804688-.388126373291016-.516853332519531-.905628204345703-.646858215332031-1.422500610351562l-1.163749694824219-21.079368591308594c8.807487487792969,1.013736724853516,17.011871337890625,4.979991912841797,23.277511596679688,11.251239776611328Zm-37.502517700195312-10.605621337890625c1.422500610351562-.258121490478516,2.714996337890625-.516242980957031,4.138145446777344-.774993896484375l-1.163749694824219,20.69061279296875c-.12939453125,1.80999755859375-1.551895141601562,3.361873626708984-3.491897583007812,3.361873626708984-.516853332519531,0-1.163749694824219-.128746032714844-1.551856994628906-.387496948242188l-17.19940185546875-12.284374237060547c5.302505493164062-5.302505493164062,11.897506713867188-8.923740386962891,19.268760681152344-10.604381561279297v-.001239776611328Zm-25.476264953613281,18.363742828369141l15.388755798339844,13.707504272460938c1.422500610351562,1.164379119873047,1.551895141601562,3.362503051757812.388755798339844,4.785003662109375-.388755798339844.516872406005859-.905609130859375.904998779296875-1.551856994628906,1.035003662109375l-20.045013427734375,5.819358825683594c-.775604248046875-8.793735504150391,1.163749694824219-17.716865539550781,5.819358825683594-25.346870422363281Zm-3.491859436035156,35.045623779296875l20.562515258789062-3.491859436035156c1.681251525878906-.129375457763672,3.233108520507812,1.034984588623047,3.62060546875,2.715606689453125.12939453125.775642395019531.12939453125,1.423130035400391-.129356384277344,2.07000732421875l-7.888145446777344,19.008750915527344c-7.241859436035156-4.655628204345703-13.061256408691406-11.768131256103516-16.165008544921875-20.302505493164062h-.0006103515625Zm47.201881408691406,25.734367370605469c-2.974395751953125.646896362304688-5.948753356933594,1.034393310546875-9.052505493164062,1.034393310546875-4.525642395019531,0-8.923110961914062-.774993896484375-13.06060791015625-2.068748474121094l10.215606689453125-18.492507934570312c1.034393310546875-1.164379119873047,2.715644836425781-1.681251525878906,4.138145446777344-.904998779296875.603713989257812.370006561279297,1.131248474121094.852508544921875,1.551856994628906,1.421871185302734l9.957504272460938,17.975635528564453c-1.163749694824219.387496948242188-2.456893920898438.646858215332031-3.7506103515625,1.034355163574219h.0006103515625Zm25.216865539550781-17.974987030029297c-3.232498168945312,5.172500610351562-7.5006103515625,9.310626983642578-12.413749694824219,12.543754577636719l-8.147506713867188-19.528121948242188c-.388107299804688-1.551265716552734.258750915527344-3.231887817382812,1.810646057128906-4.008750915527344.516853332519531-.258121490478516,1.163101196289062-.387496948242188,1.80999755859375-.387496948242188l20.691261291503906,3.491859436035156c-.775642395019531,2.845001220703125-2.06939697265625,5.431880950927734-3.750648498535156,7.888755798339844Z"/>
    </g>
  </g>
</svg>