<?xml version="1.0" encoding="UTF-8"?>
<svg id="Layer_1" data-name="Layer 1" xmlns="http://www.w3.org/2000/svg" viewBox="0 0 1000 562.5">
  <defs>
    <style>
      .cls-1 {
        fill: #2eb67d;
      }

      .cls-1, .cls-2, .cls-3, .cls-4, .cls-5 {
        fill-rule: evenodd;
      }

      .cls-2 {
        fill: #e01e5a;
      }

      .cls-3 {
        fill: #ecb22e;
      }

      .cls-4 {
        fill: #611f69;
      }

      .cls-5 {
        fill: #36c5f0;
      }
    </style>
  </defs>
  <g id="Layer-1">
    <path class="cls-4" d="m0,0h1000v562.5H0V0Z"/>
    <g>
      <path class="cls-5" d="m473.328742980957031,181.25c-11.05560302734375.008125305175781-20.003128051757812,8.980007171630859-19.995002746582031,20.036258697509766-.008125305175781,11.055622100830078,8.947525024414062,20.027484893798828,20.003128051757812,20.035610198974609h20.003738403320312v-20.027484893798828c.008125305175781-11.056251525878906-8.947486877441406-20.028133392333984-20.011863708496094-20.044384002685547q.008125305175781,0,0,0m0,53.439998626708984h-53.325614929199219c-11.055641174316406.008125305175781-20.011253356933594,8.980617523193359-20.003128051757812,20.036258697509766-.016250610351562,11.055622100830078,8.939361572265625,20.027484893798828,19.995002746582031,20.043735504150391h53.333740234375c11.056251525878906-.008125305175781,20.011863708496094-8.979988098144531,20.003738403320312-20.035610198974609.008125305175781-11.063766479492188-8.947486877441406-20.036258697509766-20.003738403320312-20.044384002685547Z"/>
      <path class="cls-1" d="m600,254.72625732421875c.008125305175781-11.055641174316406-8.947486877441406-20.028133392333984-20.003128051757812-20.036258697509766-11.05560302734375.008125305175781-20.011863708496094,8.980617523193359-20.003128051757812,20.036258697509766v20.043735504150391h20.003128051757812c11.055641174316406-.008125305175781,20.011253356933594-8.979988098144531,20.003128051757812-20.043735504150391Zm-53.333740234375,0v-53.439998626708984c.008125305175781-11.048126220703125-8.939399719238281-20.020008087158203-19.995002746582031-20.036258697509766-11.056251525878906.008125305175781-20.011863708496094,8.980007171630859-20.003738403320312,20.036258697509766v53.439998626708984c-.016250610351562,11.055622100830078,8.939361572265625,20.027484893798828,19.995613098144531,20.043735504150391,11.05560302734375-.008125305175781,20.011253356933594-8.979988098144531,20.003128051757812-20.043735504150391Z"/>
      <path class="cls-3" d="m526.663131713867188,381.650619506835938c11.05560302734375-.008735656738281,20.011253356933594-8.980636596679688,20.003128051757812-20.036239624023438.008125305175781-11.055641174316406-8.947525024414062-20.027503967285156-20.003128051757812-20.035629272460938h-20.003738403320312v20.035629272460938c-.008125305175781,11.047477722167969,8.947486877441406,20.019378662109375,20.003738403320312,20.036239624023438Zm0-53.448753356933594h53.333740234375c11.055641174316406-.008125305175781,20.011253356933594-8.979988098144531,20.003128051757812-20.035610198974609.016250610351562-11.055622100830078-8.939361572265625-20.028133392333984-19.995002746582031-20.044384002685547h-53.333740234375c-11.056251525878906.008125305175781-20.011863708496094,8.980636596679688-20.003738403320312,20.036258697509766-.008125305175781,11.063747406005859,8.939361572265625,20.035610198974609,19.995613098144531,20.043735504150391Z"/>
      <path class="cls-2" d="m400,308.166255950927734c-.008125305175781,11.055622100830078,8.947486877441406,20.027484893798828,20.003128051757812,20.035610198974609,11.05560302734375-.008125305175781,20.011863708496094-8.979988098144531,20.003128051757812-20.035610198974609v-20.036258697509766h-20.003128051757812c-11.055641174316406.008125305175781-20.011253356933594,8.980636596679688-20.003128051757812,20.036258697509766Zm53.333740234375,0v53.439998626708984c-.016250610351562,11.05560302734375,8.939399719238281,20.027503967285156,19.995002746582031,20.044364929199219,11.056251525878906-.008735656738281,20.011863708496094-8.980636596679688,20.003738403320312-20.036239624023438v-53.431873321533203c.016250610351562-11.055622100830078-8.939361572265625-20.027503967285156-19.995613098144531-20.044384002685547-11.063728332519531,0-20.011253356933594,8.972511291503906-20.003128051757812,20.028133392333984,0,0,0,.008125305175781,0,0"/>
    </g>
  </g>
</svg>