<?xml version="1.0" encoding="UTF-8"?>
<svg id="Layer_1" data-name="Layer 1" xmlns="http://www.w3.org/2000/svg" viewBox="0 0 1000 562.5">
  <defs>
    <style>
      .cls-1 {
        fill: #fff;
      }

      .cls-1, .cls-2 {
        fill-rule: evenodd;
      }

      .cls-2 {
        fill: #ff4a00;
      }
    </style>
  </defs>
  <g id="Layer-1">
    <path class="cls-2" d="m0,0h1000v562.5H0V0Z"/>
    <path class="cls-1" d="m524.9993896484375,281.293754577636719c.003128051757812,7.211246490478516-1.297531127929688,14.363746643066406-3.84002685546875,21.112499237060547-6.750602722167969,2.541866302490234-13.904991149902344,3.845005035400391-21.118736267089844,3.846244812011719h-.084381103515625c-7.428131103515625-.009365081787109-14.545631408691406-1.36749267578125-21.112480163574219-3.843116760253906-2.543754577636719-6.749382019042969-3.846282958984375-13.903141021728516-3.843765258789062-21.115627288818359v-.087509155273438c-.003738403320312-7.209987640380859,1.296234130859375-14.361248016357422,3.835639953613281-21.109371185302734,6.750602722167969-2.546882629394531,13.90625-3.850002288818359,21.121253967285156-3.846874237060547h.084342956542969c7.214393615722656-.003757476806641,14.369392395019531,1.299381256103516,21.1187744140625,3.846244812011719,2.543106079101562,6.746883392333984,3.843727111816406,13.898754119873047,3.839988708496094,21.109371185302734v.087509155273438l-.0006103515625.000629425048828Zm73.611221313476562-16.709995269775391h-58.371849060058594l41.273117065429688-41.276264190673828c-3.239364624023438-4.550628662109375-6.853141784667969-8.822498321533203-10.803146362304688-12.772502899169922v-.003108978271484c-3.950614929199219-3.94500732421875-8.221855163574219-7.555637359619141-12.769966125488281-10.79376220703125l-41.275634765625,41.275634765625v-58.37188720703125c-5.489387512207031-.923118591308594-11.046257019042969-1.388740539550781-16.613121032714844-1.391868591308594h-.1031494140625c-5.662498474121094.003128051757812-11.208724975585938.484371185302734-16.613121032714844,1.391868591308594v58.37188720703125l-41.2762451171875-41.275634765625c-4.548759460449219,3.237495422363281-8.818130493164062,6.849994659423828-12.763137817382812,10.800628662109375l-.021858215332031.015621185302734c-3.943138122558594,3.94500732421875-7.5518798828125,8.210620880126953-10.788116455078125,12.753124237060547l41.278724670410156,41.276264190673828h-58.371238708496094s-1.391868591308594,10.963115692138672-1.391868591308594,16.631870269775391v.068740844726562c0,5.668754577636719.480613708496094,11.224384307861328,1.391868591308594,16.631870269775391h58.37188720703125l-41.278762817382812,41.275615692138672c6.493759155273438,9.112510681152344,14.460639953613281,17.079391479492188,23.573150634765625,23.573150634765625l41.275596618652344-41.279373168945312v58.374977111816406c5.483741760253906.919380187988281,11.033744812011719,1.383781433105469,16.593742370605469,1.389389038085938h.141258239746094c5.55999755859375-.004997253417969,11.110000610351562-.4693603515625,16.593742370605469-1.389389038085938v-58.374977111816406l41.280021667480469,41.279373168945312c4.546852111816406-3.239364624023438,8.816871643066406-6.850624084472656,12.766227722167969-10.796890258789062l.009384155273438-.009384155273438c3.94439697265625-3.949966430664062,7.555007934570312-8.219985961914062,10.79376220703125-12.766876220703125l-41.278762817382812-41.275615692138672h58.378143310546875c.908126831054688-5.398120880126953,1.382484436035156-10.9375,1.388740539550781-16.593742370605469v-.144996643066406c-.006256103515625-5.656242370605469-.480613708496094-11.195621490478516-1.389389038085938-16.593742370605469Z"/>
  </g>
</svg>